<?xml version="1.0" encoding="utf-8" standalone="no"?>
<!DOCTYPE svg PUBLIC "-//W3C//DTD SVG 1.1//EN"
  "http://www.w3.org/Graphics/SVG/1.1/DTD/svg11.dtd">
<svg xmlns:xlink="http://www.w3.org/1999/xlink" width="256.393281pt" height="171.558281pt" viewBox="0 0 256.393281 171.558281" xmlns="http://www.w3.org/2000/svg" version="1.1">
 <metadata>
  <rdf:RDF xmlns:dc="http://purl.org/dc/elements/1.1/" xmlns:cc="http://creativecommons.org/ns#" xmlns:rdf="http://www.w3.org/1999/02/22-rdf-syntax-ns#">
   <cc:Work>
    <dc:type rdf:resource="http://purl.org/dc/dcmitype/StillImage"/>
    <dc:date>2026-07-16T16:30:06.680306</dc:date>
    <dc:format>image/svg+xml</dc:format>
    <dc:creator>
     <cc:Agent>
      <dc:title>Matplotlib v3.7.2, https://matplotlib.org/</dc:title>
     </cc:Agent>
    </dc:creator>
   </cc:Work>
  </rdf:RDF>
 </metadata>
 <defs>
  <style type="text/css">*{stroke-linejoin: round; stroke-linecap: butt}</style>
 </defs>
 <g id="figure_1">
  <g id="patch_1">
   <path d="M -0 171.558281 
L 256.393281 171.558281 
L 256.393281 0 
L -0 0 
z
" style="fill: #ffffff"/>
  </g>
  <g id="axes_1">
   <g id="patch_2">
    <path d="M 38.233281 146.16 
L 254.233281 146.16 
L 254.233281 2.16 
L 38.233281 2.16 
z
" style="fill: #ffffff"/>
   </g>
   <g id="PolyCollection_1">
    <defs>
     <path id="mc06d78db54" d="M 48.051463 -92.758409 
L 48.051463 -79.147842 
L 48.708198 -82.758628 
L 49.364932 -86.301426 
L 50.021667 -89.767031 
L 50.678401 -93.146608 
L 51.335136 -96.431714 
L 51.99187 -99.614314 
L 52.648605 -102.686798 
L 53.30534 -105.641998 
L 53.962074 -108.473201 
L 54.618809 -111.17416 
L 55.275543 -113.739106 
L 55.932278 -116.162756 
L 56.589012 -118.440323 
L 57.245747 -120.56752 
L 57.902482 -122.540564 
L 58.559216 -124.356181 
L 59.215951 -126.011605 
L 59.872685 -127.504581 
L 60.52942 -128.833361 
L 61.186154 -129.9967 
L 61.842889 -130.993855 
L 62.499624 -131.824577 
L 63.156358 -132.489105 
L 63.813093 -132.988155 
L 64.469827 -133.322914 
L 65.126562 -133.495025 
L 65.783296 -133.506579 
L 66.440031 -133.3601 
L 67.096766 -133.05853 
L 67.7535 -132.605214 
L 68.410235 -132.003885 
L 69.066969 -131.258647 
L 69.723704 -130.373955 
L 70.380438 -129.354599 
L 71.037173 -128.205685 
L 71.693908 -126.93261 
L 72.350642 -125.54105 
L 73.007377 -124.036933 
L 73.664111 -122.426418 
L 74.320846 -120.715877 
L 74.97758 -118.911869 
L 75.634315 -117.021123 
L 76.29105 -115.050509 
L 76.947784 -113.007021 
L 77.604519 -110.897756 
L 78.261253 -108.729884 
L 78.917988 -106.510634 
L 79.574722 -104.24727 
L 80.231457 -101.947065 
L 80.888192 -99.617287 
L 81.544926 -97.265171 
L 82.201661 -94.897903 
L 82.858395 -92.522599 
L 83.51513 -90.146284 
L 84.171864 -87.775875 
L 84.828599 -85.418162 
L 85.485334 -83.079787 
L 86.142068 -80.767234 
L 86.798803 -78.486807 
L 87.455537 -76.244616 
L 88.112272 -74.046564 
L 88.769006 -71.898329 
L 89.425741 -69.805357 
L 90.082476 -67.772846 
L 90.73921 -65.805734 
L 91.395945 -63.908693 
L 92.052679 -62.086115 
L 92.709414 -60.342106 
L 93.366148 -58.680481 
L 94.022883 -57.104751 
L 94.679618 -55.618126 
L 95.336352 -54.223502 
L 95.993087 -52.923464 
L 96.649821 -51.720281 
L 97.306556 -50.615905 
L 97.96329 -49.611969 
L 98.620025 -48.709789 
L 99.27676 -47.910363 
L 99.933494 -47.214378 
L 100.590229 -46.622206 
L 101.246963 -46.133914 
L 101.903698 -45.749266 
L 102.560432 -45.467728 
L 103.217167 -45.288475 
L 103.873901 -45.210399 
L 104.530636 -45.232116 
L 105.187371 -45.351973 
L 105.844105 -45.568059 
L 106.50084 -45.878214 
L 107.157574 -46.28004 
L 107.814309 -46.77091 
L 108.471043 -47.347981 
L 109.127778 -48.008203 
L 109.784513 -48.748335 
L 110.441247 -49.564956 
L 111.097982 -50.454477 
L 111.754716 -51.413152 
L 112.411451 -52.437098 
L 113.068185 -53.522301 
L 113.72492 -54.664634 
L 114.381655 -55.859871 
L 115.038389 -57.103698 
L 115.695124 -58.391729 
L 116.351858 -59.71952 
L 117.008593 -61.082583 
L 117.665327 -62.476398 
L 118.322062 -63.896426 
L 118.978797 -65.338128 
L 119.635531 -66.796972 
L 120.292266 -68.268448 
L 120.949 -69.748082 
L 121.605735 -71.231449 
L 122.262469 -72.71418 
L 122.919204 -74.19198 
L 123.575939 -75.660637 
L 124.232673 -77.116032 
L 124.889408 -78.554149 
L 125.546142 -79.971087 
L 126.202877 -81.36307 
L 126.859611 -82.726452 
L 127.516346 -84.05773 
L 128.173081 -85.353549 
L 128.829815 -86.610712 
L 129.48655 -87.826183 
L 130.143284 -88.997097 
L 130.800019 -90.120762 
L 131.456753 -91.194669 
L 132.113488 -92.216492 
L 132.770223 -93.184093 
L 133.426957 -94.095525 
L 134.083692 -94.949036 
L 134.740426 -95.743071 
L 135.397161 -96.47627 
L 136.053895 -97.147474 
L 136.71063 -97.75572 
L 137.367365 -98.300246 
L 138.024099 -98.780484 
L 138.680834 -99.196064 
L 139.337568 -99.546809 
L 139.994303 -99.832733 
L 140.651037 -100.054037 
L 141.307772 -100.211109 
L 141.964507 -100.304515 
L 142.621241 -100.334998 
L 143.277976 -100.303471 
L 143.93471 -100.211013 
L 144.591445 -100.058863 
L 145.248179 -99.848415 
L 145.904914 -99.581206 
L 146.561649 -99.258917 
L 147.218383 -98.883362 
L 147.875118 -98.456478 
L 148.531852 -97.980324 
L 149.188587 -97.457065 
L 149.845321 -96.888973 
L 150.502056 -96.27841 
L 151.158791 -95.627826 
L 151.815525 -94.939747 
L 152.47226 -94.216769 
L 153.128994 -93.461547 
L 153.785729 -92.676788 
L 154.442463 -91.865239 
L 155.099198 -91.029686 
L 155.755933 -90.172936 
L 156.412667 -89.297815 
L 157.069402 -88.407157 
L 157.726136 -87.503795 
L 158.382871 -86.590554 
L 159.039605 -85.670246 
L 159.69634 -84.745653 
L 160.353075 -83.819529 
L 161.009809 -82.894589 
L 161.666544 -81.973498 
L 162.323278 -81.058871 
L 162.980013 -80.153261 
L 163.636747 -79.259153 
L 164.293482 -78.37896 
L 164.950216 -77.515018 
L 165.606951 -76.669576 
L 166.263686 -75.844794 
L 166.92042 -75.042739 
L 167.577155 -74.265377 
L 168.233889 -73.514573 
L 168.890624 -72.792084 
L 169.547358 -72.099557 
L 170.204093 -71.438526 
L 170.860828 -70.810409 
L 171.517562 -70.216505 
L 172.174297 -69.657995 
L 172.831031 -69.135936 
L 173.487766 -68.651264 
L 174.1445 -68.204791 
L 174.801235 -67.797205 
L 175.45797 -67.429071 
L 176.114704 -67.100829 
L 176.771439 -66.812797 
L 177.428173 -66.565171 
L 178.084908 -66.358027 
L 178.741642 -66.191321 
L 179.398377 -66.064894 
L 180.055112 -65.978471 
L 180.711846 -65.931667 
L 181.368581 -65.923985 
L 182.025315 -65.954826 
L 182.68205 -66.023486 
L 183.338784 -66.129164 
L 183.995519 -66.270963 
L 184.652254 -66.447896 
L 185.308988 -66.65889 
L 185.965723 -66.90279 
L 186.622457 -67.178364 
L 187.279192 -67.484307 
L 187.935926 -67.819246 
L 188.592661 -68.181748 
L 189.249396 -68.570321 
L 189.90613 -68.983421 
L 190.562865 -69.419459 
L 191.219599 -69.876802 
L 191.876334 -70.353783 
L 192.533068 -70.848705 
L 193.189803 -71.359845 
L 193.846538 -71.885459 
L 194.503272 -72.423792 
L 195.160007 -72.973077 
L 195.816741 -73.531546 
L 196.473476 -74.097429 
L 197.13021 -74.668966 
L 197.786945 -75.244407 
L 198.44368 -75.822019 
L 199.100414 -76.40009 
L 199.757149 -76.976935 
L 200.413883 -77.550896 
L 201.070618 -78.120355 
L 201.727352 -78.683728 
L 202.384087 -79.239477 
L 203.040822 -79.786109 
L 203.697556 -80.322183 
L 204.354291 -80.84631 
L 205.011025 -81.357157 
L 205.66776 -81.853454 
L 206.324494 -82.33399 
L 206.981229 -82.797621 
L 207.637964 -83.243271 
L 208.294698 -83.669931 
L 208.951433 -84.076665 
L 209.608167 -84.462608 
L 210.264902 -84.826973 
L 210.921636 -85.169043 
L 211.578371 -85.488181 
L 212.235106 -85.783826 
L 212.89184 -86.055492 
L 213.548575 -86.302773 
L 214.205309 -86.525339 
L 214.862044 -86.722938 
L 215.518778 -86.895393 
L 216.175513 -87.042604 
L 216.832248 -87.164545 
L 217.488982 -87.261265 
L 218.145717 -87.332885 
L 218.802451 -87.379596 
L 219.459186 -87.401659 
L 220.11592 -87.399403 
L 220.772655 -87.373222 
L 221.429389 -87.323573 
L 222.086124 -87.250973 
L 222.742859 -87.155999 
L 223.399593 -87.039283 
L 224.056328 -86.90151 
L 224.713062 -86.743416 
L 225.369797 -86.565783 
L 226.026531 -86.369439 
L 226.683266 -86.155251 
L 227.340001 -85.924126 
L 227.996735 -85.677004 
L 228.65347 -85.414857 
L 229.310204 -85.138688 
L 229.966939 -84.849519 
L 230.623673 -84.5484 
L 231.280408 -84.236393 
L 231.937143 -83.914578 
L 232.593877 -83.584047 
L 233.250612 -83.245898 
L 233.907346 -82.901233 
L 234.564081 -82.551158 
L 235.220815 -82.196776 
L 235.87755 -81.839183 
L 236.534285 -81.47947 
L 237.191019 -81.118715 
L 237.847754 -80.757982 
L 238.504488 -80.398318 
L 239.161223 -80.040751 
L 239.817957 -79.686285 
L 240.474692 -79.335901 
L 241.131427 -78.990551 
L 241.788161 -78.651157 
L 242.444896 -78.31861 
L 243.10163 -77.993768 
L 243.758365 -77.677449 
L 244.415099 -77.370438 
L 244.415099 -90.981005 
L 244.415099 -90.981005 
L 243.758365 -91.288016 
L 243.10163 -91.604334 
L 242.444896 -91.929177 
L 241.788161 -92.261723 
L 241.131427 -92.601117 
L 240.474692 -92.946468 
L 239.817957 -93.296852 
L 239.161223 -93.651318 
L 238.504488 -94.008885 
L 237.847754 -94.368549 
L 237.191019 -94.729282 
L 236.534285 -95.090037 
L 235.87755 -95.44975 
L 235.220815 -95.807342 
L 234.564081 -96.161725 
L 233.907346 -96.5118 
L 233.250612 -96.856464 
L 232.593877 -97.194614 
L 231.937143 -97.525145 
L 231.280408 -97.846959 
L 230.623673 -98.158966 
L 229.966939 -98.460086 
L 229.310204 -98.749254 
L 228.65347 -99.025424 
L 227.996735 -99.28757 
L 227.340001 -99.534692 
L 226.683266 -99.765818 
L 226.026531 -99.980006 
L 225.369797 -100.17635 
L 224.713062 -100.353983 
L 224.056328 -100.512077 
L 223.399593 -100.649849 
L 222.742859 -100.766565 
L 222.086124 -100.861539 
L 221.429389 -100.934139 
L 220.772655 -100.983789 
L 220.11592 -101.00997 
L 219.459186 -101.012226 
L 218.802451 -100.990162 
L 218.145717 -100.943451 
L 217.488982 -100.871832 
L 216.832248 -100.775112 
L 216.175513 -100.65317 
L 215.518778 -100.505959 
L 214.862044 -100.333504 
L 214.205309 -100.135906 
L 213.548575 -99.91334 
L 212.89184 -99.666058 
L 212.235106 -99.394392 
L 211.578371 -99.098748 
L 210.921636 -98.77961 
L 210.264902 -98.437539 
L 209.608167 -98.073175 
L 208.951433 -97.687231 
L 208.294698 -97.280497 
L 207.637964 -96.853838 
L 206.981229 -96.408188 
L 206.324494 -95.944557 
L 205.66776 -95.46402 
L 205.011025 -94.967724 
L 204.354291 -94.456876 
L 203.697556 -93.93275 
L 203.040822 -93.396676 
L 202.384087 -92.850044 
L 201.727352 -92.294294 
L 201.070618 -91.730921 
L 200.413883 -91.161463 
L 199.757149 -90.587501 
L 199.100414 -90.010657 
L 198.44368 -89.432586 
L 197.786945 -88.854974 
L 197.13021 -88.279533 
L 196.473476 -87.707996 
L 195.816741 -87.142112 
L 195.160007 -86.583644 
L 194.503272 -86.034359 
L 193.846538 -85.496026 
L 193.189803 -84.970411 
L 192.533068 -84.459272 
L 191.876334 -83.96435 
L 191.219599 -83.487368 
L 190.562865 -83.030025 
L 189.90613 -82.593988 
L 189.249396 -82.180888 
L 188.592661 -81.792315 
L 187.935926 -81.429813 
L 187.279192 -81.094873 
L 186.622457 -80.788931 
L 185.965723 -80.513357 
L 185.308988 -80.269457 
L 184.652254 -80.058463 
L 183.995519 -79.881529 
L 183.338784 -79.73973 
L 182.68205 -79.634052 
L 182.025315 -79.565392 
L 181.368581 -79.534552 
L 180.711846 -79.542233 
L 180.055112 -79.589038 
L 179.398377 -79.675461 
L 178.741642 -79.801888 
L 178.084908 -79.968594 
L 177.428173 -80.175738 
L 176.771439 -80.423364 
L 176.114704 -80.711396 
L 175.45797 -81.039638 
L 174.801235 -81.407772 
L 174.1445 -81.815358 
L 173.487766 -82.261831 
L 172.831031 -82.746502 
L 172.174297 -83.268561 
L 171.517562 -83.827072 
L 170.860828 -84.420975 
L 170.204093 -85.049093 
L 169.547358 -85.710124 
L 168.890624 -86.402651 
L 168.233889 -87.12514 
L 167.577155 -87.875944 
L 166.92042 -88.653305 
L 166.263686 -89.455361 
L 165.606951 -90.280142 
L 164.950216 -91.125585 
L 164.293482 -91.989527 
L 163.636747 -92.869719 
L 162.980013 -93.763827 
L 162.323278 -94.669438 
L 161.666544 -95.584065 
L 161.009809 -96.505155 
L 160.353075 -97.430096 
L 159.69634 -98.356219 
L 159.039605 -99.280812 
L 158.382871 -100.201121 
L 157.726136 -101.114361 
L 157.069402 -102.017723 
L 156.412667 -102.908382 
L 155.755933 -103.783503 
L 155.099198 -104.640253 
L 154.442463 -105.475806 
L 153.785729 -106.287354 
L 153.128994 -107.072114 
L 152.47226 -107.827336 
L 151.815525 -108.550314 
L 151.158791 -109.238393 
L 150.502056 -109.888977 
L 149.845321 -110.499539 
L 149.188587 -111.067632 
L 148.531852 -111.59089 
L 147.875118 -112.067045 
L 147.218383 -112.493928 
L 146.561649 -112.869484 
L 145.904914 -113.191773 
L 145.248179 -113.458981 
L 144.591445 -113.66943 
L 143.93471 -113.821579 
L 143.277976 -113.914037 
L 142.621241 -113.945564 
L 141.964507 -113.915082 
L 141.307772 -113.821676 
L 140.651037 -113.664604 
L 139.994303 -113.443299 
L 139.337568 -113.157376 
L 138.680834 -112.806631 
L 138.024099 -112.391051 
L 137.367365 -111.910813 
L 136.71063 -111.366287 
L 136.053895 -110.75804 
L 135.397161 -110.086837 
L 134.740426 -109.353637 
L 134.083692 -108.559603 
L 133.426957 -107.706091 
L 132.770223 -106.794659 
L 132.113488 -105.827059 
L 131.456753 -104.805236 
L 130.800019 -103.731329 
L 130.143284 -102.607663 
L 129.48655 -101.43675 
L 128.829815 -100.221279 
L 128.173081 -98.964116 
L 127.516346 -97.668297 
L 126.859611 -96.337018 
L 126.202877 -94.973636 
L 125.546142 -93.581654 
L 124.889408 -92.164715 
L 124.232673 -90.726598 
L 123.575939 -89.271204 
L 122.919204 -87.802547 
L 122.262469 -86.324746 
L 121.605735 -84.842015 
L 120.949 -83.358649 
L 120.292266 -81.879015 
L 119.635531 -80.407538 
L 118.978797 -78.948695 
L 118.322062 -77.506993 
L 117.665327 -76.086964 
L 117.008593 -74.69315 
L 116.351858 -73.330087 
L 115.695124 -72.002295 
L 115.038389 -70.714264 
L 114.381655 -69.470437 
L 113.72492 -68.275201 
L 113.068185 -67.132867 
L 112.411451 -66.047665 
L 111.754716 -65.023719 
L 111.097982 -64.065043 
L 110.441247 -63.175523 
L 109.784513 -62.358902 
L 109.127778 -61.618769 
L 108.471043 -60.958547 
L 107.814309 -60.381477 
L 107.157574 -59.890607 
L 106.50084 -59.488781 
L 105.844105 -59.178625 
L 105.187371 -58.962539 
L 104.530636 -58.842682 
L 103.873901 -58.820966 
L 103.217167 -58.899041 
L 102.560432 -59.078294 
L 101.903698 -59.359832 
L 101.246963 -59.744481 
L 100.590229 -60.232773 
L 99.933494 -60.824944 
L 99.27676 -61.52093 
L 98.620025 -62.320355 
L 97.96329 -63.222536 
L 97.306556 -64.226472 
L 96.649821 -65.330848 
L 95.993087 -66.534031 
L 95.336352 -67.834068 
L 94.679618 -69.228692 
L 94.022883 -70.715318 
L 93.366148 -72.291047 
L 92.709414 -73.952673 
L 92.052679 -75.696681 
L 91.395945 -77.519259 
L 90.73921 -79.416301 
L 90.082476 -81.383412 
L 89.425741 -83.415924 
L 88.769006 -85.508896 
L 88.112272 -87.65713 
L 87.455537 -89.855183 
L 86.798803 -92.097374 
L 86.142068 -94.377801 
L 85.485334 -96.690354 
L 84.828599 -99.028728 
L 84.171864 -101.386442 
L 83.51513 -103.756851 
L 82.858395 -106.133165 
L 82.201661 -108.508469 
L 81.544926 -110.875737 
L 80.888192 -113.227853 
L 80.231457 -115.557632 
L 79.574722 -117.857836 
L 78.917988 -120.121201 
L 78.261253 -122.34045 
L 77.604519 -124.508322 
L 76.947784 -126.617588 
L 76.29105 -128.661075 
L 75.634315 -130.631689 
L 74.97758 -132.522436 
L 74.320846 -134.326443 
L 73.664111 -136.036985 
L 73.007377 -137.6475 
L 72.350642 -139.151617 
L 71.693908 -140.543177 
L 71.037173 -141.816251 
L 70.380438 -142.965166 
L 69.723704 -143.984521 
L 69.066969 -144.869213 
L 68.410235 -145.614452 
L 67.7535 -146.21578 
L 67.096766 -146.669097 
L 66.440031 -146.970667 
L 65.783296 -147.117146 
L 65.126562 -147.105591 
L 64.469827 -146.93348 
L 63.813093 -146.598722 
L 63.156358 -146.099672 
L 62.499624 -145.435144 
L 61.842889 -144.604422 
L 61.186154 -143.607266 
L 60.52942 -142.443927 
L 59.872685 -141.115148 
L 59.215951 -139.622172 
L 58.559216 -137.966747 
L 57.902482 -136.15113 
L 57.245747 -134.178086 
L 56.589012 -132.05089 
L 55.932278 -129.773322 
L 55.275543 -127.349672 
L 54.618809 -124.784727 
L 53.962074 -122.083768 
L 53.30534 -119.252565 
L 52.648605 -116.297364 
L 51.99187 -113.22488 
L 51.335136 -110.04228 
L 50.678401 -106.757174 
L 50.021667 -103.377597 
L 49.364932 -99.911993 
L 48.708198 -96.369195 
L 48.051463 -92.758409 
z
"/>
    </defs>
    <g clip-path="url(#p8a14875c89)">
     <use xlink:href="#mc06d78db54" x="0" y="171.558281" style="fill: #2a2f80; fill-opacity: 0.16"/>
    </g>
   </g>
   <g id="PolyCollection_2">
    <defs>
     <path id="m2ba03a7b07" d="M 48.051463 -162.852827 
L 48.051463 -145.15909 
L 48.708198 -144.741393 
L 49.364932 -144.217871 
L 50.021667 -143.590504 
L 50.678401 -142.86142 
L 51.335136 -142.03289 
L 51.99187 -141.107325 
L 52.648605 -140.087265 
L 53.30534 -138.975381 
L 53.962074 -137.774463 
L 54.618809 -136.487415 
L 55.275543 -135.117254 
L 55.932278 -133.667098 
L 56.589012 -132.140163 
L 57.245747 -130.539756 
L 57.902482 -128.869268 
L 58.559216 -127.132169 
L 59.215951 -125.332 
L 59.872685 -123.472368 
L 60.52942 -121.556937 
L 61.186154 -119.589424 
L 61.842889 -117.573592 
L 62.499624 -115.513241 
L 63.156358 -113.412205 
L 63.813093 -111.274342 
L 64.469827 -109.10353 
L 65.126562 -106.903659 
L 65.783296 -104.678624 
L 66.440031 -102.432322 
L 67.096766 -100.168641 
L 67.7535 -97.891457 
L 68.410235 -95.604626 
L 69.066969 -93.311979 
L 69.723704 -91.017317 
L 70.380438 -88.724401 
L 71.037173 -86.436952 
L 71.693908 -84.158641 
L 72.350642 -81.893085 
L 73.007377 -79.643842 
L 73.664111 -77.414406 
L 74.320846 -75.2082 
L 74.97758 -73.028574 
L 75.634315 -70.8788 
L 76.29105 -68.762063 
L 76.947784 -66.681464 
L 77.604519 -64.64001 
L 78.261253 -62.640613 
L 78.917988 -60.686084 
L 79.574722 -58.779134 
L 80.231457 -56.922363 
L 80.888192 -55.118266 
L 81.544926 -53.369224 
L 82.201661 -51.677501 
L 82.858395 -50.045245 
L 83.51513 -48.474486 
L 84.171864 -46.967129 
L 84.828599 -45.524956 
L 85.485334 -44.149626 
L 86.142068 -42.842669 
L 86.798803 -41.605487 
L 87.455537 -40.439356 
L 88.112272 -39.34542 
L 88.769006 -38.324694 
L 89.425741 -37.378064 
L 90.082476 -36.506283 
L 90.73921 -35.709976 
L 91.395945 -34.989638 
L 92.052679 -34.345635 
L 92.709414 -33.778204 
L 93.366148 -33.287455 
L 94.022883 -32.873373 
L 94.679618 -32.535815 
L 95.336352 -32.274517 
L 95.993087 -32.089095 
L 96.649821 -31.979042 
L 97.306556 -31.943736 
L 97.96329 -31.982438 
L 98.620025 -32.094297 
L 99.27676 -32.278353 
L 99.933494 -32.533537 
L 100.590229 -32.858675 
L 101.246963 -33.252493 
L 101.903698 -33.713617 
L 102.560432 -34.240579 
L 103.217167 -34.83182 
L 103.873901 -35.485691 
L 104.530636 -36.200458 
L 105.187371 -36.97431 
L 105.844105 -37.805354 
L 106.50084 -38.691627 
L 107.157574 -39.631097 
L 107.814309 -40.621665 
L 108.471043 -41.661172 
L 109.127778 -42.747402 
L 109.784513 -43.878088 
L 110.441247 -45.050913 
L 111.097982 -46.263515 
L 111.754716 -47.513494 
L 112.411451 -48.798414 
L 113.068185 -50.11581 
L 113.72492 -51.463186 
L 114.381655 -52.838027 
L 115.038389 -54.237799 
L 115.695124 -55.659955 
L 116.351858 -57.101938 
L 117.008593 -58.561185 
L 117.665327 -60.035134 
L 118.322062 -61.521225 
L 118.978797 -63.016905 
L 119.635531 -64.519635 
L 120.292266 -66.026889 
L 120.949 -67.536162 
L 121.605735 -69.044971 
L 122.262469 -70.550861 
L 122.919204 -72.051408 
L 123.575939 -73.544224 
L 124.232673 -75.026955 
L 124.889408 -76.497292 
L 125.546142 -77.95297 
L 126.202877 -79.391772 
L 126.859611 -80.81153 
L 127.516346 -82.210134 
L 128.173081 -83.585528 
L 128.829815 -84.935717 
L 129.48655 -86.258768 
L 130.143284 -87.552812 
L 130.800019 -88.816049 
L 131.456753 -90.046747 
L 132.113488 -91.243245 
L 132.770223 -92.403958 
L 133.426957 -93.527374 
L 134.083692 -94.612057 
L 134.740426 -95.656653 
L 135.397161 -96.659884 
L 136.053895 -97.620555 
L 136.71063 -98.537553 
L 137.367365 -99.409848 
L 138.024099 -100.236494 
L 138.680834 -101.016629 
L 139.337568 -101.749476 
L 139.994303 -102.434343 
L 140.651037 -103.070625 
L 141.307772 -103.657801 
L 141.964507 -104.195437 
L 142.621241 -104.683185 
L 143.277976 -105.120778 
L 143.93471 -105.508039 
L 144.591445 -105.844871 
L 145.248179 -106.131263 
L 145.904914 -106.367283 
L 146.561649 -106.553085 
L 147.218383 -106.688898 
L 147.875118 -106.775034 
L 148.531852 -106.811882 
L 149.188587 -106.799906 
L 149.845321 -106.739645 
L 150.502056 -106.631711 
L 151.158791 -106.476788 
L 151.815525 -106.275629 
L 152.47226 -106.029054 
L 153.128994 -105.737949 
L 153.785729 -105.403261 
L 154.442463 -105.026001 
L 155.099198 -104.607237 
L 155.755933 -104.148094 
L 156.412667 -103.649749 
L 157.069402 -103.113433 
L 157.726136 -102.540425 
L 158.382871 -101.932048 
L 159.039605 -101.289673 
L 159.69634 -100.614707 
L 160.353075 -99.908598 
L 161.009809 -99.172829 
L 161.666544 -98.408916 
L 162.323278 -97.618403 
L 162.980013 -96.802862 
L 163.636747 -95.96389 
L 164.293482 -95.103104 
L 164.950216 -94.222139 
L 165.606951 -93.322647 
L 166.263686 -92.406291 
L 166.92042 -91.474744 
L 167.577155 -90.529688 
L 168.233889 -89.572807 
L 168.890624 -88.605787 
L 169.547358 -87.630313 
L 170.204093 -86.648064 
L 170.860828 -85.660714 
L 171.517562 -84.669929 
L 172.174297 -83.677358 
L 172.831031 -82.68464 
L 173.487766 -81.693396 
L 174.1445 -80.705224 
L 174.801235 -79.721704 
L 175.45797 -78.744389 
L 176.114704 -77.774808 
L 176.771439 -76.814458 
L 177.428173 -75.864807 
L 178.084908 -74.927289 
L 178.741642 -74.003305 
L 179.398377 -73.094215 
L 180.055112 -72.201344 
L 180.711846 -71.325974 
L 181.368581 -70.469347 
L 182.025315 -69.632661 
L 182.68205 -68.817065 
L 183.338784 -68.023667 
L 183.995519 -67.253523 
L 184.652254 -66.507641 
L 185.308988 -65.786979 
L 185.965723 -65.092443 
L 186.622457 -64.424888 
L 187.279192 -63.785115 
L 187.935926 -63.173872 
L 188.592661 -62.59185 
L 189.249396 -62.039688 
L 189.90613 -61.517969 
L 190.562865 -61.027219 
L 191.219599 -60.567907 
L 191.876334 -60.14045 
L 192.533068 -59.745203 
L 193.189803 -59.38247 
L 193.846538 -59.052494 
L 194.503272 -58.755466 
L 195.160007 -58.491519 
L 195.816741 -58.260731 
L 196.473476 -58.063125 
L 197.13021 -57.898671 
L 197.786945 -57.767283 
L 198.44368 -57.668824 
L 199.100414 -57.603104 
L 199.757149 -57.569881 
L 200.413883 -57.568863 
L 201.070618 -57.599711 
L 201.727352 -57.662033 
L 202.384087 -57.755393 
L 203.040822 -57.879309 
L 203.697556 -58.033253 
L 204.354291 -58.216655 
L 205.011025 -58.428902 
L 205.66776 -58.669341 
L 206.324494 -58.93728 
L 206.981229 -59.231989 
L 207.637964 -59.552703 
L 208.294698 -59.898622 
L 208.951433 -60.268913 
L 209.608167 -60.662715 
L 210.264902 -61.079133 
L 210.921636 -61.517249 
L 211.578371 -61.976118 
L 212.235106 -62.45477 
L 212.89184 -62.952214 
L 213.548575 -63.467439 
L 214.205309 -63.999416 
L 214.862044 -64.5471 
L 215.518778 -65.109429 
L 216.175513 -65.685332 
L 216.832248 -66.273725 
L 217.488982 -66.873515 
L 218.145717 -67.483604 
L 218.802451 -68.102887 
L 219.459186 -68.730257 
L 220.11592 -69.364604 
L 220.772655 -70.00482 
L 221.429389 -70.649799 
L 222.086124 -71.298439 
L 222.742859 -71.949643 
L 223.399593 -72.602322 
L 224.056328 -73.255396 
L 224.713062 -73.907796 
L 225.369797 -74.558467 
L 226.026531 -75.206364 
L 226.683266 -75.850462 
L 227.340001 -76.489751 
L 227.996735 -77.123239 
L 228.65347 -77.749957 
L 229.310204 -78.368953 
L 229.966939 -78.979301 
L 230.623673 -79.580098 
L 231.280408 -80.170466 
L 231.937143 -80.749553 
L 232.593877 -81.316536 
L 233.250612 -81.870619 
L 233.907346 -82.411036 
L 234.564081 -82.937051 
L 235.220815 -83.44796 
L 235.87755 -83.943091 
L 236.534285 -84.421804 
L 237.191019 -84.883494 
L 237.847754 -85.327589 
L 238.504488 -85.753553 
L 239.161223 -86.160884 
L 239.817957 -86.549116 
L 240.474692 -86.917819 
L 241.131427 -87.266601 
L 241.788161 -87.595105 
L 242.444896 -87.903011 
L 243.10163 -88.190036 
L 243.758365 -88.455935 
L 244.415099 -88.700498 
L 244.415099 -106.394235 
L 244.415099 -106.394235 
L 243.758365 -106.149671 
L 243.10163 -105.883772 
L 242.444896 -105.596747 
L 241.788161 -105.288841 
L 241.131427 -104.960338 
L 240.474692 -104.611556 
L 239.817957 -104.242852 
L 239.161223 -103.85462 
L 238.504488 -103.447289 
L 237.847754 -103.021326 
L 237.191019 -102.57723 
L 236.534285 -102.11554 
L 235.87755 -101.636827 
L 235.220815 -101.141697 
L 234.564081 -100.630788 
L 233.907346 -100.104773 
L 233.250612 -99.564356 
L 232.593877 -99.010273 
L 231.937143 -98.44329 
L 231.280408 -97.864202 
L 230.623673 -97.273834 
L 229.966939 -96.673038 
L 229.310204 -96.062689 
L 228.65347 -95.443693 
L 227.996735 -94.816976 
L 227.340001 -94.183487 
L 226.683266 -93.544199 
L 226.026531 -92.900101 
L 225.369797 -92.252203 
L 224.713062 -91.601533 
L 224.056328 -90.949133 
L 223.399593 -90.296058 
L 222.742859 -89.64338 
L 222.086124 -88.992176 
L 221.429389 -88.343536 
L 220.772655 -87.698557 
L 220.11592 -87.05834 
L 219.459186 -86.423993 
L 218.802451 -85.796624 
L 218.145717 -85.177341 
L 217.488982 -84.567252 
L 216.832248 -83.967461 
L 216.175513 -83.379068 
L 215.518778 -82.803166 
L 214.862044 -82.240836 
L 214.205309 -81.693153 
L 213.548575 -81.161176 
L 212.89184 -80.64595 
L 212.235106 -80.148506 
L 211.578371 -79.669854 
L 210.921636 -79.210986 
L 210.264902 -78.77287 
L 209.608167 -78.356451 
L 208.951433 -77.96265 
L 208.294698 -77.592358 
L 207.637964 -77.246439 
L 206.981229 -76.925725 
L 206.324494 -76.631016 
L 205.66776 -76.363077 
L 205.011025 -76.122638 
L 204.354291 -75.910391 
L 203.697556 -75.72699 
L 203.040822 -75.573045 
L 202.384087 -75.449129 
L 201.727352 -75.355769 
L 201.070618 -75.293447 
L 200.413883 -75.2626 
L 199.757149 -75.263617 
L 199.100414 -75.29684 
L 198.44368 -75.362561 
L 197.786945 -75.46102 
L 197.13021 -75.592408 
L 196.473476 -75.756862 
L 195.816741 -75.954468 
L 195.160007 -76.185256 
L 194.503272 -76.449203 
L 193.846538 -76.746231 
L 193.189803 -77.076206 
L 192.533068 -77.43894 
L 191.876334 -77.834186 
L 191.219599 -78.261644 
L 190.562865 -78.720955 
L 189.90613 -79.211706 
L 189.249396 -79.733425 
L 188.592661 -80.285587 
L 187.935926 -80.867608 
L 187.279192 -81.478852 
L 186.622457 -82.118625 
L 185.965723 -82.78618 
L 185.308988 -83.480715 
L 184.652254 -84.201377 
L 183.995519 -84.947259 
L 183.338784 -85.717404 
L 182.68205 -86.510802 
L 182.025315 -87.326397 
L 181.368581 -88.163084 
L 180.711846 -89.019711 
L 180.055112 -89.89508 
L 179.398377 -90.787951 
L 178.741642 -91.697041 
L 178.084908 -92.621026 
L 177.428173 -93.558544 
L 176.771439 -94.508195 
L 176.114704 -95.468545 
L 175.45797 -96.438126 
L 174.801235 -97.41544 
L 174.1445 -98.39896 
L 173.487766 -99.387132 
L 172.831031 -100.378377 
L 172.174297 -101.371095 
L 171.517562 -102.363665 
L 170.860828 -103.354451 
L 170.204093 -104.3418 
L 169.547358 -105.324049 
L 168.890624 -106.299524 
L 168.233889 -107.266544 
L 167.577155 -108.223425 
L 166.92042 -109.168481 
L 166.263686 -110.100027 
L 165.606951 -111.016383 
L 164.950216 -111.915876 
L 164.293482 -112.796841 
L 163.636747 -113.657627 
L 162.980013 -114.496599 
L 162.323278 -115.31214 
L 161.666544 -116.102653 
L 161.009809 -116.866566 
L 160.353075 -117.602335 
L 159.69634 -118.308443 
L 159.039605 -118.983409 
L 158.382871 -119.625785 
L 157.726136 -120.234161 
L 157.069402 -120.80717 
L 156.412667 -121.343486 
L 155.755933 -121.84183 
L 155.099198 -122.300974 
L 154.442463 -122.719738 
L 153.785729 -123.096998 
L 153.128994 -123.431685 
L 152.47226 -123.722791 
L 151.815525 -123.969366 
L 151.158791 -124.170525 
L 150.502056 -124.325448 
L 149.845321 -124.433381 
L 149.188587 -124.493642 
L 148.531852 -124.505619 
L 147.875118 -124.468771 
L 147.218383 -124.382635 
L 146.561649 -124.246821 
L 145.904914 -124.06102 
L 145.248179 -123.824999 
L 144.591445 -123.538608 
L 143.93471 -123.201776 
L 143.277976 -122.814515 
L 142.621241 -122.376921 
L 141.964507 -121.889174 
L 141.307772 -121.351538 
L 140.651037 -120.764361 
L 139.994303 -120.128079 
L 139.337568 -119.443212 
L 138.680834 -118.710365 
L 138.024099 -117.930231 
L 137.367365 -117.103585 
L 136.71063 -116.23129 
L 136.053895 -115.314291 
L 135.397161 -114.35362 
L 134.740426 -113.350389 
L 134.083692 -112.305794 
L 133.426957 -111.22111 
L 132.770223 -110.097695 
L 132.113488 -108.936982 
L 131.456753 -107.740483 
L 130.800019 -106.509786 
L 130.143284 -105.246549 
L 129.48655 -103.952504 
L 128.829815 -102.629454 
L 128.173081 -101.279265 
L 127.516346 -99.903871 
L 126.859611 -98.505267 
L 126.202877 -97.085508 
L 125.546142 -95.646707 
L 124.889408 -94.191029 
L 124.232673 -92.720691 
L 123.575939 -91.23796 
L 122.919204 -89.745145 
L 122.262469 -88.244597 
L 121.605735 -86.738707 
L 120.949 -85.229898 
L 120.292266 -83.720626 
L 119.635531 -82.213372 
L 118.978797 -80.710642 
L 118.322062 -79.214961 
L 117.665327 -77.72887 
L 117.008593 -76.254922 
L 116.351858 -74.795674 
L 115.695124 -73.353692 
L 115.038389 -71.931536 
L 114.381655 -70.531764 
L 113.72492 -69.156922 
L 113.068185 -67.809546 
L 112.411451 -66.492151 
L 111.754716 -65.20723 
L 111.097982 -63.957251 
L 110.441247 -62.744649 
L 109.784513 -61.571825 
L 109.127778 -60.441139 
L 108.471043 -59.354908 
L 107.814309 -58.315401 
L 107.157574 -57.324833 
L 106.50084 -56.385364 
L 105.844105 -55.49909 
L 105.187371 -54.668046 
L 104.530636 -53.894195 
L 103.873901 -53.179427 
L 103.217167 -52.525556 
L 102.560432 -51.934316 
L 101.903698 -51.407353 
L 101.246963 -50.946229 
L 100.590229 -50.552411 
L 99.933494 -50.227273 
L 99.27676 -49.97209 
L 98.620025 -49.788034 
L 97.96329 -49.676174 
L 97.306556 -49.637472 
L 96.649821 -49.672779 
L 95.993087 -49.782832 
L 95.336352 -49.968254 
L 94.679618 -50.229551 
L 94.022883 -50.567109 
L 93.366148 -50.981192 
L 92.709414 -51.471941 
L 92.052679 -52.039372 
L 91.395945 -52.683375 
L 90.73921 -53.403712 
L 90.082476 -54.200019 
L 89.425741 -55.0718 
L 88.769006 -56.018431 
L 88.112272 -57.039157 
L 87.455537 -58.133093 
L 86.798803 -59.299224 
L 86.142068 -60.536405 
L 85.485334 -61.843362 
L 84.828599 -63.218693 
L 84.171864 -64.660865 
L 83.51513 -66.168223 
L 82.858395 -67.738982 
L 82.201661 -69.371237 
L 81.544926 -71.06296 
L 80.888192 -72.812003 
L 80.231457 -74.6161 
L 79.574722 -76.47287 
L 78.917988 -78.379821 
L 78.261253 -80.334349 
L 77.604519 -82.333746 
L 76.947784 -84.3752 
L 76.29105 -86.455799 
L 75.634315 -88.572536 
L 74.97758 -90.722311 
L 74.320846 -92.901936 
L 73.664111 -95.108142 
L 73.007377 -97.337579 
L 72.350642 -99.586822 
L 71.693908 -101.852378 
L 71.037173 -104.130689 
L 70.380438 -106.418138 
L 69.723704 -108.711053 
L 69.066969 -111.005716 
L 68.410235 -113.298363 
L 67.7535 -115.585194 
L 67.096766 -117.862378 
L 66.440031 -120.126059 
L 65.783296 -122.372361 
L 65.126562 -124.597395 
L 64.469827 -126.797267 
L 63.813093 -128.968079 
L 63.156358 -131.105942 
L 62.499624 -133.206978 
L 61.842889 -135.267329 
L 61.186154 -137.283161 
L 60.52942 -139.250674 
L 59.872685 -141.166105 
L 59.215951 -143.025737 
L 58.559216 -144.825906 
L 57.902482 -146.563005 
L 57.245747 -148.233493 
L 56.589012 -149.8339 
L 55.932278 -151.360835 
L 55.275543 -152.810991 
L 54.618809 -154.181152 
L 53.962074 -155.468199 
L 53.30534 -156.669118 
L 52.648605 -157.781002 
L 51.99187 -158.801061 
L 51.335136 -159.726627 
L 50.678401 -160.555156 
L 50.021667 -161.28424 
L 49.364932 -161.911608 
L 48.708198 -162.43513 
L 48.051463 -162.852827 
z
"/>
    </defs>
    <g clip-path="url(#p8a14875c89)">
     <use xlink:href="#m2ba03a7b07" x="0" y="171.558281" style="fill: #808080; fill-opacity: 0.16"/>
    </g>
   </g>
   <g id="PolyCollection_3">
    <defs>
     <path id="m8fc56a78d5" d="M 48.051463 -149.342365 
L 48.051463 -137.092855 
L 48.708198 -137.822809 
L 49.364932 -138.504649 
L 50.021667 -139.138262 
L 50.678401 -139.723573 
L 51.335136 -140.26054 
L 51.99187 -140.749159 
L 52.648605 -141.189459 
L 53.30534 -141.581507 
L 53.962074 -141.925402 
L 54.618809 -142.221278 
L 55.275543 -142.469304 
L 55.932278 -142.669681 
L 56.589012 -142.822645 
L 57.245747 -142.928462 
L 57.902482 -142.987433 
L 58.559216 -142.999889 
L 59.215951 -142.966192 
L 59.872685 -142.886737 
L 60.52942 -142.761948 
L 61.186154 -142.592276 
L 61.842889 -142.378206 
L 62.499624 -142.120248 
L 63.156358 -141.818941 
L 63.813093 -141.474851 
L 64.469827 -141.088571 
L 65.126562 -140.66072 
L 65.783296 -140.191942 
L 66.440031 -139.682906 
L 67.096766 -139.134306 
L 67.7535 -138.546856 
L 68.410235 -137.921297 
L 69.066969 -137.258389 
L 69.723704 -136.558914 
L 70.380438 -135.823673 
L 71.037173 -135.05349 
L 71.693908 -134.249204 
L 72.350642 -133.411675 
L 73.007377 -132.541779 
L 73.664111 -131.640408 
L 74.320846 -130.708473 
L 74.97758 -129.746896 
L 75.634315 -128.756616 
L 76.29105 -127.738583 
L 76.947784 -126.693762 
L 77.604519 -125.623129 
L 78.261253 -124.52767 
L 78.917988 -123.408383 
L 79.574722 -122.266274 
L 80.231457 -121.102359 
L 80.888192 -119.917659 
L 81.544926 -118.713205 
L 82.201661 -117.490033 
L 82.858395 -116.249183 
L 83.51513 -114.991703 
L 84.171864 -113.718642 
L 84.828599 -112.431052 
L 85.485334 -111.129988 
L 86.142068 -109.816507 
L 86.798803 -108.491665 
L 87.455537 -107.156518 
L 88.112272 -105.812123 
L 88.769006 -104.459534 
L 89.425741 -103.099802 
L 90.082476 -101.733975 
L 90.73921 -100.363098 
L 91.395945 -98.988211 
L 92.052679 -97.610348 
L 92.709414 -96.230537 
L 93.366148 -94.8498 
L 94.022883 -93.469151 
L 94.679618 -92.089595 
L 95.336352 -90.71213 
L 95.993087 -89.337742 
L 96.649821 -87.96741 
L 97.306556 -86.6021 
L 97.96329 -85.242767 
L 98.620025 -83.890354 
L 99.27676 -82.545792 
L 99.933494 -81.209998 
L 100.590229 -79.883876 
L 101.246963 -78.568316 
L 101.903698 -77.264191 
L 102.560432 -75.972362 
L 103.217167 -74.693672 
L 103.873901 -73.428947 
L 104.530636 -72.178999 
L 105.187371 -70.94462 
L 105.844105 -69.726586 
L 106.50084 -68.525653 
L 107.157574 -67.342562 
L 107.814309 -66.178031 
L 108.471043 -65.032761 
L 109.127778 -63.907434 
L 109.784513 -62.80271 
L 110.441247 -61.719229 
L 111.097982 -60.657612 
L 111.754716 -59.618458 
L 112.411451 -58.602345 
L 113.068185 -57.609829 
L 113.72492 -56.641445 
L 114.381655 -55.697707 
L 115.038389 -54.779105 
L 115.695124 -53.886108 
L 116.351858 -53.019163 
L 117.008593 -52.178692 
L 117.665327 -51.365098 
L 118.322062 -50.578758 
L 118.978797 -49.820027 
L 119.635531 -49.089239 
L 120.292266 -48.386702 
L 120.949 -47.712703 
L 121.605735 -47.067505 
L 122.262469 -46.451348 
L 122.919204 -45.864449 
L 123.575939 -45.307002 
L 124.232673 -44.779178 
L 124.889408 -44.281125 
L 125.546142 -43.812968 
L 126.202877 -43.374809 
L 126.859611 -42.966728 
L 127.516346 -42.588782 
L 128.173081 -42.241006 
L 128.829815 -41.923411 
L 129.48655 -41.635989 
L 130.143284 -41.378707 
L 130.800019 -41.151512 
L 131.456753 -40.954329 
L 132.113488 -40.787061 
L 132.770223 -40.649593 
L 133.426957 -40.541785 
L 134.083692 -40.46348 
L 134.740426 -40.414497 
L 135.397161 -40.39464 
L 136.053895 -40.403689 
L 136.71063 -40.441406 
L 137.367365 -40.507535 
L 138.024099 -40.601801 
L 138.680834 -40.723909 
L 139.337568 -40.873549 
L 139.994303 -41.050391 
L 140.651037 -41.254089 
L 141.307772 -41.484279 
L 141.964507 -41.740582 
L 142.621241 -42.022602 
L 143.277976 -42.329929 
L 143.93471 -42.662135 
L 144.591445 -43.018779 
L 145.248179 -43.399407 
L 145.904914 -43.803549 
L 146.561649 -44.230723 
L 147.218383 -44.680432 
L 147.875118 -45.15217 
L 148.531852 -45.645415 
L 149.188587 -46.159636 
L 149.845321 -46.694291 
L 150.502056 -47.248827 
L 151.158791 -47.822681 
L 151.815525 -48.415279 
L 152.47226 -49.02604 
L 153.128994 -49.654373 
L 153.785729 -50.29968 
L 154.442463 -50.961355 
L 155.099198 -51.638784 
L 155.755933 -52.331348 
L 156.412667 -53.03842 
L 157.069402 -53.75937 
L 157.726136 -54.493561 
L 158.382871 -55.240352 
L 159.039605 -55.999097 
L 159.69634 -56.769147 
L 160.353075 -57.549852 
L 161.009809 -58.340557 
L 161.666544 -59.140605 
L 162.323278 -59.949339 
L 162.980013 -60.766099 
L 163.636747 -61.590226 
L 164.293482 -62.42106 
L 164.950216 -63.257942 
L 165.606951 -64.100214 
L 166.263686 -64.947217 
L 166.92042 -65.798298 
L 167.577155 -66.652803 
L 168.233889 -67.510081 
L 168.890624 -68.369486 
L 169.547358 -69.230374 
L 170.204093 -70.092105 
L 170.860828 -70.954045 
L 171.517562 -71.815564 
L 172.174297 -72.676036 
L 172.831031 -73.534844 
L 173.487766 -74.391373 
L 174.1445 -75.245019 
L 174.801235 -76.095181 
L 175.45797 -76.941269 
L 176.114704 -77.782696 
L 176.771439 -78.618888 
L 177.428173 -79.449277 
L 178.084908 -80.273304 
L 178.741642 -81.090418 
L 179.398377 -81.90008 
L 180.055112 -82.701758 
L 180.711846 -83.494933 
L 181.368581 -84.279094 
L 182.025315 -85.053741 
L 182.68205 -85.818385 
L 183.338784 -86.57255 
L 183.995519 -87.315769 
L 184.652254 -88.047588 
L 185.308988 -88.767564 
L 185.965723 -89.475268 
L 186.622457 -90.170281 
L 187.279192 -90.852198 
L 187.935926 -91.520627 
L 188.592661 -92.175189 
L 189.249396 -92.815517 
L 189.90613 -93.441258 
L 190.562865 -94.052072 
L 191.219599 -94.647634 
L 191.876334 -95.227631 
L 192.533068 -95.791765 
L 193.189803 -96.339752 
L 193.846538 -96.871321 
L 194.503272 -97.386216 
L 195.160007 -97.884194 
L 195.816741 -98.365028 
L 196.473476 -98.828505 
L 197.13021 -99.274426 
L 197.786945 -99.702605 
L 198.44368 -100.112872 
L 199.100414 -100.505072 
L 199.757149 -100.879063 
L 200.413883 -101.234718 
L 201.070618 -101.571924 
L 201.727352 -101.890584 
L 202.384087 -102.190612 
L 203.040822 -102.471939 
L 203.697556 -102.734509 
L 204.354291 -102.978282 
L 205.011025 -103.20323 
L 205.66776 -103.409338 
L 206.324494 -103.596608 
L 206.981229 -103.765054 
L 207.637964 -103.914703 
L 208.294698 -104.045596 
L 208.951433 -104.157789 
L 209.608167 -104.251348 
L 210.264902 -104.326354 
L 210.921636 -104.382902 
L 211.578371 -104.421097 
L 212.235106 -104.441059 
L 212.89184 -104.442918 
L 213.548575 -104.426818 
L 214.205309 -104.392914 
L 214.862044 -104.341374 
L 215.518778 -104.272375 
L 216.175513 -104.186108 
L 216.832248 -104.082774 
L 217.488982 -103.962584 
L 218.145717 -103.825761 
L 218.802451 -103.672538 
L 219.459186 -103.503157 
L 220.11592 -103.317871 
L 220.772655 -103.116942 
L 221.429389 -102.900642 
L 222.086124 -102.669251 
L 222.742859 -102.423059 
L 223.399593 -102.162364 
L 224.056328 -101.887471 
L 224.713062 -101.598694 
L 225.369797 -101.296356 
L 226.026531 -100.980784 
L 226.683266 -100.652314 
L 227.340001 -100.31129 
L 227.996735 -99.95806 
L 228.65347 -99.592979 
L 229.310204 -99.216409 
L 229.966939 -98.828715 
L 230.623673 -98.430268 
L 231.280408 -98.021447 
L 231.937143 -97.602631 
L 232.593877 -97.174205 
L 233.250612 -96.736559 
L 233.907346 -96.290086 
L 234.564081 -95.835182 
L 235.220815 -95.372245 
L 235.87755 -94.901678 
L 236.534285 -94.423884 
L 237.191019 -93.93927 
L 237.847754 -93.448243 
L 238.504488 -92.951212 
L 239.161223 -92.448589 
L 239.817957 -91.940783 
L 240.474692 -91.428208 
L 241.131427 -90.911273 
L 241.788161 -90.390392 
L 242.444896 -89.865975 
L 243.10163 -89.338434 
L 243.758365 -88.808177 
L 244.415099 -88.275612 
L 244.415099 -100.525122 
L 244.415099 -100.525122 
L 243.758365 -101.057687 
L 243.10163 -101.587944 
L 242.444896 -102.115485 
L 241.788161 -102.639902 
L 241.131427 -103.160783 
L 240.474692 -103.677718 
L 239.817957 -104.190293 
L 239.161223 -104.698099 
L 238.504488 -105.200722 
L 237.847754 -105.697753 
L 237.191019 -106.18878 
L 236.534285 -106.673394 
L 235.87755 -107.151188 
L 235.220815 -107.621755 
L 234.564081 -108.084692 
L 233.907346 -108.539596 
L 233.250612 -108.986069 
L 232.593877 -109.423715 
L 231.937143 -109.852141 
L 231.280408 -110.270957 
L 230.623673 -110.679778 
L 229.966939 -111.078224 
L 229.310204 -111.465919 
L 228.65347 -111.842489 
L 227.996735 -112.20757 
L 227.340001 -112.5608 
L 226.683266 -112.901824 
L 226.026531 -113.230294 
L 225.369797 -113.545866 
L 224.713062 -113.848204 
L 224.056328 -114.136981 
L 223.399593 -114.411874 
L 222.742859 -114.672569 
L 222.086124 -114.918761 
L 221.429389 -115.150152 
L 220.772655 -115.366452 
L 220.11592 -115.567381 
L 219.459186 -115.752667 
L 218.802451 -115.922048 
L 218.145717 -116.075271 
L 217.488982 -116.212094 
L 216.832248 -116.332284 
L 216.175513 -116.435618 
L 215.518778 -116.521885 
L 214.862044 -116.590883 
L 214.205309 -116.642424 
L 213.548575 -116.676328 
L 212.89184 -116.692428 
L 212.235106 -116.690569 
L 211.578371 -116.670607 
L 210.921636 -116.632412 
L 210.264902 -116.575864 
L 209.608167 -116.500858 
L 208.951433 -116.407299 
L 208.294698 -116.295106 
L 207.637964 -116.164213 
L 206.981229 -116.014564 
L 206.324494 -115.846118 
L 205.66776 -115.658848 
L 205.011025 -115.452739 
L 204.354291 -115.227792 
L 203.697556 -114.984019 
L 203.040822 -114.721449 
L 202.384087 -114.440122 
L 201.727352 -114.140093 
L 201.070618 -113.821434 
L 200.413883 -113.484228 
L 199.757149 -113.128573 
L 199.100414 -112.754582 
L 198.44368 -112.362382 
L 197.786945 -111.952115 
L 197.13021 -111.523936 
L 196.473476 -111.078015 
L 195.816741 -110.614538 
L 195.160007 -110.133704 
L 194.503272 -109.635725 
L 193.846538 -109.120831 
L 193.189803 -108.589262 
L 192.533068 -108.041275 
L 191.876334 -107.477141 
L 191.219599 -106.897144 
L 190.562865 -106.301582 
L 189.90613 -105.690768 
L 189.249396 -105.065027 
L 188.592661 -104.424699 
L 187.935926 -103.770137 
L 187.279192 -103.101708 
L 186.622457 -102.419791 
L 185.965723 -101.724778 
L 185.308988 -101.017074 
L 184.652254 -100.297098 
L 183.995519 -99.565279 
L 183.338784 -98.82206 
L 182.68205 -98.067895 
L 182.025315 -97.303251 
L 181.368581 -96.528604 
L 180.711846 -95.744443 
L 180.055112 -94.951268 
L 179.398377 -94.14959 
L 178.741642 -93.339928 
L 178.084908 -92.522814 
L 177.428173 -91.698787 
L 176.771439 -90.868398 
L 176.114704 -90.032206 
L 175.45797 -89.190778 
L 174.801235 -88.344691 
L 174.1445 -87.494529 
L 173.487766 -86.640883 
L 172.831031 -85.784354 
L 172.174297 -84.925546 
L 171.517562 -84.065074 
L 170.860828 -83.203555 
L 170.204093 -82.341615 
L 169.547358 -81.479884 
L 168.890624 -80.618996 
L 168.233889 -79.759591 
L 167.577155 -78.902313 
L 166.92042 -78.047808 
L 166.263686 -77.196727 
L 165.606951 -76.349723 
L 164.950216 -75.507452 
L 164.293482 -74.67057 
L 163.636747 -73.839736 
L 162.980013 -73.015609 
L 162.323278 -72.198849 
L 161.666544 -71.390115 
L 161.009809 -70.590067 
L 160.353075 -69.799362 
L 159.69634 -69.018657 
L 159.039605 -68.248606 
L 158.382871 -67.489861 
L 157.726136 -66.743071 
L 157.069402 -66.00888 
L 156.412667 -65.28793 
L 155.755933 -64.580858 
L 155.099198 -63.888294 
L 154.442463 -63.210865 
L 153.785729 -62.54919 
L 153.128994 -61.903883 
L 152.47226 -61.27555 
L 151.815525 -60.664789 
L 151.158791 -60.072191 
L 150.502056 -59.498337 
L 149.845321 -58.943801 
L 149.188587 -58.409146 
L 148.531852 -57.894925 
L 147.875118 -57.401679 
L 147.218383 -56.929942 
L 146.561649 -56.480233 
L 145.904914 -56.053059 
L 145.248179 -55.648917 
L 144.591445 -55.268289 
L 143.93471 -54.911645 
L 143.277976 -54.579438 
L 142.621241 -54.272112 
L 141.964507 -53.990092 
L 141.307772 -53.733789 
L 140.651037 -53.503599 
L 139.994303 -53.299901 
L 139.337568 -53.123059 
L 138.680834 -52.973419 
L 138.024099 -52.851311 
L 137.367365 -52.757045 
L 136.71063 -52.690916 
L 136.053895 -52.653198 
L 135.397161 -52.64415 
L 134.740426 -52.664007 
L 134.083692 -52.71299 
L 133.426957 -52.791295 
L 132.770223 -52.899103 
L 132.113488 -53.036571 
L 131.456753 -53.203839 
L 130.800019 -53.401022 
L 130.143284 -53.628217 
L 129.48655 -53.885499 
L 128.829815 -54.172921 
L 128.173081 -54.490516 
L 127.516346 -54.838292 
L 126.859611 -55.216238 
L 126.202877 -55.624319 
L 125.546142 -56.062478 
L 124.889408 -56.530635 
L 124.232673 -57.028688 
L 123.575939 -57.556512 
L 122.919204 -58.113959 
L 122.262469 -58.700858 
L 121.605735 -59.317015 
L 120.949 -59.962213 
L 120.292266 -60.636212 
L 119.635531 -61.338749 
L 118.978797 -62.069537 
L 118.322062 -62.828267 
L 117.665327 -63.614608 
L 117.008593 -64.428202 
L 116.351858 -65.268673 
L 115.695124 -66.135618 
L 115.038389 -67.028615 
L 114.381655 -67.947217 
L 113.72492 -68.890955 
L 113.068185 -69.859339 
L 112.411451 -70.851854 
L 111.754716 -71.867968 
L 111.097982 -72.907122 
L 110.441247 -73.968739 
L 109.784513 -75.052219 
L 109.127778 -76.156944 
L 108.471043 -77.282271 
L 107.814309 -78.427541 
L 107.157574 -79.592072 
L 106.50084 -80.775163 
L 105.844105 -81.976096 
L 105.187371 -83.19413 
L 104.530636 -84.428509 
L 103.873901 -85.678457 
L 103.217167 -86.943182 
L 102.560432 -88.221872 
L 101.903698 -89.513701 
L 101.246963 -90.817826 
L 100.590229 -92.133386 
L 99.933494 -93.459508 
L 99.27676 -94.795302 
L 98.620025 -96.139864 
L 97.96329 -97.492277 
L 97.306556 -98.85161 
L 96.649821 -100.21692 
L 95.993087 -101.587252 
L 95.336352 -102.96164 
L 94.679618 -104.339105 
L 94.022883 -105.718661 
L 93.366148 -107.09931 
L 92.709414 -108.480047 
L 92.052679 -109.859858 
L 91.395945 -111.237721 
L 90.73921 -112.612608 
L 90.082476 -113.983485 
L 89.425741 -115.349312 
L 88.769006 -116.709044 
L 88.112272 -118.061633 
L 87.455537 -119.406028 
L 86.798803 -120.741175 
L 86.142068 -122.066017 
L 85.485334 -123.379498 
L 84.828599 -124.680562 
L 84.171864 -125.968152 
L 83.51513 -127.241213 
L 82.858395 -128.498693 
L 82.201661 -129.739542 
L 81.544926 -130.962715 
L 80.888192 -132.167169 
L 80.231457 -133.351868 
L 79.574722 -134.515784 
L 78.917988 -135.657893 
L 78.261253 -136.77718 
L 77.604519 -137.872639 
L 76.947784 -138.943272 
L 76.29105 -139.988093 
L 75.634315 -141.006126 
L 74.97758 -141.996406 
L 74.320846 -142.957983 
L 73.664111 -143.889918 
L 73.007377 -144.791288 
L 72.350642 -145.661185 
L 71.693908 -146.498714 
L 71.037173 -147.302999 
L 70.380438 -148.073183 
L 69.723704 -148.808423 
L 69.066969 -149.507899 
L 68.410235 -150.170807 
L 67.7535 -150.796366 
L 67.096766 -151.383816 
L 66.440031 -151.932416 
L 65.783296 -152.441452 
L 65.126562 -152.91023 
L 64.469827 -153.338081 
L 63.813093 -153.724361 
L 63.156358 -154.068451 
L 62.499624 -154.369758 
L 61.842889 -154.627716 
L 61.186154 -154.841786 
L 60.52942 -155.011458 
L 59.872685 -155.136247 
L 59.215951 -155.215702 
L 58.559216 -155.249399 
L 57.902482 -155.236943 
L 57.245747 -155.177972 
L 56.589012 -155.072155 
L 55.932278 -154.919191 
L 55.275543 -154.718814 
L 54.618809 -154.470788 
L 53.962074 -154.174912 
L 53.30534 -153.831017 
L 52.648605 -153.438969 
L 51.99187 -152.998669 
L 51.335136 -152.51005 
L 50.678401 -151.973083 
L 50.021667 -151.387772 
L 49.364932 -150.754159 
L 48.708198 -150.072319 
L 48.051463 -149.342365 
z
"/>
    </defs>
    <g clip-path="url(#p8a14875c89)">
     <use xlink:href="#m8fc56a78d5" x="0" y="171.558281" style="fill-opacity: 0.16"/>
    </g>
   </g>
   <g id="matplotlib.axis_1">
    <g id="xtick_1">
     <g id="line2d_1">
      <defs>
       <path id="m318af08748" d="M 0 0 
L 0 -2.5 
" style="stroke: #000000; stroke-width: 0.6"/>
      </defs>
      <g>
       <use xlink:href="#m318af08748" x="48.051463" y="146.16" style="stroke: #000000; stroke-width: 0.6"/>
      </g>
     </g>
     <g id="line2d_2">
      <defs>
       <path id="m3f9282fbf7" d="M 0 0 
L 0 2.5 
" style="stroke: #000000; stroke-width: 0.6"/>
      </defs>
      <g>
       <use xlink:href="#m3f9282fbf7" x="48.051463" y="2.16" style="stroke: #000000; stroke-width: 0.6"/>
      </g>
     </g>
     <g id="text_1">
      <!-- 0 -->
      <g transform="translate(45.827088 155.39875) scale(0.08 -0.08)">
       <defs>
        <path id="Helvetica-30" d="M 1731 4475 
Q 2600 4475 2988 3759 
Q 3288 3206 3288 2244 
Q 3288 1331 3016 734 
Q 2622 -122 1728 -122 
Q 922 -122 528 578 
Q 200 1163 200 2147 
Q 200 2909 397 3456 
Q 766 4475 1731 4475 
z
M 1725 391 
Q 2163 391 2422 778 
Q 2681 1166 2681 2222 
Q 2681 2984 2493 3476 
Q 2306 3969 1766 3969 
Q 1269 3969 1039 3501 
Q 809 3034 809 2125 
Q 809 1441 956 1025 
Q 1181 391 1725 391 
z
" transform="scale(0.015625)"/>
       </defs>
       <use xlink:href="#Helvetica-30"/>
      </g>
     </g>
    </g>
    <g id="xtick_2">
     <g id="line2d_3">
      <g>
       <use xlink:href="#m318af08748" x="97.142372" y="146.16" style="stroke: #000000; stroke-width: 0.6"/>
      </g>
     </g>
     <g id="line2d_4">
      <g>
       <use xlink:href="#m3f9282fbf7" x="97.142372" y="2.16" style="stroke: #000000; stroke-width: 0.6"/>
      </g>
     </g>
     <g id="text_2">
      <!-- 2 -->
      <g transform="translate(94.917997 155.39875) scale(0.08 -0.08)">
       <defs>
        <path id="Helvetica-32" d="M 200 0 
Q 231 578 439 1006 
Q 647 1434 1250 1784 
L 1850 2131 
Q 2253 2366 2416 2531 
Q 2672 2791 2672 3125 
Q 2672 3516 2437 3745 
Q 2203 3975 1813 3975 
Q 1234 3975 1013 3538 
Q 894 3303 881 2888 
L 309 2888 
Q 319 3472 525 3841 
Q 891 4491 1816 4491 
Q 2584 4491 2939 4075 
Q 3294 3659 3294 3150 
Q 3294 2613 2916 2231 
Q 2697 2009 2131 1694 
L 1703 1456 
Q 1397 1288 1222 1134 
Q 909 863 828 531 
L 3272 531 
L 3272 0 
L 200 0 
z
" transform="scale(0.015625)"/>
       </defs>
       <use xlink:href="#Helvetica-32"/>
      </g>
     </g>
    </g>
    <g id="xtick_3">
     <g id="line2d_5">
      <g>
       <use xlink:href="#m318af08748" x="146.233281" y="146.16" style="stroke: #000000; stroke-width: 0.6"/>
      </g>
     </g>
     <g id="line2d_6">
      <g>
       <use xlink:href="#m3f9282fbf7" x="146.233281" y="2.16" style="stroke: #000000; stroke-width: 0.6"/>
      </g>
     </g>
     <g id="text_3">
      <!-- 4 -->
      <g transform="translate(144.008906 155.39875) scale(0.08 -0.08)">
       <defs>
        <path id="Helvetica-34" d="M 2116 1584 
L 2116 3613 
L 681 1584 
L 2116 1584 
z
M 2125 0 
L 2125 1094 
L 163 1094 
L 163 1644 
L 2213 4488 
L 2688 4488 
L 2688 1584 
L 3347 1584 
L 3347 1094 
L 2688 1094 
L 2688 0 
L 2125 0 
z
" transform="scale(0.015625)"/>
       </defs>
       <use xlink:href="#Helvetica-34"/>
      </g>
     </g>
    </g>
    <g id="xtick_4">
     <g id="line2d_7">
      <g>
       <use xlink:href="#m318af08748" x="195.32419" y="146.16" style="stroke: #000000; stroke-width: 0.6"/>
      </g>
     </g>
     <g id="line2d_8">
      <g>
       <use xlink:href="#m3f9282fbf7" x="195.32419" y="2.16" style="stroke: #000000; stroke-width: 0.6"/>
      </g>
     </g>
     <g id="text_4">
      <!-- 6 -->
      <g transform="translate(193.099815 155.39875) scale(0.08 -0.08)">
       <defs>
        <path id="Helvetica-36" d="M 1872 4494 
Q 2622 4494 2917 4105 
Q 3213 3716 3213 3303 
L 2656 3303 
Q 2606 3569 2497 3719 
Q 2294 4000 1881 4000 
Q 1409 4000 1131 3564 
Q 853 3128 822 2316 
Q 1016 2600 1309 2741 
Q 1578 2866 1909 2866 
Q 2472 2866 2890 2506 
Q 3309 2147 3309 1434 
Q 3309 825 2912 354 
Q 2516 -116 1781 -116 
Q 1153 -116 697 361 
Q 241 838 241 1966 
Q 241 2800 444 3381 
Q 834 4494 1872 4494 
z
M 1831 384 
Q 2275 384 2495 682 
Q 2716 981 2716 1388 
Q 2716 1731 2519 2042 
Q 2322 2353 1803 2353 
Q 1441 2353 1167 2112 
Q 894 1872 894 1388 
Q 894 963 1142 673 
Q 1391 384 1831 384 
z
" transform="scale(0.015625)"/>
       </defs>
       <use xlink:href="#Helvetica-36"/>
      </g>
     </g>
    </g>
    <g id="xtick_5">
     <g id="line2d_9">
      <g>
       <use xlink:href="#m318af08748" x="244.415099" y="146.16" style="stroke: #000000; stroke-width: 0.6"/>
      </g>
     </g>
     <g id="line2d_10">
      <g>
       <use xlink:href="#m3f9282fbf7" x="244.415099" y="2.16" style="stroke: #000000; stroke-width: 0.6"/>
      </g>
     </g>
     <g id="text_5">
      <!-- 8 -->
      <g transform="translate(242.190724 155.39875) scale(0.08 -0.08)">
       <defs>
        <path id="Helvetica-38" d="M 1741 2600 
Q 2113 2600 2322 2808 
Q 2531 3016 2531 3303 
Q 2531 3553 2331 3762 
Q 2131 3972 1722 3972 
Q 1316 3972 1134 3762 
Q 953 3553 953 3272 
Q 953 2956 1187 2778 
Q 1422 2600 1741 2600 
z
M 1775 384 
Q 2166 384 2423 595 
Q 2681 806 2681 1225 
Q 2681 1659 2415 1884 
Q 2150 2109 1734 2109 
Q 1331 2109 1076 1879 
Q 822 1650 822 1244 
Q 822 894 1055 639 
Q 1288 384 1775 384 
z
M 975 2384 
Q 741 2484 609 2619 
Q 363 2869 363 3269 
Q 363 3769 725 4128 
Q 1088 4488 1753 4488 
Q 2397 4488 2762 4148 
Q 3128 3809 3128 3356 
Q 3128 2938 2916 2678 
Q 2797 2531 2547 2391 
Q 2825 2263 2984 2097 
Q 3281 1784 3281 1284 
Q 3281 694 2884 283 
Q 2488 -128 1763 -128 
Q 1109 -128 657 226 
Q 206 581 206 1256 
Q 206 1653 400 1942 
Q 594 2231 975 2384 
z
" transform="scale(0.015625)"/>
       </defs>
       <use xlink:href="#Helvetica-38"/>
      </g>
     </g>
    </g>
    <g id="xtick_6">
     <g id="line2d_11">
      <defs>
       <path id="m75e7b01ccc" d="M 0 0 
L 0 -1.5 
" style="stroke: #000000; stroke-width: 0.3"/>
      </defs>
      <g>
       <use xlink:href="#m75e7b01ccc" x="60.32419" y="146.16" style="stroke: #000000; stroke-width: 0.3"/>
      </g>
     </g>
     <g id="line2d_12">
      <defs>
       <path id="m57541fb819" d="M 0 0 
L 0 1.5 
" style="stroke: #000000; stroke-width: 0.3"/>
      </defs>
      <g>
       <use xlink:href="#m57541fb819" x="60.32419" y="2.16" style="stroke: #000000; stroke-width: 0.3"/>
      </g>
     </g>
    </g>
    <g id="xtick_7">
     <g id="line2d_13">
      <g>
       <use xlink:href="#m75e7b01ccc" x="72.596918" y="146.16" style="stroke: #000000; stroke-width: 0.3"/>
      </g>
     </g>
     <g id="line2d_14">
      <g>
       <use xlink:href="#m57541fb819" x="72.596918" y="2.16" style="stroke: #000000; stroke-width: 0.3"/>
      </g>
     </g>
    </g>
    <g id="xtick_8">
     <g id="line2d_15">
      <g>
       <use xlink:href="#m75e7b01ccc" x="84.869645" y="146.16" style="stroke: #000000; stroke-width: 0.3"/>
      </g>
     </g>
     <g id="line2d_16">
      <g>
       <use xlink:href="#m57541fb819" x="84.869645" y="2.16" style="stroke: #000000; stroke-width: 0.3"/>
      </g>
     </g>
    </g>
    <g id="xtick_9">
     <g id="line2d_17">
      <g>
       <use xlink:href="#m75e7b01ccc" x="109.415099" y="146.16" style="stroke: #000000; stroke-width: 0.3"/>
      </g>
     </g>
     <g id="line2d_18">
      <g>
       <use xlink:href="#m57541fb819" x="109.415099" y="2.16" style="stroke: #000000; stroke-width: 0.3"/>
      </g>
     </g>
    </g>
    <g id="xtick_10">
     <g id="line2d_19">
      <g>
       <use xlink:href="#m75e7b01ccc" x="121.687827" y="146.16" style="stroke: #000000; stroke-width: 0.3"/>
      </g>
     </g>
     <g id="line2d_20">
      <g>
       <use xlink:href="#m57541fb819" x="121.687827" y="2.16" style="stroke: #000000; stroke-width: 0.3"/>
      </g>
     </g>
    </g>
    <g id="xtick_11">
     <g id="line2d_21">
      <g>
       <use xlink:href="#m75e7b01ccc" x="133.960554" y="146.16" style="stroke: #000000; stroke-width: 0.3"/>
      </g>
     </g>
     <g id="line2d_22">
      <g>
       <use xlink:href="#m57541fb819" x="133.960554" y="2.16" style="stroke: #000000; stroke-width: 0.3"/>
      </g>
     </g>
    </g>
    <g id="xtick_12">
     <g id="line2d_23">
      <g>
       <use xlink:href="#m75e7b01ccc" x="158.506009" y="146.16" style="stroke: #000000; stroke-width: 0.3"/>
      </g>
     </g>
     <g id="line2d_24">
      <g>
       <use xlink:href="#m57541fb819" x="158.506009" y="2.16" style="stroke: #000000; stroke-width: 0.3"/>
      </g>
     </g>
    </g>
    <g id="xtick_13">
     <g id="line2d_25">
      <g>
       <use xlink:href="#m75e7b01ccc" x="170.778736" y="146.16" style="stroke: #000000; stroke-width: 0.3"/>
      </g>
     </g>
     <g id="line2d_26">
      <g>
       <use xlink:href="#m57541fb819" x="170.778736" y="2.16" style="stroke: #000000; stroke-width: 0.3"/>
      </g>
     </g>
    </g>
    <g id="xtick_14">
     <g id="line2d_27">
      <g>
       <use xlink:href="#m75e7b01ccc" x="183.051463" y="146.16" style="stroke: #000000; stroke-width: 0.3"/>
      </g>
     </g>
     <g id="line2d_28">
      <g>
       <use xlink:href="#m57541fb819" x="183.051463" y="2.16" style="stroke: #000000; stroke-width: 0.3"/>
      </g>
     </g>
    </g>
    <g id="xtick_15">
     <g id="line2d_29">
      <g>
       <use xlink:href="#m75e7b01ccc" x="207.596918" y="146.16" style="stroke: #000000; stroke-width: 0.3"/>
      </g>
     </g>
     <g id="line2d_30">
      <g>
       <use xlink:href="#m57541fb819" x="207.596918" y="2.16" style="stroke: #000000; stroke-width: 0.3"/>
      </g>
     </g>
    </g>
    <g id="xtick_16">
     <g id="line2d_31">
      <g>
       <use xlink:href="#m75e7b01ccc" x="219.869645" y="146.16" style="stroke: #000000; stroke-width: 0.3"/>
      </g>
     </g>
     <g id="line2d_32">
      <g>
       <use xlink:href="#m57541fb819" x="219.869645" y="2.16" style="stroke: #000000; stroke-width: 0.3"/>
      </g>
     </g>
    </g>
    <g id="xtick_17">
     <g id="line2d_33">
      <g>
       <use xlink:href="#m75e7b01ccc" x="232.142372" y="146.16" style="stroke: #000000; stroke-width: 0.3"/>
      </g>
     </g>
     <g id="line2d_34">
      <g>
       <use xlink:href="#m57541fb819" x="232.142372" y="2.16" style="stroke: #000000; stroke-width: 0.3"/>
      </g>
     </g>
    </g>
    <g id="text_6">
     <!-- Time [s] -->
     <g style="fill: #111111" transform="translate(130.233672 167.522344) scale(0.09 -0.09)">
      <defs>
       <path id="Helvetica-54" d="M 3828 4591 
L 3828 4044 
L 2281 4044 
L 2281 0 
L 1650 0 
L 1650 4044 
L 103 4044 
L 103 4591 
L 3828 4591 
z
" transform="scale(0.015625)"/>
       <path id="Helvetica-69" d="M 413 3331 
L 984 3331 
L 984 0 
L 413 0 
L 413 3331 
z
M 413 4591 
L 984 4591 
L 984 3953 
L 413 3953 
L 413 4591 
z
" transform="scale(0.015625)"/>
       <path id="Helvetica-6d" d="M 413 3347 
L 969 3347 
L 969 2872 
Q 1169 3119 1331 3231 
Q 1609 3422 1963 3422 
Q 2363 3422 2606 3225 
Q 2744 3113 2856 2894 
Q 3044 3163 3297 3292 
Q 3550 3422 3866 3422 
Q 4541 3422 4784 2934 
Q 4916 2672 4916 2228 
L 4916 0 
L 4331 0 
L 4331 2325 
Q 4331 2659 4164 2784 
Q 3997 2909 3756 2909 
Q 3425 2909 3186 2687 
Q 2947 2466 2947 1947 
L 2947 0 
L 2375 0 
L 2375 2184 
Q 2375 2525 2294 2681 
Q 2166 2916 1816 2916 
Q 1497 2916 1236 2669 
Q 975 2422 975 1775 
L 975 0 
L 413 0 
L 413 3347 
z
" transform="scale(0.015625)"/>
       <path id="Helvetica-65" d="M 1806 3422 
Q 2163 3422 2497 3255 
Q 2831 3088 3006 2822 
Q 3175 2569 3231 2231 
Q 3281 2000 3281 1494 
L 828 1494 
Q 844 984 1069 676 
Q 1294 369 1766 369 
Q 2206 369 2469 659 
Q 2619 828 2681 1050 
L 3234 1050 
Q 3213 866 3089 639 
Q 2966 413 2813 269 
Q 2556 19 2178 -69 
Q 1975 -119 1719 -119 
Q 1094 -119 659 336 
Q 225 791 225 1609 
Q 225 2416 662 2919 
Q 1100 3422 1806 3422 
z
M 2703 1941 
Q 2669 2306 2544 2525 
Q 2313 2931 1772 2931 
Q 1384 2931 1121 2651 
Q 859 2372 844 1941 
L 2703 1941 
z
M 1753 3428 
L 1753 3428 
z
" transform="scale(0.015625)"/>
       <path id="Helvetica-20" transform="scale(0.015625)"/>
       <path id="Helvetica-5b" d="M 400 4622 
L 1600 4622 
L 1600 4163 
L 931 4163 
L 931 -800 
L 1600 -800 
L 1600 -1259 
L 400 -1259 
L 400 4622 
z
" transform="scale(0.015625)"/>
       <path id="Helvetica-73" d="M 747 1050 
Q 772 769 888 619 
Q 1100 347 1625 347 
Q 1938 347 2175 483 
Q 2413 619 2413 903 
Q 2413 1119 2222 1231 
Q 2100 1300 1741 1391 
L 1294 1503 
Q 866 1609 663 1741 
Q 300 1969 300 2372 
Q 300 2847 642 3140 
Q 984 3434 1563 3434 
Q 2319 3434 2653 2991 
Q 2863 2709 2856 2384 
L 2325 2384 
Q 2309 2575 2191 2731 
Q 1997 2953 1519 2953 
Q 1200 2953 1036 2831 
Q 872 2709 872 2509 
Q 872 2291 1088 2159 
Q 1213 2081 1456 2022 
L 1828 1931 
Q 2434 1784 2641 1647 
Q 2969 1431 2969 969 
Q 2969 522 2630 197 
Q 2291 -128 1597 -128 
Q 850 -128 539 211 
Q 228 550 206 1050 
L 747 1050 
z
M 1578 3428 
L 1578 3428 
z
" transform="scale(0.015625)"/>
       <path id="Helvetica-5d" d="M 147 -800 
L 813 -800 
L 813 4163 
L 147 4163 
L 147 4622 
L 1347 4622 
L 1347 -1259 
L 147 -1259 
L 147 -800 
z
" transform="scale(0.015625)"/>
      </defs>
      <use xlink:href="#Helvetica-54"/>
      <use xlink:href="#Helvetica-69" x="61.083984"/>
      <use xlink:href="#Helvetica-6d" x="83.300781"/>
      <use xlink:href="#Helvetica-65" x="166.601562"/>
      <use xlink:href="#Helvetica-20" x="222.216797"/>
      <use xlink:href="#Helvetica-5b" x="250"/>
      <use xlink:href="#Helvetica-73" x="277.783203"/>
      <use xlink:href="#Helvetica-5d" x="327.783203"/>
     </g>
    </g>
   </g>
   <g id="matplotlib.axis_2">
    <g id="ytick_1">
     <g id="line2d_35">
      <defs>
       <path id="me1fe9e2ce3" d="M 0 0 
L 2.5 0 
" style="stroke: #000000; stroke-width: 0.6"/>
      </defs>
      <g>
       <use xlink:href="#me1fe9e2ce3" x="38.233281" y="119.631572" style="stroke: #000000; stroke-width: 0.6"/>
      </g>
     </g>
     <g id="line2d_36">
      <defs>
       <path id="me8a0d81990" d="M 0 0 
L -2.5 0 
" style="stroke: #000000; stroke-width: 0.6"/>
      </defs>
      <g>
       <use xlink:href="#me8a0d81990" x="254.233281" y="119.631572" style="stroke: #000000; stroke-width: 0.6"/>
      </g>
     </g>
     <g id="text_7">
      <!-- −0.5 -->
      <g transform="translate(18.940781 122.500947) scale(0.08 -0.08)">
       <defs>
        <path id="Helvetica-2212" d="M 3547 1894 
L 3547 1369 
L 288 1369 
L 288 1894 
L 3547 1894 
z
" transform="scale(0.015625)"/>
        <path id="Helvetica-2e" d="M 547 681 
L 1200 681 
L 1200 0 
L 547 0 
L 547 681 
z
" transform="scale(0.015625)"/>
        <path id="Helvetica-35" d="M 791 1141 
Q 847 659 1238 475 
Q 1438 381 1700 381 
Q 2200 381 2440 700 
Q 2681 1019 2681 1406 
Q 2681 1875 2395 2131 
Q 2109 2388 1709 2388 
Q 1419 2388 1211 2275 
Q 1003 2163 856 1963 
L 369 1991 
L 709 4400 
L 3034 4400 
L 3034 3856 
L 1131 3856 
L 941 2613 
Q 1097 2731 1238 2791 
Q 1488 2894 1816 2894 
Q 2431 2894 2859 2497 
Q 3288 2100 3288 1491 
Q 3288 856 2895 371 
Q 2503 -113 1644 -113 
Q 1097 -113 676 195 
Q 256 503 206 1141 
L 791 1141 
z
" transform="scale(0.015625)"/>
       </defs>
       <use xlink:href="#Helvetica-2212"/>
       <use xlink:href="#Helvetica-30" x="58.398438"/>
       <use xlink:href="#Helvetica-2e" x="114.013672"/>
       <use xlink:href="#Helvetica-35" x="141.796875"/>
      </g>
     </g>
    </g>
    <g id="ytick_2">
     <g id="line2d_37">
      <g>
       <use xlink:href="#me1fe9e2ce3" x="38.233281" y="85.605156" style="stroke: #000000; stroke-width: 0.6"/>
      </g>
     </g>
     <g id="line2d_38">
      <g>
       <use xlink:href="#me8a0d81990" x="254.233281" y="85.605156" style="stroke: #000000; stroke-width: 0.6"/>
      </g>
     </g>
     <g id="text_8">
      <!-- 0.0 -->
      <g transform="translate(23.613281 88.474531) scale(0.08 -0.08)">
       <use xlink:href="#Helvetica-30"/>
       <use xlink:href="#Helvetica-2e" x="55.615234"/>
       <use xlink:href="#Helvetica-30" x="83.398438"/>
      </g>
     </g>
    </g>
    <g id="ytick_3">
     <g id="line2d_39">
      <g>
       <use xlink:href="#me1fe9e2ce3" x="38.233281" y="51.578739" style="stroke: #000000; stroke-width: 0.6"/>
      </g>
     </g>
     <g id="line2d_40">
      <g>
       <use xlink:href="#me8a0d81990" x="254.233281" y="51.578739" style="stroke: #000000; stroke-width: 0.6"/>
      </g>
     </g>
     <g id="text_9">
      <!-- 0.5 -->
      <g transform="translate(23.613281 54.448114) scale(0.08 -0.08)">
       <use xlink:href="#Helvetica-30"/>
       <use xlink:href="#Helvetica-2e" x="55.615234"/>
       <use xlink:href="#Helvetica-35" x="83.398438"/>
      </g>
     </g>
    </g>
    <g id="ytick_4">
     <g id="line2d_41">
      <g>
       <use xlink:href="#me1fe9e2ce3" x="38.233281" y="17.552323" style="stroke: #000000; stroke-width: 0.6"/>
      </g>
     </g>
     <g id="line2d_42">
      <g>
       <use xlink:href="#me8a0d81990" x="254.233281" y="17.552323" style="stroke: #000000; stroke-width: 0.6"/>
      </g>
     </g>
     <g id="text_10">
      <!-- 1.0 -->
      <g transform="translate(23.613281 20.421698) scale(0.08 -0.08)">
       <defs>
        <path id="Helvetica-31" d="M 613 3169 
L 613 3600 
Q 1222 3659 1462 3798 
Q 1703 3938 1822 4456 
L 2266 4456 
L 2266 0 
L 1666 0 
L 1666 3169 
L 613 3169 
z
" transform="scale(0.015625)"/>
       </defs>
       <use xlink:href="#Helvetica-31"/>
       <use xlink:href="#Helvetica-2e" x="55.615234"/>
       <use xlink:href="#Helvetica-30" x="83.398438"/>
      </g>
     </g>
    </g>
    <g id="ytick_5">
     <g id="line2d_43">
      <defs>
       <path id="m7422902a1a" d="M 0 0 
L 1.5 0 
" style="stroke: #000000; stroke-width: 0.3"/>
      </defs>
      <g>
       <use xlink:href="#m7422902a1a" x="38.233281" y="140.047422" style="stroke: #000000; stroke-width: 0.3"/>
      </g>
     </g>
     <g id="line2d_44">
      <defs>
       <path id="m67adbc0a4b" d="M 0 0 
L -1.5 0 
" style="stroke: #000000; stroke-width: 0.3"/>
      </defs>
      <g>
       <use xlink:href="#m67adbc0a4b" x="254.233281" y="140.047422" style="stroke: #000000; stroke-width: 0.3"/>
      </g>
     </g>
    </g>
    <g id="ytick_6">
     <g id="line2d_45">
      <g>
       <use xlink:href="#m7422902a1a" x="38.233281" y="133.242139" style="stroke: #000000; stroke-width: 0.3"/>
      </g>
     </g>
     <g id="line2d_46">
      <g>
       <use xlink:href="#m67adbc0a4b" x="254.233281" y="133.242139" style="stroke: #000000; stroke-width: 0.3"/>
      </g>
     </g>
    </g>
    <g id="ytick_7">
     <g id="line2d_47">
      <g>
       <use xlink:href="#m7422902a1a" x="38.233281" y="126.436855" style="stroke: #000000; stroke-width: 0.3"/>
      </g>
     </g>
     <g id="line2d_48">
      <g>
       <use xlink:href="#m67adbc0a4b" x="254.233281" y="126.436855" style="stroke: #000000; stroke-width: 0.3"/>
      </g>
     </g>
    </g>
    <g id="ytick_8">
     <g id="line2d_49">
      <g>
       <use xlink:href="#m7422902a1a" x="38.233281" y="112.826289" style="stroke: #000000; stroke-width: 0.3"/>
      </g>
     </g>
     <g id="line2d_50">
      <g>
       <use xlink:href="#m67adbc0a4b" x="254.233281" y="112.826289" style="stroke: #000000; stroke-width: 0.3"/>
      </g>
     </g>
    </g>
    <g id="ytick_9">
     <g id="line2d_51">
      <g>
       <use xlink:href="#m7422902a1a" x="38.233281" y="106.021006" style="stroke: #000000; stroke-width: 0.3"/>
      </g>
     </g>
     <g id="line2d_52">
      <g>
       <use xlink:href="#m67adbc0a4b" x="254.233281" y="106.021006" style="stroke: #000000; stroke-width: 0.3"/>
      </g>
     </g>
    </g>
    <g id="ytick_10">
     <g id="line2d_53">
      <g>
       <use xlink:href="#m7422902a1a" x="38.233281" y="99.215722" style="stroke: #000000; stroke-width: 0.3"/>
      </g>
     </g>
     <g id="line2d_54">
      <g>
       <use xlink:href="#m67adbc0a4b" x="254.233281" y="99.215722" style="stroke: #000000; stroke-width: 0.3"/>
      </g>
     </g>
    </g>
    <g id="ytick_11">
     <g id="line2d_55">
      <g>
       <use xlink:href="#m7422902a1a" x="38.233281" y="92.410439" style="stroke: #000000; stroke-width: 0.3"/>
      </g>
     </g>
     <g id="line2d_56">
      <g>
       <use xlink:href="#m67adbc0a4b" x="254.233281" y="92.410439" style="stroke: #000000; stroke-width: 0.3"/>
      </g>
     </g>
    </g>
    <g id="ytick_12">
     <g id="line2d_57">
      <g>
       <use xlink:href="#m7422902a1a" x="38.233281" y="78.799872" style="stroke: #000000; stroke-width: 0.3"/>
      </g>
     </g>
     <g id="line2d_58">
      <g>
       <use xlink:href="#m67adbc0a4b" x="254.233281" y="78.799872" style="stroke: #000000; stroke-width: 0.3"/>
      </g>
     </g>
    </g>
    <g id="ytick_13">
     <g id="line2d_59">
      <g>
       <use xlink:href="#m7422902a1a" x="38.233281" y="71.994589" style="stroke: #000000; stroke-width: 0.3"/>
      </g>
     </g>
     <g id="line2d_60">
      <g>
       <use xlink:href="#m67adbc0a4b" x="254.233281" y="71.994589" style="stroke: #000000; stroke-width: 0.3"/>
      </g>
     </g>
    </g>
    <g id="ytick_14">
     <g id="line2d_61">
      <g>
       <use xlink:href="#m7422902a1a" x="38.233281" y="65.189306" style="stroke: #000000; stroke-width: 0.3"/>
      </g>
     </g>
     <g id="line2d_62">
      <g>
       <use xlink:href="#m67adbc0a4b" x="254.233281" y="65.189306" style="stroke: #000000; stroke-width: 0.3"/>
      </g>
     </g>
    </g>
    <g id="ytick_15">
     <g id="line2d_63">
      <g>
       <use xlink:href="#m7422902a1a" x="38.233281" y="58.384023" style="stroke: #000000; stroke-width: 0.3"/>
      </g>
     </g>
     <g id="line2d_64">
      <g>
       <use xlink:href="#m67adbc0a4b" x="254.233281" y="58.384023" style="stroke: #000000; stroke-width: 0.3"/>
      </g>
     </g>
    </g>
    <g id="ytick_16">
     <g id="line2d_65">
      <g>
       <use xlink:href="#m7422902a1a" x="38.233281" y="44.773456" style="stroke: #000000; stroke-width: 0.3"/>
      </g>
     </g>
     <g id="line2d_66">
      <g>
       <use xlink:href="#m67adbc0a4b" x="254.233281" y="44.773456" style="stroke: #000000; stroke-width: 0.3"/>
      </g>
     </g>
    </g>
    <g id="ytick_17">
     <g id="line2d_67">
      <g>
       <use xlink:href="#m7422902a1a" x="38.233281" y="37.968173" style="stroke: #000000; stroke-width: 0.3"/>
      </g>
     </g>
     <g id="line2d_68">
      <g>
       <use xlink:href="#m67adbc0a4b" x="254.233281" y="37.968173" style="stroke: #000000; stroke-width: 0.3"/>
      </g>
     </g>
    </g>
    <g id="ytick_18">
     <g id="line2d_69">
      <g>
       <use xlink:href="#m7422902a1a" x="38.233281" y="31.162889" style="stroke: #000000; stroke-width: 0.3"/>
      </g>
     </g>
     <g id="line2d_70">
      <g>
       <use xlink:href="#m67adbc0a4b" x="254.233281" y="31.162889" style="stroke: #000000; stroke-width: 0.3"/>
      </g>
     </g>
    </g>
    <g id="ytick_19">
     <g id="line2d_71">
      <g>
       <use xlink:href="#m7422902a1a" x="38.233281" y="24.357606" style="stroke: #000000; stroke-width: 0.3"/>
      </g>
     </g>
     <g id="line2d_72">
      <g>
       <use xlink:href="#m67adbc0a4b" x="254.233281" y="24.357606" style="stroke: #000000; stroke-width: 0.3"/>
      </g>
     </g>
    </g>
    <g id="ytick_20">
     <g id="line2d_73">
      <g>
       <use xlink:href="#m7422902a1a" x="38.233281" y="10.74704" style="stroke: #000000; stroke-width: 0.3"/>
      </g>
     </g>
     <g id="line2d_74">
      <g>
       <use xlink:href="#m67adbc0a4b" x="254.233281" y="10.74704" style="stroke: #000000; stroke-width: 0.3"/>
      </g>
     </g>
    </g>
    <g id="ytick_21">
     <g id="line2d_75">
      <g>
       <use xlink:href="#m7422902a1a" x="38.233281" y="3.941756" style="stroke: #000000; stroke-width: 0.3"/>
      </g>
     </g>
     <g id="line2d_76">
      <g>
       <use xlink:href="#m67adbc0a4b" x="254.233281" y="3.941756" style="stroke: #000000; stroke-width: 0.3"/>
      </g>
     </g>
    </g>
    <g id="text_11">
     <!-- Response -->
     <g style="fill: #111111" transform="translate(13.064844 94.421953) rotate(-90) scale(0.09 -0.09)">
      <defs>
       <path id="Helvetica-52" d="M 2622 2488 
Q 3059 2488 3314 2663 
Q 3569 2838 3569 3294 
Q 3569 3784 3213 3963 
Q 3022 4056 2703 4056 
L 1184 4056 
L 1184 2488 
L 2622 2488 
z
M 563 4591 
L 2688 4591 
Q 3213 4591 3553 4438 
Q 4200 4144 4200 3353 
Q 4200 2941 4029 2678 
Q 3859 2416 3553 2256 
Q 3822 2147 3958 1969 
Q 4094 1791 4109 1391 
L 4131 775 
Q 4141 513 4175 384 
Q 4231 166 4375 103 
L 4375 0 
L 3613 0 
Q 3581 59 3562 153 
Q 3544 247 3531 516 
L 3494 1281 
Q 3472 1731 3159 1884 
Q 2981 1969 2600 1969 
L 1184 1969 
L 1184 0 
L 563 0 
L 563 4591 
z
" transform="scale(0.015625)"/>
       <path id="Helvetica-70" d="M 1825 378 
Q 2219 378 2480 708 
Q 2741 1038 2741 1694 
Q 2741 2094 2625 2381 
Q 2406 2934 1825 2934 
Q 1241 2934 1025 2350 
Q 909 2038 909 1556 
Q 909 1169 1025 897 
Q 1244 378 1825 378 
z
M 369 3331 
L 916 3331 
L 916 2888 
Q 1084 3116 1284 3241 
Q 1569 3428 1953 3428 
Q 2522 3428 2919 2992 
Q 3316 2556 3316 1747 
Q 3316 653 2744 184 
Q 2381 -113 1900 -113 
Q 1522 -113 1266 53 
Q 1116 147 931 375 
L 931 -1334 
L 369 -1334 
L 369 3331 
z
" transform="scale(0.015625)"/>
       <path id="Helvetica-6f" d="M 1741 363 
Q 2300 363 2508 786 
Q 2716 1209 2716 1728 
Q 2716 2197 2566 2491 
Q 2328 2953 1747 2953 
Q 1231 2953 997 2559 
Q 763 2166 763 1609 
Q 763 1075 997 719 
Q 1231 363 1741 363 
z
M 1763 3444 
Q 2409 3444 2856 3012 
Q 3303 2581 3303 1744 
Q 3303 934 2909 406 
Q 2516 -122 1688 -122 
Q 997 -122 590 345 
Q 184 813 184 1600 
Q 184 2444 612 2944 
Q 1041 3444 1763 3444 
z
M 1744 3428 
L 1744 3428 
z
" transform="scale(0.015625)"/>
       <path id="Helvetica-6e" d="M 413 3347 
L 947 3347 
L 947 2872 
Q 1184 3166 1450 3294 
Q 1716 3422 2041 3422 
Q 2753 3422 3003 2925 
Q 3141 2653 3141 2147 
L 3141 0 
L 2569 0 
L 2569 2109 
Q 2569 2416 2478 2603 
Q 2328 2916 1934 2916 
Q 1734 2916 1606 2875 
Q 1375 2806 1200 2600 
Q 1059 2434 1017 2257 
Q 975 2081 975 1753 
L 975 0 
L 413 0 
L 413 3347 
z
M 1734 3428 
L 1734 3428 
z
" transform="scale(0.015625)"/>
      </defs>
      <use xlink:href="#Helvetica-52"/>
      <use xlink:href="#Helvetica-65" x="72.216797"/>
      <use xlink:href="#Helvetica-73" x="127.832031"/>
      <use xlink:href="#Helvetica-70" x="177.832031"/>
      <use xlink:href="#Helvetica-6f" x="233.447266"/>
      <use xlink:href="#Helvetica-6e" x="289.0625"/>
      <use xlink:href="#Helvetica-73" x="344.677734"/>
      <use xlink:href="#Helvetica-65" x="394.677734"/>
     </g>
    </g>
   </g>
   <g id="line2d_77">
    <path d="M 48.051463 85.605156 
L 50.678401 71.60639 
L 52.648605 62.0662 
L 54.618809 53.578838 
L 56.589012 46.312675 
L 57.902482 42.212434 
L 59.215951 38.741393 
L 60.52942 35.919637 
L 61.842889 33.759143 
L 63.156358 32.263893 
L 63.813093 31.764843 
L 64.469827 31.430084 
L 65.126562 31.257973 
L 65.783296 31.246419 
L 66.440031 31.392898 
L 67.096766 31.694468 
L 67.7535 32.147784 
L 69.066969 33.494351 
L 70.380438 35.398399 
L 71.693908 37.820388 
L 73.007377 40.716065 
L 74.97758 45.841129 
L 76.947784 51.745977 
L 79.574722 60.505728 
L 84.171864 76.977123 
L 87.455537 88.508382 
L 90.082476 96.980152 
L 92.052679 102.666883 
L 94.022883 107.648247 
L 95.336352 110.529496 
L 96.649821 113.032717 
L 97.96329 115.141029 
L 99.27676 116.842635 
L 100.590229 118.130792 
L 101.903698 119.003732 
L 103.217167 119.464523 
L 104.530636 119.520882 
L 105.844105 119.184939 
L 107.157574 118.472958 
L 108.471043 117.405017 
L 109.784513 116.004663 
L 111.097982 114.298521 
L 113.068185 111.230697 
L 115.038389 107.6493 
L 117.665327 102.2766 
L 121.605735 93.521549 
L 126.202877 83.389928 
L 128.829815 78.142286 
L 130.800019 74.632236 
L 132.770223 71.568905 
L 134.740426 69.009927 
L 136.053895 67.605524 
L 137.367365 66.452752 
L 138.680834 65.556934 
L 139.994303 64.920265 
L 141.307772 64.541889 
L 142.621241 64.418 
L 143.93471 64.541985 
L 145.248179 64.904583 
L 146.561649 65.494081 
L 147.875118 66.29652 
L 149.188587 67.295933 
L 151.158791 69.125172 
L 153.128994 71.291451 
L 155.755933 74.580062 
L 159.69634 80.007345 
L 164.950216 87.23798 
L 167.577155 90.487621 
L 169.547358 92.653441 
L 171.517562 94.536493 
L 173.487766 96.101734 
L 175.45797 97.323927 
L 177.428173 98.187827 
L 178.741642 98.561677 
L 180.055112 98.774527 
L 181.368581 98.829013 
L 182.68205 98.729512 
L 184.652254 98.305102 
L 186.622457 97.574634 
L 188.592661 96.57125 
L 190.562865 95.333539 
L 193.189803 93.393153 
L 196.473476 90.655569 
L 204.354291 83.906688 
L 206.981229 81.955377 
L 209.608167 80.29039 
L 211.578371 79.264817 
L 213.548575 78.450225 
L 215.518778 77.857605 
L 217.488982 77.491733 
L 219.459186 77.351339 
L 221.429389 77.429425 
L 223.399593 77.713715 
L 225.369797 78.187215 
L 227.996735 79.075994 
L 230.623673 80.204598 
L 233.907346 81.851765 
L 244.415099 87.38256 
L 244.415099 87.38256 
" clip-path="url(#p8a14875c89)" style="fill: none; stroke: #2a2f80; stroke-linecap: square"/>
   </g>
   <g id="line2d_78">
    <path d="M 48.051463 17.552323 
L 49.364932 18.493542 
L 50.678401 19.849993 
L 51.99187 21.604088 
L 53.30534 23.736032 
L 54.618809 26.223998 
L 56.589012 30.57125 
L 58.559216 35.579244 
L 60.52942 41.154476 
L 63.156358 49.299208 
L 66.440031 60.279091 
L 76.29105 93.94935 
L 78.917988 102.025329 
L 81.544926 109.342189 
L 83.51513 114.236927 
L 85.485334 118.561787 
L 87.455537 122.272057 
L 88.769006 124.386718 
L 90.082476 126.20513 
L 91.395945 127.721775 
L 92.709414 128.933209 
L 94.022883 129.83804 
L 95.336352 130.436896 
L 96.649821 130.732371 
L 97.96329 130.728975 
L 99.27676 130.43306 
L 100.590229 129.852738 
L 101.903698 128.997796 
L 103.217167 127.879593 
L 104.530636 126.510955 
L 106.50084 124.019786 
L 108.471043 121.050241 
L 110.441247 117.6605 
L 113.068185 112.595603 
L 116.351858 105.609475 
L 121.605735 93.666442 
L 126.202877 83.319641 
L 129.48655 76.452645 
L 132.113488 71.468168 
L 134.083692 68.099356 
L 136.053895 65.090858 
L 138.024099 62.474919 
L 139.994303 60.27707 
L 141.964507 58.515975 
L 143.277976 57.590635 
L 144.591445 56.866542 
L 145.904914 56.344129 
L 147.218383 56.022515 
L 148.531852 55.899531 
L 149.845321 55.971768 
L 151.158791 56.234625 
L 152.47226 56.682359 
L 153.785729 57.308152 
L 155.755933 58.563319 
L 157.726136 60.170988 
L 159.69634 62.096706 
L 161.666544 64.302497 
L 164.293482 67.608309 
L 167.577155 72.181725 
L 172.831031 80.026773 
L 178.084908 87.784124 
L 181.368581 92.242065 
L 183.995519 95.45789 
L 186.622457 98.286525 
L 188.592661 100.119563 
L 190.562865 101.684194 
L 192.533068 102.96621 
L 194.503272 103.955947 
L 196.473476 104.648288 
L 198.44368 105.042589 
L 200.413883 105.14255 
L 202.384087 104.95602 
L 204.354291 104.494758 
L 206.324494 103.774133 
L 208.294698 102.812791 
L 210.264902 101.63228 
L 212.89184 99.759199 
L 215.518778 97.601984 
L 218.802451 94.608526 
L 224.056328 89.456017 
L 229.966939 83.732112 
L 233.250612 80.840794 
L 235.87755 78.768322 
L 238.504488 76.95786 
L 241.131427 75.444812 
L 243.10163 74.521377 
L 244.415099 74.010915 
L 244.415099 74.010915 
" clip-path="url(#p8a14875c89)" style="fill: none; stroke-dasharray: 3.7,1.6; stroke-dashoffset: 0; stroke: #808080"/>
   </g>
   <g id="line2d_79">
    <path d="M 48.051463 28.340671 
L 50.021667 26.295264 
L 51.99187 24.684368 
L 53.30534 23.852019 
L 54.618809 23.212248 
L 55.932278 22.763845 
L 57.245747 22.505064 
L 58.559216 22.433638 
L 59.872685 22.546789 
L 61.186154 22.84125 
L 62.499624 23.313278 
L 63.813093 23.958676 
L 65.783296 25.241584 
L 67.7535 26.88667 
L 69.723704 28.874613 
L 71.693908 31.184323 
L 73.664111 33.793118 
L 76.29105 37.694943 
L 78.917988 42.025143 
L 82.201661 47.943494 
L 86.142068 55.617019 
L 91.395945 66.445315 
L 101.246963 86.86521 
L 105.187371 94.488906 
L 108.471043 100.400765 
L 111.754716 105.815068 
L 114.381655 109.735819 
L 117.008593 113.254834 
L 119.635531 116.344287 
L 121.605735 118.366021 
L 123.575939 120.126524 
L 125.546142 121.620558 
L 127.516346 122.844744 
L 129.48655 123.797537 
L 131.456753 124.479198 
L 133.426957 124.891741 
L 135.397161 125.038886 
L 137.367365 124.925991 
L 139.337568 124.559977 
L 141.307772 123.949247 
L 143.277976 123.103598 
L 145.248179 122.034119 
L 147.218383 120.753094 
L 149.845321 118.739235 
L 152.47226 116.407487 
L 155.099198 113.794742 
L 158.382871 110.193175 
L 162.323278 105.484187 
L 167.577155 98.780724 
L 178.741642 84.343108 
L 182.68205 79.615141 
L 185.965723 75.958259 
L 189.249396 72.618009 
L 192.533068 69.641761 
L 195.160007 67.549332 
L 197.786945 65.730921 
L 200.413883 64.198808 
L 203.040822 62.961588 
L 205.66776 62.024188 
L 208.294698 61.38793 
L 210.921636 61.050624 
L 213.548575 61.006708 
L 216.175513 61.247418 
L 218.802451 61.760989 
L 221.429389 62.532884 
L 224.056328 63.546055 
L 226.683266 64.781212 
L 229.966939 66.604812 
L 233.250612 68.696967 
L 237.191019 71.494256 
L 241.788161 75.043134 
L 244.415099 77.157914 
L 244.415099 77.157914 
" clip-path="url(#p8a14875c89)" style="fill: none; stroke-dasharray: 1,1.65; stroke-dashoffset: 0; stroke: #000000"/>
   </g>
   <g id="patch_3">
    <path d="M 38.233281 146.16 
L 38.233281 2.16 
" style="fill: none; stroke: #000000; stroke-width: 0.6; stroke-linejoin: miter; stroke-linecap: square"/>
   </g>
   <g id="patch_4">
    <path d="M 254.233281 146.16 
L 254.233281 2.16 
" style="fill: none; stroke: #000000; stroke-width: 0.6; stroke-linejoin: miter; stroke-linecap: square"/>
   </g>
   <g id="patch_5">
    <path d="M 38.233281 146.16 
L 254.233281 146.16 
" style="fill: none; stroke: #000000; stroke-width: 0.6; stroke-linejoin: miter; stroke-linecap: square"/>
   </g>
   <g id="patch_6">
    <path d="M 38.233281 2.16 
L 254.233281 2.16 
" style="fill: none; stroke: #000000; stroke-width: 0.6; stroke-linejoin: miter; stroke-linecap: square"/>
   </g>
   <g id="legend_1">
    <g id="line2d_80">
     <path d="M 203.287031 12.29875 
L 211.287031 12.29875 
L 219.287031 12.29875 
" style="fill: none; stroke: #2a2f80; stroke-linecap: square"/>
    </g>
    <g id="text_12">
     <!-- Run 1 -->
     <g transform="translate(225.687031 15.09875) scale(0.08 -0.08)">
      <defs>
       <path id="Helvetica-75" d="M 975 3347 
L 975 1125 
Q 975 869 1056 706 
Q 1206 406 1616 406 
Q 2203 406 2416 931 
Q 2531 1213 2531 1703 
L 2531 3347 
L 3094 3347 
L 3094 0 
L 2563 0 
L 2569 494 
Q 2459 303 2297 172 
Q 1975 -91 1516 -91 
Q 800 -91 541 388 
Q 400 644 400 1072 
L 400 3347 
L 975 3347 
z
M 1747 3428 
L 1747 3428 
z
" transform="scale(0.015625)"/>
      </defs>
      <use xlink:href="#Helvetica-52"/>
      <use xlink:href="#Helvetica-75" x="72.216797"/>
      <use xlink:href="#Helvetica-6e" x="127.832031"/>
      <use xlink:href="#Helvetica-20" x="183.447266"/>
      <use xlink:href="#Helvetica-31" x="211.230469"/>
     </g>
    </g>
    <g id="line2d_81">
     <path d="M 203.287031 23.705 
L 211.287031 23.705 
L 219.287031 23.705 
" style="fill: none; stroke-dasharray: 3.7,1.6; stroke-dashoffset: 0; stroke: #808080"/>
    </g>
    <g id="text_13">
     <!-- Run 2 -->
     <g transform="translate(225.687031 26.505) scale(0.08 -0.08)">
      <use xlink:href="#Helvetica-52"/>
      <use xlink:href="#Helvetica-75" x="72.216797"/>
      <use xlink:href="#Helvetica-6e" x="127.832031"/>
      <use xlink:href="#Helvetica-20" x="183.447266"/>
      <use xlink:href="#Helvetica-32" x="211.230469"/>
     </g>
    </g>
    <g id="line2d_82">
     <path d="M 203.287031 35.11125 
L 211.287031 35.11125 
L 219.287031 35.11125 
" style="fill: none; stroke-dasharray: 1,1.65; stroke-dashoffset: 0; stroke: #000000"/>
    </g>
    <g id="text_14">
     <!-- Run 3 -->
     <g transform="translate(225.687031 37.91125) scale(0.08 -0.08)">
      <defs>
       <path id="Helvetica-33" d="M 1663 -122 
Q 869 -122 511 314 
Q 153 750 153 1375 
L 741 1375 
Q 778 941 903 744 
Q 1122 391 1694 391 
Q 2138 391 2406 628 
Q 2675 866 2675 1241 
Q 2675 1703 2392 1887 
Q 2109 2072 1606 2072 
Q 1550 2072 1492 2070 
Q 1434 2069 1375 2066 
L 1375 2563 
Q 1463 2553 1522 2550 
Q 1581 2547 1650 2547 
Q 1966 2547 2169 2647 
Q 2525 2822 2525 3272 
Q 2525 3606 2287 3787 
Q 2050 3969 1734 3969 
Q 1172 3969 956 3594 
Q 838 3388 822 3006 
L 266 3006 
Q 266 3506 466 3856 
Q 809 4481 1675 4481 
Q 2359 4481 2734 4176 
Q 3109 3872 3109 3294 
Q 3109 2881 2888 2625 
Q 2750 2466 2531 2375 
Q 2884 2278 3082 2001 
Q 3281 1725 3281 1325 
Q 3281 684 2859 281 
Q 2438 -122 1663 -122 
z
" transform="scale(0.015625)"/>
      </defs>
      <use xlink:href="#Helvetica-52"/>
      <use xlink:href="#Helvetica-75" x="72.216797"/>
      <use xlink:href="#Helvetica-6e" x="127.832031"/>
      <use xlink:href="#Helvetica-20" x="183.447266"/>
      <use xlink:href="#Helvetica-33" x="211.230469"/>
     </g>
    </g>
   </g>
  </g>
 </g>
 <defs>
  <clipPath id="p8a14875c89">
   <rect x="38.233281" y="2.16" width="216" height="144"/>
  </clipPath>
 </defs>
</svg>
