<?xml version="1.0" encoding="utf-8" standalone="no"?>
<!DOCTYPE svg PUBLIC "-//W3C//DTD SVG 1.1//EN"
  "http://www.w3.org/Graphics/SVG/1.1/DTD/svg11.dtd">
<svg xmlns:xlink="http://www.w3.org/1999/xlink" width="302.52pt" height="158.4pt" viewBox="0 0 302.52 158.4" xmlns="http://www.w3.org/2000/svg" version="1.1">
 <metadata>
  <rdf:RDF xmlns:dc="http://purl.org/dc/elements/1.1/" xmlns:cc="http://creativecommons.org/ns#" xmlns:rdf="http://www.w3.org/1999/02/22-rdf-syntax-ns#">
   <cc:Work>
    <dc:type rdf:resource="http://purl.org/dc/dcmitype/StillImage"/>
    <dc:date>2026-05-26T17:23:50.115391</dc:date>
    <dc:format>image/svg+xml</dc:format>
    <dc:creator>
     <cc:Agent>
      <dc:title>Matplotlib v3.7.2, https://matplotlib.org/</dc:title>
     </cc:Agent>
    </dc:creator>
   </cc:Work>
  </rdf:RDF>
 </metadata>
 <defs>
  <style type="text/css">*{stroke-linejoin: round; stroke-linecap: butt}</style>
 </defs>
 <g id="figure_1">
  <g id="patch_1">
   <path d="M 0 158.4 
L 302.52 158.4 
L 302.52 0 
L 0 0 
z
" style="fill: #ffffff"/>
  </g>
  <g id="axes_1">
   <g id="patch_2">
    <path d="M 30.24 133.2 
L 246.24 133.2 
L 246.24 3.6 
L 30.24 3.6 
z
" style="fill: #ffffff"/>
   </g>
   <g id="matplotlib.axis_1">
    <g id="xtick_1">
     <g id="line2d_1">
      <defs>
       <path id="m5116d983dd" d="M 0 0 
L 0 -4 
" style="stroke: #000000"/>
      </defs>
      <g>
       <use xlink:href="#m5116d983dd" x="30.24" y="133.2" style="stroke: #000000"/>
      </g>
     </g>
     <g id="line2d_2">
      <defs>
       <path id="mf828cfdd19" d="M 0 0 
L 0 4 
" style="stroke: #000000"/>
      </defs>
      <g>
       <use xlink:href="#mf828cfdd19" x="30.24" y="3.6" style="stroke: #000000"/>
      </g>
     </g>
     <g id="text_1">
      <!-- 0 -->
      <g transform="translate(28.015625 142.4975) scale(0.08 -0.08)">
       <defs>
        <path id="Arimo-30" d="M 3309 2203 
Q 3309 1100 2920 518 
Q 2531 -63 1772 -63 
Q 1013 -63 631 515 
Q 250 1094 250 2203 
Q 250 3338 620 3903 
Q 991 4469 1791 4469 
Q 2569 4469 2939 3897 
Q 3309 3325 3309 2203 
z
M 2738 2203 
Q 2738 3156 2517 3584 
Q 2297 4013 1791 4013 
Q 1272 4013 1045 3591 
Q 819 3169 819 2203 
Q 819 1266 1048 831 
Q 1278 397 1778 397 
Q 2275 397 2506 840 
Q 2738 1284 2738 2203 
z
" transform="scale(0.015625)"/>
       </defs>
       <use xlink:href="#Arimo-30"/>
      </g>
     </g>
    </g>
    <g id="xtick_2">
     <g id="line2d_3">
      <g>
       <use xlink:href="#m5116d983dd" x="66.24" y="133.2" style="stroke: #000000"/>
      </g>
     </g>
     <g id="line2d_4">
      <g>
       <use xlink:href="#mf828cfdd19" x="66.24" y="3.6" style="stroke: #000000"/>
      </g>
     </g>
     <g id="text_2">
      <!-- 2 -->
      <g transform="translate(64.015625 142.4975) scale(0.08 -0.08)">
       <defs>
        <path id="Arimo-32" d="M 322 0 
L 322 397 
Q 481 763 711 1042 
Q 941 1322 1194 1548 
Q 1447 1775 1695 1969 
Q 1944 2163 2144 2356 
Q 2344 2550 2467 2762 
Q 2591 2975 2591 3244 
Q 2591 3606 2378 3806 
Q 2166 4006 1788 4006 
Q 1428 4006 1195 3811 
Q 963 3616 922 3263 
L 347 3316 
Q 409 3844 795 4156 
Q 1181 4469 1788 4469 
Q 2453 4469 2811 4155 
Q 3169 3841 3169 3263 
Q 3169 3006 3051 2753 
Q 2934 2500 2703 2247 
Q 2472 1994 1819 1463 
Q 1459 1169 1246 933 
Q 1034 697 941 478 
L 3238 478 
L 3238 0 
L 322 0 
z
" transform="scale(0.015625)"/>
       </defs>
       <use xlink:href="#Arimo-32"/>
      </g>
     </g>
    </g>
    <g id="xtick_3">
     <g id="line2d_5">
      <g>
       <use xlink:href="#m5116d983dd" x="102.24" y="133.2" style="stroke: #000000"/>
      </g>
     </g>
     <g id="line2d_6">
      <g>
       <use xlink:href="#mf828cfdd19" x="102.24" y="3.6" style="stroke: #000000"/>
      </g>
     </g>
     <g id="text_3">
      <!-- 4 -->
      <g transform="translate(100.015625 142.4975) scale(0.08 -0.08)">
       <defs>
        <path id="Arimo-34" d="M 2753 997 
L 2753 0 
L 2222 0 
L 2222 997 
L 147 997 
L 147 1434 
L 2163 4403 
L 2753 4403 
L 2753 1441 
L 3372 1441 
L 3372 997 
L 2753 997 
z
M 2222 1441 
L 2222 3769 
Q 2150 3631 2101 3543 
Q 2053 3456 2013 3397 
L 1003 1903 
Q 916 1775 666 1441 
L 2222 1441 
z
" transform="scale(0.015625)"/>
       </defs>
       <use xlink:href="#Arimo-34"/>
      </g>
     </g>
    </g>
    <g id="xtick_4">
     <g id="line2d_7">
      <g>
       <use xlink:href="#m5116d983dd" x="138.24" y="133.2" style="stroke: #000000"/>
      </g>
     </g>
     <g id="line2d_8">
      <g>
       <use xlink:href="#mf828cfdd19" x="138.24" y="3.6" style="stroke: #000000"/>
      </g>
     </g>
     <g id="text_4">
      <!-- 6 -->
      <g transform="translate(136.015625 142.4975) scale(0.08 -0.08)">
       <defs>
        <path id="Arimo-36" d="M 3278 1441 
Q 3278 744 2900 340 
Q 2522 -63 1856 -63 
Q 1113 -63 719 490 
Q 325 1044 325 2100 
Q 325 3244 734 3856 
Q 1144 4469 1900 4469 
Q 2897 4469 3156 3572 
L 2619 3475 
Q 2453 4013 1894 4013 
Q 1413 4013 1148 3564 
Q 884 3116 884 2266 
Q 1038 2550 1316 2698 
Q 1594 2847 1953 2847 
Q 2563 2847 2920 2465 
Q 3278 2084 3278 1441 
z
M 2706 1416 
Q 2706 1894 2472 2153 
Q 2238 2413 1819 2413 
Q 1425 2413 1183 2183 
Q 941 1953 941 1550 
Q 941 1041 1192 716 
Q 1444 391 1838 391 
Q 2244 391 2475 664 
Q 2706 938 2706 1416 
z
" transform="scale(0.015625)"/>
       </defs>
       <use xlink:href="#Arimo-36"/>
      </g>
     </g>
    </g>
    <g id="xtick_5">
     <g id="line2d_9">
      <g>
       <use xlink:href="#m5116d983dd" x="174.24" y="133.2" style="stroke: #000000"/>
      </g>
     </g>
     <g id="line2d_10">
      <g>
       <use xlink:href="#mf828cfdd19" x="174.24" y="3.6" style="stroke: #000000"/>
      </g>
     </g>
     <g id="text_5">
      <!-- 8 -->
      <g transform="translate(172.015625 142.4975) scale(0.08 -0.08)">
       <defs>
        <path id="Arimo-38" d="M 3281 1228 
Q 3281 619 2893 278 
Q 2506 -63 1781 -63 
Q 1075 -63 676 271 
Q 278 606 278 1222 
Q 278 1653 525 1947 
Q 772 2241 1156 2303 
L 1156 2316 
Q 797 2400 589 2681 
Q 381 2963 381 3341 
Q 381 3844 757 4156 
Q 1134 4469 1769 4469 
Q 2419 4469 2795 4162 
Q 3172 3856 3172 3334 
Q 3172 2956 2962 2675 
Q 2753 2394 2391 2322 
L 2391 2309 
Q 2813 2241 3047 1952 
Q 3281 1663 3281 1228 
z
M 2697 1281 
Q 2697 1691 2453 1898 
Q 2209 2106 1769 2106 
Q 1341 2106 1100 1882 
Q 859 1659 859 1269 
Q 859 359 1788 359 
Q 2247 359 2472 579 
Q 2697 800 2697 1281 
z
M 2588 3303 
Q 2588 4050 1769 4050 
Q 1372 4050 1164 3862 
Q 956 3675 956 3303 
Q 956 2925 1170 2726 
Q 1384 2528 1775 2528 
Q 2172 2528 2380 2711 
Q 2588 2894 2588 3303 
z
" transform="scale(0.015625)"/>
       </defs>
       <use xlink:href="#Arimo-38"/>
      </g>
     </g>
    </g>
    <g id="xtick_6">
     <g id="line2d_11">
      <g>
       <use xlink:href="#m5116d983dd" x="210.24" y="133.2" style="stroke: #000000"/>
      </g>
     </g>
     <g id="line2d_12">
      <g>
       <use xlink:href="#mf828cfdd19" x="210.24" y="3.6" style="stroke: #000000"/>
      </g>
     </g>
     <g id="text_6">
      <!-- 10 -->
      <g transform="translate(205.79125 142.4975) scale(0.08 -0.08)">
       <defs>
        <path id="Arimo-31" d="M 488 0 
L 488 478 
L 1609 478 
L 1609 3866 
L 616 3156 
L 616 3688 
L 1656 4403 
L 2175 4403 
L 2175 478 
L 3247 478 
L 3247 0 
L 488 0 
z
" transform="scale(0.015625)"/>
       </defs>
       <use xlink:href="#Arimo-31"/>
       <use xlink:href="#Arimo-30" x="55.615234"/>
      </g>
     </g>
    </g>
    <g id="xtick_7">
     <g id="line2d_13">
      <g>
       <use xlink:href="#m5116d983dd" x="246.24" y="133.2" style="stroke: #000000"/>
      </g>
     </g>
     <g id="line2d_14">
      <g>
       <use xlink:href="#mf828cfdd19" x="246.24" y="3.6" style="stroke: #000000"/>
      </g>
     </g>
     <g id="text_7">
      <!-- 12 -->
      <g transform="translate(241.79125 142.4975) scale(0.08 -0.08)">
       <use xlink:href="#Arimo-31"/>
       <use xlink:href="#Arimo-32" x="55.615234"/>
      </g>
     </g>
    </g>
    <g id="xtick_8">
     <g id="line2d_15">
      <defs>
       <path id="m99347285a8" d="M 0 0 
L 0 -2.4 
" style="stroke: #000000; stroke-width: 0.5"/>
      </defs>
      <g>
       <use xlink:href="#m99347285a8" x="39.24" y="133.2" style="stroke: #000000; stroke-width: 0.5"/>
      </g>
     </g>
     <g id="line2d_16">
      <defs>
       <path id="me8b9c6f8d6" d="M 0 0 
L 0 2.4 
" style="stroke: #000000; stroke-width: 0.5"/>
      </defs>
      <g>
       <use xlink:href="#me8b9c6f8d6" x="39.24" y="3.6" style="stroke: #000000; stroke-width: 0.5"/>
      </g>
     </g>
    </g>
    <g id="xtick_9">
     <g id="line2d_17">
      <g>
       <use xlink:href="#m99347285a8" x="48.24" y="133.2" style="stroke: #000000; stroke-width: 0.5"/>
      </g>
     </g>
     <g id="line2d_18">
      <g>
       <use xlink:href="#me8b9c6f8d6" x="48.24" y="3.6" style="stroke: #000000; stroke-width: 0.5"/>
      </g>
     </g>
    </g>
    <g id="xtick_10">
     <g id="line2d_19">
      <g>
       <use xlink:href="#m99347285a8" x="57.24" y="133.2" style="stroke: #000000; stroke-width: 0.5"/>
      </g>
     </g>
     <g id="line2d_20">
      <g>
       <use xlink:href="#me8b9c6f8d6" x="57.24" y="3.6" style="stroke: #000000; stroke-width: 0.5"/>
      </g>
     </g>
    </g>
    <g id="xtick_11">
     <g id="line2d_21">
      <g>
       <use xlink:href="#m99347285a8" x="75.24" y="133.2" style="stroke: #000000; stroke-width: 0.5"/>
      </g>
     </g>
     <g id="line2d_22">
      <g>
       <use xlink:href="#me8b9c6f8d6" x="75.24" y="3.6" style="stroke: #000000; stroke-width: 0.5"/>
      </g>
     </g>
    </g>
    <g id="xtick_12">
     <g id="line2d_23">
      <g>
       <use xlink:href="#m99347285a8" x="84.24" y="133.2" style="stroke: #000000; stroke-width: 0.5"/>
      </g>
     </g>
     <g id="line2d_24">
      <g>
       <use xlink:href="#me8b9c6f8d6" x="84.24" y="3.6" style="stroke: #000000; stroke-width: 0.5"/>
      </g>
     </g>
    </g>
    <g id="xtick_13">
     <g id="line2d_25">
      <g>
       <use xlink:href="#m99347285a8" x="93.24" y="133.2" style="stroke: #000000; stroke-width: 0.5"/>
      </g>
     </g>
     <g id="line2d_26">
      <g>
       <use xlink:href="#me8b9c6f8d6" x="93.24" y="3.6" style="stroke: #000000; stroke-width: 0.5"/>
      </g>
     </g>
    </g>
    <g id="xtick_14">
     <g id="line2d_27">
      <g>
       <use xlink:href="#m99347285a8" x="111.24" y="133.2" style="stroke: #000000; stroke-width: 0.5"/>
      </g>
     </g>
     <g id="line2d_28">
      <g>
       <use xlink:href="#me8b9c6f8d6" x="111.24" y="3.6" style="stroke: #000000; stroke-width: 0.5"/>
      </g>
     </g>
    </g>
    <g id="xtick_15">
     <g id="line2d_29">
      <g>
       <use xlink:href="#m99347285a8" x="120.24" y="133.2" style="stroke: #000000; stroke-width: 0.5"/>
      </g>
     </g>
     <g id="line2d_30">
      <g>
       <use xlink:href="#me8b9c6f8d6" x="120.24" y="3.6" style="stroke: #000000; stroke-width: 0.5"/>
      </g>
     </g>
    </g>
    <g id="xtick_16">
     <g id="line2d_31">
      <g>
       <use xlink:href="#m99347285a8" x="129.24" y="133.2" style="stroke: #000000; stroke-width: 0.5"/>
      </g>
     </g>
     <g id="line2d_32">
      <g>
       <use xlink:href="#me8b9c6f8d6" x="129.24" y="3.6" style="stroke: #000000; stroke-width: 0.5"/>
      </g>
     </g>
    </g>
    <g id="xtick_17">
     <g id="line2d_33">
      <g>
       <use xlink:href="#m99347285a8" x="147.24" y="133.2" style="stroke: #000000; stroke-width: 0.5"/>
      </g>
     </g>
     <g id="line2d_34">
      <g>
       <use xlink:href="#me8b9c6f8d6" x="147.24" y="3.6" style="stroke: #000000; stroke-width: 0.5"/>
      </g>
     </g>
    </g>
    <g id="xtick_18">
     <g id="line2d_35">
      <g>
       <use xlink:href="#m99347285a8" x="156.24" y="133.2" style="stroke: #000000; stroke-width: 0.5"/>
      </g>
     </g>
     <g id="line2d_36">
      <g>
       <use xlink:href="#me8b9c6f8d6" x="156.24" y="3.6" style="stroke: #000000; stroke-width: 0.5"/>
      </g>
     </g>
    </g>
    <g id="xtick_19">
     <g id="line2d_37">
      <g>
       <use xlink:href="#m99347285a8" x="165.24" y="133.2" style="stroke: #000000; stroke-width: 0.5"/>
      </g>
     </g>
     <g id="line2d_38">
      <g>
       <use xlink:href="#me8b9c6f8d6" x="165.24" y="3.6" style="stroke: #000000; stroke-width: 0.5"/>
      </g>
     </g>
    </g>
    <g id="xtick_20">
     <g id="line2d_39">
      <g>
       <use xlink:href="#m99347285a8" x="183.24" y="133.2" style="stroke: #000000; stroke-width: 0.5"/>
      </g>
     </g>
     <g id="line2d_40">
      <g>
       <use xlink:href="#me8b9c6f8d6" x="183.24" y="3.6" style="stroke: #000000; stroke-width: 0.5"/>
      </g>
     </g>
    </g>
    <g id="xtick_21">
     <g id="line2d_41">
      <g>
       <use xlink:href="#m99347285a8" x="192.24" y="133.2" style="stroke: #000000; stroke-width: 0.5"/>
      </g>
     </g>
     <g id="line2d_42">
      <g>
       <use xlink:href="#me8b9c6f8d6" x="192.24" y="3.6" style="stroke: #000000; stroke-width: 0.5"/>
      </g>
     </g>
    </g>
    <g id="xtick_22">
     <g id="line2d_43">
      <g>
       <use xlink:href="#m99347285a8" x="201.24" y="133.2" style="stroke: #000000; stroke-width: 0.5"/>
      </g>
     </g>
     <g id="line2d_44">
      <g>
       <use xlink:href="#me8b9c6f8d6" x="201.24" y="3.6" style="stroke: #000000; stroke-width: 0.5"/>
      </g>
     </g>
    </g>
    <g id="xtick_23">
     <g id="line2d_45">
      <g>
       <use xlink:href="#m99347285a8" x="219.24" y="133.2" style="stroke: #000000; stroke-width: 0.5"/>
      </g>
     </g>
     <g id="line2d_46">
      <g>
       <use xlink:href="#me8b9c6f8d6" x="219.24" y="3.6" style="stroke: #000000; stroke-width: 0.5"/>
      </g>
     </g>
    </g>
    <g id="xtick_24">
     <g id="line2d_47">
      <g>
       <use xlink:href="#m99347285a8" x="228.24" y="133.2" style="stroke: #000000; stroke-width: 0.5"/>
      </g>
     </g>
     <g id="line2d_48">
      <g>
       <use xlink:href="#me8b9c6f8d6" x="228.24" y="3.6" style="stroke: #000000; stroke-width: 0.5"/>
      </g>
     </g>
    </g>
    <g id="xtick_25">
     <g id="line2d_49">
      <g>
       <use xlink:href="#m99347285a8" x="237.24" y="133.2" style="stroke: #000000; stroke-width: 0.5"/>
      </g>
     </g>
     <g id="line2d_50">
      <g>
       <use xlink:href="#me8b9c6f8d6" x="237.24" y="3.6" style="stroke: #000000; stroke-width: 0.5"/>
      </g>
     </g>
    </g>
    <g id="text_8">
     <!-- Time [s] -->
     <g style="fill: #111111" transform="translate(122.240391 154.679687) scale(0.09 -0.09)">
      <defs>
       <path id="Arimo-54" d="M 2250 3916 
L 2250 0 
L 1656 0 
L 1656 3916 
L 144 3916 
L 144 4403 
L 3763 4403 
L 3763 3916 
L 2250 3916 
z
" transform="scale(0.015625)"/>
       <path id="Arimo-69" d="M 428 0 
L 428 3381 
L 991 3381 
L 991 0 
L 428 0 
z
M 428 4100 
L 428 4638 
L 991 4638 
L 991 4100 
L 428 4100 
z
" transform="scale(0.015625)"/>
       <path id="Arimo-6d" d="M 2400 0 
L 2400 2144 
Q 2400 2634 2265 2821 
Q 2131 3009 1781 3009 
Q 1422 3009 1212 2734 
Q 1003 2459 1003 1959 
L 1003 0 
L 444 0 
L 444 2659 
Q 444 3250 425 3381 
L 956 3381 
Q 959 3366 962 3297 
Q 966 3228 970 3139 
Q 975 3050 981 2803 
L 991 2803 
Q 1172 3163 1406 3303 
Q 1641 3444 1978 3444 
Q 2363 3444 2586 3291 
Q 2809 3138 2897 2803 
L 2906 2803 
Q 3081 3144 3329 3294 
Q 3578 3444 3931 3444 
Q 4444 3444 4676 3166 
Q 4909 2888 4909 2253 
L 4909 0 
L 4353 0 
L 4353 2144 
Q 4353 2634 4218 2821 
Q 4084 3009 3734 3009 
Q 3366 3009 3161 2736 
Q 2956 2463 2956 1959 
L 2956 0 
L 2400 0 
z
" transform="scale(0.015625)"/>
       <path id="Arimo-65" d="M 863 1572 
Q 863 991 1103 675 
Q 1344 359 1806 359 
Q 2172 359 2392 506 
Q 2613 653 2691 878 
L 3184 738 
Q 2881 -63 1806 -63 
Q 1056 -63 664 384 
Q 272 831 272 1713 
Q 272 2550 664 2997 
Q 1056 3444 1784 3444 
Q 3275 3444 3275 1647 
L 3275 1572 
L 863 1572 
z
M 2694 2003 
Q 2647 2538 2422 2783 
Q 2197 3028 1775 3028 
Q 1366 3028 1127 2754 
Q 888 2481 869 2003 
L 2694 2003 
z
" transform="scale(0.015625)"/>
       <path id="Arimo-20" transform="scale(0.015625)"/>
       <path id="Arimo-5b" d="M 456 -1328 
L 456 4638 
L 1728 4638 
L 1728 4234 
L 1000 4234 
L 1000 -925 
L 1728 -925 
L 1728 -1328 
L 456 -1328 
z
" transform="scale(0.015625)"/>
       <path id="Arimo-73" d="M 2969 934 
Q 2969 456 2608 196 
Q 2247 -63 1597 -63 
Q 966 -63 623 145 
Q 281 353 178 794 
L 675 891 
Q 747 619 972 492 
Q 1197 366 1597 366 
Q 2025 366 2223 497 
Q 2422 628 2422 891 
Q 2422 1091 2284 1216 
Q 2147 1341 1841 1422 
L 1438 1528 
Q 953 1653 748 1773 
Q 544 1894 428 2066 
Q 313 2238 313 2488 
Q 313 2950 642 3192 
Q 972 3434 1603 3434 
Q 2163 3434 2492 3237 
Q 2822 3041 2909 2606 
L 2403 2544 
Q 2356 2769 2151 2889 
Q 1947 3009 1603 3009 
Q 1222 3009 1040 2893 
Q 859 2778 859 2544 
Q 859 2400 934 2306 
Q 1009 2213 1156 2147 
Q 1303 2081 1775 1966 
Q 2222 1853 2419 1758 
Q 2616 1663 2730 1547 
Q 2844 1431 2906 1279 
Q 2969 1128 2969 934 
z
" transform="scale(0.015625)"/>
       <path id="Arimo-5d" d="M 50 -1328 
L 50 -925 
L 778 -925 
L 778 4234 
L 50 4234 
L 50 4638 
L 1322 4638 
L 1322 -1328 
L 50 -1328 
z
" transform="scale(0.015625)"/>
      </defs>
      <use xlink:href="#Arimo-54"/>
      <use xlink:href="#Arimo-69" x="61.083984"/>
      <use xlink:href="#Arimo-6d" x="83.300781"/>
      <use xlink:href="#Arimo-65" x="166.601562"/>
      <use xlink:href="#Arimo-20" x="222.216797"/>
      <use xlink:href="#Arimo-5b" x="250"/>
      <use xlink:href="#Arimo-73" x="277.783203"/>
      <use xlink:href="#Arimo-5d" x="327.783203"/>
     </g>
    </g>
   </g>
   <g id="matplotlib.axis_2">
    <g id="ytick_1">
     <g id="line2d_51">
      <defs>
       <path id="m28396d143b" d="M 0 0 
L 4 0 
" style="stroke: #000000"/>
      </defs>
      <g>
       <use xlink:href="#m28396d143b" x="30.24" y="133.2" style="stroke: #000000"/>
      </g>
     </g>
     <g id="line2d_52">
      <defs>
       <path id="mf46cdc7293" d="M 0 0 
L -4 0 
" style="stroke: #000000"/>
      </defs>
      <g>
       <use xlink:href="#mf46cdc7293" x="246.24" y="133.2" style="stroke: #000000"/>
      </g>
     </g>
     <g id="text_9">
      <!-- 0.0 -->
      <g transform="translate(15.62 136.09875) scale(0.08 -0.08)">
       <defs>
        <path id="Arimo-2e" d="M 584 0 
L 584 684 
L 1194 684 
L 1194 0 
L 584 0 
z
" transform="scale(0.015625)"/>
       </defs>
       <use xlink:href="#Arimo-30"/>
       <use xlink:href="#Arimo-2e" x="55.615234"/>
       <use xlink:href="#Arimo-30" x="83.398438"/>
      </g>
     </g>
    </g>
    <g id="ytick_2">
     <g id="line2d_53">
      <g>
       <use xlink:href="#m28396d143b" x="30.24" y="105.915789" style="stroke: #000000"/>
      </g>
     </g>
     <g id="line2d_54">
      <g>
       <use xlink:href="#mf46cdc7293" x="246.24" y="105.915789" style="stroke: #000000"/>
      </g>
     </g>
     <g id="text_10">
      <!-- 0.2 -->
      <g transform="translate(15.62 108.814539) scale(0.08 -0.08)">
       <use xlink:href="#Arimo-30"/>
       <use xlink:href="#Arimo-2e" x="55.615234"/>
       <use xlink:href="#Arimo-32" x="83.398438"/>
      </g>
     </g>
    </g>
    <g id="ytick_3">
     <g id="line2d_55">
      <g>
       <use xlink:href="#m28396d143b" x="30.24" y="78.631579" style="stroke: #000000"/>
      </g>
     </g>
     <g id="line2d_56">
      <g>
       <use xlink:href="#mf46cdc7293" x="246.24" y="78.631579" style="stroke: #000000"/>
      </g>
     </g>
     <g id="text_11">
      <!-- 0.4 -->
      <g transform="translate(15.62 81.530329) scale(0.08 -0.08)">
       <use xlink:href="#Arimo-30"/>
       <use xlink:href="#Arimo-2e" x="55.615234"/>
       <use xlink:href="#Arimo-34" x="83.398438"/>
      </g>
     </g>
    </g>
    <g id="ytick_4">
     <g id="line2d_57">
      <g>
       <use xlink:href="#m28396d143b" x="30.24" y="51.347368" style="stroke: #000000"/>
      </g>
     </g>
     <g id="line2d_58">
      <g>
       <use xlink:href="#mf46cdc7293" x="246.24" y="51.347368" style="stroke: #000000"/>
      </g>
     </g>
     <g id="text_12">
      <!-- 0.6 -->
      <g transform="translate(15.62 54.246118) scale(0.08 -0.08)">
       <use xlink:href="#Arimo-30"/>
       <use xlink:href="#Arimo-2e" x="55.615234"/>
       <use xlink:href="#Arimo-36" x="83.398438"/>
      </g>
     </g>
    </g>
    <g id="ytick_5">
     <g id="line2d_59">
      <g>
       <use xlink:href="#m28396d143b" x="30.24" y="24.063158" style="stroke: #000000"/>
      </g>
     </g>
     <g id="line2d_60">
      <g>
       <use xlink:href="#mf46cdc7293" x="246.24" y="24.063158" style="stroke: #000000"/>
      </g>
     </g>
     <g id="text_13">
      <!-- 0.8 -->
      <g transform="translate(15.62 26.961908) scale(0.08 -0.08)">
       <use xlink:href="#Arimo-30"/>
       <use xlink:href="#Arimo-2e" x="55.615234"/>
       <use xlink:href="#Arimo-38" x="83.398438"/>
      </g>
     </g>
    </g>
    <g id="ytick_6">
     <g id="line2d_61">
      <defs>
       <path id="m28ea2f7cf5" d="M 0 0 
L 2.4 0 
" style="stroke: #000000; stroke-width: 0.5"/>
      </defs>
      <g>
       <use xlink:href="#m28ea2f7cf5" x="30.24" y="126.378947" style="stroke: #000000; stroke-width: 0.5"/>
      </g>
     </g>
     <g id="line2d_62">
      <defs>
       <path id="mb7ee3f48fd" d="M 0 0 
L -2.4 0 
" style="stroke: #000000; stroke-width: 0.5"/>
      </defs>
      <g>
       <use xlink:href="#mb7ee3f48fd" x="246.24" y="126.378947" style="stroke: #000000; stroke-width: 0.5"/>
      </g>
     </g>
    </g>
    <g id="ytick_7">
     <g id="line2d_63">
      <g>
       <use xlink:href="#m28ea2f7cf5" x="30.24" y="119.557895" style="stroke: #000000; stroke-width: 0.5"/>
      </g>
     </g>
     <g id="line2d_64">
      <g>
       <use xlink:href="#mb7ee3f48fd" x="246.24" y="119.557895" style="stroke: #000000; stroke-width: 0.5"/>
      </g>
     </g>
    </g>
    <g id="ytick_8">
     <g id="line2d_65">
      <g>
       <use xlink:href="#m28ea2f7cf5" x="30.24" y="112.736842" style="stroke: #000000; stroke-width: 0.5"/>
      </g>
     </g>
     <g id="line2d_66">
      <g>
       <use xlink:href="#mb7ee3f48fd" x="246.24" y="112.736842" style="stroke: #000000; stroke-width: 0.5"/>
      </g>
     </g>
    </g>
    <g id="ytick_9">
     <g id="line2d_67">
      <g>
       <use xlink:href="#m28ea2f7cf5" x="30.24" y="99.094737" style="stroke: #000000; stroke-width: 0.5"/>
      </g>
     </g>
     <g id="line2d_68">
      <g>
       <use xlink:href="#mb7ee3f48fd" x="246.24" y="99.094737" style="stroke: #000000; stroke-width: 0.5"/>
      </g>
     </g>
    </g>
    <g id="ytick_10">
     <g id="line2d_69">
      <g>
       <use xlink:href="#m28ea2f7cf5" x="30.24" y="92.273684" style="stroke: #000000; stroke-width: 0.5"/>
      </g>
     </g>
     <g id="line2d_70">
      <g>
       <use xlink:href="#mb7ee3f48fd" x="246.24" y="92.273684" style="stroke: #000000; stroke-width: 0.5"/>
      </g>
     </g>
    </g>
    <g id="ytick_11">
     <g id="line2d_71">
      <g>
       <use xlink:href="#m28ea2f7cf5" x="30.24" y="85.452632" style="stroke: #000000; stroke-width: 0.5"/>
      </g>
     </g>
     <g id="line2d_72">
      <g>
       <use xlink:href="#mb7ee3f48fd" x="246.24" y="85.452632" style="stroke: #000000; stroke-width: 0.5"/>
      </g>
     </g>
    </g>
    <g id="ytick_12">
     <g id="line2d_73">
      <g>
       <use xlink:href="#m28ea2f7cf5" x="30.24" y="71.810526" style="stroke: #000000; stroke-width: 0.5"/>
      </g>
     </g>
     <g id="line2d_74">
      <g>
       <use xlink:href="#mb7ee3f48fd" x="246.24" y="71.810526" style="stroke: #000000; stroke-width: 0.5"/>
      </g>
     </g>
    </g>
    <g id="ytick_13">
     <g id="line2d_75">
      <g>
       <use xlink:href="#m28ea2f7cf5" x="30.24" y="64.989474" style="stroke: #000000; stroke-width: 0.5"/>
      </g>
     </g>
     <g id="line2d_76">
      <g>
       <use xlink:href="#mb7ee3f48fd" x="246.24" y="64.989474" style="stroke: #000000; stroke-width: 0.5"/>
      </g>
     </g>
    </g>
    <g id="ytick_14">
     <g id="line2d_77">
      <g>
       <use xlink:href="#m28ea2f7cf5" x="30.24" y="58.168421" style="stroke: #000000; stroke-width: 0.5"/>
      </g>
     </g>
     <g id="line2d_78">
      <g>
       <use xlink:href="#mb7ee3f48fd" x="246.24" y="58.168421" style="stroke: #000000; stroke-width: 0.5"/>
      </g>
     </g>
    </g>
    <g id="ytick_15">
     <g id="line2d_79">
      <g>
       <use xlink:href="#m28ea2f7cf5" x="30.24" y="44.526316" style="stroke: #000000; stroke-width: 0.5"/>
      </g>
     </g>
     <g id="line2d_80">
      <g>
       <use xlink:href="#mb7ee3f48fd" x="246.24" y="44.526316" style="stroke: #000000; stroke-width: 0.5"/>
      </g>
     </g>
    </g>
    <g id="ytick_16">
     <g id="line2d_81">
      <g>
       <use xlink:href="#m28ea2f7cf5" x="30.24" y="37.705263" style="stroke: #000000; stroke-width: 0.5"/>
      </g>
     </g>
     <g id="line2d_82">
      <g>
       <use xlink:href="#mb7ee3f48fd" x="246.24" y="37.705263" style="stroke: #000000; stroke-width: 0.5"/>
      </g>
     </g>
    </g>
    <g id="ytick_17">
     <g id="line2d_83">
      <g>
       <use xlink:href="#m28ea2f7cf5" x="30.24" y="30.884211" style="stroke: #000000; stroke-width: 0.5"/>
      </g>
     </g>
     <g id="line2d_84">
      <g>
       <use xlink:href="#mb7ee3f48fd" x="246.24" y="30.884211" style="stroke: #000000; stroke-width: 0.5"/>
      </g>
     </g>
    </g>
    <g id="ytick_18">
     <g id="line2d_85">
      <g>
       <use xlink:href="#m28ea2f7cf5" x="30.24" y="17.242105" style="stroke: #000000; stroke-width: 0.5"/>
      </g>
     </g>
     <g id="line2d_86">
      <g>
       <use xlink:href="#mb7ee3f48fd" x="246.24" y="17.242105" style="stroke: #000000; stroke-width: 0.5"/>
      </g>
     </g>
    </g>
    <g id="ytick_19">
     <g id="line2d_87">
      <g>
       <use xlink:href="#m28ea2f7cf5" x="30.24" y="10.421053" style="stroke: #000000; stroke-width: 0.5"/>
      </g>
     </g>
     <g id="line2d_88">
      <g>
       <use xlink:href="#mb7ee3f48fd" x="246.24" y="10.421053" style="stroke: #000000; stroke-width: 0.5"/>
      </g>
     </g>
    </g>
    <g id="text_14">
     <!-- Normalized Signal [a.u.] -->
     <g style="fill: #111111" transform="translate(9.7525 116.170312) rotate(-90) scale(0.09 -0.09)">
      <defs>
       <path id="Arimo-4e" d="M 3381 0 
L 1025 3750 
L 1041 3447 
L 1056 2925 
L 1056 0 
L 525 0 
L 525 4403 
L 1219 4403 
L 3600 628 
Q 3563 1241 3563 1516 
L 3563 4403 
L 4100 4403 
L 4100 0 
L 3381 0 
z
" transform="scale(0.015625)"/>
       <path id="Arimo-6f" d="M 3291 1694 
Q 3291 806 2900 371 
Q 2509 -63 1766 -63 
Q 1025 -63 647 389 
Q 269 841 269 1694 
Q 269 3444 1784 3444 
Q 2559 3444 2925 3017 
Q 3291 2591 3291 1694 
z
M 2700 1694 
Q 2700 2394 2492 2711 
Q 2284 3028 1794 3028 
Q 1300 3028 1079 2704 
Q 859 2381 859 1694 
Q 859 1025 1076 689 
Q 1294 353 1759 353 
Q 2266 353 2483 678 
Q 2700 1003 2700 1694 
z
" transform="scale(0.015625)"/>
       <path id="Arimo-72" d="M 444 0 
L 444 2594 
Q 444 2950 425 3381 
L 956 3381 
Q 981 2806 981 2691 
L 994 2691 
Q 1128 3125 1303 3284 
Q 1478 3444 1797 3444 
Q 1909 3444 2025 3413 
L 2025 2897 
Q 1913 2928 1725 2928 
Q 1375 2928 1190 2626 
Q 1006 2325 1006 1763 
L 1006 0 
L 444 0 
z
" transform="scale(0.015625)"/>
       <path id="Arimo-61" d="M 1294 -63 
Q 784 -63 528 206 
Q 272 475 272 944 
Q 272 1469 617 1750 
Q 963 2031 1731 2050 
L 2491 2063 
L 2491 2247 
Q 2491 2659 2316 2837 
Q 2141 3016 1766 3016 
Q 1388 3016 1216 2887 
Q 1044 2759 1009 2478 
L 422 2531 
Q 566 3444 1778 3444 
Q 2416 3444 2737 3151 
Q 3059 2859 3059 2306 
L 3059 850 
Q 3059 600 3125 473 
Q 3191 347 3375 347 
Q 3456 347 3559 369 
L 3559 19 
Q 3347 -31 3125 -31 
Q 2813 -31 2670 133 
Q 2528 297 2509 647 
L 2491 647 
Q 2275 259 1989 98 
Q 1703 -63 1294 -63 
z
M 1422 359 
Q 1731 359 1972 500 
Q 2213 641 2352 886 
Q 2491 1131 2491 1391 
L 2491 1669 
L 1875 1656 
Q 1478 1650 1273 1575 
Q 1069 1500 959 1344 
Q 850 1188 850 934 
Q 850 659 998 509 
Q 1147 359 1422 359 
z
" transform="scale(0.015625)"/>
       <path id="Arimo-6c" d="M 431 0 
L 431 4638 
L 994 4638 
L 994 0 
L 431 0 
z
" transform="scale(0.015625)"/>
       <path id="Arimo-7a" d="M 259 0 
L 259 428 
L 2150 2947 
L 366 2947 
L 366 3381 
L 2816 3381 
L 2816 2953 
L 922 434 
L 2881 434 
L 2881 0 
L 259 0 
z
" transform="scale(0.015625)"/>
       <path id="Arimo-64" d="M 2566 544 
Q 2409 219 2151 78 
Q 1894 -63 1513 -63 
Q 872 -63 570 368 
Q 269 800 269 1675 
Q 269 3444 1513 3444 
Q 1897 3444 2153 3303 
Q 2409 3163 2566 2856 
L 2572 2856 
L 2566 3234 
L 2566 4638 
L 3128 4638 
L 3128 697 
Q 3128 169 3147 0 
L 2609 0 
Q 2600 50 2589 231 
Q 2578 413 2578 544 
L 2566 544 
z
M 859 1694 
Q 859 984 1046 678 
Q 1234 372 1656 372 
Q 2134 372 2350 703 
Q 2566 1034 2566 1731 
Q 2566 2403 2350 2715 
Q 2134 3028 1663 3028 
Q 1238 3028 1048 2714 
Q 859 2400 859 1694 
z
" transform="scale(0.015625)"/>
       <path id="Arimo-53" d="M 3975 1216 
Q 3975 606 3498 271 
Q 3022 -63 2156 -63 
Q 547 -63 291 1056 
L 869 1172 
Q 969 775 1294 589 
Q 1619 403 2178 403 
Q 2756 403 3070 601 
Q 3384 800 3384 1184 
Q 3384 1400 3286 1534 
Q 3188 1669 3009 1756 
Q 2831 1844 2584 1903 
Q 2338 1963 2038 2031 
Q 1516 2147 1245 2262 
Q 975 2378 819 2520 
Q 663 2663 580 2853 
Q 497 3044 497 3291 
Q 497 3856 930 4162 
Q 1363 4469 2169 4469 
Q 2919 4469 3316 4239 
Q 3713 4009 3872 3456 
L 3284 3353 
Q 3188 3703 2916 3861 
Q 2644 4019 2163 4019 
Q 1634 4019 1356 3844 
Q 1078 3669 1078 3322 
Q 1078 3119 1186 2986 
Q 1294 2853 1497 2761 
Q 1700 2669 2306 2534 
Q 2509 2488 2711 2439 
Q 2913 2391 3097 2323 
Q 3281 2256 3442 2165 
Q 3603 2075 3722 1944 
Q 3841 1813 3908 1634 
Q 3975 1456 3975 1216 
z
" transform="scale(0.015625)"/>
       <path id="Arimo-67" d="M 1713 -1328 
Q 1159 -1328 831 -1111 
Q 503 -894 409 -494 
L 975 -413 
Q 1031 -647 1223 -773 
Q 1416 -900 1728 -900 
Q 2569 -900 2569 84 
L 2569 628 
L 2563 628 
Q 2403 303 2125 139 
Q 1847 -25 1475 -25 
Q 853 -25 561 387 
Q 269 800 269 1684 
Q 269 2581 583 3007 
Q 897 3434 1538 3434 
Q 1897 3434 2161 3270 
Q 2425 3106 2569 2803 
L 2575 2803 
Q 2575 2897 2587 3128 
Q 2600 3359 2613 3381 
L 3147 3381 
Q 3128 3213 3128 2681 
L 3128 97 
Q 3128 -1328 1713 -1328 
z
M 2569 1691 
Q 2569 2103 2456 2401 
Q 2344 2700 2139 2858 
Q 1934 3016 1675 3016 
Q 1244 3016 1047 2703 
Q 850 2391 850 1691 
Q 850 997 1034 694 
Q 1219 391 1666 391 
Q 1931 391 2137 547 
Q 2344 703 2456 995 
Q 2569 1288 2569 1691 
z
" transform="scale(0.015625)"/>
       <path id="Arimo-6e" d="M 2578 0 
L 2578 2144 
Q 2578 2478 2512 2662 
Q 2447 2847 2303 2928 
Q 2159 3009 1881 3009 
Q 1475 3009 1240 2731 
Q 1006 2453 1006 1959 
L 1006 0 
L 444 0 
L 444 2659 
Q 444 3250 425 3381 
L 956 3381 
Q 959 3366 962 3297 
Q 966 3228 970 3139 
Q 975 3050 981 2803 
L 991 2803 
Q 1184 3153 1439 3298 
Q 1694 3444 2072 3444 
Q 2628 3444 2886 3167 
Q 3144 2891 3144 2253 
L 3144 0 
L 2578 0 
z
" transform="scale(0.015625)"/>
       <path id="Arimo-75" d="M 981 3381 
L 981 1238 
Q 981 903 1047 718 
Q 1113 534 1256 453 
Q 1400 372 1678 372 
Q 2084 372 2318 650 
Q 2553 928 2553 1422 
L 2553 3381 
L 3116 3381 
L 3116 722 
Q 3116 131 3134 0 
L 2603 0 
Q 2600 16 2597 84 
Q 2594 153 2589 242 
Q 2584 331 2578 578 
L 2569 578 
Q 2375 228 2120 82 
Q 1866 -63 1488 -63 
Q 931 -63 673 214 
Q 416 491 416 1128 
L 416 3381 
L 981 3381 
z
" transform="scale(0.015625)"/>
      </defs>
      <use xlink:href="#Arimo-4e"/>
      <use xlink:href="#Arimo-6f" x="72.216797"/>
      <use xlink:href="#Arimo-72" x="127.832031"/>
      <use xlink:href="#Arimo-6d" x="161.132812"/>
      <use xlink:href="#Arimo-61" x="244.433594"/>
      <use xlink:href="#Arimo-6c" x="300.048828"/>
      <use xlink:href="#Arimo-69" x="322.265625"/>
      <use xlink:href="#Arimo-7a" x="344.482422"/>
      <use xlink:href="#Arimo-65" x="394.482422"/>
      <use xlink:href="#Arimo-64" x="450.097656"/>
      <use xlink:href="#Arimo-20" x="505.712891"/>
      <use xlink:href="#Arimo-53" x="533.496094"/>
      <use xlink:href="#Arimo-69" x="600.195312"/>
      <use xlink:href="#Arimo-67" x="622.412109"/>
      <use xlink:href="#Arimo-6e" x="678.027344"/>
      <use xlink:href="#Arimo-61" x="733.642578"/>
      <use xlink:href="#Arimo-6c" x="789.257812"/>
      <use xlink:href="#Arimo-20" x="811.474609"/>
      <use xlink:href="#Arimo-5b" x="839.257812"/>
      <use xlink:href="#Arimo-61" x="867.041016"/>
      <use xlink:href="#Arimo-2e" x="922.65625"/>
      <use xlink:href="#Arimo-75" x="950.439453"/>
      <use xlink:href="#Arimo-2e" x="1006.054688"/>
      <use xlink:href="#Arimo-5d" x="1033.837891"/>
     </g>
    </g>
   </g>
   <g id="line2d_89">
    <path d="M 30.24 86.816842 
L 37.01116 88.27339 
L 41.750972 89.50014 
L 46.490784 90.973111 
L 50.55348 92.452191 
L 55.293292 94.425026 
L 60.710219 96.9618 
L 67.481379 100.422893 
L 81.023699 107.440883 
L 86.440627 109.963155 
L 91.180439 111.928208 
L 95.920251 113.630525 
L 99.982947 114.868653 
L 104.045643 115.904218 
L 108.785455 116.871769 
L 113.525266 117.610512 
L 118.942194 118.229175 
L 125.713354 118.771932 
L 148.735298 120.423711 
L 156.86069 121.3573 
L 165.663197 122.606327 
L 192.747837 126.644512 
L 200.873229 127.509657 
L 208.998621 128.131226 
L 217.801129 128.56109 
L 229.3121 128.870106 
L 246.24 129.206906 
L 246.24 129.206906 
" clip-path="url(#p951542cebd)" style="fill: none; stroke: #bed5e8; stroke-linecap: square"/>
   </g>
   <g id="line2d_90">
    <path d="M 30.24 76.540054 
L 34.979812 77.670773 
L 39.042508 78.864851 
L 43.105204 80.308686 
L 47.1679 82.017345 
L 51.230596 83.983349 
L 55.970408 86.564665 
L 61.387335 89.80442 
L 81.023699 101.875469 
L 85.763511 104.345703 
L 89.826207 106.211753 
L 93.888903 107.823559 
L 97.951599 109.174224 
L 102.014295 110.269949 
L 106.076991 111.128747 
L 110.139687 111.778557 
L 114.879498 112.320237 
L 120.973542 112.774584 
L 142.641254 114.121587 
L 148.735298 114.831738 
L 154.829342 115.754341 
L 162.277618 117.129538 
L 173.788589 119.543474 
L 183.945329 121.601602 
L 190.716489 122.768197 
L 196.810533 123.61622 
L 202.904577 124.254111 
L 209.675737 124.725218 
L 217.124013 125.001424 
L 227.280752 125.119951 
L 245.562884 125.290554 
L 246.24 125.307297 
L 246.24 125.307297 
" clip-path="url(#p951542cebd)" style="fill: none; stroke-dasharray: 3.7,1.6; stroke-dashoffset: 0; stroke: #a6c6e0"/>
   </g>
   <g id="line2d_91">
    <path d="M 30.24 65.865781 
L 33.62558 66.859865 
L 37.01116 68.064754 
L 40.39674 69.49772 
L 43.78232 71.162518 
L 47.1679 73.050196 
L 51.230596 75.580229 
L 55.970408 78.827808 
L 62.741567 83.805486 
L 72.221191 90.794105 
L 76.961003 94.022158 
L 81.023699 96.541754 
L 85.086395 98.783675 
L 88.471975 100.417717 
L 91.857555 101.829509 
L 95.243135 103.018829 
L 98.628715 103.993126 
L 102.014295 104.766802 
L 106.076991 105.459455 
L 110.139687 105.937009 
L 115.556614 106.327831 
L 124.359122 106.6727 
L 132.484514 107.056541 
L 138.578558 107.57809 
L 143.995486 108.277794 
L 149.412414 109.2148 
L 154.829342 110.37104 
L 161.600502 112.054672 
L 183.268213 117.685029 
L 189.362257 118.911728 
L 194.779185 119.770307 
L 200.196113 120.398932 
L 205.613041 120.807961 
L 211.707085 121.042175 
L 219.155361 121.093391 
L 242.85442 121.05531 
L 246.24 121.169001 
L 246.24 121.169001 
" clip-path="url(#p951542cebd)" style="fill: none; stroke-dasharray: 1,1.65; stroke-dashoffset: 0; stroke: #8bb7d7"/>
   </g>
   <g id="line2d_92">
    <path d="M 30.24 55.030481 
L 33.62558 56.384866 
L 37.01116 58.01957 
L 40.39674 59.935468 
L 43.78232 62.118752 
L 47.845016 65.0529 
L 51.907712 68.26543 
L 58.001755 73.418363 
L 68.835611 82.640918 
L 73.575423 86.327837 
L 77.638119 89.18377 
L 81.023699 91.30725 
L 84.409279 93.175293 
L 87.794859 94.777408 
L 91.180439 96.112944 
L 94.566019 97.190625 
L 97.951599 98.02771 
L 101.337179 98.648865 
L 105.399875 99.152777 
L 110.139687 99.485892 
L 116.910846 99.687291 
L 127.067586 99.980729 
L 132.484514 100.38229 
L 137.224326 100.959392 
L 141.964138 101.772842 
L 146.70395 102.821828 
L 152.120878 104.278353 
L 158.214922 106.166541 
L 178.528401 112.708969 
L 183.945329 114.094149 
L 188.685141 115.081789 
L 193.424953 115.842704 
L 198.164765 116.377551 
L 202.904577 116.702614 
L 208.321505 116.855984 
L 215.092665 116.811513 
L 236.760376 116.466344 
L 242.85442 116.676037 
L 246.24 116.884567 
L 246.24 116.884567 
" clip-path="url(#p951542cebd)" style="fill: none; stroke-dasharray: 6.4,1.6,1,1.6; stroke-dashoffset: 0; stroke: #70a8ce"/>
   </g>
   <g id="line2d_93">
    <path d="M 30.24 44.320172 
L 32.948464 45.785669 
L 35.656928 47.465123 
L 39.042508 49.85277 
L 42.428088 52.532848 
L 46.490784 56.074206 
L 51.230596 60.534084 
L 66.804263 75.526559 
L 70.866959 78.993551 
L 74.252539 81.613047 
L 77.638119 83.951374 
L 81.023699 85.986723 
L 84.409279 87.709049 
L 87.117743 88.86221 
L 90.503323 90.032467 
L 93.888903 90.921109 
L 97.274483 91.557623 
L 100.660063 91.978742 
L 104.722759 92.259367 
L 110.139687 92.382703 
L 123.00489 92.552603 
L 127.744702 92.890499 
L 131.807398 93.387746 
L 135.870094 94.100164 
L 139.93279 95.033071 
L 143.995486 96.176209 
L 148.735298 97.742526 
L 154.152226 99.766376 
L 174.465705 107.621382 
L 179.205517 109.081597 
L 183.268213 110.129186 
L 187.330909 110.971878 
L 191.393605 111.605751 
L 195.456301 112.037934 
L 200.196113 112.310796 
L 205.613041 112.370467 
L 212.384201 112.188518 
L 228.634984 111.618339 
L 234.729028 111.68952 
L 240.145956 111.975111 
L 245.562884 112.482569 
L 246.24 112.561133 
L 246.24 112.561133 
" clip-path="url(#p951542cebd)" style="fill: none; stroke: #568cbc; stroke-linecap: square"/>
   </g>
   <g id="line2d_94">
    <path d="M 30.24 34.040301 
L 32.948464 36.018767 
L 36.334044 38.815715 
L 39.719624 41.933531 
L 43.78232 46.020079 
L 49.199248 51.861438 
L 60.710219 64.421799 
L 64.772915 68.478455 
L 68.158495 71.579249 
L 71.544075 74.376295 
L 74.929655 76.836575 
L 77.638119 78.548766 
L 80.346583 80.029032 
L 83.055047 81.279235 
L 85.763511 82.306502 
L 88.471975 83.122842 
L 91.180439 83.744655 
L 94.566019 84.279449 
L 97.951599 84.588224 
L 102.014295 84.733244 
L 108.108339 84.687123 
L 116.23373 84.619182 
L 120.973542 84.807852 
L 125.036238 85.195213 
L 129.098934 85.831177 
L 133.16163 86.73383 
L 137.224326 87.90201 
L 141.287022 89.316499 
L 146.026834 91.230466 
L 151.443762 93.669059 
L 167.694545 101.181052 
L 172.434357 103.036734 
L 176.497053 104.401389 
L 180.559749 105.528579 
L 184.622445 106.405013 
L 188.685141 107.031171 
L 192.747837 107.420709 
L 196.810533 107.599127 
L 201.550345 107.588111 
L 207.644389 107.334421 
L 223.895172 106.51196 
L 229.3121 106.532717 
L 234.051912 106.761141 
L 238.791724 107.202075 
L 243.531536 107.851019 
L 246.24 108.307221 
L 246.24 108.307221 
" clip-path="url(#p951542cebd)" style="fill: none; stroke-dasharray: 3.7,1.6; stroke-dashoffset: 0; stroke: #3d6fa9"/>
   </g>
   <g id="line2d_95">
    <path d="M 30.24 24.481827 
L 32.948464 27.053355 
L 36.334044 30.582776 
L 40.39674 35.190756 
L 45.813668 41.740358 
L 55.293292 53.307489 
L 59.355987 57.921998 
L 62.741567 61.473665 
L 66.127147 64.696615 
L 68.835611 67.008839 
L 71.544075 69.067756 
L 74.252539 70.864751 
L 76.961003 72.397654 
L 79.669467 73.670568 
L 82.377931 74.693542 
L 85.086395 75.482099 
L 87.794859 76.056633 
L 91.180439 76.511581 
L 94.566019 76.725903 
L 98.628715 76.751305 
L 105.399875 76.517549 
L 111.493918 76.362877 
L 115.556614 76.450868 
L 119.61931 76.77615 
L 123.00489 77.264821 
L 126.39047 77.969788 
L 129.77605 78.896829 
L 133.16163 80.040999 
L 137.224326 81.678889 
L 141.287022 83.564787 
L 146.70395 86.363856 
L 163.63185 95.415056 
L 167.694545 97.257767 
L 171.757241 98.856045 
L 175.142821 99.976588 
L 178.528401 100.892964 
L 181.913981 101.602238 
L 185.299561 102.109281 
L 189.362257 102.468466 
L 193.424953 102.587879 
L 198.164765 102.484267 
L 204.258809 102.098545 
L 217.801129 101.154523 
L 222.54094 101.068034 
L 227.280752 101.204562 
L 232.020564 101.593247 
L 236.760376 102.239865 
L 241.500188 103.127405 
L 246.24 104.218404 
L 246.24 104.218404 
" clip-path="url(#p951542cebd)" style="fill: none; stroke-dasharray: 1,1.65; stroke-dashoffset: 0; stroke: #264d99"/>
   </g>
   <g id="line2d_96">
    <path d="M 30.24 15.886947 
L 33.62558 19.921824 
L 37.688276 25.134116 
L 44.459436 34.294796 
L 51.230596 43.354153 
L 55.293292 48.424438 
L 58.678871 52.314631 
L 62.064451 55.831468 
L 64.772915 58.343483 
L 67.481379 60.569207 
L 70.189843 62.499482 
L 72.898307 64.132459 
L 75.606771 65.4734 
L 78.315235 66.534297 
L 81.023699 67.333331 
L 83.732163 67.89418 
L 86.440627 68.245217 
L 89.826207 68.438245 
L 93.888903 68.400834 
L 99.982947 68.056376 
L 106.754107 67.717391 
L 110.816803 67.737575 
L 114.202382 67.959776 
L 117.587962 68.407064 
L 120.973542 69.102568 
L 124.359122 70.056748 
L 127.744702 71.267528 
L 131.130282 72.720938 
L 135.192978 74.749747 
L 139.255674 77.031605 
L 144.672602 80.33677 
L 156.86069 87.874124 
L 161.600502 90.468891 
L 165.663197 92.412923 
L 169.048777 93.798798 
L 172.434357 94.952836 
L 175.819937 95.866937 
L 179.205517 96.542264 
L 182.591097 96.988904 
L 185.976677 97.225168 
L 190.039373 97.267372 
L 194.779185 97.054711 
L 200.873229 96.525475 
L 211.707085 95.546986 
L 216.446897 95.349659 
L 220.509592 95.375466 
L 224.572288 95.611969 
L 228.634984 96.07304 
L 232.69768 96.757608 
L 236.760376 97.65027 
L 241.500188 98.91632 
L 246.24 100.363468 
L 246.24 100.363468 
" clip-path="url(#p951542cebd)" style="fill: none; stroke-dasharray: 6.4,1.6,1,1.6; stroke-dashoffset: 0; stroke: #13278d"/>
   </g>
   <g id="line2d_97">
    <path d="M 30.24 8.41804 
L 34.302696 14.198678 
L 43.105204 27.287884 
L 47.845016 34.115297 
L 51.907712 39.565362 
L 55.293292 43.710323 
L 58.001755 46.717316 
L 60.710219 49.421285 
L 63.418683 51.804529 
L 66.127147 53.857569 
L 68.835611 55.579132 
L 71.544075 56.975914 
L 74.252539 58.062144 
L 76.961003 58.858963 
L 79.669467 59.393641 
L 82.377931 59.698658 
L 85.763511 59.813144 
L 89.149091 59.70441 
L 94.566019 59.271488 
L 101.337179 58.729129 
L 105.399875 58.628328 
L 108.785455 58.765836 
L 112.171034 59.152517 
L 114.879498 59.662237 
L 117.587962 60.36023 
L 120.296426 61.24958 
L 123.682006 62.625685 
L 127.067586 64.278751 
L 130.453166 66.179196 
L 134.515862 68.729241 
L 139.93279 72.444728 
L 152.120878 80.981771 
L 156.183574 83.536044 
L 160.24627 85.806944 
L 163.63185 87.440123 
L 167.017429 88.812534 
L 170.403009 89.911698 
L 173.788589 90.735861 
L 177.174169 91.293724 
L 180.559749 91.603763 
L 183.945329 91.693173 
L 188.008025 91.55829 
L 192.747837 91.156744 
L 210.352853 89.370824 
L 214.415549 89.299832 
L 218.478245 89.463778 
L 222.54094 89.885439 
L 226.603636 90.570241 
L 230.666332 91.506559 
L 234.729028 92.667008 
L 239.46884 94.248827 
L 246.24 96.772697 
L 246.24 96.772697 
" clip-path="url(#p951542cebd)" style="fill: none; stroke: #000080; stroke-linecap: square"/>
   </g>
   <g id="patch_3">
    <path d="M 30.24 133.2 
L 30.24 3.6 
" style="fill: none; stroke: #000000; stroke-linejoin: miter; stroke-linecap: square"/>
   </g>
   <g id="patch_4">
    <path d="M 246.24 133.2 
L 246.24 3.6 
" style="fill: none; stroke: #000000; stroke-linejoin: miter; stroke-linecap: square"/>
   </g>
   <g id="patch_5">
    <path d="M 30.24 133.2 
L 246.24 133.2 
" style="fill: none; stroke: #000000; stroke-linejoin: miter; stroke-linecap: square"/>
   </g>
   <g id="patch_6">
    <path d="M 30.24 3.6 
L 246.24 3.6 
" style="fill: none; stroke: #000000; stroke-linejoin: miter; stroke-linecap: square"/>
   </g>
   <g id="legend_1">
    <g id="patch_7">
     <path d="M 252.16 121.15875 
L 298.665 121.15875 
Q 300.265 121.15875 300.265 119.55875 
L 300.265 17.24125 
Q 300.265 15.64125 298.665 15.64125 
L 252.16 15.64125 
Q 250.56 15.64125 250.56 17.24125 
L 250.56 119.55875 
Q 250.56 121.15875 252.16 121.15875 
z
" style="fill: #ffffff; stroke: #000000; stroke-linejoin: miter"/>
    </g>
    <g id="line2d_98">
     <path d="M 253.76 21.83875 
L 261.76 21.83875 
L 269.76 21.83875 
" style="fill: none; stroke: #bed5e8; stroke-linecap: square"/>
    </g>
    <g id="text_15">
     <!-- 80 K -->
     <g transform="translate(276.16 24.63875) scale(0.08 -0.08)">
      <defs>
       <path id="Arimo-4b" d="M 3456 0 
L 1697 2125 
L 1122 1688 
L 1122 0 
L 525 0 
L 525 4403 
L 1122 4403 
L 1122 2197 
L 3244 4403 
L 3947 4403 
L 2072 2491 
L 4197 0 
L 3456 0 
z
" transform="scale(0.015625)"/>
      </defs>
      <use xlink:href="#Arimo-38"/>
      <use xlink:href="#Arimo-30" x="55.615234"/>
      <use xlink:href="#Arimo-20" x="111.230469"/>
      <use xlink:href="#Arimo-4b" x="139.013672"/>
     </g>
    </g>
    <g id="line2d_99">
     <path d="M 253.76 33.29625 
L 261.76 33.29625 
L 269.76 33.29625 
" style="fill: none; stroke-dasharray: 3.7,1.6; stroke-dashoffset: 0; stroke: #a6c6e0"/>
    </g>
    <g id="text_16">
     <!-- 100 K -->
     <g transform="translate(276.16 36.09625) scale(0.08 -0.08)">
      <use xlink:href="#Arimo-31"/>
      <use xlink:href="#Arimo-30" x="55.615234"/>
      <use xlink:href="#Arimo-30" x="111.230469"/>
      <use xlink:href="#Arimo-20" x="166.845703"/>
      <use xlink:href="#Arimo-4b" x="194.628906"/>
     </g>
    </g>
    <g id="line2d_100">
     <path d="M 253.76 44.75375 
L 261.76 44.75375 
L 269.76 44.75375 
" style="fill: none; stroke-dasharray: 1,1.65; stroke-dashoffset: 0; stroke: #8bb7d7"/>
    </g>
    <g id="text_17">
     <!-- 120 K -->
     <g transform="translate(276.16 47.55375) scale(0.08 -0.08)">
      <use xlink:href="#Arimo-31"/>
      <use xlink:href="#Arimo-32" x="55.615234"/>
      <use xlink:href="#Arimo-30" x="111.230469"/>
      <use xlink:href="#Arimo-20" x="166.845703"/>
      <use xlink:href="#Arimo-4b" x="194.628906"/>
     </g>
    </g>
    <g id="line2d_101">
     <path d="M 253.76 56.21125 
L 261.76 56.21125 
L 269.76 56.21125 
" style="fill: none; stroke-dasharray: 6.4,1.6,1,1.6; stroke-dashoffset: 0; stroke: #70a8ce"/>
    </g>
    <g id="text_18">
     <!-- 140 K -->
     <g transform="translate(276.16 59.01125) scale(0.08 -0.08)">
      <use xlink:href="#Arimo-31"/>
      <use xlink:href="#Arimo-34" x="55.615234"/>
      <use xlink:href="#Arimo-30" x="111.230469"/>
      <use xlink:href="#Arimo-20" x="166.845703"/>
      <use xlink:href="#Arimo-4b" x="194.628906"/>
     </g>
    </g>
    <g id="line2d_102">
     <path d="M 253.76 67.66875 
L 261.76 67.66875 
L 269.76 67.66875 
" style="fill: none; stroke: #568cbc; stroke-linecap: square"/>
    </g>
    <g id="text_19">
     <!-- 160 K -->
     <g transform="translate(276.16 70.46875) scale(0.08 -0.08)">
      <use xlink:href="#Arimo-31"/>
      <use xlink:href="#Arimo-36" x="55.615234"/>
      <use xlink:href="#Arimo-30" x="111.230469"/>
      <use xlink:href="#Arimo-20" x="166.845703"/>
      <use xlink:href="#Arimo-4b" x="194.628906"/>
     </g>
    </g>
    <g id="line2d_103">
     <path d="M 253.76 79.12625 
L 261.76 79.12625 
L 269.76 79.12625 
" style="fill: none; stroke-dasharray: 3.7,1.6; stroke-dashoffset: 0; stroke: #3d6fa9"/>
    </g>
    <g id="text_20">
     <!-- 180 K -->
     <g transform="translate(276.16 81.92625) scale(0.08 -0.08)">
      <use xlink:href="#Arimo-31"/>
      <use xlink:href="#Arimo-38" x="55.615234"/>
      <use xlink:href="#Arimo-30" x="111.230469"/>
      <use xlink:href="#Arimo-20" x="166.845703"/>
      <use xlink:href="#Arimo-4b" x="194.628906"/>
     </g>
    </g>
    <g id="line2d_104">
     <path d="M 253.76 90.58375 
L 261.76 90.58375 
L 269.76 90.58375 
" style="fill: none; stroke-dasharray: 1,1.65; stroke-dashoffset: 0; stroke: #264d99"/>
    </g>
    <g id="text_21">
     <!-- 200 K -->
     <g transform="translate(276.16 93.38375) scale(0.08 -0.08)">
      <use xlink:href="#Arimo-32"/>
      <use xlink:href="#Arimo-30" x="55.615234"/>
      <use xlink:href="#Arimo-30" x="111.230469"/>
      <use xlink:href="#Arimo-20" x="166.845703"/>
      <use xlink:href="#Arimo-4b" x="194.628906"/>
     </g>
    </g>
    <g id="line2d_105">
     <path d="M 253.76 102.04125 
L 261.76 102.04125 
L 269.76 102.04125 
" style="fill: none; stroke-dasharray: 6.4,1.6,1,1.6; stroke-dashoffset: 0; stroke: #13278d"/>
    </g>
    <g id="text_22">
     <!-- 220 K -->
     <g transform="translate(276.16 104.84125) scale(0.08 -0.08)">
      <use xlink:href="#Arimo-32"/>
      <use xlink:href="#Arimo-32" x="55.615234"/>
      <use xlink:href="#Arimo-30" x="111.230469"/>
      <use xlink:href="#Arimo-20" x="166.845703"/>
      <use xlink:href="#Arimo-4b" x="194.628906"/>
     </g>
    </g>
    <g id="line2d_106">
     <path d="M 253.76 113.49875 
L 261.76 113.49875 
L 269.76 113.49875 
" style="fill: none; stroke: #000080; stroke-linecap: square"/>
    </g>
    <g id="text_23">
     <!-- 240 K -->
     <g transform="translate(276.16 116.29875) scale(0.08 -0.08)">
      <use xlink:href="#Arimo-32"/>
      <use xlink:href="#Arimo-34" x="55.615234"/>
      <use xlink:href="#Arimo-30" x="111.230469"/>
      <use xlink:href="#Arimo-20" x="166.845703"/>
      <use xlink:href="#Arimo-4b" x="194.628906"/>
     </g>
    </g>
   </g>
  </g>
 </g>
 <defs>
  <clipPath id="p951542cebd">
   <rect x="30.24" y="3.6" width="216" height="129.6"/>
  </clipPath>
 </defs>
</svg>
