<?xml version="1.0" encoding="utf-8" standalone="no"?>
<!DOCTYPE svg PUBLIC "-//W3C//DTD SVG 1.1//EN"
  "http://www.w3.org/Graphics/SVG/1.1/DTD/svg11.dtd">
<svg xmlns:xlink="http://www.w3.org/1999/xlink" width="301.354688pt" height="171.667187pt" viewBox="0 0 301.354688 171.667187" xmlns="http://www.w3.org/2000/svg" version="1.1">
 <metadata>
  <rdf:RDF xmlns:dc="http://purl.org/dc/elements/1.1/" xmlns:cc="http://creativecommons.org/ns#" xmlns:rdf="http://www.w3.org/1999/02/22-rdf-syntax-ns#">
   <cc:Work>
    <dc:type rdf:resource="http://purl.org/dc/dcmitype/StillImage"/>
    <dc:date>2026-07-03T14:40:18.748647</dc:date>
    <dc:format>image/svg+xml</dc:format>
    <dc:creator>
     <cc:Agent>
      <dc:title>Matplotlib v3.7.2, https://matplotlib.org/</dc:title>
     </cc:Agent>
    </dc:creator>
   </cc:Work>
  </rdf:RDF>
 </metadata>
 <defs>
  <style type="text/css">*{stroke-linejoin: round; stroke-linecap: butt}</style>
 </defs>
 <g id="figure_1">
  <g id="patch_1">
   <path d="M 0 171.667187 
L 301.354688 171.667187 
L 301.354688 0 
L 0 0 
z
" style="fill: #ffffff"/>
  </g>
  <g id="axes_1">
   <g id="patch_2">
    <path d="M 29.169688 146.16 
L 245.169687 146.16 
L 245.169687 2.16 
L 29.169688 2.16 
z
" style="fill: #ffffff"/>
   </g>
   <g id="matplotlib.axis_1">
    <g id="xtick_1">
     <g id="line2d_1">
      <defs>
       <path id="mcc9b4f72eb" d="M 0 0 
L 0 -4 
" style="stroke: #000000; stroke-width: 0.6"/>
      </defs>
      <g>
       <use xlink:href="#mcc9b4f72eb" x="29.169688" y="146.16" style="stroke: #000000; stroke-width: 0.6"/>
      </g>
     </g>
     <g id="line2d_2">
      <defs>
       <path id="mb1331a5acb" d="M 0 0 
L 0 4 
" style="stroke: #000000; stroke-width: 0.6"/>
      </defs>
      <g>
       <use xlink:href="#mb1331a5acb" x="29.169688" y="2.16" style="stroke: #000000; stroke-width: 0.6"/>
      </g>
     </g>
     <g id="text_1">
      <!-- 0 -->
      <g transform="translate(26.945312 155.4575) scale(0.08 -0.08)">
       <defs>
        <path id="Arimo-30" d="M 3309 2203 
Q 3309 1100 2920 518 
Q 2531 -63 1772 -63 
Q 1013 -63 631 515 
Q 250 1094 250 2203 
Q 250 3338 620 3903 
Q 991 4469 1791 4469 
Q 2569 4469 2939 3897 
Q 3309 3325 3309 2203 
z
M 2738 2203 
Q 2738 3156 2517 3584 
Q 2297 4013 1791 4013 
Q 1272 4013 1045 3591 
Q 819 3169 819 2203 
Q 819 1266 1048 831 
Q 1278 397 1778 397 
Q 2275 397 2506 840 
Q 2738 1284 2738 2203 
z
" transform="scale(0.015625)"/>
       </defs>
       <use xlink:href="#Arimo-30"/>
      </g>
     </g>
    </g>
    <g id="xtick_2">
     <g id="line2d_3">
      <g>
       <use xlink:href="#mcc9b4f72eb" x="65.169687" y="146.16" style="stroke: #000000; stroke-width: 0.6"/>
      </g>
     </g>
     <g id="line2d_4">
      <g>
       <use xlink:href="#mb1331a5acb" x="65.169687" y="2.16" style="stroke: #000000; stroke-width: 0.6"/>
      </g>
     </g>
     <g id="text_2">
      <!-- 2 -->
      <g transform="translate(62.945312 155.4575) scale(0.08 -0.08)">
       <defs>
        <path id="Arimo-32" d="M 322 0 
L 322 397 
Q 481 763 711 1042 
Q 941 1322 1194 1548 
Q 1447 1775 1695 1969 
Q 1944 2163 2144 2356 
Q 2344 2550 2467 2762 
Q 2591 2975 2591 3244 
Q 2591 3606 2378 3806 
Q 2166 4006 1788 4006 
Q 1428 4006 1195 3811 
Q 963 3616 922 3263 
L 347 3316 
Q 409 3844 795 4156 
Q 1181 4469 1788 4469 
Q 2453 4469 2811 4155 
Q 3169 3841 3169 3263 
Q 3169 3006 3051 2753 
Q 2934 2500 2703 2247 
Q 2472 1994 1819 1463 
Q 1459 1169 1246 933 
Q 1034 697 941 478 
L 3238 478 
L 3238 0 
L 322 0 
z
" transform="scale(0.015625)"/>
       </defs>
       <use xlink:href="#Arimo-32"/>
      </g>
     </g>
    </g>
    <g id="xtick_3">
     <g id="line2d_5">
      <g>
       <use xlink:href="#mcc9b4f72eb" x="101.169687" y="146.16" style="stroke: #000000; stroke-width: 0.6"/>
      </g>
     </g>
     <g id="line2d_6">
      <g>
       <use xlink:href="#mb1331a5acb" x="101.169687" y="2.16" style="stroke: #000000; stroke-width: 0.6"/>
      </g>
     </g>
     <g id="text_3">
      <!-- 4 -->
      <g transform="translate(98.945312 155.4575) scale(0.08 -0.08)">
       <defs>
        <path id="Arimo-34" d="M 2753 997 
L 2753 0 
L 2222 0 
L 2222 997 
L 147 997 
L 147 1434 
L 2163 4403 
L 2753 4403 
L 2753 1441 
L 3372 1441 
L 3372 997 
L 2753 997 
z
M 2222 1441 
L 2222 3769 
Q 2150 3631 2101 3543 
Q 2053 3456 2013 3397 
L 1003 1903 
Q 916 1775 666 1441 
L 2222 1441 
z
" transform="scale(0.015625)"/>
       </defs>
       <use xlink:href="#Arimo-34"/>
      </g>
     </g>
    </g>
    <g id="xtick_4">
     <g id="line2d_7">
      <g>
       <use xlink:href="#mcc9b4f72eb" x="137.169687" y="146.16" style="stroke: #000000; stroke-width: 0.6"/>
      </g>
     </g>
     <g id="line2d_8">
      <g>
       <use xlink:href="#mb1331a5acb" x="137.169687" y="2.16" style="stroke: #000000; stroke-width: 0.6"/>
      </g>
     </g>
     <g id="text_4">
      <!-- 6 -->
      <g transform="translate(134.945312 155.4575) scale(0.08 -0.08)">
       <defs>
        <path id="Arimo-36" d="M 3278 1441 
Q 3278 744 2900 340 
Q 2522 -63 1856 -63 
Q 1113 -63 719 490 
Q 325 1044 325 2100 
Q 325 3244 734 3856 
Q 1144 4469 1900 4469 
Q 2897 4469 3156 3572 
L 2619 3475 
Q 2453 4013 1894 4013 
Q 1413 4013 1148 3564 
Q 884 3116 884 2266 
Q 1038 2550 1316 2698 
Q 1594 2847 1953 2847 
Q 2563 2847 2920 2465 
Q 3278 2084 3278 1441 
z
M 2706 1416 
Q 2706 1894 2472 2153 
Q 2238 2413 1819 2413 
Q 1425 2413 1183 2183 
Q 941 1953 941 1550 
Q 941 1041 1192 716 
Q 1444 391 1838 391 
Q 2244 391 2475 664 
Q 2706 938 2706 1416 
z
" transform="scale(0.015625)"/>
       </defs>
       <use xlink:href="#Arimo-36"/>
      </g>
     </g>
    </g>
    <g id="xtick_5">
     <g id="line2d_9">
      <g>
       <use xlink:href="#mcc9b4f72eb" x="173.169687" y="146.16" style="stroke: #000000; stroke-width: 0.6"/>
      </g>
     </g>
     <g id="line2d_10">
      <g>
       <use xlink:href="#mb1331a5acb" x="173.169687" y="2.16" style="stroke: #000000; stroke-width: 0.6"/>
      </g>
     </g>
     <g id="text_5">
      <!-- 8 -->
      <g transform="translate(170.945312 155.4575) scale(0.08 -0.08)">
       <defs>
        <path id="Arimo-38" d="M 3281 1228 
Q 3281 619 2893 278 
Q 2506 -63 1781 -63 
Q 1075 -63 676 271 
Q 278 606 278 1222 
Q 278 1653 525 1947 
Q 772 2241 1156 2303 
L 1156 2316 
Q 797 2400 589 2681 
Q 381 2963 381 3341 
Q 381 3844 757 4156 
Q 1134 4469 1769 4469 
Q 2419 4469 2795 4162 
Q 3172 3856 3172 3334 
Q 3172 2956 2962 2675 
Q 2753 2394 2391 2322 
L 2391 2309 
Q 2813 2241 3047 1952 
Q 3281 1663 3281 1228 
z
M 2697 1281 
Q 2697 1691 2453 1898 
Q 2209 2106 1769 2106 
Q 1341 2106 1100 1882 
Q 859 1659 859 1269 
Q 859 359 1788 359 
Q 2247 359 2472 579 
Q 2697 800 2697 1281 
z
M 2588 3303 
Q 2588 4050 1769 4050 
Q 1372 4050 1164 3862 
Q 956 3675 956 3303 
Q 956 2925 1170 2726 
Q 1384 2528 1775 2528 
Q 2172 2528 2380 2711 
Q 2588 2894 2588 3303 
z
" transform="scale(0.015625)"/>
       </defs>
       <use xlink:href="#Arimo-38"/>
      </g>
     </g>
    </g>
    <g id="xtick_6">
     <g id="line2d_11">
      <g>
       <use xlink:href="#mcc9b4f72eb" x="209.169687" y="146.16" style="stroke: #000000; stroke-width: 0.6"/>
      </g>
     </g>
     <g id="line2d_12">
      <g>
       <use xlink:href="#mb1331a5acb" x="209.169687" y="2.16" style="stroke: #000000; stroke-width: 0.6"/>
      </g>
     </g>
     <g id="text_6">
      <!-- 10 -->
      <g transform="translate(204.720937 155.4575) scale(0.08 -0.08)">
       <defs>
        <path id="Arimo-31" d="M 488 0 
L 488 478 
L 1609 478 
L 1609 3866 
L 616 3156 
L 616 3688 
L 1656 4403 
L 2175 4403 
L 2175 478 
L 3247 478 
L 3247 0 
L 488 0 
z
" transform="scale(0.015625)"/>
       </defs>
       <use xlink:href="#Arimo-31"/>
       <use xlink:href="#Arimo-30" x="55.615234"/>
      </g>
     </g>
    </g>
    <g id="xtick_7">
     <g id="line2d_13">
      <g>
       <use xlink:href="#mcc9b4f72eb" x="245.169687" y="146.16" style="stroke: #000000; stroke-width: 0.6"/>
      </g>
     </g>
     <g id="line2d_14">
      <g>
       <use xlink:href="#mb1331a5acb" x="245.169687" y="2.16" style="stroke: #000000; stroke-width: 0.6"/>
      </g>
     </g>
     <g id="text_7">
      <!-- 12 -->
      <g transform="translate(240.720937 155.4575) scale(0.08 -0.08)">
       <use xlink:href="#Arimo-31"/>
       <use xlink:href="#Arimo-32" x="55.615234"/>
      </g>
     </g>
    </g>
    <g id="xtick_8">
     <g id="line2d_15">
      <defs>
       <path id="m7aa7f93e62" d="M 0 0 
L 0 -2.4 
" style="stroke: #000000; stroke-width: 0.3"/>
      </defs>
      <g>
       <use xlink:href="#m7aa7f93e62" x="38.169688" y="146.16" style="stroke: #000000; stroke-width: 0.3"/>
      </g>
     </g>
     <g id="line2d_16">
      <defs>
       <path id="mf022a213d9" d="M 0 0 
L 0 2.4 
" style="stroke: #000000; stroke-width: 0.3"/>
      </defs>
      <g>
       <use xlink:href="#mf022a213d9" x="38.169688" y="2.16" style="stroke: #000000; stroke-width: 0.3"/>
      </g>
     </g>
    </g>
    <g id="xtick_9">
     <g id="line2d_17">
      <g>
       <use xlink:href="#m7aa7f93e62" x="47.169687" y="146.16" style="stroke: #000000; stroke-width: 0.3"/>
      </g>
     </g>
     <g id="line2d_18">
      <g>
       <use xlink:href="#mf022a213d9" x="47.169687" y="2.16" style="stroke: #000000; stroke-width: 0.3"/>
      </g>
     </g>
    </g>
    <g id="xtick_10">
     <g id="line2d_19">
      <g>
       <use xlink:href="#m7aa7f93e62" x="56.169687" y="146.16" style="stroke: #000000; stroke-width: 0.3"/>
      </g>
     </g>
     <g id="line2d_20">
      <g>
       <use xlink:href="#mf022a213d9" x="56.169687" y="2.16" style="stroke: #000000; stroke-width: 0.3"/>
      </g>
     </g>
    </g>
    <g id="xtick_11">
     <g id="line2d_21">
      <g>
       <use xlink:href="#m7aa7f93e62" x="74.169687" y="146.16" style="stroke: #000000; stroke-width: 0.3"/>
      </g>
     </g>
     <g id="line2d_22">
      <g>
       <use xlink:href="#mf022a213d9" x="74.169687" y="2.16" style="stroke: #000000; stroke-width: 0.3"/>
      </g>
     </g>
    </g>
    <g id="xtick_12">
     <g id="line2d_23">
      <g>
       <use xlink:href="#m7aa7f93e62" x="83.169687" y="146.16" style="stroke: #000000; stroke-width: 0.3"/>
      </g>
     </g>
     <g id="line2d_24">
      <g>
       <use xlink:href="#mf022a213d9" x="83.169687" y="2.16" style="stroke: #000000; stroke-width: 0.3"/>
      </g>
     </g>
    </g>
    <g id="xtick_13">
     <g id="line2d_25">
      <g>
       <use xlink:href="#m7aa7f93e62" x="92.169687" y="146.16" style="stroke: #000000; stroke-width: 0.3"/>
      </g>
     </g>
     <g id="line2d_26">
      <g>
       <use xlink:href="#mf022a213d9" x="92.169687" y="2.16" style="stroke: #000000; stroke-width: 0.3"/>
      </g>
     </g>
    </g>
    <g id="xtick_14">
     <g id="line2d_27">
      <g>
       <use xlink:href="#m7aa7f93e62" x="110.169687" y="146.16" style="stroke: #000000; stroke-width: 0.3"/>
      </g>
     </g>
     <g id="line2d_28">
      <g>
       <use xlink:href="#mf022a213d9" x="110.169687" y="2.16" style="stroke: #000000; stroke-width: 0.3"/>
      </g>
     </g>
    </g>
    <g id="xtick_15">
     <g id="line2d_29">
      <g>
       <use xlink:href="#m7aa7f93e62" x="119.169687" y="146.16" style="stroke: #000000; stroke-width: 0.3"/>
      </g>
     </g>
     <g id="line2d_30">
      <g>
       <use xlink:href="#mf022a213d9" x="119.169687" y="2.16" style="stroke: #000000; stroke-width: 0.3"/>
      </g>
     </g>
    </g>
    <g id="xtick_16">
     <g id="line2d_31">
      <g>
       <use xlink:href="#m7aa7f93e62" x="128.169687" y="146.16" style="stroke: #000000; stroke-width: 0.3"/>
      </g>
     </g>
     <g id="line2d_32">
      <g>
       <use xlink:href="#mf022a213d9" x="128.169687" y="2.16" style="stroke: #000000; stroke-width: 0.3"/>
      </g>
     </g>
    </g>
    <g id="xtick_17">
     <g id="line2d_33">
      <g>
       <use xlink:href="#m7aa7f93e62" x="146.169687" y="146.16" style="stroke: #000000; stroke-width: 0.3"/>
      </g>
     </g>
     <g id="line2d_34">
      <g>
       <use xlink:href="#mf022a213d9" x="146.169687" y="2.16" style="stroke: #000000; stroke-width: 0.3"/>
      </g>
     </g>
    </g>
    <g id="xtick_18">
     <g id="line2d_35">
      <g>
       <use xlink:href="#m7aa7f93e62" x="155.169687" y="146.16" style="stroke: #000000; stroke-width: 0.3"/>
      </g>
     </g>
     <g id="line2d_36">
      <g>
       <use xlink:href="#mf022a213d9" x="155.169687" y="2.16" style="stroke: #000000; stroke-width: 0.3"/>
      </g>
     </g>
    </g>
    <g id="xtick_19">
     <g id="line2d_37">
      <g>
       <use xlink:href="#m7aa7f93e62" x="164.169687" y="146.16" style="stroke: #000000; stroke-width: 0.3"/>
      </g>
     </g>
     <g id="line2d_38">
      <g>
       <use xlink:href="#mf022a213d9" x="164.169687" y="2.16" style="stroke: #000000; stroke-width: 0.3"/>
      </g>
     </g>
    </g>
    <g id="xtick_20">
     <g id="line2d_39">
      <g>
       <use xlink:href="#m7aa7f93e62" x="182.169687" y="146.16" style="stroke: #000000; stroke-width: 0.3"/>
      </g>
     </g>
     <g id="line2d_40">
      <g>
       <use xlink:href="#mf022a213d9" x="182.169687" y="2.16" style="stroke: #000000; stroke-width: 0.3"/>
      </g>
     </g>
    </g>
    <g id="xtick_21">
     <g id="line2d_41">
      <g>
       <use xlink:href="#m7aa7f93e62" x="191.169687" y="146.16" style="stroke: #000000; stroke-width: 0.3"/>
      </g>
     </g>
     <g id="line2d_42">
      <g>
       <use xlink:href="#mf022a213d9" x="191.169687" y="2.16" style="stroke: #000000; stroke-width: 0.3"/>
      </g>
     </g>
    </g>
    <g id="xtick_22">
     <g id="line2d_43">
      <g>
       <use xlink:href="#m7aa7f93e62" x="200.169687" y="146.16" style="stroke: #000000; stroke-width: 0.3"/>
      </g>
     </g>
     <g id="line2d_44">
      <g>
       <use xlink:href="#mf022a213d9" x="200.169687" y="2.16" style="stroke: #000000; stroke-width: 0.3"/>
      </g>
     </g>
    </g>
    <g id="xtick_23">
     <g id="line2d_45">
      <g>
       <use xlink:href="#m7aa7f93e62" x="218.169687" y="146.16" style="stroke: #000000; stroke-width: 0.3"/>
      </g>
     </g>
     <g id="line2d_46">
      <g>
       <use xlink:href="#mf022a213d9" x="218.169687" y="2.16" style="stroke: #000000; stroke-width: 0.3"/>
      </g>
     </g>
    </g>
    <g id="xtick_24">
     <g id="line2d_47">
      <g>
       <use xlink:href="#m7aa7f93e62" x="227.169687" y="146.16" style="stroke: #000000; stroke-width: 0.3"/>
      </g>
     </g>
     <g id="line2d_48">
      <g>
       <use xlink:href="#mf022a213d9" x="227.169687" y="2.16" style="stroke: #000000; stroke-width: 0.3"/>
      </g>
     </g>
    </g>
    <g id="xtick_25">
     <g id="line2d_49">
      <g>
       <use xlink:href="#m7aa7f93e62" x="236.169687" y="146.16" style="stroke: #000000; stroke-width: 0.3"/>
      </g>
     </g>
     <g id="line2d_50">
      <g>
       <use xlink:href="#mf022a213d9" x="236.169687" y="2.16" style="stroke: #000000; stroke-width: 0.3"/>
      </g>
     </g>
    </g>
    <g id="text_8">
     <!-- Time [s] -->
     <g style="fill: #111111" transform="translate(121.170078 167.639687) scale(0.09 -0.09)">
      <defs>
       <path id="Arimo-54" d="M 2250 3916 
L 2250 0 
L 1656 0 
L 1656 3916 
L 144 3916 
L 144 4403 
L 3763 4403 
L 3763 3916 
L 2250 3916 
z
" transform="scale(0.015625)"/>
       <path id="Arimo-69" d="M 428 0 
L 428 3381 
L 991 3381 
L 991 0 
L 428 0 
z
M 428 4100 
L 428 4638 
L 991 4638 
L 991 4100 
L 428 4100 
z
" transform="scale(0.015625)"/>
       <path id="Arimo-6d" d="M 2400 0 
L 2400 2144 
Q 2400 2634 2265 2821 
Q 2131 3009 1781 3009 
Q 1422 3009 1212 2734 
Q 1003 2459 1003 1959 
L 1003 0 
L 444 0 
L 444 2659 
Q 444 3250 425 3381 
L 956 3381 
Q 959 3366 962 3297 
Q 966 3228 970 3139 
Q 975 3050 981 2803 
L 991 2803 
Q 1172 3163 1406 3303 
Q 1641 3444 1978 3444 
Q 2363 3444 2586 3291 
Q 2809 3138 2897 2803 
L 2906 2803 
Q 3081 3144 3329 3294 
Q 3578 3444 3931 3444 
Q 4444 3444 4676 3166 
Q 4909 2888 4909 2253 
L 4909 0 
L 4353 0 
L 4353 2144 
Q 4353 2634 4218 2821 
Q 4084 3009 3734 3009 
Q 3366 3009 3161 2736 
Q 2956 2463 2956 1959 
L 2956 0 
L 2400 0 
z
" transform="scale(0.015625)"/>
       <path id="Arimo-65" d="M 863 1572 
Q 863 991 1103 675 
Q 1344 359 1806 359 
Q 2172 359 2392 506 
Q 2613 653 2691 878 
L 3184 738 
Q 2881 -63 1806 -63 
Q 1056 -63 664 384 
Q 272 831 272 1713 
Q 272 2550 664 2997 
Q 1056 3444 1784 3444 
Q 3275 3444 3275 1647 
L 3275 1572 
L 863 1572 
z
M 2694 2003 
Q 2647 2538 2422 2783 
Q 2197 3028 1775 3028 
Q 1366 3028 1127 2754 
Q 888 2481 869 2003 
L 2694 2003 
z
" transform="scale(0.015625)"/>
       <path id="Arimo-20" transform="scale(0.015625)"/>
       <path id="Arimo-5b" d="M 456 -1328 
L 456 4638 
L 1728 4638 
L 1728 4234 
L 1000 4234 
L 1000 -925 
L 1728 -925 
L 1728 -1328 
L 456 -1328 
z
" transform="scale(0.015625)"/>
       <path id="Arimo-73" d="M 2969 934 
Q 2969 456 2608 196 
Q 2247 -63 1597 -63 
Q 966 -63 623 145 
Q 281 353 178 794 
L 675 891 
Q 747 619 972 492 
Q 1197 366 1597 366 
Q 2025 366 2223 497 
Q 2422 628 2422 891 
Q 2422 1091 2284 1216 
Q 2147 1341 1841 1422 
L 1438 1528 
Q 953 1653 748 1773 
Q 544 1894 428 2066 
Q 313 2238 313 2488 
Q 313 2950 642 3192 
Q 972 3434 1603 3434 
Q 2163 3434 2492 3237 
Q 2822 3041 2909 2606 
L 2403 2544 
Q 2356 2769 2151 2889 
Q 1947 3009 1603 3009 
Q 1222 3009 1040 2893 
Q 859 2778 859 2544 
Q 859 2400 934 2306 
Q 1009 2213 1156 2147 
Q 1303 2081 1775 1966 
Q 2222 1853 2419 1758 
Q 2616 1663 2730 1547 
Q 2844 1431 2906 1279 
Q 2969 1128 2969 934 
z
" transform="scale(0.015625)"/>
       <path id="Arimo-5d" d="M 50 -1328 
L 50 -925 
L 778 -925 
L 778 4234 
L 50 4234 
L 50 4638 
L 1322 4638 
L 1322 -1328 
L 50 -1328 
z
" transform="scale(0.015625)"/>
      </defs>
      <use xlink:href="#Arimo-54"/>
      <use xlink:href="#Arimo-69" x="61.083984"/>
      <use xlink:href="#Arimo-6d" x="83.300781"/>
      <use xlink:href="#Arimo-65" x="166.601562"/>
      <use xlink:href="#Arimo-20" x="222.216797"/>
      <use xlink:href="#Arimo-5b" x="250"/>
      <use xlink:href="#Arimo-73" x="277.783203"/>
      <use xlink:href="#Arimo-5d" x="327.783203"/>
     </g>
    </g>
   </g>
   <g id="matplotlib.axis_2">
    <g id="ytick_1">
     <g id="line2d_51">
      <defs>
       <path id="m4d3e6706ba" d="M 0 0 
L 4 0 
" style="stroke: #000000; stroke-width: 0.6"/>
      </defs>
      <g>
       <use xlink:href="#m4d3e6706ba" x="29.169688" y="146.16" style="stroke: #000000; stroke-width: 0.6"/>
      </g>
     </g>
     <g id="line2d_52">
      <defs>
       <path id="m6d14433b92" d="M 0 0 
L -4 0 
" style="stroke: #000000; stroke-width: 0.6"/>
      </defs>
      <g>
       <use xlink:href="#m6d14433b92" x="245.169687" y="146.16" style="stroke: #000000; stroke-width: 0.6"/>
      </g>
     </g>
     <g id="text_9">
      <!-- 0.0 -->
      <g transform="translate(14.549688 149.05875) scale(0.08 -0.08)">
       <defs>
        <path id="Arimo-2e" d="M 584 0 
L 584 684 
L 1194 684 
L 1194 0 
L 584 0 
z
" transform="scale(0.015625)"/>
       </defs>
       <use xlink:href="#Arimo-30"/>
       <use xlink:href="#Arimo-2e" x="55.615234"/>
       <use xlink:href="#Arimo-30" x="83.398438"/>
      </g>
     </g>
    </g>
    <g id="ytick_2">
     <g id="line2d_53">
      <g>
       <use xlink:href="#m4d3e6706ba" x="29.169688" y="115.844211" style="stroke: #000000; stroke-width: 0.6"/>
      </g>
     </g>
     <g id="line2d_54">
      <g>
       <use xlink:href="#m6d14433b92" x="245.169687" y="115.844211" style="stroke: #000000; stroke-width: 0.6"/>
      </g>
     </g>
     <g id="text_10">
      <!-- 0.2 -->
      <g transform="translate(14.549688 118.742961) scale(0.08 -0.08)">
       <use xlink:href="#Arimo-30"/>
       <use xlink:href="#Arimo-2e" x="55.615234"/>
       <use xlink:href="#Arimo-32" x="83.398438"/>
      </g>
     </g>
    </g>
    <g id="ytick_3">
     <g id="line2d_55">
      <g>
       <use xlink:href="#m4d3e6706ba" x="29.169688" y="85.528421" style="stroke: #000000; stroke-width: 0.6"/>
      </g>
     </g>
     <g id="line2d_56">
      <g>
       <use xlink:href="#m6d14433b92" x="245.169687" y="85.528421" style="stroke: #000000; stroke-width: 0.6"/>
      </g>
     </g>
     <g id="text_11">
      <!-- 0.4 -->
      <g transform="translate(14.549688 88.427171) scale(0.08 -0.08)">
       <use xlink:href="#Arimo-30"/>
       <use xlink:href="#Arimo-2e" x="55.615234"/>
       <use xlink:href="#Arimo-34" x="83.398438"/>
      </g>
     </g>
    </g>
    <g id="ytick_4">
     <g id="line2d_57">
      <g>
       <use xlink:href="#m4d3e6706ba" x="29.169688" y="55.212632" style="stroke: #000000; stroke-width: 0.6"/>
      </g>
     </g>
     <g id="line2d_58">
      <g>
       <use xlink:href="#m6d14433b92" x="245.169687" y="55.212632" style="stroke: #000000; stroke-width: 0.6"/>
      </g>
     </g>
     <g id="text_12">
      <!-- 0.6 -->
      <g transform="translate(14.549688 58.111382) scale(0.08 -0.08)">
       <use xlink:href="#Arimo-30"/>
       <use xlink:href="#Arimo-2e" x="55.615234"/>
       <use xlink:href="#Arimo-36" x="83.398438"/>
      </g>
     </g>
    </g>
    <g id="ytick_5">
     <g id="line2d_59">
      <g>
       <use xlink:href="#m4d3e6706ba" x="29.169688" y="24.896842" style="stroke: #000000; stroke-width: 0.6"/>
      </g>
     </g>
     <g id="line2d_60">
      <g>
       <use xlink:href="#m6d14433b92" x="245.169687" y="24.896842" style="stroke: #000000; stroke-width: 0.6"/>
      </g>
     </g>
     <g id="text_13">
      <!-- 0.8 -->
      <g transform="translate(14.549688 27.795592) scale(0.08 -0.08)">
       <use xlink:href="#Arimo-30"/>
       <use xlink:href="#Arimo-2e" x="55.615234"/>
       <use xlink:href="#Arimo-38" x="83.398438"/>
      </g>
     </g>
    </g>
    <g id="ytick_6">
     <g id="line2d_61">
      <defs>
       <path id="mde4e7667bf" d="M 0 0 
L 2.4 0 
" style="stroke: #000000; stroke-width: 0.3"/>
      </defs>
      <g>
       <use xlink:href="#mde4e7667bf" x="29.169688" y="138.581053" style="stroke: #000000; stroke-width: 0.3"/>
      </g>
     </g>
     <g id="line2d_62">
      <defs>
       <path id="m510c6f13a2" d="M 0 0 
L -2.4 0 
" style="stroke: #000000; stroke-width: 0.3"/>
      </defs>
      <g>
       <use xlink:href="#m510c6f13a2" x="245.169687" y="138.581053" style="stroke: #000000; stroke-width: 0.3"/>
      </g>
     </g>
    </g>
    <g id="ytick_7">
     <g id="line2d_63">
      <g>
       <use xlink:href="#mde4e7667bf" x="29.169688" y="131.002105" style="stroke: #000000; stroke-width: 0.3"/>
      </g>
     </g>
     <g id="line2d_64">
      <g>
       <use xlink:href="#m510c6f13a2" x="245.169687" y="131.002105" style="stroke: #000000; stroke-width: 0.3"/>
      </g>
     </g>
    </g>
    <g id="ytick_8">
     <g id="line2d_65">
      <g>
       <use xlink:href="#mde4e7667bf" x="29.169688" y="123.423158" style="stroke: #000000; stroke-width: 0.3"/>
      </g>
     </g>
     <g id="line2d_66">
      <g>
       <use xlink:href="#m510c6f13a2" x="245.169687" y="123.423158" style="stroke: #000000; stroke-width: 0.3"/>
      </g>
     </g>
    </g>
    <g id="ytick_9">
     <g id="line2d_67">
      <g>
       <use xlink:href="#mde4e7667bf" x="29.169688" y="108.265263" style="stroke: #000000; stroke-width: 0.3"/>
      </g>
     </g>
     <g id="line2d_68">
      <g>
       <use xlink:href="#m510c6f13a2" x="245.169687" y="108.265263" style="stroke: #000000; stroke-width: 0.3"/>
      </g>
     </g>
    </g>
    <g id="ytick_10">
     <g id="line2d_69">
      <g>
       <use xlink:href="#mde4e7667bf" x="29.169688" y="100.686316" style="stroke: #000000; stroke-width: 0.3"/>
      </g>
     </g>
     <g id="line2d_70">
      <g>
       <use xlink:href="#m510c6f13a2" x="245.169687" y="100.686316" style="stroke: #000000; stroke-width: 0.3"/>
      </g>
     </g>
    </g>
    <g id="ytick_11">
     <g id="line2d_71">
      <g>
       <use xlink:href="#mde4e7667bf" x="29.169688" y="93.107368" style="stroke: #000000; stroke-width: 0.3"/>
      </g>
     </g>
     <g id="line2d_72">
      <g>
       <use xlink:href="#m510c6f13a2" x="245.169687" y="93.107368" style="stroke: #000000; stroke-width: 0.3"/>
      </g>
     </g>
    </g>
    <g id="ytick_12">
     <g id="line2d_73">
      <g>
       <use xlink:href="#mde4e7667bf" x="29.169688" y="77.949474" style="stroke: #000000; stroke-width: 0.3"/>
      </g>
     </g>
     <g id="line2d_74">
      <g>
       <use xlink:href="#m510c6f13a2" x="245.169687" y="77.949474" style="stroke: #000000; stroke-width: 0.3"/>
      </g>
     </g>
    </g>
    <g id="ytick_13">
     <g id="line2d_75">
      <g>
       <use xlink:href="#mde4e7667bf" x="29.169688" y="70.370526" style="stroke: #000000; stroke-width: 0.3"/>
      </g>
     </g>
     <g id="line2d_76">
      <g>
       <use xlink:href="#m510c6f13a2" x="245.169687" y="70.370526" style="stroke: #000000; stroke-width: 0.3"/>
      </g>
     </g>
    </g>
    <g id="ytick_14">
     <g id="line2d_77">
      <g>
       <use xlink:href="#mde4e7667bf" x="29.169688" y="62.791579" style="stroke: #000000; stroke-width: 0.3"/>
      </g>
     </g>
     <g id="line2d_78">
      <g>
       <use xlink:href="#m510c6f13a2" x="245.169687" y="62.791579" style="stroke: #000000; stroke-width: 0.3"/>
      </g>
     </g>
    </g>
    <g id="ytick_15">
     <g id="line2d_79">
      <g>
       <use xlink:href="#mde4e7667bf" x="29.169688" y="47.633684" style="stroke: #000000; stroke-width: 0.3"/>
      </g>
     </g>
     <g id="line2d_80">
      <g>
       <use xlink:href="#m510c6f13a2" x="245.169687" y="47.633684" style="stroke: #000000; stroke-width: 0.3"/>
      </g>
     </g>
    </g>
    <g id="ytick_16">
     <g id="line2d_81">
      <g>
       <use xlink:href="#mde4e7667bf" x="29.169688" y="40.054737" style="stroke: #000000; stroke-width: 0.3"/>
      </g>
     </g>
     <g id="line2d_82">
      <g>
       <use xlink:href="#m510c6f13a2" x="245.169687" y="40.054737" style="stroke: #000000; stroke-width: 0.3"/>
      </g>
     </g>
    </g>
    <g id="ytick_17">
     <g id="line2d_83">
      <g>
       <use xlink:href="#mde4e7667bf" x="29.169688" y="32.475789" style="stroke: #000000; stroke-width: 0.3"/>
      </g>
     </g>
     <g id="line2d_84">
      <g>
       <use xlink:href="#m510c6f13a2" x="245.169687" y="32.475789" style="stroke: #000000; stroke-width: 0.3"/>
      </g>
     </g>
    </g>
    <g id="ytick_18">
     <g id="line2d_85">
      <g>
       <use xlink:href="#mde4e7667bf" x="29.169688" y="17.317895" style="stroke: #000000; stroke-width: 0.3"/>
      </g>
     </g>
     <g id="line2d_86">
      <g>
       <use xlink:href="#m510c6f13a2" x="245.169687" y="17.317895" style="stroke: #000000; stroke-width: 0.3"/>
      </g>
     </g>
    </g>
    <g id="ytick_19">
     <g id="line2d_87">
      <g>
       <use xlink:href="#mde4e7667bf" x="29.169688" y="9.738947" style="stroke: #000000; stroke-width: 0.3"/>
      </g>
     </g>
     <g id="line2d_88">
      <g>
       <use xlink:href="#m510c6f13a2" x="245.169687" y="9.738947" style="stroke: #000000; stroke-width: 0.3"/>
      </g>
     </g>
    </g>
    <g id="text_14">
     <!-- Normalized Signal [a.u.] -->
     <g style="fill: #111111" transform="translate(8.682187 121.930312) rotate(-90) scale(0.09 -0.09)">
      <defs>
       <path id="Arimo-4e" d="M 3381 0 
L 1025 3750 
L 1041 3447 
L 1056 2925 
L 1056 0 
L 525 0 
L 525 4403 
L 1219 4403 
L 3600 628 
Q 3563 1241 3563 1516 
L 3563 4403 
L 4100 4403 
L 4100 0 
L 3381 0 
z
" transform="scale(0.015625)"/>
       <path id="Arimo-6f" d="M 3291 1694 
Q 3291 806 2900 371 
Q 2509 -63 1766 -63 
Q 1025 -63 647 389 
Q 269 841 269 1694 
Q 269 3444 1784 3444 
Q 2559 3444 2925 3017 
Q 3291 2591 3291 1694 
z
M 2700 1694 
Q 2700 2394 2492 2711 
Q 2284 3028 1794 3028 
Q 1300 3028 1079 2704 
Q 859 2381 859 1694 
Q 859 1025 1076 689 
Q 1294 353 1759 353 
Q 2266 353 2483 678 
Q 2700 1003 2700 1694 
z
" transform="scale(0.015625)"/>
       <path id="Arimo-72" d="M 444 0 
L 444 2594 
Q 444 2950 425 3381 
L 956 3381 
Q 981 2806 981 2691 
L 994 2691 
Q 1128 3125 1303 3284 
Q 1478 3444 1797 3444 
Q 1909 3444 2025 3413 
L 2025 2897 
Q 1913 2928 1725 2928 
Q 1375 2928 1190 2626 
Q 1006 2325 1006 1763 
L 1006 0 
L 444 0 
z
" transform="scale(0.015625)"/>
       <path id="Arimo-61" d="M 1294 -63 
Q 784 -63 528 206 
Q 272 475 272 944 
Q 272 1469 617 1750 
Q 963 2031 1731 2050 
L 2491 2063 
L 2491 2247 
Q 2491 2659 2316 2837 
Q 2141 3016 1766 3016 
Q 1388 3016 1216 2887 
Q 1044 2759 1009 2478 
L 422 2531 
Q 566 3444 1778 3444 
Q 2416 3444 2737 3151 
Q 3059 2859 3059 2306 
L 3059 850 
Q 3059 600 3125 473 
Q 3191 347 3375 347 
Q 3456 347 3559 369 
L 3559 19 
Q 3347 -31 3125 -31 
Q 2813 -31 2670 133 
Q 2528 297 2509 647 
L 2491 647 
Q 2275 259 1989 98 
Q 1703 -63 1294 -63 
z
M 1422 359 
Q 1731 359 1972 500 
Q 2213 641 2352 886 
Q 2491 1131 2491 1391 
L 2491 1669 
L 1875 1656 
Q 1478 1650 1273 1575 
Q 1069 1500 959 1344 
Q 850 1188 850 934 
Q 850 659 998 509 
Q 1147 359 1422 359 
z
" transform="scale(0.015625)"/>
       <path id="Arimo-6c" d="M 431 0 
L 431 4638 
L 994 4638 
L 994 0 
L 431 0 
z
" transform="scale(0.015625)"/>
       <path id="Arimo-7a" d="M 259 0 
L 259 428 
L 2150 2947 
L 366 2947 
L 366 3381 
L 2816 3381 
L 2816 2953 
L 922 434 
L 2881 434 
L 2881 0 
L 259 0 
z
" transform="scale(0.015625)"/>
       <path id="Arimo-64" d="M 2566 544 
Q 2409 219 2151 78 
Q 1894 -63 1513 -63 
Q 872 -63 570 368 
Q 269 800 269 1675 
Q 269 3444 1513 3444 
Q 1897 3444 2153 3303 
Q 2409 3163 2566 2856 
L 2572 2856 
L 2566 3234 
L 2566 4638 
L 3128 4638 
L 3128 697 
Q 3128 169 3147 0 
L 2609 0 
Q 2600 50 2589 231 
Q 2578 413 2578 544 
L 2566 544 
z
M 859 1694 
Q 859 984 1046 678 
Q 1234 372 1656 372 
Q 2134 372 2350 703 
Q 2566 1034 2566 1731 
Q 2566 2403 2350 2715 
Q 2134 3028 1663 3028 
Q 1238 3028 1048 2714 
Q 859 2400 859 1694 
z
" transform="scale(0.015625)"/>
       <path id="Arimo-53" d="M 3975 1216 
Q 3975 606 3498 271 
Q 3022 -63 2156 -63 
Q 547 -63 291 1056 
L 869 1172 
Q 969 775 1294 589 
Q 1619 403 2178 403 
Q 2756 403 3070 601 
Q 3384 800 3384 1184 
Q 3384 1400 3286 1534 
Q 3188 1669 3009 1756 
Q 2831 1844 2584 1903 
Q 2338 1963 2038 2031 
Q 1516 2147 1245 2262 
Q 975 2378 819 2520 
Q 663 2663 580 2853 
Q 497 3044 497 3291 
Q 497 3856 930 4162 
Q 1363 4469 2169 4469 
Q 2919 4469 3316 4239 
Q 3713 4009 3872 3456 
L 3284 3353 
Q 3188 3703 2916 3861 
Q 2644 4019 2163 4019 
Q 1634 4019 1356 3844 
Q 1078 3669 1078 3322 
Q 1078 3119 1186 2986 
Q 1294 2853 1497 2761 
Q 1700 2669 2306 2534 
Q 2509 2488 2711 2439 
Q 2913 2391 3097 2323 
Q 3281 2256 3442 2165 
Q 3603 2075 3722 1944 
Q 3841 1813 3908 1634 
Q 3975 1456 3975 1216 
z
" transform="scale(0.015625)"/>
       <path id="Arimo-67" d="M 1713 -1328 
Q 1159 -1328 831 -1111 
Q 503 -894 409 -494 
L 975 -413 
Q 1031 -647 1223 -773 
Q 1416 -900 1728 -900 
Q 2569 -900 2569 84 
L 2569 628 
L 2563 628 
Q 2403 303 2125 139 
Q 1847 -25 1475 -25 
Q 853 -25 561 387 
Q 269 800 269 1684 
Q 269 2581 583 3007 
Q 897 3434 1538 3434 
Q 1897 3434 2161 3270 
Q 2425 3106 2569 2803 
L 2575 2803 
Q 2575 2897 2587 3128 
Q 2600 3359 2613 3381 
L 3147 3381 
Q 3128 3213 3128 2681 
L 3128 97 
Q 3128 -1328 1713 -1328 
z
M 2569 1691 
Q 2569 2103 2456 2401 
Q 2344 2700 2139 2858 
Q 1934 3016 1675 3016 
Q 1244 3016 1047 2703 
Q 850 2391 850 1691 
Q 850 997 1034 694 
Q 1219 391 1666 391 
Q 1931 391 2137 547 
Q 2344 703 2456 995 
Q 2569 1288 2569 1691 
z
" transform="scale(0.015625)"/>
       <path id="Arimo-6e" d="M 2578 0 
L 2578 2144 
Q 2578 2478 2512 2662 
Q 2447 2847 2303 2928 
Q 2159 3009 1881 3009 
Q 1475 3009 1240 2731 
Q 1006 2453 1006 1959 
L 1006 0 
L 444 0 
L 444 2659 
Q 444 3250 425 3381 
L 956 3381 
Q 959 3366 962 3297 
Q 966 3228 970 3139 
Q 975 3050 981 2803 
L 991 2803 
Q 1184 3153 1439 3298 
Q 1694 3444 2072 3444 
Q 2628 3444 2886 3167 
Q 3144 2891 3144 2253 
L 3144 0 
L 2578 0 
z
" transform="scale(0.015625)"/>
       <path id="Arimo-75" d="M 981 3381 
L 981 1238 
Q 981 903 1047 718 
Q 1113 534 1256 453 
Q 1400 372 1678 372 
Q 2084 372 2318 650 
Q 2553 928 2553 1422 
L 2553 3381 
L 3116 3381 
L 3116 722 
Q 3116 131 3134 0 
L 2603 0 
Q 2600 16 2597 84 
Q 2594 153 2589 242 
Q 2584 331 2578 578 
L 2569 578 
Q 2375 228 2120 82 
Q 1866 -63 1488 -63 
Q 931 -63 673 214 
Q 416 491 416 1128 
L 416 3381 
L 981 3381 
z
" transform="scale(0.015625)"/>
      </defs>
      <use xlink:href="#Arimo-4e"/>
      <use xlink:href="#Arimo-6f" x="72.216797"/>
      <use xlink:href="#Arimo-72" x="127.832031"/>
      <use xlink:href="#Arimo-6d" x="161.132812"/>
      <use xlink:href="#Arimo-61" x="244.433594"/>
      <use xlink:href="#Arimo-6c" x="300.048828"/>
      <use xlink:href="#Arimo-69" x="322.265625"/>
      <use xlink:href="#Arimo-7a" x="344.482422"/>
      <use xlink:href="#Arimo-65" x="394.482422"/>
      <use xlink:href="#Arimo-64" x="450.097656"/>
      <use xlink:href="#Arimo-20" x="505.712891"/>
      <use xlink:href="#Arimo-53" x="533.496094"/>
      <use xlink:href="#Arimo-69" x="600.195312"/>
      <use xlink:href="#Arimo-67" x="622.412109"/>
      <use xlink:href="#Arimo-6e" x="678.027344"/>
      <use xlink:href="#Arimo-61" x="733.642578"/>
      <use xlink:href="#Arimo-6c" x="789.257812"/>
      <use xlink:href="#Arimo-20" x="811.474609"/>
      <use xlink:href="#Arimo-5b" x="839.257812"/>
      <use xlink:href="#Arimo-61" x="867.041016"/>
      <use xlink:href="#Arimo-2e" x="922.65625"/>
      <use xlink:href="#Arimo-75" x="950.439453"/>
      <use xlink:href="#Arimo-2e" x="1006.054688"/>
      <use xlink:href="#Arimo-5d" x="1033.837891"/>
     </g>
    </g>
   </g>
   <g id="line2d_89">
    <path d="M 29.169688 94.623158 
L 35.940847 96.241545 
L 40.680659 97.6046 
L 44.743355 98.98916 
L 48.806051 100.595228 
L 52.868747 102.421774 
L 57.608559 104.804231 
L 63.025487 107.786181 
L 73.859343 114.103757 
L 80.630503 117.904384 
L 85.370314 120.341283 
L 90.110126 122.524676 
L 94.172822 124.16467 
L 98.235518 125.578374 
L 102.298214 126.765914 
L 106.36091 127.738093 
L 111.100722 128.627208 
L 115.840534 129.294674 
L 121.934578 129.912476 
L 131.414202 130.598968 
L 142.925173 131.481806 
L 150.373449 132.280276 
L 157.821725 133.300523 
L 166.624233 134.736802 
L 188.969061 138.49782 
L 196.417336 139.469738 
L 203.865612 140.215804 
L 211.313888 140.741354 
L 220.116396 141.131143 
L 232.9816 141.447898 
L 245.169687 141.723229 
L 245.169687 141.723229 
" clip-path="url(#peffa9f8dac)" style="fill: none; stroke: #d3dbee; stroke-linecap: square"/>
   </g>
   <g id="line2d_90">
    <path d="M 29.169688 83.204504 
L 33.909499 84.460859 
L 37.972195 85.787613 
L 41.357775 87.104193 
L 44.743355 88.624876 
L 48.806051 90.716378 
L 52.868747 93.075711 
L 57.608559 96.108224 
L 63.702603 100.30178 
L 75.890691 108.767555 
L 80.630503 111.766616 
L 84.693198 114.09967 
L 88.755894 116.173059 
L 92.81859 117.963955 
L 96.20417 119.234599 
L 100.266866 120.498224 
L 104.329562 121.494432 
L 108.392258 122.252597 
L 113.13207 122.887679 
L 118.548998 123.37185 
L 127.351506 123.887955 
L 136.83113 124.505327 
L 142.925173 125.116615 
L 149.019217 125.958661 
L 155.113261 127.033552 
L 161.884421 128.454455 
L 173.395393 131.14583 
L 182.875017 133.272892 
L 189.646177 134.569108 
L 195.74022 135.511356 
L 201.834264 136.220124 
L 207.928308 136.702763 
L 214.699468 137.011946 
L 223.501976 137.166243 
L 245.169687 137.39033 
L 245.169687 137.39033 
" clip-path="url(#peffa9f8dac)" style="fill: none; stroke: #bcc7e5; stroke-linecap: square"/>
   </g>
   <g id="line2d_91">
    <path d="M 29.169688 71.344202 
L 32.555267 72.448739 
L 35.940847 73.787504 
L 39.326427 75.379689 
L 42.712007 77.229465 
L 46.097587 79.326885 
L 50.160283 82.138032 
L 54.900095 85.746454 
L 60.994139 90.714029 
L 71.150879 99.042338 
L 75.890691 102.629064 
L 79.953387 105.428616 
L 83.338966 107.527538 
L 86.724546 109.391712 
L 90.110126 111.010062 
L 93.495706 112.380567 
L 96.881286 113.509856 
L 100.266866 114.412462 
L 103.652446 115.109805 
L 107.715142 115.714089 
L 112.454954 116.168127 
L 118.548998 116.501359 
L 132.091318 117.162503 
L 137.508245 117.691211 
L 142.248057 118.357013 
L 146.987869 119.22532 
L 152.404797 120.45275 
L 158.498841 122.080025 
L 167.301349 124.695762 
L 177.458089 127.680644 
L 183.552133 129.24851 
L 188.969061 130.41719 
L 194.385988 131.339382 
L 199.802916 132.006269 
L 205.219844 132.432123 
L 211.313888 132.666517 
L 218.762164 132.703955 
L 240.429876 132.629439 
L 245.169687 132.792223 
L 245.169687 132.792223 
" clip-path="url(#peffa9f8dac)" style="fill: none; stroke: #9dacd8; stroke-linecap: square"/>
   </g>
   <g id="line2d_92">
    <path d="M 29.169688 59.304979 
L 31.878151 60.484293 
L 34.586615 61.861835 
L 37.972195 63.866596 
L 41.357775 66.176449 
L 44.743355 68.767054 
L 48.806051 72.192573 
L 53.545863 76.51621 
L 71.150879 92.948266 
L 75.213575 96.234556 
L 78.599155 98.701764 
L 81.984735 100.892915 
L 85.370314 102.791924 
L 88.755894 104.393736 
L 92.141474 105.703966 
L 95.527054 106.738133 
L 98.912634 107.52052 
L 102.298214 108.082751 
L 106.36091 108.51965 
L 111.100722 108.792501 
L 120.580346 109.028842 
L 126.67439 109.291027 
L 131.414202 109.695877 
L 136.154014 110.337102 
L 140.216709 111.095488 
L 144.956521 112.224678 
L 149.696333 113.594821 
L 155.113261 115.398372 
L 163.238653 118.379886 
L 173.395393 122.069543 
L 178.812321 123.803073 
L 183.552133 125.102998 
L 188.291945 126.165039 
L 193.031756 126.974149 
L 197.771568 127.533635 
L 202.51138 127.863908 
L 207.928308 128.006151 
L 214.699468 127.934971 
L 234.335832 127.545591 
L 240.429876 127.728112 
L 245.169687 128.031741 
L 245.169687 128.031741 
" clip-path="url(#peffa9f8dac)" style="fill: none; stroke: #7f91c9; stroke-linecap: square"/>
   </g>
   <g id="line2d_93">
    <path d="M 29.169688 47.404635 
L 31.878151 49.032966 
L 34.586615 50.899026 
L 37.295079 52.994116 
L 40.680659 55.910343 
L 44.066239 59.114703 
L 48.128935 63.259092 
L 54.222979 69.841237 
L 63.025487 79.331693 
L 67.088183 83.401645 
L 70.473763 86.53612 
L 73.859343 89.386746 
L 77.244923 91.919082 
L 79.953387 93.700803 
L 82.661851 95.259682 
L 85.370314 96.595976 
L 88.078778 97.715031 
L 90.787242 98.626943 
L 94.172822 99.49784 
L 97.558402 100.104065 
L 100.943982 100.489091 
L 105.006678 100.727837 
L 111.100722 100.815777 
L 120.580346 100.933771 
L 125.320158 101.237001 
L 129.382854 101.714244 
L 133.44555 102.424583 
L 137.508245 103.379922 
L 141.570941 104.574485 
L 145.633637 105.986249 
L 150.373449 107.859186 
L 157.144609 110.8092 
L 168.655581 115.878096 
L 174.072509 117.98705 
L 178.812321 119.571018 
L 182.875017 120.6979 
L 186.937713 121.595517 
L 191.000409 122.261601 
L 195.063104 122.706037 
L 199.802916 122.972895 
L 204.542728 123.016074 
L 210.636772 122.843275 
L 228.241788 122.176122 
L 233.658716 122.259467 
L 239.075644 122.576789 
L 244.492572 123.140632 
L 245.169687 123.227926 
L 245.169687 123.227926 
" clip-path="url(#peffa9f8dac)" style="fill: none; stroke: #6574b5; stroke-linecap: square"/>
   </g>
   <g id="line2d_94">
    <path d="M 29.169688 35.982556 
L 31.878151 38.180852 
L 34.586615 40.636803 
L 37.972195 44.034181 
L 41.357775 47.740208 
L 46.097587 53.30959 
L 61.671255 72.038578 
L 65.056835 75.662851 
L 68.442415 78.978514 
L 71.827995 81.940242 
L 74.536459 84.033624 
L 77.244923 85.871773 
L 79.953387 87.452178 
L 82.661851 88.778403 
L 85.370314 89.859768 
L 88.078778 90.710892 
L 90.787242 91.351118 
L 94.172822 91.890777 
L 97.558402 92.19036 
L 101.621098 92.315114 
L 107.715142 92.24245 
L 115.163418 92.181313 
L 119.226114 92.343456 
L 123.28881 92.731292 
L 126.67439 93.260053 
L 130.05997 93.991997 
L 133.44555 94.931461 
L 136.83113 96.072688 
L 140.893825 97.686596 
L 145.633637 99.852265 
L 151.050565 102.589198 
L 165.947117 110.266738 
L 170.686929 112.368777 
L 174.749625 113.926529 
L 178.812321 115.224378 
L 182.197901 116.094423 
L 185.583481 116.769799 
L 189.646177 117.331312 
L 193.708872 117.642557 
L 197.771568 117.737672 
L 202.51138 117.634367 
L 209.28254 117.242104 
L 220.116396 116.585508 
L 225.533324 116.485213 
L 230.273136 116.610106 
L 235.012948 116.964353 
L 239.75276 117.555165 
L 244.492572 118.368668 
L 245.169687 118.501356 
L 245.169687 118.501356 
" clip-path="url(#peffa9f8dac)" style="fill: none; stroke: #4b59a1; stroke-linecap: square"/>
   </g>
   <g id="line2d_95">
    <path d="M 29.169688 25.36203 
L 31.878151 28.219284 
L 35.263731 32.140862 
L 39.326427 37.26084 
L 44.743355 44.538176 
L 54.222979 57.390543 
L 58.285675 62.517776 
L 61.671255 66.464072 
L 65.056835 70.045128 
L 67.765299 72.614266 
L 70.473763 74.901951 
L 73.182227 76.898613 
L 75.890691 78.601838 
L 78.599155 80.016186 
L 81.307619 81.152825 
L 84.016082 82.028999 
L 86.724546 82.66737 
L 89.43301 83.095228 
L 92.81859 83.381589 
L 96.881286 83.449331 
L 102.298214 83.271986 
L 110.423606 83.007641 
L 114.486302 83.105409 
L 117.871882 83.385653 
L 121.257462 83.882401 
L 124.643042 84.616729 
L 128.028622 85.597492 
L 131.414202 86.82153 
L 134.799782 88.274354 
L 138.862477 90.284323 
L 143.602289 92.920665 
L 150.373449 97.005448 
L 159.175957 102.301238 
L 163.915769 104.886399 
L 167.978465 106.84851 
L 171.364045 108.266754 
L 174.749625 109.467117 
L 178.135205 110.439268 
L 181.520785 111.181707 
L 184.906365 111.701528 
L 188.291945 112.013851 
L 192.35464 112.146532 
L 196.417336 112.062465 
L 201.834264 111.715618 
L 217.407932 110.526923 
L 222.147744 110.463284 
L 226.21044 110.609513 
L 230.273136 110.962011 
L 234.335832 111.525977 
L 238.398528 112.292782 
L 243.13834 113.414513 
L 245.169687 113.958227 
L 245.169687 113.958227 
" clip-path="url(#peffa9f8dac)" style="fill: none; stroke: #3a4390; stroke-linecap: square"/>
   </g>
   <g id="line2d_96">
    <path d="M 29.169688 15.812163 
L 32.555267 20.295359 
L 36.617963 26.086796 
L 42.712007 35.237898 
L 49.483167 45.354485 
L 53.545863 51.056606 
L 56.931443 55.454046 
L 60.317023 59.449448 
L 63.025487 62.317556 
L 65.733951 64.871381 
L 68.442415 67.098707 
L 71.150879 68.995464 
L 73.859343 70.565553 
L 76.567807 71.820481 
L 79.276271 72.778793 
L 81.984735 73.465353 
L 84.693198 73.910472 
L 87.401662 74.14893 
L 90.787242 74.214804 
L 94.849938 74.058484 
L 107.038026 73.380532 
L 110.423606 73.455041 
L 113.809186 73.749229 
L 117.194766 74.299767 
L 119.90323 74.940632 
L 122.611694 75.765712 
L 125.997274 77.054834 
L 129.382854 78.617655 
L 132.768434 80.428932 
L 136.83113 82.87916 
L 141.570941 86.018601 
L 157.821725 97.075377 
L 161.884421 99.436279 
L 165.270001 101.168826 
L 168.655581 102.658384 
L 172.041161 103.887718 
L 175.426741 104.849896 
L 178.812321 105.548238 
L 182.197901 105.995852 
L 185.583481 106.214788 
L 189.646177 106.218094 
L 193.708872 105.998568 
L 199.802916 105.410528 
L 209.959656 104.372961 
L 214.699468 104.120048 
L 218.762164 104.112363 
L 222.82486 104.334607 
L 226.887556 104.804959 
L 230.950252 105.524974 
L 235.012948 106.480108 
L 239.75276 107.851903 
L 245.169687 109.674965 
L 245.169687 109.674965 
" clip-path="url(#peffa9f8dac)" style="fill: none; stroke: #2a2f80; stroke-linecap: square"/>
   </g>
   <g id="patch_3">
    <path d="M 29.169688 146.16 
L 29.169688 2.16 
" style="fill: none; stroke: #000000; stroke-width: 0.6; stroke-linejoin: miter; stroke-linecap: square"/>
   </g>
   <g id="patch_4">
    <path d="M 245.169687 146.16 
L 245.169687 2.16 
" style="fill: none; stroke: #000000; stroke-width: 0.6; stroke-linejoin: miter; stroke-linecap: square"/>
   </g>
   <g id="patch_5">
    <path d="M 29.169688 146.16 
L 245.169687 146.16 
" style="fill: none; stroke: #000000; stroke-width: 0.6; stroke-linejoin: miter; stroke-linecap: square"/>
   </g>
   <g id="patch_6">
    <path d="M 29.169688 2.16 
L 245.169687 2.16 
" style="fill: none; stroke: #000000; stroke-width: 0.6; stroke-linejoin: miter; stroke-linecap: square"/>
   </g>
   <g id="legend_1">
    <g id="patch_7">
     <path d="M 251.089687 121.19 
L 297.594687 121.19 
Q 299.194687 121.19 299.194687 119.59 
L 299.194687 28.73 
Q 299.194687 27.13 297.594687 27.13 
L 251.089687 27.13 
Q 249.489687 27.13 249.489687 28.73 
L 249.489687 119.59 
Q 249.489687 121.19 251.089687 121.19 
z
" style="fill: #ffffff; stroke: #000000; stroke-width: 0.6; stroke-linejoin: miter"/>
    </g>
    <g id="line2d_97">
     <path d="M 252.689687 33.3275 
L 260.689687 33.3275 
L 268.689687 33.3275 
" style="fill: none; stroke: #d3dbee; stroke-linecap: square"/>
    </g>
    <g id="text_15">
     <!-- 80 K -->
     <g transform="translate(275.089687 36.1275) scale(0.08 -0.08)">
      <defs>
       <path id="Arimo-4b" d="M 3456 0 
L 1697 2125 
L 1122 1688 
L 1122 0 
L 525 0 
L 525 4403 
L 1122 4403 
L 1122 2197 
L 3244 4403 
L 3947 4403 
L 2072 2491 
L 4197 0 
L 3456 0 
z
" transform="scale(0.015625)"/>
      </defs>
      <use xlink:href="#Arimo-38"/>
      <use xlink:href="#Arimo-30" x="55.615234"/>
      <use xlink:href="#Arimo-20" x="111.230469"/>
      <use xlink:href="#Arimo-4b" x="139.013672"/>
     </g>
    </g>
    <g id="line2d_98">
     <path d="M 252.689687 44.785 
L 260.689687 44.785 
L 268.689687 44.785 
" style="fill: none; stroke: #bcc7e5; stroke-linecap: square"/>
    </g>
    <g id="text_16">
     <!-- 100 K -->
     <g transform="translate(275.089687 47.585) scale(0.08 -0.08)">
      <use xlink:href="#Arimo-31"/>
      <use xlink:href="#Arimo-30" x="55.615234"/>
      <use xlink:href="#Arimo-30" x="111.230469"/>
      <use xlink:href="#Arimo-20" x="166.845703"/>
      <use xlink:href="#Arimo-4b" x="194.628906"/>
     </g>
    </g>
    <g id="line2d_99">
     <path d="M 252.689687 56.2425 
L 260.689687 56.2425 
L 268.689687 56.2425 
" style="fill: none; stroke: #9dacd8; stroke-linecap: square"/>
    </g>
    <g id="text_17">
     <!-- 120 K -->
     <g transform="translate(275.089687 59.0425) scale(0.08 -0.08)">
      <use xlink:href="#Arimo-31"/>
      <use xlink:href="#Arimo-32" x="55.615234"/>
      <use xlink:href="#Arimo-30" x="111.230469"/>
      <use xlink:href="#Arimo-20" x="166.845703"/>
      <use xlink:href="#Arimo-4b" x="194.628906"/>
     </g>
    </g>
    <g id="line2d_100">
     <path d="M 252.689687 67.7 
L 260.689687 67.7 
L 268.689687 67.7 
" style="fill: none; stroke: #7f91c9; stroke-linecap: square"/>
    </g>
    <g id="text_18">
     <!-- 140 K -->
     <g transform="translate(275.089687 70.5) scale(0.08 -0.08)">
      <use xlink:href="#Arimo-31"/>
      <use xlink:href="#Arimo-34" x="55.615234"/>
      <use xlink:href="#Arimo-30" x="111.230469"/>
      <use xlink:href="#Arimo-20" x="166.845703"/>
      <use xlink:href="#Arimo-4b" x="194.628906"/>
     </g>
    </g>
    <g id="line2d_101">
     <path d="M 252.689687 79.1575 
L 260.689687 79.1575 
L 268.689687 79.1575 
" style="fill: none; stroke: #6574b5; stroke-linecap: square"/>
    </g>
    <g id="text_19">
     <!-- 160 K -->
     <g transform="translate(275.089687 81.9575) scale(0.08 -0.08)">
      <use xlink:href="#Arimo-31"/>
      <use xlink:href="#Arimo-36" x="55.615234"/>
      <use xlink:href="#Arimo-30" x="111.230469"/>
      <use xlink:href="#Arimo-20" x="166.845703"/>
      <use xlink:href="#Arimo-4b" x="194.628906"/>
     </g>
    </g>
    <g id="line2d_102">
     <path d="M 252.689687 90.615 
L 260.689687 90.615 
L 268.689687 90.615 
" style="fill: none; stroke: #4b59a1; stroke-linecap: square"/>
    </g>
    <g id="text_20">
     <!-- 180 K -->
     <g transform="translate(275.089687 93.415) scale(0.08 -0.08)">
      <use xlink:href="#Arimo-31"/>
      <use xlink:href="#Arimo-38" x="55.615234"/>
      <use xlink:href="#Arimo-30" x="111.230469"/>
      <use xlink:href="#Arimo-20" x="166.845703"/>
      <use xlink:href="#Arimo-4b" x="194.628906"/>
     </g>
    </g>
    <g id="line2d_103">
     <path d="M 252.689687 102.0725 
L 260.689687 102.0725 
L 268.689687 102.0725 
" style="fill: none; stroke: #3a4390; stroke-linecap: square"/>
    </g>
    <g id="text_21">
     <!-- 200 K -->
     <g transform="translate(275.089687 104.8725) scale(0.08 -0.08)">
      <use xlink:href="#Arimo-32"/>
      <use xlink:href="#Arimo-30" x="55.615234"/>
      <use xlink:href="#Arimo-30" x="111.230469"/>
      <use xlink:href="#Arimo-20" x="166.845703"/>
      <use xlink:href="#Arimo-4b" x="194.628906"/>
     </g>
    </g>
    <g id="line2d_104">
     <path d="M 252.689687 113.53 
L 260.689687 113.53 
L 268.689687 113.53 
" style="fill: none; stroke: #2a2f80; stroke-linecap: square"/>
    </g>
    <g id="text_22">
     <!-- 220 K -->
     <g transform="translate(275.089687 116.33) scale(0.08 -0.08)">
      <use xlink:href="#Arimo-32"/>
      <use xlink:href="#Arimo-32" x="55.615234"/>
      <use xlink:href="#Arimo-30" x="111.230469"/>
      <use xlink:href="#Arimo-20" x="166.845703"/>
      <use xlink:href="#Arimo-4b" x="194.628906"/>
     </g>
    </g>
   </g>
  </g>
 </g>
 <defs>
  <clipPath id="peffa9f8dac">
   <rect x="29.169688" y="2.16" width="216" height="144"/>
  </clipPath>
 </defs>
</svg>
