<?xml version="1.0" encoding="utf-8" standalone="no"?>
<!DOCTYPE svg PUBLIC "-//W3C//DTD SVG 1.1//EN"
  "http://www.w3.org/Graphics/SVG/1.1/DTD/svg11.dtd">
<svg xmlns:xlink="http://www.w3.org/1999/xlink" width="302.52pt" height="172.8pt" viewBox="0 0 302.52 172.8" xmlns="http://www.w3.org/2000/svg" version="1.1">
 <metadata>
  <rdf:RDF xmlns:dc="http://purl.org/dc/elements/1.1/" xmlns:cc="http://creativecommons.org/ns#" xmlns:rdf="http://www.w3.org/1999/02/22-rdf-syntax-ns#">
   <cc:Work>
    <dc:type rdf:resource="http://purl.org/dc/dcmitype/StillImage"/>
    <dc:date>2026-06-12T19:56:26.459071</dc:date>
    <dc:format>image/svg+xml</dc:format>
    <dc:creator>
     <cc:Agent>
      <dc:title>Matplotlib v3.7.2, https://matplotlib.org/</dc:title>
     </cc:Agent>
    </dc:creator>
   </cc:Work>
  </rdf:RDF>
 </metadata>
 <defs>
  <style type="text/css">*{stroke-linejoin: round; stroke-linecap: butt}</style>
 </defs>
 <g id="figure_1">
  <g id="patch_1">
   <path d="M 0 172.8 
L 302.52 172.8 
L 302.52 0 
L 0 0 
z
" style="fill: #ffffff"/>
  </g>
  <g id="axes_1">
   <g id="patch_2">
    <path d="M 30.24 147.6 
L 246.24 147.6 
L 246.24 3.6 
L 30.24 3.6 
z
" style="fill: #ffffff"/>
   </g>
   <g id="matplotlib.axis_1">
    <g id="xtick_1">
     <g id="line2d_1">
      <defs>
       <path id="m1b67225c91" d="M 0 0 
L 0 -4 
" style="stroke: #000000"/>
      </defs>
      <g>
       <use xlink:href="#m1b67225c91" x="30.24" y="147.6" style="stroke: #000000"/>
      </g>
     </g>
     <g id="line2d_2">
      <defs>
       <path id="m263f5fce88" d="M 0 0 
L 0 4 
" style="stroke: #000000"/>
      </defs>
      <g>
       <use xlink:href="#m263f5fce88" x="30.24" y="3.6" style="stroke: #000000"/>
      </g>
     </g>
     <g id="text_1">
      <!-- 0 -->
      <g transform="translate(28.015625 156.8975) scale(0.08 -0.08)">
       <defs>
        <path id="Arimo-30" d="M 3309 2203 
Q 3309 1100 2920 518 
Q 2531 -63 1772 -63 
Q 1013 -63 631 515 
Q 250 1094 250 2203 
Q 250 3338 620 3903 
Q 991 4469 1791 4469 
Q 2569 4469 2939 3897 
Q 3309 3325 3309 2203 
z
M 2738 2203 
Q 2738 3156 2517 3584 
Q 2297 4013 1791 4013 
Q 1272 4013 1045 3591 
Q 819 3169 819 2203 
Q 819 1266 1048 831 
Q 1278 397 1778 397 
Q 2275 397 2506 840 
Q 2738 1284 2738 2203 
z
" transform="scale(0.015625)"/>
       </defs>
       <use xlink:href="#Arimo-30"/>
      </g>
     </g>
    </g>
    <g id="xtick_2">
     <g id="line2d_3">
      <g>
       <use xlink:href="#m1b67225c91" x="66.24" y="147.6" style="stroke: #000000"/>
      </g>
     </g>
     <g id="line2d_4">
      <g>
       <use xlink:href="#m263f5fce88" x="66.24" y="3.6" style="stroke: #000000"/>
      </g>
     </g>
     <g id="text_2">
      <!-- 2 -->
      <g transform="translate(64.015625 156.8975) scale(0.08 -0.08)">
       <defs>
        <path id="Arimo-32" d="M 322 0 
L 322 397 
Q 481 763 711 1042 
Q 941 1322 1194 1548 
Q 1447 1775 1695 1969 
Q 1944 2163 2144 2356 
Q 2344 2550 2467 2762 
Q 2591 2975 2591 3244 
Q 2591 3606 2378 3806 
Q 2166 4006 1788 4006 
Q 1428 4006 1195 3811 
Q 963 3616 922 3263 
L 347 3316 
Q 409 3844 795 4156 
Q 1181 4469 1788 4469 
Q 2453 4469 2811 4155 
Q 3169 3841 3169 3263 
Q 3169 3006 3051 2753 
Q 2934 2500 2703 2247 
Q 2472 1994 1819 1463 
Q 1459 1169 1246 933 
Q 1034 697 941 478 
L 3238 478 
L 3238 0 
L 322 0 
z
" transform="scale(0.015625)"/>
       </defs>
       <use xlink:href="#Arimo-32"/>
      </g>
     </g>
    </g>
    <g id="xtick_3">
     <g id="line2d_5">
      <g>
       <use xlink:href="#m1b67225c91" x="102.24" y="147.6" style="stroke: #000000"/>
      </g>
     </g>
     <g id="line2d_6">
      <g>
       <use xlink:href="#m263f5fce88" x="102.24" y="3.6" style="stroke: #000000"/>
      </g>
     </g>
     <g id="text_3">
      <!-- 4 -->
      <g transform="translate(100.015625 156.8975) scale(0.08 -0.08)">
       <defs>
        <path id="Arimo-34" d="M 2753 997 
L 2753 0 
L 2222 0 
L 2222 997 
L 147 997 
L 147 1434 
L 2163 4403 
L 2753 4403 
L 2753 1441 
L 3372 1441 
L 3372 997 
L 2753 997 
z
M 2222 1441 
L 2222 3769 
Q 2150 3631 2101 3543 
Q 2053 3456 2013 3397 
L 1003 1903 
Q 916 1775 666 1441 
L 2222 1441 
z
" transform="scale(0.015625)"/>
       </defs>
       <use xlink:href="#Arimo-34"/>
      </g>
     </g>
    </g>
    <g id="xtick_4">
     <g id="line2d_7">
      <g>
       <use xlink:href="#m1b67225c91" x="138.24" y="147.6" style="stroke: #000000"/>
      </g>
     </g>
     <g id="line2d_8">
      <g>
       <use xlink:href="#m263f5fce88" x="138.24" y="3.6" style="stroke: #000000"/>
      </g>
     </g>
     <g id="text_4">
      <!-- 6 -->
      <g transform="translate(136.015625 156.8975) scale(0.08 -0.08)">
       <defs>
        <path id="Arimo-36" d="M 3278 1441 
Q 3278 744 2900 340 
Q 2522 -63 1856 -63 
Q 1113 -63 719 490 
Q 325 1044 325 2100 
Q 325 3244 734 3856 
Q 1144 4469 1900 4469 
Q 2897 4469 3156 3572 
L 2619 3475 
Q 2453 4013 1894 4013 
Q 1413 4013 1148 3564 
Q 884 3116 884 2266 
Q 1038 2550 1316 2698 
Q 1594 2847 1953 2847 
Q 2563 2847 2920 2465 
Q 3278 2084 3278 1441 
z
M 2706 1416 
Q 2706 1894 2472 2153 
Q 2238 2413 1819 2413 
Q 1425 2413 1183 2183 
Q 941 1953 941 1550 
Q 941 1041 1192 716 
Q 1444 391 1838 391 
Q 2244 391 2475 664 
Q 2706 938 2706 1416 
z
" transform="scale(0.015625)"/>
       </defs>
       <use xlink:href="#Arimo-36"/>
      </g>
     </g>
    </g>
    <g id="xtick_5">
     <g id="line2d_9">
      <g>
       <use xlink:href="#m1b67225c91" x="174.24" y="147.6" style="stroke: #000000"/>
      </g>
     </g>
     <g id="line2d_10">
      <g>
       <use xlink:href="#m263f5fce88" x="174.24" y="3.6" style="stroke: #000000"/>
      </g>
     </g>
     <g id="text_5">
      <!-- 8 -->
      <g transform="translate(172.015625 156.8975) scale(0.08 -0.08)">
       <defs>
        <path id="Arimo-38" d="M 3281 1228 
Q 3281 619 2893 278 
Q 2506 -63 1781 -63 
Q 1075 -63 676 271 
Q 278 606 278 1222 
Q 278 1653 525 1947 
Q 772 2241 1156 2303 
L 1156 2316 
Q 797 2400 589 2681 
Q 381 2963 381 3341 
Q 381 3844 757 4156 
Q 1134 4469 1769 4469 
Q 2419 4469 2795 4162 
Q 3172 3856 3172 3334 
Q 3172 2956 2962 2675 
Q 2753 2394 2391 2322 
L 2391 2309 
Q 2813 2241 3047 1952 
Q 3281 1663 3281 1228 
z
M 2697 1281 
Q 2697 1691 2453 1898 
Q 2209 2106 1769 2106 
Q 1341 2106 1100 1882 
Q 859 1659 859 1269 
Q 859 359 1788 359 
Q 2247 359 2472 579 
Q 2697 800 2697 1281 
z
M 2588 3303 
Q 2588 4050 1769 4050 
Q 1372 4050 1164 3862 
Q 956 3675 956 3303 
Q 956 2925 1170 2726 
Q 1384 2528 1775 2528 
Q 2172 2528 2380 2711 
Q 2588 2894 2588 3303 
z
" transform="scale(0.015625)"/>
       </defs>
       <use xlink:href="#Arimo-38"/>
      </g>
     </g>
    </g>
    <g id="xtick_6">
     <g id="line2d_11">
      <g>
       <use xlink:href="#m1b67225c91" x="210.24" y="147.6" style="stroke: #000000"/>
      </g>
     </g>
     <g id="line2d_12">
      <g>
       <use xlink:href="#m263f5fce88" x="210.24" y="3.6" style="stroke: #000000"/>
      </g>
     </g>
     <g id="text_6">
      <!-- 10 -->
      <g transform="translate(205.79125 156.8975) scale(0.08 -0.08)">
       <defs>
        <path id="Arimo-31" d="M 488 0 
L 488 478 
L 1609 478 
L 1609 3866 
L 616 3156 
L 616 3688 
L 1656 4403 
L 2175 4403 
L 2175 478 
L 3247 478 
L 3247 0 
L 488 0 
z
" transform="scale(0.015625)"/>
       </defs>
       <use xlink:href="#Arimo-31"/>
       <use xlink:href="#Arimo-30" x="55.615234"/>
      </g>
     </g>
    </g>
    <g id="xtick_7">
     <g id="line2d_13">
      <g>
       <use xlink:href="#m1b67225c91" x="246.24" y="147.6" style="stroke: #000000"/>
      </g>
     </g>
     <g id="line2d_14">
      <g>
       <use xlink:href="#m263f5fce88" x="246.24" y="3.6" style="stroke: #000000"/>
      </g>
     </g>
     <g id="text_7">
      <!-- 12 -->
      <g transform="translate(241.79125 156.8975) scale(0.08 -0.08)">
       <use xlink:href="#Arimo-31"/>
       <use xlink:href="#Arimo-32" x="55.615234"/>
      </g>
     </g>
    </g>
    <g id="xtick_8">
     <g id="line2d_15">
      <defs>
       <path id="m704b9e1cb7" d="M 0 0 
L 0 -2.4 
" style="stroke: #000000; stroke-width: 0.5"/>
      </defs>
      <g>
       <use xlink:href="#m704b9e1cb7" x="39.24" y="147.6" style="stroke: #000000; stroke-width: 0.5"/>
      </g>
     </g>
     <g id="line2d_16">
      <defs>
       <path id="md0441259c1" d="M 0 0 
L 0 2.4 
" style="stroke: #000000; stroke-width: 0.5"/>
      </defs>
      <g>
       <use xlink:href="#md0441259c1" x="39.24" y="3.6" style="stroke: #000000; stroke-width: 0.5"/>
      </g>
     </g>
    </g>
    <g id="xtick_9">
     <g id="line2d_17">
      <g>
       <use xlink:href="#m704b9e1cb7" x="48.24" y="147.6" style="stroke: #000000; stroke-width: 0.5"/>
      </g>
     </g>
     <g id="line2d_18">
      <g>
       <use xlink:href="#md0441259c1" x="48.24" y="3.6" style="stroke: #000000; stroke-width: 0.5"/>
      </g>
     </g>
    </g>
    <g id="xtick_10">
     <g id="line2d_19">
      <g>
       <use xlink:href="#m704b9e1cb7" x="57.24" y="147.6" style="stroke: #000000; stroke-width: 0.5"/>
      </g>
     </g>
     <g id="line2d_20">
      <g>
       <use xlink:href="#md0441259c1" x="57.24" y="3.6" style="stroke: #000000; stroke-width: 0.5"/>
      </g>
     </g>
    </g>
    <g id="xtick_11">
     <g id="line2d_21">
      <g>
       <use xlink:href="#m704b9e1cb7" x="75.24" y="147.6" style="stroke: #000000; stroke-width: 0.5"/>
      </g>
     </g>
     <g id="line2d_22">
      <g>
       <use xlink:href="#md0441259c1" x="75.24" y="3.6" style="stroke: #000000; stroke-width: 0.5"/>
      </g>
     </g>
    </g>
    <g id="xtick_12">
     <g id="line2d_23">
      <g>
       <use xlink:href="#m704b9e1cb7" x="84.24" y="147.6" style="stroke: #000000; stroke-width: 0.5"/>
      </g>
     </g>
     <g id="line2d_24">
      <g>
       <use xlink:href="#md0441259c1" x="84.24" y="3.6" style="stroke: #000000; stroke-width: 0.5"/>
      </g>
     </g>
    </g>
    <g id="xtick_13">
     <g id="line2d_25">
      <g>
       <use xlink:href="#m704b9e1cb7" x="93.24" y="147.6" style="stroke: #000000; stroke-width: 0.5"/>
      </g>
     </g>
     <g id="line2d_26">
      <g>
       <use xlink:href="#md0441259c1" x="93.24" y="3.6" style="stroke: #000000; stroke-width: 0.5"/>
      </g>
     </g>
    </g>
    <g id="xtick_14">
     <g id="line2d_27">
      <g>
       <use xlink:href="#m704b9e1cb7" x="111.24" y="147.6" style="stroke: #000000; stroke-width: 0.5"/>
      </g>
     </g>
     <g id="line2d_28">
      <g>
       <use xlink:href="#md0441259c1" x="111.24" y="3.6" style="stroke: #000000; stroke-width: 0.5"/>
      </g>
     </g>
    </g>
    <g id="xtick_15">
     <g id="line2d_29">
      <g>
       <use xlink:href="#m704b9e1cb7" x="120.24" y="147.6" style="stroke: #000000; stroke-width: 0.5"/>
      </g>
     </g>
     <g id="line2d_30">
      <g>
       <use xlink:href="#md0441259c1" x="120.24" y="3.6" style="stroke: #000000; stroke-width: 0.5"/>
      </g>
     </g>
    </g>
    <g id="xtick_16">
     <g id="line2d_31">
      <g>
       <use xlink:href="#m704b9e1cb7" x="129.24" y="147.6" style="stroke: #000000; stroke-width: 0.5"/>
      </g>
     </g>
     <g id="line2d_32">
      <g>
       <use xlink:href="#md0441259c1" x="129.24" y="3.6" style="stroke: #000000; stroke-width: 0.5"/>
      </g>
     </g>
    </g>
    <g id="xtick_17">
     <g id="line2d_33">
      <g>
       <use xlink:href="#m704b9e1cb7" x="147.24" y="147.6" style="stroke: #000000; stroke-width: 0.5"/>
      </g>
     </g>
     <g id="line2d_34">
      <g>
       <use xlink:href="#md0441259c1" x="147.24" y="3.6" style="stroke: #000000; stroke-width: 0.5"/>
      </g>
     </g>
    </g>
    <g id="xtick_18">
     <g id="line2d_35">
      <g>
       <use xlink:href="#m704b9e1cb7" x="156.24" y="147.6" style="stroke: #000000; stroke-width: 0.5"/>
      </g>
     </g>
     <g id="line2d_36">
      <g>
       <use xlink:href="#md0441259c1" x="156.24" y="3.6" style="stroke: #000000; stroke-width: 0.5"/>
      </g>
     </g>
    </g>
    <g id="xtick_19">
     <g id="line2d_37">
      <g>
       <use xlink:href="#m704b9e1cb7" x="165.24" y="147.6" style="stroke: #000000; stroke-width: 0.5"/>
      </g>
     </g>
     <g id="line2d_38">
      <g>
       <use xlink:href="#md0441259c1" x="165.24" y="3.6" style="stroke: #000000; stroke-width: 0.5"/>
      </g>
     </g>
    </g>
    <g id="xtick_20">
     <g id="line2d_39">
      <g>
       <use xlink:href="#m704b9e1cb7" x="183.24" y="147.6" style="stroke: #000000; stroke-width: 0.5"/>
      </g>
     </g>
     <g id="line2d_40">
      <g>
       <use xlink:href="#md0441259c1" x="183.24" y="3.6" style="stroke: #000000; stroke-width: 0.5"/>
      </g>
     </g>
    </g>
    <g id="xtick_21">
     <g id="line2d_41">
      <g>
       <use xlink:href="#m704b9e1cb7" x="192.24" y="147.6" style="stroke: #000000; stroke-width: 0.5"/>
      </g>
     </g>
     <g id="line2d_42">
      <g>
       <use xlink:href="#md0441259c1" x="192.24" y="3.6" style="stroke: #000000; stroke-width: 0.5"/>
      </g>
     </g>
    </g>
    <g id="xtick_22">
     <g id="line2d_43">
      <g>
       <use xlink:href="#m704b9e1cb7" x="201.24" y="147.6" style="stroke: #000000; stroke-width: 0.5"/>
      </g>
     </g>
     <g id="line2d_44">
      <g>
       <use xlink:href="#md0441259c1" x="201.24" y="3.6" style="stroke: #000000; stroke-width: 0.5"/>
      </g>
     </g>
    </g>
    <g id="xtick_23">
     <g id="line2d_45">
      <g>
       <use xlink:href="#m704b9e1cb7" x="219.24" y="147.6" style="stroke: #000000; stroke-width: 0.5"/>
      </g>
     </g>
     <g id="line2d_46">
      <g>
       <use xlink:href="#md0441259c1" x="219.24" y="3.6" style="stroke: #000000; stroke-width: 0.5"/>
      </g>
     </g>
    </g>
    <g id="xtick_24">
     <g id="line2d_47">
      <g>
       <use xlink:href="#m704b9e1cb7" x="228.24" y="147.6" style="stroke: #000000; stroke-width: 0.5"/>
      </g>
     </g>
     <g id="line2d_48">
      <g>
       <use xlink:href="#md0441259c1" x="228.24" y="3.6" style="stroke: #000000; stroke-width: 0.5"/>
      </g>
     </g>
    </g>
    <g id="xtick_25">
     <g id="line2d_49">
      <g>
       <use xlink:href="#m704b9e1cb7" x="237.24" y="147.6" style="stroke: #000000; stroke-width: 0.5"/>
      </g>
     </g>
     <g id="line2d_50">
      <g>
       <use xlink:href="#md0441259c1" x="237.24" y="3.6" style="stroke: #000000; stroke-width: 0.5"/>
      </g>
     </g>
    </g>
    <g id="text_8">
     <!-- Time [s] -->
     <g style="fill: #111111" transform="translate(122.240391 169.079687) scale(0.09 -0.09)">
      <defs>
       <path id="Arimo-54" d="M 2250 3916 
L 2250 0 
L 1656 0 
L 1656 3916 
L 144 3916 
L 144 4403 
L 3763 4403 
L 3763 3916 
L 2250 3916 
z
" transform="scale(0.015625)"/>
       <path id="Arimo-69" d="M 428 0 
L 428 3381 
L 991 3381 
L 991 0 
L 428 0 
z
M 428 4100 
L 428 4638 
L 991 4638 
L 991 4100 
L 428 4100 
z
" transform="scale(0.015625)"/>
       <path id="Arimo-6d" d="M 2400 0 
L 2400 2144 
Q 2400 2634 2265 2821 
Q 2131 3009 1781 3009 
Q 1422 3009 1212 2734 
Q 1003 2459 1003 1959 
L 1003 0 
L 444 0 
L 444 2659 
Q 444 3250 425 3381 
L 956 3381 
Q 959 3366 962 3297 
Q 966 3228 970 3139 
Q 975 3050 981 2803 
L 991 2803 
Q 1172 3163 1406 3303 
Q 1641 3444 1978 3444 
Q 2363 3444 2586 3291 
Q 2809 3138 2897 2803 
L 2906 2803 
Q 3081 3144 3329 3294 
Q 3578 3444 3931 3444 
Q 4444 3444 4676 3166 
Q 4909 2888 4909 2253 
L 4909 0 
L 4353 0 
L 4353 2144 
Q 4353 2634 4218 2821 
Q 4084 3009 3734 3009 
Q 3366 3009 3161 2736 
Q 2956 2463 2956 1959 
L 2956 0 
L 2400 0 
z
" transform="scale(0.015625)"/>
       <path id="Arimo-65" d="M 863 1572 
Q 863 991 1103 675 
Q 1344 359 1806 359 
Q 2172 359 2392 506 
Q 2613 653 2691 878 
L 3184 738 
Q 2881 -63 1806 -63 
Q 1056 -63 664 384 
Q 272 831 272 1713 
Q 272 2550 664 2997 
Q 1056 3444 1784 3444 
Q 3275 3444 3275 1647 
L 3275 1572 
L 863 1572 
z
M 2694 2003 
Q 2647 2538 2422 2783 
Q 2197 3028 1775 3028 
Q 1366 3028 1127 2754 
Q 888 2481 869 2003 
L 2694 2003 
z
" transform="scale(0.015625)"/>
       <path id="Arimo-20" transform="scale(0.015625)"/>
       <path id="Arimo-5b" d="M 456 -1328 
L 456 4638 
L 1728 4638 
L 1728 4234 
L 1000 4234 
L 1000 -925 
L 1728 -925 
L 1728 -1328 
L 456 -1328 
z
" transform="scale(0.015625)"/>
       <path id="Arimo-73" d="M 2969 934 
Q 2969 456 2608 196 
Q 2247 -63 1597 -63 
Q 966 -63 623 145 
Q 281 353 178 794 
L 675 891 
Q 747 619 972 492 
Q 1197 366 1597 366 
Q 2025 366 2223 497 
Q 2422 628 2422 891 
Q 2422 1091 2284 1216 
Q 2147 1341 1841 1422 
L 1438 1528 
Q 953 1653 748 1773 
Q 544 1894 428 2066 
Q 313 2238 313 2488 
Q 313 2950 642 3192 
Q 972 3434 1603 3434 
Q 2163 3434 2492 3237 
Q 2822 3041 2909 2606 
L 2403 2544 
Q 2356 2769 2151 2889 
Q 1947 3009 1603 3009 
Q 1222 3009 1040 2893 
Q 859 2778 859 2544 
Q 859 2400 934 2306 
Q 1009 2213 1156 2147 
Q 1303 2081 1775 1966 
Q 2222 1853 2419 1758 
Q 2616 1663 2730 1547 
Q 2844 1431 2906 1279 
Q 2969 1128 2969 934 
z
" transform="scale(0.015625)"/>
       <path id="Arimo-5d" d="M 50 -1328 
L 50 -925 
L 778 -925 
L 778 4234 
L 50 4234 
L 50 4638 
L 1322 4638 
L 1322 -1328 
L 50 -1328 
z
" transform="scale(0.015625)"/>
      </defs>
      <use xlink:href="#Arimo-54"/>
      <use xlink:href="#Arimo-69" x="61.083984"/>
      <use xlink:href="#Arimo-6d" x="83.300781"/>
      <use xlink:href="#Arimo-65" x="166.601562"/>
      <use xlink:href="#Arimo-20" x="222.216797"/>
      <use xlink:href="#Arimo-5b" x="250"/>
      <use xlink:href="#Arimo-73" x="277.783203"/>
      <use xlink:href="#Arimo-5d" x="327.783203"/>
     </g>
    </g>
   </g>
   <g id="matplotlib.axis_2">
    <g id="ytick_1">
     <g id="line2d_51">
      <defs>
       <path id="m258248d510" d="M 0 0 
L 4 0 
" style="stroke: #000000"/>
      </defs>
      <g>
       <use xlink:href="#m258248d510" x="30.24" y="147.6" style="stroke: #000000"/>
      </g>
     </g>
     <g id="line2d_52">
      <defs>
       <path id="m39f370ac16" d="M 0 0 
L -4 0 
" style="stroke: #000000"/>
      </defs>
      <g>
       <use xlink:href="#m39f370ac16" x="246.24" y="147.6" style="stroke: #000000"/>
      </g>
     </g>
     <g id="text_9">
      <!-- 0.0 -->
      <g transform="translate(15.62 150.49875) scale(0.08 -0.08)">
       <defs>
        <path id="Arimo-2e" d="M 584 0 
L 584 684 
L 1194 684 
L 1194 0 
L 584 0 
z
" transform="scale(0.015625)"/>
       </defs>
       <use xlink:href="#Arimo-30"/>
       <use xlink:href="#Arimo-2e" x="55.615234"/>
       <use xlink:href="#Arimo-30" x="83.398438"/>
      </g>
     </g>
    </g>
    <g id="ytick_2">
     <g id="line2d_53">
      <g>
       <use xlink:href="#m258248d510" x="30.24" y="117.284211" style="stroke: #000000"/>
      </g>
     </g>
     <g id="line2d_54">
      <g>
       <use xlink:href="#m39f370ac16" x="246.24" y="117.284211" style="stroke: #000000"/>
      </g>
     </g>
     <g id="text_10">
      <!-- 0.2 -->
      <g transform="translate(15.62 120.182961) scale(0.08 -0.08)">
       <use xlink:href="#Arimo-30"/>
       <use xlink:href="#Arimo-2e" x="55.615234"/>
       <use xlink:href="#Arimo-32" x="83.398438"/>
      </g>
     </g>
    </g>
    <g id="ytick_3">
     <g id="line2d_55">
      <g>
       <use xlink:href="#m258248d510" x="30.24" y="86.968421" style="stroke: #000000"/>
      </g>
     </g>
     <g id="line2d_56">
      <g>
       <use xlink:href="#m39f370ac16" x="246.24" y="86.968421" style="stroke: #000000"/>
      </g>
     </g>
     <g id="text_11">
      <!-- 0.4 -->
      <g transform="translate(15.62 89.867171) scale(0.08 -0.08)">
       <use xlink:href="#Arimo-30"/>
       <use xlink:href="#Arimo-2e" x="55.615234"/>
       <use xlink:href="#Arimo-34" x="83.398438"/>
      </g>
     </g>
    </g>
    <g id="ytick_4">
     <g id="line2d_57">
      <g>
       <use xlink:href="#m258248d510" x="30.24" y="56.652632" style="stroke: #000000"/>
      </g>
     </g>
     <g id="line2d_58">
      <g>
       <use xlink:href="#m39f370ac16" x="246.24" y="56.652632" style="stroke: #000000"/>
      </g>
     </g>
     <g id="text_12">
      <!-- 0.6 -->
      <g transform="translate(15.62 59.551382) scale(0.08 -0.08)">
       <use xlink:href="#Arimo-30"/>
       <use xlink:href="#Arimo-2e" x="55.615234"/>
       <use xlink:href="#Arimo-36" x="83.398438"/>
      </g>
     </g>
    </g>
    <g id="ytick_5">
     <g id="line2d_59">
      <g>
       <use xlink:href="#m258248d510" x="30.24" y="26.336842" style="stroke: #000000"/>
      </g>
     </g>
     <g id="line2d_60">
      <g>
       <use xlink:href="#m39f370ac16" x="246.24" y="26.336842" style="stroke: #000000"/>
      </g>
     </g>
     <g id="text_13">
      <!-- 0.8 -->
      <g transform="translate(15.62 29.235592) scale(0.08 -0.08)">
       <use xlink:href="#Arimo-30"/>
       <use xlink:href="#Arimo-2e" x="55.615234"/>
       <use xlink:href="#Arimo-38" x="83.398438"/>
      </g>
     </g>
    </g>
    <g id="ytick_6">
     <g id="line2d_61">
      <defs>
       <path id="md2283ec7ef" d="M 0 0 
L 2.4 0 
" style="stroke: #000000; stroke-width: 0.5"/>
      </defs>
      <g>
       <use xlink:href="#md2283ec7ef" x="30.24" y="140.021053" style="stroke: #000000; stroke-width: 0.5"/>
      </g>
     </g>
     <g id="line2d_62">
      <defs>
       <path id="m8d8a522f01" d="M 0 0 
L -2.4 0 
" style="stroke: #000000; stroke-width: 0.5"/>
      </defs>
      <g>
       <use xlink:href="#m8d8a522f01" x="246.24" y="140.021053" style="stroke: #000000; stroke-width: 0.5"/>
      </g>
     </g>
    </g>
    <g id="ytick_7">
     <g id="line2d_63">
      <g>
       <use xlink:href="#md2283ec7ef" x="30.24" y="132.442105" style="stroke: #000000; stroke-width: 0.5"/>
      </g>
     </g>
     <g id="line2d_64">
      <g>
       <use xlink:href="#m8d8a522f01" x="246.24" y="132.442105" style="stroke: #000000; stroke-width: 0.5"/>
      </g>
     </g>
    </g>
    <g id="ytick_8">
     <g id="line2d_65">
      <g>
       <use xlink:href="#md2283ec7ef" x="30.24" y="124.863158" style="stroke: #000000; stroke-width: 0.5"/>
      </g>
     </g>
     <g id="line2d_66">
      <g>
       <use xlink:href="#m8d8a522f01" x="246.24" y="124.863158" style="stroke: #000000; stroke-width: 0.5"/>
      </g>
     </g>
    </g>
    <g id="ytick_9">
     <g id="line2d_67">
      <g>
       <use xlink:href="#md2283ec7ef" x="30.24" y="109.705263" style="stroke: #000000; stroke-width: 0.5"/>
      </g>
     </g>
     <g id="line2d_68">
      <g>
       <use xlink:href="#m8d8a522f01" x="246.24" y="109.705263" style="stroke: #000000; stroke-width: 0.5"/>
      </g>
     </g>
    </g>
    <g id="ytick_10">
     <g id="line2d_69">
      <g>
       <use xlink:href="#md2283ec7ef" x="30.24" y="102.126316" style="stroke: #000000; stroke-width: 0.5"/>
      </g>
     </g>
     <g id="line2d_70">
      <g>
       <use xlink:href="#m8d8a522f01" x="246.24" y="102.126316" style="stroke: #000000; stroke-width: 0.5"/>
      </g>
     </g>
    </g>
    <g id="ytick_11">
     <g id="line2d_71">
      <g>
       <use xlink:href="#md2283ec7ef" x="30.24" y="94.547368" style="stroke: #000000; stroke-width: 0.5"/>
      </g>
     </g>
     <g id="line2d_72">
      <g>
       <use xlink:href="#m8d8a522f01" x="246.24" y="94.547368" style="stroke: #000000; stroke-width: 0.5"/>
      </g>
     </g>
    </g>
    <g id="ytick_12">
     <g id="line2d_73">
      <g>
       <use xlink:href="#md2283ec7ef" x="30.24" y="79.389474" style="stroke: #000000; stroke-width: 0.5"/>
      </g>
     </g>
     <g id="line2d_74">
      <g>
       <use xlink:href="#m8d8a522f01" x="246.24" y="79.389474" style="stroke: #000000; stroke-width: 0.5"/>
      </g>
     </g>
    </g>
    <g id="ytick_13">
     <g id="line2d_75">
      <g>
       <use xlink:href="#md2283ec7ef" x="30.24" y="71.810526" style="stroke: #000000; stroke-width: 0.5"/>
      </g>
     </g>
     <g id="line2d_76">
      <g>
       <use xlink:href="#m8d8a522f01" x="246.24" y="71.810526" style="stroke: #000000; stroke-width: 0.5"/>
      </g>
     </g>
    </g>
    <g id="ytick_14">
     <g id="line2d_77">
      <g>
       <use xlink:href="#md2283ec7ef" x="30.24" y="64.231579" style="stroke: #000000; stroke-width: 0.5"/>
      </g>
     </g>
     <g id="line2d_78">
      <g>
       <use xlink:href="#m8d8a522f01" x="246.24" y="64.231579" style="stroke: #000000; stroke-width: 0.5"/>
      </g>
     </g>
    </g>
    <g id="ytick_15">
     <g id="line2d_79">
      <g>
       <use xlink:href="#md2283ec7ef" x="30.24" y="49.073684" style="stroke: #000000; stroke-width: 0.5"/>
      </g>
     </g>
     <g id="line2d_80">
      <g>
       <use xlink:href="#m8d8a522f01" x="246.24" y="49.073684" style="stroke: #000000; stroke-width: 0.5"/>
      </g>
     </g>
    </g>
    <g id="ytick_16">
     <g id="line2d_81">
      <g>
       <use xlink:href="#md2283ec7ef" x="30.24" y="41.494737" style="stroke: #000000; stroke-width: 0.5"/>
      </g>
     </g>
     <g id="line2d_82">
      <g>
       <use xlink:href="#m8d8a522f01" x="246.24" y="41.494737" style="stroke: #000000; stroke-width: 0.5"/>
      </g>
     </g>
    </g>
    <g id="ytick_17">
     <g id="line2d_83">
      <g>
       <use xlink:href="#md2283ec7ef" x="30.24" y="33.915789" style="stroke: #000000; stroke-width: 0.5"/>
      </g>
     </g>
     <g id="line2d_84">
      <g>
       <use xlink:href="#m8d8a522f01" x="246.24" y="33.915789" style="stroke: #000000; stroke-width: 0.5"/>
      </g>
     </g>
    </g>
    <g id="ytick_18">
     <g id="line2d_85">
      <g>
       <use xlink:href="#md2283ec7ef" x="30.24" y="18.757895" style="stroke: #000000; stroke-width: 0.5"/>
      </g>
     </g>
     <g id="line2d_86">
      <g>
       <use xlink:href="#m8d8a522f01" x="246.24" y="18.757895" style="stroke: #000000; stroke-width: 0.5"/>
      </g>
     </g>
    </g>
    <g id="ytick_19">
     <g id="line2d_87">
      <g>
       <use xlink:href="#md2283ec7ef" x="30.24" y="11.178947" style="stroke: #000000; stroke-width: 0.5"/>
      </g>
     </g>
     <g id="line2d_88">
      <g>
       <use xlink:href="#m8d8a522f01" x="246.24" y="11.178947" style="stroke: #000000; stroke-width: 0.5"/>
      </g>
     </g>
    </g>
    <g id="text_14">
     <!-- Normalized Signal [a.u.] -->
     <g style="fill: #111111" transform="translate(9.7525 123.370312) rotate(-90) scale(0.09 -0.09)">
      <defs>
       <path id="Arimo-4e" d="M 3381 0 
L 1025 3750 
L 1041 3447 
L 1056 2925 
L 1056 0 
L 525 0 
L 525 4403 
L 1219 4403 
L 3600 628 
Q 3563 1241 3563 1516 
L 3563 4403 
L 4100 4403 
L 4100 0 
L 3381 0 
z
" transform="scale(0.015625)"/>
       <path id="Arimo-6f" d="M 3291 1694 
Q 3291 806 2900 371 
Q 2509 -63 1766 -63 
Q 1025 -63 647 389 
Q 269 841 269 1694 
Q 269 3444 1784 3444 
Q 2559 3444 2925 3017 
Q 3291 2591 3291 1694 
z
M 2700 1694 
Q 2700 2394 2492 2711 
Q 2284 3028 1794 3028 
Q 1300 3028 1079 2704 
Q 859 2381 859 1694 
Q 859 1025 1076 689 
Q 1294 353 1759 353 
Q 2266 353 2483 678 
Q 2700 1003 2700 1694 
z
" transform="scale(0.015625)"/>
       <path id="Arimo-72" d="M 444 0 
L 444 2594 
Q 444 2950 425 3381 
L 956 3381 
Q 981 2806 981 2691 
L 994 2691 
Q 1128 3125 1303 3284 
Q 1478 3444 1797 3444 
Q 1909 3444 2025 3413 
L 2025 2897 
Q 1913 2928 1725 2928 
Q 1375 2928 1190 2626 
Q 1006 2325 1006 1763 
L 1006 0 
L 444 0 
z
" transform="scale(0.015625)"/>
       <path id="Arimo-61" d="M 1294 -63 
Q 784 -63 528 206 
Q 272 475 272 944 
Q 272 1469 617 1750 
Q 963 2031 1731 2050 
L 2491 2063 
L 2491 2247 
Q 2491 2659 2316 2837 
Q 2141 3016 1766 3016 
Q 1388 3016 1216 2887 
Q 1044 2759 1009 2478 
L 422 2531 
Q 566 3444 1778 3444 
Q 2416 3444 2737 3151 
Q 3059 2859 3059 2306 
L 3059 850 
Q 3059 600 3125 473 
Q 3191 347 3375 347 
Q 3456 347 3559 369 
L 3559 19 
Q 3347 -31 3125 -31 
Q 2813 -31 2670 133 
Q 2528 297 2509 647 
L 2491 647 
Q 2275 259 1989 98 
Q 1703 -63 1294 -63 
z
M 1422 359 
Q 1731 359 1972 500 
Q 2213 641 2352 886 
Q 2491 1131 2491 1391 
L 2491 1669 
L 1875 1656 
Q 1478 1650 1273 1575 
Q 1069 1500 959 1344 
Q 850 1188 850 934 
Q 850 659 998 509 
Q 1147 359 1422 359 
z
" transform="scale(0.015625)"/>
       <path id="Arimo-6c" d="M 431 0 
L 431 4638 
L 994 4638 
L 994 0 
L 431 0 
z
" transform="scale(0.015625)"/>
       <path id="Arimo-7a" d="M 259 0 
L 259 428 
L 2150 2947 
L 366 2947 
L 366 3381 
L 2816 3381 
L 2816 2953 
L 922 434 
L 2881 434 
L 2881 0 
L 259 0 
z
" transform="scale(0.015625)"/>
       <path id="Arimo-64" d="M 2566 544 
Q 2409 219 2151 78 
Q 1894 -63 1513 -63 
Q 872 -63 570 368 
Q 269 800 269 1675 
Q 269 3444 1513 3444 
Q 1897 3444 2153 3303 
Q 2409 3163 2566 2856 
L 2572 2856 
L 2566 3234 
L 2566 4638 
L 3128 4638 
L 3128 697 
Q 3128 169 3147 0 
L 2609 0 
Q 2600 50 2589 231 
Q 2578 413 2578 544 
L 2566 544 
z
M 859 1694 
Q 859 984 1046 678 
Q 1234 372 1656 372 
Q 2134 372 2350 703 
Q 2566 1034 2566 1731 
Q 2566 2403 2350 2715 
Q 2134 3028 1663 3028 
Q 1238 3028 1048 2714 
Q 859 2400 859 1694 
z
" transform="scale(0.015625)"/>
       <path id="Arimo-53" d="M 3975 1216 
Q 3975 606 3498 271 
Q 3022 -63 2156 -63 
Q 547 -63 291 1056 
L 869 1172 
Q 969 775 1294 589 
Q 1619 403 2178 403 
Q 2756 403 3070 601 
Q 3384 800 3384 1184 
Q 3384 1400 3286 1534 
Q 3188 1669 3009 1756 
Q 2831 1844 2584 1903 
Q 2338 1963 2038 2031 
Q 1516 2147 1245 2262 
Q 975 2378 819 2520 
Q 663 2663 580 2853 
Q 497 3044 497 3291 
Q 497 3856 930 4162 
Q 1363 4469 2169 4469 
Q 2919 4469 3316 4239 
Q 3713 4009 3872 3456 
L 3284 3353 
Q 3188 3703 2916 3861 
Q 2644 4019 2163 4019 
Q 1634 4019 1356 3844 
Q 1078 3669 1078 3322 
Q 1078 3119 1186 2986 
Q 1294 2853 1497 2761 
Q 1700 2669 2306 2534 
Q 2509 2488 2711 2439 
Q 2913 2391 3097 2323 
Q 3281 2256 3442 2165 
Q 3603 2075 3722 1944 
Q 3841 1813 3908 1634 
Q 3975 1456 3975 1216 
z
" transform="scale(0.015625)"/>
       <path id="Arimo-67" d="M 1713 -1328 
Q 1159 -1328 831 -1111 
Q 503 -894 409 -494 
L 975 -413 
Q 1031 -647 1223 -773 
Q 1416 -900 1728 -900 
Q 2569 -900 2569 84 
L 2569 628 
L 2563 628 
Q 2403 303 2125 139 
Q 1847 -25 1475 -25 
Q 853 -25 561 387 
Q 269 800 269 1684 
Q 269 2581 583 3007 
Q 897 3434 1538 3434 
Q 1897 3434 2161 3270 
Q 2425 3106 2569 2803 
L 2575 2803 
Q 2575 2897 2587 3128 
Q 2600 3359 2613 3381 
L 3147 3381 
Q 3128 3213 3128 2681 
L 3128 97 
Q 3128 -1328 1713 -1328 
z
M 2569 1691 
Q 2569 2103 2456 2401 
Q 2344 2700 2139 2858 
Q 1934 3016 1675 3016 
Q 1244 3016 1047 2703 
Q 850 2391 850 1691 
Q 850 997 1034 694 
Q 1219 391 1666 391 
Q 1931 391 2137 547 
Q 2344 703 2456 995 
Q 2569 1288 2569 1691 
z
" transform="scale(0.015625)"/>
       <path id="Arimo-6e" d="M 2578 0 
L 2578 2144 
Q 2578 2478 2512 2662 
Q 2447 2847 2303 2928 
Q 2159 3009 1881 3009 
Q 1475 3009 1240 2731 
Q 1006 2453 1006 1959 
L 1006 0 
L 444 0 
L 444 2659 
Q 444 3250 425 3381 
L 956 3381 
Q 959 3366 962 3297 
Q 966 3228 970 3139 
Q 975 3050 981 2803 
L 991 2803 
Q 1184 3153 1439 3298 
Q 1694 3444 2072 3444 
Q 2628 3444 2886 3167 
Q 3144 2891 3144 2253 
L 3144 0 
L 2578 0 
z
" transform="scale(0.015625)"/>
       <path id="Arimo-75" d="M 981 3381 
L 981 1238 
Q 981 903 1047 718 
Q 1113 534 1256 453 
Q 1400 372 1678 372 
Q 2084 372 2318 650 
Q 2553 928 2553 1422 
L 2553 3381 
L 3116 3381 
L 3116 722 
Q 3116 131 3134 0 
L 2603 0 
Q 2600 16 2597 84 
Q 2594 153 2589 242 
Q 2584 331 2578 578 
L 2569 578 
Q 2375 228 2120 82 
Q 1866 -63 1488 -63 
Q 931 -63 673 214 
Q 416 491 416 1128 
L 416 3381 
L 981 3381 
z
" transform="scale(0.015625)"/>
      </defs>
      <use xlink:href="#Arimo-4e"/>
      <use xlink:href="#Arimo-6f" x="72.216797"/>
      <use xlink:href="#Arimo-72" x="127.832031"/>
      <use xlink:href="#Arimo-6d" x="161.132812"/>
      <use xlink:href="#Arimo-61" x="244.433594"/>
      <use xlink:href="#Arimo-6c" x="300.048828"/>
      <use xlink:href="#Arimo-69" x="322.265625"/>
      <use xlink:href="#Arimo-7a" x="344.482422"/>
      <use xlink:href="#Arimo-65" x="394.482422"/>
      <use xlink:href="#Arimo-64" x="450.097656"/>
      <use xlink:href="#Arimo-20" x="505.712891"/>
      <use xlink:href="#Arimo-53" x="533.496094"/>
      <use xlink:href="#Arimo-69" x="600.195312"/>
      <use xlink:href="#Arimo-67" x="622.412109"/>
      <use xlink:href="#Arimo-6e" x="678.027344"/>
      <use xlink:href="#Arimo-61" x="733.642578"/>
      <use xlink:href="#Arimo-6c" x="789.257812"/>
      <use xlink:href="#Arimo-20" x="811.474609"/>
      <use xlink:href="#Arimo-5b" x="839.257812"/>
      <use xlink:href="#Arimo-61" x="867.041016"/>
      <use xlink:href="#Arimo-2e" x="922.65625"/>
      <use xlink:href="#Arimo-75" x="950.439453"/>
      <use xlink:href="#Arimo-2e" x="1006.054688"/>
      <use xlink:href="#Arimo-5d" x="1033.837891"/>
     </g>
    </g>
   </g>
   <g id="line2d_89">
    <path d="M 30.24 96.063158 
L 37.01116 97.681545 
L 41.750972 99.0446 
L 45.813668 100.42916 
L 49.876364 102.035228 
L 53.93906 103.861774 
L 58.678871 106.244231 
L 64.095799 109.226181 
L 74.929655 115.543757 
L 81.700815 119.344384 
L 86.440627 121.781283 
L 91.180439 123.964676 
L 95.243135 125.60467 
L 99.305831 127.018374 
L 103.368527 128.205914 
L 107.431223 129.178093 
L 112.171034 130.067208 
L 116.910846 130.734674 
L 123.00489 131.352476 
L 132.484514 132.038968 
L 143.995486 132.921806 
L 151.443762 133.720276 
L 158.892038 134.740523 
L 167.694545 136.176802 
L 190.039373 139.93782 
L 197.487649 140.909738 
L 204.935925 141.655804 
L 212.384201 142.181354 
L 221.186708 142.571143 
L 234.051912 142.887898 
L 246.24 143.163229 
L 246.24 143.163229 
" clip-path="url(#p9b19eb0f42)" style="fill: none; stroke: #2a2f80; stroke-linecap: square"/>
   </g>
   <g id="line2d_90">
    <path d="M 30.24 84.644504 
L 34.979812 85.900859 
L 39.042508 87.227613 
L 42.428088 88.544193 
L 45.813668 90.064876 
L 49.876364 92.156378 
L 53.93906 94.515711 
L 58.678871 97.548224 
L 64.772915 101.74178 
L 76.961003 110.207555 
L 81.700815 113.206616 
L 85.763511 115.53967 
L 89.826207 117.613059 
L 93.888903 119.403955 
L 97.274483 120.674599 
L 101.337179 121.938224 
L 105.399875 122.934432 
L 109.462571 123.692597 
L 114.202382 124.327679 
L 119.61931 124.81185 
L 128.421818 125.327955 
L 137.901442 125.945327 
L 143.995486 126.556615 
L 150.08953 127.398661 
L 156.183574 128.473552 
L 162.954734 129.894455 
L 174.465705 132.58583 
L 183.945329 134.712892 
L 190.716489 136.009108 
L 196.810533 136.951356 
L 202.904577 137.660124 
L 208.998621 138.142763 
L 215.769781 138.451946 
L 224.572288 138.606243 
L 246.24 138.83033 
L 246.24 138.83033 
" clip-path="url(#p9b19eb0f42)" style="fill: none; stroke-dasharray: 3.7,1.6; stroke-dashoffset: 0; stroke: #99cb6f"/>
   </g>
   <g id="line2d_91">
    <path d="M 30.24 72.784202 
L 33.62558 73.888739 
L 37.01116 75.227504 
L 40.39674 76.819689 
L 43.78232 78.669465 
L 47.1679 80.766885 
L 51.230596 83.578032 
L 55.970408 87.186454 
L 62.064451 92.154029 
L 72.221191 100.482338 
L 76.961003 104.069064 
L 81.023699 106.868616 
L 84.409279 108.967538 
L 87.794859 110.831712 
L 91.180439 112.450062 
L 94.566019 113.820567 
L 97.951599 114.949856 
L 101.337179 115.852462 
L 104.722759 116.549805 
L 108.785455 117.154089 
L 113.525266 117.608127 
L 119.61931 117.941359 
L 133.16163 118.602503 
L 138.578558 119.131211 
L 143.31837 119.797013 
L 148.058182 120.66532 
L 153.47511 121.89275 
L 159.569154 123.520025 
L 168.371661 126.135762 
L 178.528401 129.120644 
L 184.622445 130.68851 
L 190.039373 131.85719 
L 195.456301 132.779382 
L 200.873229 133.446269 
L 206.290157 133.872123 
L 212.384201 134.106517 
L 219.832476 134.143955 
L 241.500188 134.069439 
L 246.24 134.232223 
L 246.24 134.232223 
" clip-path="url(#p9b19eb0f42)" style="fill: none; stroke-dasharray: 1,1.65; stroke-dashoffset: 0; stroke: #ee2024"/>
   </g>
   <g id="line2d_92">
    <path d="M 30.24 60.744979 
L 32.948464 61.924293 
L 35.656928 63.301835 
L 39.042508 65.306596 
L 42.428088 67.616449 
L 45.813668 70.207054 
L 49.876364 73.632573 
L 54.616176 77.95621 
L 72.221191 94.388266 
L 76.283887 97.674556 
L 79.669467 100.141764 
L 83.055047 102.332915 
L 86.440627 104.231924 
L 89.826207 105.833736 
L 93.211787 107.143966 
L 96.597367 108.178133 
L 99.982947 108.96052 
L 103.368527 109.522751 
L 107.431223 109.95965 
L 112.171034 110.232501 
L 121.650658 110.468842 
L 127.744702 110.731027 
L 132.484514 111.135877 
L 137.224326 111.777102 
L 141.287022 112.535488 
L 146.026834 113.664678 
L 150.766646 115.034821 
L 156.183574 116.838372 
L 164.308966 119.819886 
L 174.465705 123.509543 
L 179.882633 125.243073 
L 184.622445 126.542998 
L 189.362257 127.605039 
L 194.102069 128.414149 
L 198.841881 128.973635 
L 203.581693 129.303908 
L 208.998621 129.446151 
L 215.769781 129.374971 
L 235.406144 128.985591 
L 241.500188 129.168112 
L 246.24 129.471741 
L 246.24 129.471741 
" clip-path="url(#p9b19eb0f42)" style="fill: none; stroke-dasharray: 6.4,1.6,1,1.6; stroke-dashoffset: 0; stroke: #4378bc"/>
   </g>
   <g id="line2d_93">
    <path d="M 30.24 48.844635 
L 32.948464 50.472966 
L 35.656928 52.339026 
L 38.365392 54.434116 
L 41.750972 57.350343 
L 45.136552 60.554703 
L 49.199248 64.699092 
L 55.293292 71.281237 
L 64.095799 80.771693 
L 68.158495 84.841645 
L 71.544075 87.97612 
L 74.929655 90.826746 
L 78.315235 93.359082 
L 81.023699 95.140803 
L 83.732163 96.699682 
L 86.440627 98.035976 
L 89.149091 99.155031 
L 91.857555 100.066943 
L 95.243135 100.93784 
L 98.628715 101.544065 
L 102.014295 101.929091 
L 106.076991 102.167837 
L 112.171034 102.255777 
L 121.650658 102.373771 
L 126.39047 102.677001 
L 130.453166 103.154244 
L 134.515862 103.864583 
L 138.578558 104.819922 
L 142.641254 106.014485 
L 146.70395 107.426249 
L 151.443762 109.299186 
L 158.214922 112.2492 
L 169.725893 117.318096 
L 175.142821 119.42705 
L 179.882633 121.011018 
L 183.945329 122.1379 
L 188.008025 123.035517 
L 192.070721 123.701601 
L 196.133417 124.146037 
L 200.873229 124.412895 
L 205.613041 124.456074 
L 211.707085 124.283275 
L 229.3121 123.616122 
L 234.729028 123.699467 
L 240.145956 124.016789 
L 245.562884 124.580632 
L 246.24 124.667926 
L 246.24 124.667926 
" clip-path="url(#p9b19eb0f42)" style="fill: none; stroke: #7d1415; stroke-linecap: square"/>
   </g>
   <g id="line2d_94">
    <path d="M 30.24 37.422556 
L 32.948464 39.620852 
L 35.656928 42.076803 
L 39.042508 45.474181 
L 42.428088 49.180208 
L 47.1679 54.74959 
L 62.741567 73.478578 
L 66.127147 77.102851 
L 69.512727 80.418514 
L 72.898307 83.380242 
L 75.606771 85.473624 
L 78.315235 87.311773 
L 81.023699 88.892178 
L 83.732163 90.218403 
L 86.440627 91.299768 
L 89.149091 92.150892 
L 91.857555 92.791118 
L 95.243135 93.330777 
L 98.628715 93.63036 
L 102.691411 93.755114 
L 108.785455 93.68245 
L 116.23373 93.621313 
L 120.296426 93.783456 
L 124.359122 94.171292 
L 127.744702 94.700053 
L 131.130282 95.431997 
L 134.515862 96.371461 
L 137.901442 97.512688 
L 141.964138 99.126596 
L 146.70395 101.292265 
L 152.120878 104.029198 
L 167.017429 111.706738 
L 171.757241 113.808777 
L 175.819937 115.366529 
L 179.882633 116.664378 
L 183.268213 117.534423 
L 186.653793 118.209799 
L 190.716489 118.771312 
L 194.779185 119.082557 
L 198.841881 119.177672 
L 203.581693 119.074367 
L 210.352853 118.682104 
L 221.186708 118.025508 
L 226.603636 117.925213 
L 231.343448 118.050106 
L 236.08326 118.404353 
L 240.823072 118.995165 
L 245.562884 119.808668 
L 246.24 119.941356 
L 246.24 119.941356 
" clip-path="url(#p9b19eb0f42)" style="fill: none; stroke-dasharray: 3.7,1.6; stroke-dashoffset: 0; stroke: #6fccde"/>
   </g>
   <g id="line2d_95">
    <path d="M 30.24 26.80203 
L 32.948464 29.659284 
L 36.334044 33.580862 
L 40.39674 38.70084 
L 45.813668 45.978176 
L 55.293292 58.830543 
L 59.355987 63.957776 
L 62.741567 67.904072 
L 66.127147 71.485128 
L 68.835611 74.054266 
L 71.544075 76.341951 
L 74.252539 78.338613 
L 76.961003 80.041838 
L 79.669467 81.456186 
L 82.377931 82.592825 
L 85.086395 83.468999 
L 87.794859 84.10737 
L 90.503323 84.535228 
L 93.888903 84.821589 
L 97.951599 84.889331 
L 103.368527 84.711986 
L 111.493918 84.447641 
L 115.556614 84.545409 
L 118.942194 84.825653 
L 122.327774 85.322401 
L 125.713354 86.056729 
L 129.098934 87.037492 
L 132.484514 88.26153 
L 135.870094 89.714354 
L 139.93279 91.724323 
L 144.672602 94.360665 
L 151.443762 98.445448 
L 160.24627 103.741238 
L 164.986082 106.326399 
L 169.048777 108.28851 
L 172.434357 109.706754 
L 175.819937 110.907117 
L 179.205517 111.879268 
L 182.591097 112.621707 
L 185.976677 113.141528 
L 189.362257 113.453851 
L 193.424953 113.586532 
L 197.487649 113.502465 
L 202.904577 113.155618 
L 218.478245 111.966923 
L 223.218056 111.903284 
L 227.280752 112.049513 
L 231.343448 112.402011 
L 235.406144 112.965977 
L 239.46884 113.732782 
L 244.208652 114.854513 
L 246.24 115.398227 
L 246.24 115.398227 
" clip-path="url(#p9b19eb0f42)" style="fill: none; stroke-dasharray: 1,1.65; stroke-dashoffset: 0; stroke: #3953a5"/>
   </g>
   <g id="line2d_96">
    <path d="M 30.24 17.252163 
L 33.62558 21.735359 
L 37.688276 27.526796 
L 43.78232 36.677898 
L 50.55348 46.794485 
L 54.616176 52.496606 
L 58.001755 56.894046 
L 61.387335 60.889448 
L 64.095799 63.757556 
L 66.804263 66.311381 
L 69.512727 68.538707 
L 72.221191 70.435464 
L 74.929655 72.005553 
L 77.638119 73.260481 
L 80.346583 74.218793 
L 83.055047 74.905353 
L 85.763511 75.350472 
L 88.471975 75.58893 
L 91.857555 75.654804 
L 95.920251 75.498484 
L 108.108339 74.820532 
L 111.493918 74.895041 
L 114.879498 75.189229 
L 118.265078 75.739767 
L 120.973542 76.380632 
L 123.682006 77.205712 
L 127.067586 78.494834 
L 130.453166 80.057655 
L 133.838746 81.868932 
L 137.901442 84.31916 
L 142.641254 87.458601 
L 158.892038 98.515377 
L 162.954734 100.876279 
L 166.340313 102.608826 
L 169.725893 104.098384 
L 173.111473 105.327718 
L 176.497053 106.289896 
L 179.882633 106.988238 
L 183.268213 107.435852 
L 186.653793 107.654788 
L 190.716489 107.658094 
L 194.779185 107.438568 
L 200.873229 106.850528 
L 211.029969 105.812961 
L 215.769781 105.560048 
L 219.832476 105.552363 
L 223.895172 105.774607 
L 227.957868 106.244959 
L 232.020564 106.964974 
L 236.08326 107.920108 
L 240.823072 109.291903 
L 246.24 111.114965 
L 246.24 111.114965 
" clip-path="url(#p9b19eb0f42)" style="fill: none; stroke-dasharray: 6.4,1.6,1,1.6; stroke-dashoffset: 0; stroke: #f6eb14"/>
   </g>
   <g id="line2d_97">
    <path d="M 30.24 8.953378 
L 34.302696 15.376308 
L 42.428088 28.80664 
L 47.845016 37.505886 
L 51.230596 42.588897 
L 54.616176 47.282301 
L 57.324639 50.703452 
L 60.033103 53.794232 
L 62.741567 56.532717 
L 65.450031 58.906082 
L 68.158495 60.910649 
L 70.189843 62.17489 
L 72.221191 63.239858 
L 74.252539 64.113493 
L 76.961003 64.998848 
L 79.669467 65.592934 
L 82.377931 65.931842 
L 85.086395 66.056316 
L 88.471975 65.97789 
L 93.211787 65.594467 
L 102.014295 64.817571 
L 105.399875 64.742586 
L 108.785455 64.895374 
L 111.493918 65.215088 
L 114.202382 65.730452 
L 116.910846 66.453124 
L 119.61931 67.388171 
L 122.327774 68.534161 
L 125.036238 69.883418 
L 128.421818 71.834748 
L 131.807398 74.044413 
L 135.870094 76.968044 
L 141.287022 81.162377 
L 151.443762 89.081815 
L 155.506458 91.964615 
L 158.892038 94.139414 
L 162.277618 96.063429 
L 165.663197 97.706557 
L 168.371661 98.805919 
L 171.080125 99.709333 
L 173.788589 100.417623 
L 176.497053 100.936335 
L 179.882633 101.333768 
L 183.268213 101.479308 
L 186.653793 101.409837 
L 190.716489 101.104426 
L 196.133417 100.459646 
L 206.290157 99.197051 
L 211.029969 98.871282 
L 215.092665 98.833348 
L 218.478245 99.004197 
L 221.863824 99.374244 
L 225.249404 99.947903 
L 228.634984 100.72036 
L 232.69768 101.890045 
L 236.760376 103.287698 
L 242.177304 105.414534 
L 246.24 107.125219 
L 246.24 107.125219 
" clip-path="url(#p9b19eb0f42)" style="fill: none; stroke: #f67f21; stroke-linecap: square"/>
   </g>
   <g id="patch_3">
    <path d="M 30.24 147.6 
L 30.24 3.6 
" style="fill: none; stroke: #000000; stroke-linejoin: miter; stroke-linecap: square"/>
   </g>
   <g id="patch_4">
    <path d="M 246.24 147.6 
L 246.24 3.6 
" style="fill: none; stroke: #000000; stroke-linejoin: miter; stroke-linecap: square"/>
   </g>
   <g id="patch_5">
    <path d="M 30.24 147.6 
L 246.24 147.6 
" style="fill: none; stroke: #000000; stroke-linejoin: miter; stroke-linecap: square"/>
   </g>
   <g id="patch_6">
    <path d="M 30.24 3.6 
L 246.24 3.6 
" style="fill: none; stroke: #000000; stroke-linejoin: miter; stroke-linecap: square"/>
   </g>
   <g id="legend_1">
    <g id="patch_7">
     <path d="M 252.16 128.35875 
L 298.665 128.35875 
Q 300.265 128.35875 300.265 126.75875 
L 300.265 24.44125 
Q 300.265 22.84125 298.665 22.84125 
L 252.16 22.84125 
Q 250.56 22.84125 250.56 24.44125 
L 250.56 126.75875 
Q 250.56 128.35875 252.16 128.35875 
z
" style="fill: #ffffff; stroke: #000000; stroke-linejoin: miter"/>
    </g>
    <g id="line2d_98">
     <path d="M 253.76 29.03875 
L 261.76 29.03875 
L 269.76 29.03875 
" style="fill: none; stroke: #2a2f80; stroke-linecap: square"/>
    </g>
    <g id="text_15">
     <!-- 80 K -->
     <g transform="translate(276.16 31.83875) scale(0.08 -0.08)">
      <defs>
       <path id="Arimo-4b" d="M 3456 0 
L 1697 2125 
L 1122 1688 
L 1122 0 
L 525 0 
L 525 4403 
L 1122 4403 
L 1122 2197 
L 3244 4403 
L 3947 4403 
L 2072 2491 
L 4197 0 
L 3456 0 
z
" transform="scale(0.015625)"/>
      </defs>
      <use xlink:href="#Arimo-38"/>
      <use xlink:href="#Arimo-30" x="55.615234"/>
      <use xlink:href="#Arimo-20" x="111.230469"/>
      <use xlink:href="#Arimo-4b" x="139.013672"/>
     </g>
    </g>
    <g id="line2d_99">
     <path d="M 253.76 40.49625 
L 261.76 40.49625 
L 269.76 40.49625 
" style="fill: none; stroke-dasharray: 3.7,1.6; stroke-dashoffset: 0; stroke: #99cb6f"/>
    </g>
    <g id="text_16">
     <!-- 100 K -->
     <g transform="translate(276.16 43.29625) scale(0.08 -0.08)">
      <use xlink:href="#Arimo-31"/>
      <use xlink:href="#Arimo-30" x="55.615234"/>
      <use xlink:href="#Arimo-30" x="111.230469"/>
      <use xlink:href="#Arimo-20" x="166.845703"/>
      <use xlink:href="#Arimo-4b" x="194.628906"/>
     </g>
    </g>
    <g id="line2d_100">
     <path d="M 253.76 51.95375 
L 261.76 51.95375 
L 269.76 51.95375 
" style="fill: none; stroke-dasharray: 1,1.65; stroke-dashoffset: 0; stroke: #ee2024"/>
    </g>
    <g id="text_17">
     <!-- 120 K -->
     <g transform="translate(276.16 54.75375) scale(0.08 -0.08)">
      <use xlink:href="#Arimo-31"/>
      <use xlink:href="#Arimo-32" x="55.615234"/>
      <use xlink:href="#Arimo-30" x="111.230469"/>
      <use xlink:href="#Arimo-20" x="166.845703"/>
      <use xlink:href="#Arimo-4b" x="194.628906"/>
     </g>
    </g>
    <g id="line2d_101">
     <path d="M 253.76 63.41125 
L 261.76 63.41125 
L 269.76 63.41125 
" style="fill: none; stroke-dasharray: 6.4,1.6,1,1.6; stroke-dashoffset: 0; stroke: #4378bc"/>
    </g>
    <g id="text_18">
     <!-- 140 K -->
     <g transform="translate(276.16 66.21125) scale(0.08 -0.08)">
      <use xlink:href="#Arimo-31"/>
      <use xlink:href="#Arimo-34" x="55.615234"/>
      <use xlink:href="#Arimo-30" x="111.230469"/>
      <use xlink:href="#Arimo-20" x="166.845703"/>
      <use xlink:href="#Arimo-4b" x="194.628906"/>
     </g>
    </g>
    <g id="line2d_102">
     <path d="M 253.76 74.86875 
L 261.76 74.86875 
L 269.76 74.86875 
" style="fill: none; stroke: #7d1415; stroke-linecap: square"/>
    </g>
    <g id="text_19">
     <!-- 160 K -->
     <g transform="translate(276.16 77.66875) scale(0.08 -0.08)">
      <use xlink:href="#Arimo-31"/>
      <use xlink:href="#Arimo-36" x="55.615234"/>
      <use xlink:href="#Arimo-30" x="111.230469"/>
      <use xlink:href="#Arimo-20" x="166.845703"/>
      <use xlink:href="#Arimo-4b" x="194.628906"/>
     </g>
    </g>
    <g id="line2d_103">
     <path d="M 253.76 86.32625 
L 261.76 86.32625 
L 269.76 86.32625 
" style="fill: none; stroke-dasharray: 3.7,1.6; stroke-dashoffset: 0; stroke: #6fccde"/>
    </g>
    <g id="text_20">
     <!-- 180 K -->
     <g transform="translate(276.16 89.12625) scale(0.08 -0.08)">
      <use xlink:href="#Arimo-31"/>
      <use xlink:href="#Arimo-38" x="55.615234"/>
      <use xlink:href="#Arimo-30" x="111.230469"/>
      <use xlink:href="#Arimo-20" x="166.845703"/>
      <use xlink:href="#Arimo-4b" x="194.628906"/>
     </g>
    </g>
    <g id="line2d_104">
     <path d="M 253.76 97.78375 
L 261.76 97.78375 
L 269.76 97.78375 
" style="fill: none; stroke-dasharray: 1,1.65; stroke-dashoffset: 0; stroke: #3953a5"/>
    </g>
    <g id="text_21">
     <!-- 200 K -->
     <g transform="translate(276.16 100.58375) scale(0.08 -0.08)">
      <use xlink:href="#Arimo-32"/>
      <use xlink:href="#Arimo-30" x="55.615234"/>
      <use xlink:href="#Arimo-30" x="111.230469"/>
      <use xlink:href="#Arimo-20" x="166.845703"/>
      <use xlink:href="#Arimo-4b" x="194.628906"/>
     </g>
    </g>
    <g id="line2d_105">
     <path d="M 253.76 109.24125 
L 261.76 109.24125 
L 269.76 109.24125 
" style="fill: none; stroke-dasharray: 6.4,1.6,1,1.6; stroke-dashoffset: 0; stroke: #f6eb14"/>
    </g>
    <g id="text_22">
     <!-- 220 K -->
     <g transform="translate(276.16 112.04125) scale(0.08 -0.08)">
      <use xlink:href="#Arimo-32"/>
      <use xlink:href="#Arimo-32" x="55.615234"/>
      <use xlink:href="#Arimo-30" x="111.230469"/>
      <use xlink:href="#Arimo-20" x="166.845703"/>
      <use xlink:href="#Arimo-4b" x="194.628906"/>
     </g>
    </g>
    <g id="line2d_106">
     <path d="M 253.76 120.69875 
L 261.76 120.69875 
L 269.76 120.69875 
" style="fill: none; stroke: #f67f21; stroke-linecap: square"/>
    </g>
    <g id="text_23">
     <!-- 240 K -->
     <g transform="translate(276.16 123.49875) scale(0.08 -0.08)">
      <use xlink:href="#Arimo-32"/>
      <use xlink:href="#Arimo-34" x="55.615234"/>
      <use xlink:href="#Arimo-30" x="111.230469"/>
      <use xlink:href="#Arimo-20" x="166.845703"/>
      <use xlink:href="#Arimo-4b" x="194.628906"/>
     </g>
    </g>
   </g>
  </g>
 </g>
 <defs>
  <clipPath id="p9b19eb0f42">
   <rect x="30.24" y="3.6" width="216" height="144"/>
  </clipPath>
 </defs>
</svg>
