<?xml version="1.0" encoding="utf-8" standalone="no"?>
<!DOCTYPE svg PUBLIC "-//W3C//DTD SVG 1.1//EN"
  "http://www.w3.org/Graphics/SVG/1.1/DTD/svg11.dtd">
<svg xmlns:xlink="http://www.w3.org/1999/xlink" width="301.588125pt" height="171.558281pt" viewBox="0 0 301.588125 171.558281" xmlns="http://www.w3.org/2000/svg" version="1.1">
 <metadata>
  <rdf:RDF xmlns:dc="http://purl.org/dc/elements/1.1/" xmlns:cc="http://creativecommons.org/ns#" xmlns:rdf="http://www.w3.org/1999/02/22-rdf-syntax-ns#">
   <cc:Work>
    <dc:type rdf:resource="http://purl.org/dc/dcmitype/StillImage"/>
    <dc:date>2026-07-16T16:30:56.193774</dc:date>
    <dc:format>image/svg+xml</dc:format>
    <dc:creator>
     <cc:Agent>
      <dc:title>Matplotlib v3.7.2, https://matplotlib.org/</dc:title>
     </cc:Agent>
    </dc:creator>
   </cc:Work>
  </rdf:RDF>
 </metadata>
 <defs>
  <style type="text/css">*{stroke-linejoin: round; stroke-linecap: butt}</style>
 </defs>
 <g id="figure_1">
  <g id="patch_1">
   <path d="M 0 171.558281 
L 301.588125 171.558281 
L 301.588125 0 
L 0 0 
z
" style="fill: #ffffff"/>
  </g>
  <g id="axes_1">
   <g id="patch_2">
    <path d="M 29.403125 146.16 
L 245.403125 146.16 
L 245.403125 2.16 
L 29.403125 2.16 
z
" style="fill: #ffffff"/>
   </g>
   <g id="matplotlib.axis_1">
    <g id="xtick_1">
     <g id="line2d_1">
      <defs>
       <path id="maad33b3934" d="M 0 0 
L 0 -2.5 
" style="stroke: #000000; stroke-width: 0.6"/>
      </defs>
      <g>
       <use xlink:href="#maad33b3934" x="29.403125" y="146.16" style="stroke: #000000; stroke-width: 0.6"/>
      </g>
     </g>
     <g id="line2d_2">
      <defs>
       <path id="m09aa52434e" d="M 0 0 
L 0 2.5 
" style="stroke: #000000; stroke-width: 0.6"/>
      </defs>
      <g>
       <use xlink:href="#m09aa52434e" x="29.403125" y="2.16" style="stroke: #000000; stroke-width: 0.6"/>
      </g>
     </g>
     <g id="text_1">
      <!-- 0 -->
      <g transform="translate(27.17875 155.39875) scale(0.08 -0.08)">
       <defs>
        <path id="Helvetica-30" d="M 1731 4475 
Q 2600 4475 2988 3759 
Q 3288 3206 3288 2244 
Q 3288 1331 3016 734 
Q 2622 -122 1728 -122 
Q 922 -122 528 578 
Q 200 1163 200 2147 
Q 200 2909 397 3456 
Q 766 4475 1731 4475 
z
M 1725 391 
Q 2163 391 2422 778 
Q 2681 1166 2681 2222 
Q 2681 2984 2493 3476 
Q 2306 3969 1766 3969 
Q 1269 3969 1039 3501 
Q 809 3034 809 2125 
Q 809 1441 956 1025 
Q 1181 391 1725 391 
z
" transform="scale(0.015625)"/>
       </defs>
       <use xlink:href="#Helvetica-30"/>
      </g>
     </g>
    </g>
    <g id="xtick_2">
     <g id="line2d_3">
      <g>
       <use xlink:href="#maad33b3934" x="65.403125" y="146.16" style="stroke: #000000; stroke-width: 0.6"/>
      </g>
     </g>
     <g id="line2d_4">
      <g>
       <use xlink:href="#m09aa52434e" x="65.403125" y="2.16" style="stroke: #000000; stroke-width: 0.6"/>
      </g>
     </g>
     <g id="text_2">
      <!-- 2 -->
      <g transform="translate(63.17875 155.39875) scale(0.08 -0.08)">
       <defs>
        <path id="Helvetica-32" d="M 200 0 
Q 231 578 439 1006 
Q 647 1434 1250 1784 
L 1850 2131 
Q 2253 2366 2416 2531 
Q 2672 2791 2672 3125 
Q 2672 3516 2437 3745 
Q 2203 3975 1813 3975 
Q 1234 3975 1013 3538 
Q 894 3303 881 2888 
L 309 2888 
Q 319 3472 525 3841 
Q 891 4491 1816 4491 
Q 2584 4491 2939 4075 
Q 3294 3659 3294 3150 
Q 3294 2613 2916 2231 
Q 2697 2009 2131 1694 
L 1703 1456 
Q 1397 1288 1222 1134 
Q 909 863 828 531 
L 3272 531 
L 3272 0 
L 200 0 
z
" transform="scale(0.015625)"/>
       </defs>
       <use xlink:href="#Helvetica-32"/>
      </g>
     </g>
    </g>
    <g id="xtick_3">
     <g id="line2d_5">
      <g>
       <use xlink:href="#maad33b3934" x="101.403125" y="146.16" style="stroke: #000000; stroke-width: 0.6"/>
      </g>
     </g>
     <g id="line2d_6">
      <g>
       <use xlink:href="#m09aa52434e" x="101.403125" y="2.16" style="stroke: #000000; stroke-width: 0.6"/>
      </g>
     </g>
     <g id="text_3">
      <!-- 4 -->
      <g transform="translate(99.17875 155.39875) scale(0.08 -0.08)">
       <defs>
        <path id="Helvetica-34" d="M 2116 1584 
L 2116 3613 
L 681 1584 
L 2116 1584 
z
M 2125 0 
L 2125 1094 
L 163 1094 
L 163 1644 
L 2213 4488 
L 2688 4488 
L 2688 1584 
L 3347 1584 
L 3347 1094 
L 2688 1094 
L 2688 0 
L 2125 0 
z
" transform="scale(0.015625)"/>
       </defs>
       <use xlink:href="#Helvetica-34"/>
      </g>
     </g>
    </g>
    <g id="xtick_4">
     <g id="line2d_7">
      <g>
       <use xlink:href="#maad33b3934" x="137.403125" y="146.16" style="stroke: #000000; stroke-width: 0.6"/>
      </g>
     </g>
     <g id="line2d_8">
      <g>
       <use xlink:href="#m09aa52434e" x="137.403125" y="2.16" style="stroke: #000000; stroke-width: 0.6"/>
      </g>
     </g>
     <g id="text_4">
      <!-- 6 -->
      <g transform="translate(135.17875 155.39875) scale(0.08 -0.08)">
       <defs>
        <path id="Helvetica-36" d="M 1872 4494 
Q 2622 4494 2917 4105 
Q 3213 3716 3213 3303 
L 2656 3303 
Q 2606 3569 2497 3719 
Q 2294 4000 1881 4000 
Q 1409 4000 1131 3564 
Q 853 3128 822 2316 
Q 1016 2600 1309 2741 
Q 1578 2866 1909 2866 
Q 2472 2866 2890 2506 
Q 3309 2147 3309 1434 
Q 3309 825 2912 354 
Q 2516 -116 1781 -116 
Q 1153 -116 697 361 
Q 241 838 241 1966 
Q 241 2800 444 3381 
Q 834 4494 1872 4494 
z
M 1831 384 
Q 2275 384 2495 682 
Q 2716 981 2716 1388 
Q 2716 1731 2519 2042 
Q 2322 2353 1803 2353 
Q 1441 2353 1167 2112 
Q 894 1872 894 1388 
Q 894 963 1142 673 
Q 1391 384 1831 384 
z
" transform="scale(0.015625)"/>
       </defs>
       <use xlink:href="#Helvetica-36"/>
      </g>
     </g>
    </g>
    <g id="xtick_5">
     <g id="line2d_9">
      <g>
       <use xlink:href="#maad33b3934" x="173.403125" y="146.16" style="stroke: #000000; stroke-width: 0.6"/>
      </g>
     </g>
     <g id="line2d_10">
      <g>
       <use xlink:href="#m09aa52434e" x="173.403125" y="2.16" style="stroke: #000000; stroke-width: 0.6"/>
      </g>
     </g>
     <g id="text_5">
      <!-- 8 -->
      <g transform="translate(171.17875 155.39875) scale(0.08 -0.08)">
       <defs>
        <path id="Helvetica-38" d="M 1741 2600 
Q 2113 2600 2322 2808 
Q 2531 3016 2531 3303 
Q 2531 3553 2331 3762 
Q 2131 3972 1722 3972 
Q 1316 3972 1134 3762 
Q 953 3553 953 3272 
Q 953 2956 1187 2778 
Q 1422 2600 1741 2600 
z
M 1775 384 
Q 2166 384 2423 595 
Q 2681 806 2681 1225 
Q 2681 1659 2415 1884 
Q 2150 2109 1734 2109 
Q 1331 2109 1076 1879 
Q 822 1650 822 1244 
Q 822 894 1055 639 
Q 1288 384 1775 384 
z
M 975 2384 
Q 741 2484 609 2619 
Q 363 2869 363 3269 
Q 363 3769 725 4128 
Q 1088 4488 1753 4488 
Q 2397 4488 2762 4148 
Q 3128 3809 3128 3356 
Q 3128 2938 2916 2678 
Q 2797 2531 2547 2391 
Q 2825 2263 2984 2097 
Q 3281 1784 3281 1284 
Q 3281 694 2884 283 
Q 2488 -128 1763 -128 
Q 1109 -128 657 226 
Q 206 581 206 1256 
Q 206 1653 400 1942 
Q 594 2231 975 2384 
z
" transform="scale(0.015625)"/>
       </defs>
       <use xlink:href="#Helvetica-38"/>
      </g>
     </g>
    </g>
    <g id="xtick_6">
     <g id="line2d_11">
      <g>
       <use xlink:href="#maad33b3934" x="209.403125" y="146.16" style="stroke: #000000; stroke-width: 0.6"/>
      </g>
     </g>
     <g id="line2d_12">
      <g>
       <use xlink:href="#m09aa52434e" x="209.403125" y="2.16" style="stroke: #000000; stroke-width: 0.6"/>
      </g>
     </g>
     <g id="text_6">
      <!-- 10 -->
      <g transform="translate(204.954375 155.39875) scale(0.08 -0.08)">
       <defs>
        <path id="Helvetica-31" d="M 613 3169 
L 613 3600 
Q 1222 3659 1462 3798 
Q 1703 3938 1822 4456 
L 2266 4456 
L 2266 0 
L 1666 0 
L 1666 3169 
L 613 3169 
z
" transform="scale(0.015625)"/>
       </defs>
       <use xlink:href="#Helvetica-31"/>
       <use xlink:href="#Helvetica-30" x="55.615234"/>
      </g>
     </g>
    </g>
    <g id="xtick_7">
     <g id="line2d_13">
      <g>
       <use xlink:href="#maad33b3934" x="245.403125" y="146.16" style="stroke: #000000; stroke-width: 0.6"/>
      </g>
     </g>
     <g id="line2d_14">
      <g>
       <use xlink:href="#m09aa52434e" x="245.403125" y="2.16" style="stroke: #000000; stroke-width: 0.6"/>
      </g>
     </g>
     <g id="text_7">
      <!-- 12 -->
      <g transform="translate(240.954375 155.39875) scale(0.08 -0.08)">
       <use xlink:href="#Helvetica-31"/>
       <use xlink:href="#Helvetica-32" x="55.615234"/>
      </g>
     </g>
    </g>
    <g id="xtick_8">
     <g id="line2d_15">
      <defs>
       <path id="m39fac5809c" d="M 0 0 
L 0 -1.5 
" style="stroke: #000000; stroke-width: 0.3"/>
      </defs>
      <g>
       <use xlink:href="#m39fac5809c" x="38.403125" y="146.16" style="stroke: #000000; stroke-width: 0.3"/>
      </g>
     </g>
     <g id="line2d_16">
      <defs>
       <path id="m54ad5b6e1f" d="M 0 0 
L 0 1.5 
" style="stroke: #000000; stroke-width: 0.3"/>
      </defs>
      <g>
       <use xlink:href="#m54ad5b6e1f" x="38.403125" y="2.16" style="stroke: #000000; stroke-width: 0.3"/>
      </g>
     </g>
    </g>
    <g id="xtick_9">
     <g id="line2d_17">
      <g>
       <use xlink:href="#m39fac5809c" x="47.403125" y="146.16" style="stroke: #000000; stroke-width: 0.3"/>
      </g>
     </g>
     <g id="line2d_18">
      <g>
       <use xlink:href="#m54ad5b6e1f" x="47.403125" y="2.16" style="stroke: #000000; stroke-width: 0.3"/>
      </g>
     </g>
    </g>
    <g id="xtick_10">
     <g id="line2d_19">
      <g>
       <use xlink:href="#m39fac5809c" x="56.403125" y="146.16" style="stroke: #000000; stroke-width: 0.3"/>
      </g>
     </g>
     <g id="line2d_20">
      <g>
       <use xlink:href="#m54ad5b6e1f" x="56.403125" y="2.16" style="stroke: #000000; stroke-width: 0.3"/>
      </g>
     </g>
    </g>
    <g id="xtick_11">
     <g id="line2d_21">
      <g>
       <use xlink:href="#m39fac5809c" x="74.403125" y="146.16" style="stroke: #000000; stroke-width: 0.3"/>
      </g>
     </g>
     <g id="line2d_22">
      <g>
       <use xlink:href="#m54ad5b6e1f" x="74.403125" y="2.16" style="stroke: #000000; stroke-width: 0.3"/>
      </g>
     </g>
    </g>
    <g id="xtick_12">
     <g id="line2d_23">
      <g>
       <use xlink:href="#m39fac5809c" x="83.403125" y="146.16" style="stroke: #000000; stroke-width: 0.3"/>
      </g>
     </g>
     <g id="line2d_24">
      <g>
       <use xlink:href="#m54ad5b6e1f" x="83.403125" y="2.16" style="stroke: #000000; stroke-width: 0.3"/>
      </g>
     </g>
    </g>
    <g id="xtick_13">
     <g id="line2d_25">
      <g>
       <use xlink:href="#m39fac5809c" x="92.403125" y="146.16" style="stroke: #000000; stroke-width: 0.3"/>
      </g>
     </g>
     <g id="line2d_26">
      <g>
       <use xlink:href="#m54ad5b6e1f" x="92.403125" y="2.16" style="stroke: #000000; stroke-width: 0.3"/>
      </g>
     </g>
    </g>
    <g id="xtick_14">
     <g id="line2d_27">
      <g>
       <use xlink:href="#m39fac5809c" x="110.403125" y="146.16" style="stroke: #000000; stroke-width: 0.3"/>
      </g>
     </g>
     <g id="line2d_28">
      <g>
       <use xlink:href="#m54ad5b6e1f" x="110.403125" y="2.16" style="stroke: #000000; stroke-width: 0.3"/>
      </g>
     </g>
    </g>
    <g id="xtick_15">
     <g id="line2d_29">
      <g>
       <use xlink:href="#m39fac5809c" x="119.403125" y="146.16" style="stroke: #000000; stroke-width: 0.3"/>
      </g>
     </g>
     <g id="line2d_30">
      <g>
       <use xlink:href="#m54ad5b6e1f" x="119.403125" y="2.16" style="stroke: #000000; stroke-width: 0.3"/>
      </g>
     </g>
    </g>
    <g id="xtick_16">
     <g id="line2d_31">
      <g>
       <use xlink:href="#m39fac5809c" x="128.403125" y="146.16" style="stroke: #000000; stroke-width: 0.3"/>
      </g>
     </g>
     <g id="line2d_32">
      <g>
       <use xlink:href="#m54ad5b6e1f" x="128.403125" y="2.16" style="stroke: #000000; stroke-width: 0.3"/>
      </g>
     </g>
    </g>
    <g id="xtick_17">
     <g id="line2d_33">
      <g>
       <use xlink:href="#m39fac5809c" x="146.403125" y="146.16" style="stroke: #000000; stroke-width: 0.3"/>
      </g>
     </g>
     <g id="line2d_34">
      <g>
       <use xlink:href="#m54ad5b6e1f" x="146.403125" y="2.16" style="stroke: #000000; stroke-width: 0.3"/>
      </g>
     </g>
    </g>
    <g id="xtick_18">
     <g id="line2d_35">
      <g>
       <use xlink:href="#m39fac5809c" x="155.403125" y="146.16" style="stroke: #000000; stroke-width: 0.3"/>
      </g>
     </g>
     <g id="line2d_36">
      <g>
       <use xlink:href="#m54ad5b6e1f" x="155.403125" y="2.16" style="stroke: #000000; stroke-width: 0.3"/>
      </g>
     </g>
    </g>
    <g id="xtick_19">
     <g id="line2d_37">
      <g>
       <use xlink:href="#m39fac5809c" x="164.403125" y="146.16" style="stroke: #000000; stroke-width: 0.3"/>
      </g>
     </g>
     <g id="line2d_38">
      <g>
       <use xlink:href="#m54ad5b6e1f" x="164.403125" y="2.16" style="stroke: #000000; stroke-width: 0.3"/>
      </g>
     </g>
    </g>
    <g id="xtick_20">
     <g id="line2d_39">
      <g>
       <use xlink:href="#m39fac5809c" x="182.403125" y="146.16" style="stroke: #000000; stroke-width: 0.3"/>
      </g>
     </g>
     <g id="line2d_40">
      <g>
       <use xlink:href="#m54ad5b6e1f" x="182.403125" y="2.16" style="stroke: #000000; stroke-width: 0.3"/>
      </g>
     </g>
    </g>
    <g id="xtick_21">
     <g id="line2d_41">
      <g>
       <use xlink:href="#m39fac5809c" x="191.403125" y="146.16" style="stroke: #000000; stroke-width: 0.3"/>
      </g>
     </g>
     <g id="line2d_42">
      <g>
       <use xlink:href="#m54ad5b6e1f" x="191.403125" y="2.16" style="stroke: #000000; stroke-width: 0.3"/>
      </g>
     </g>
    </g>
    <g id="xtick_22">
     <g id="line2d_43">
      <g>
       <use xlink:href="#m39fac5809c" x="200.403125" y="146.16" style="stroke: #000000; stroke-width: 0.3"/>
      </g>
     </g>
     <g id="line2d_44">
      <g>
       <use xlink:href="#m54ad5b6e1f" x="200.403125" y="2.16" style="stroke: #000000; stroke-width: 0.3"/>
      </g>
     </g>
    </g>
    <g id="xtick_23">
     <g id="line2d_45">
      <g>
       <use xlink:href="#m39fac5809c" x="218.403125" y="146.16" style="stroke: #000000; stroke-width: 0.3"/>
      </g>
     </g>
     <g id="line2d_46">
      <g>
       <use xlink:href="#m54ad5b6e1f" x="218.403125" y="2.16" style="stroke: #000000; stroke-width: 0.3"/>
      </g>
     </g>
    </g>
    <g id="xtick_24">
     <g id="line2d_47">
      <g>
       <use xlink:href="#m39fac5809c" x="227.403125" y="146.16" style="stroke: #000000; stroke-width: 0.3"/>
      </g>
     </g>
     <g id="line2d_48">
      <g>
       <use xlink:href="#m54ad5b6e1f" x="227.403125" y="2.16" style="stroke: #000000; stroke-width: 0.3"/>
      </g>
     </g>
    </g>
    <g id="xtick_25">
     <g id="line2d_49">
      <g>
       <use xlink:href="#m39fac5809c" x="236.403125" y="146.16" style="stroke: #000000; stroke-width: 0.3"/>
      </g>
     </g>
     <g id="line2d_50">
      <g>
       <use xlink:href="#m54ad5b6e1f" x="236.403125" y="2.16" style="stroke: #000000; stroke-width: 0.3"/>
      </g>
     </g>
    </g>
    <g id="text_8">
     <!-- Time [s] -->
     <g style="fill: #111111" transform="translate(121.403516 167.522344) scale(0.09 -0.09)">
      <defs>
       <path id="Helvetica-54" d="M 3828 4591 
L 3828 4044 
L 2281 4044 
L 2281 0 
L 1650 0 
L 1650 4044 
L 103 4044 
L 103 4591 
L 3828 4591 
z
" transform="scale(0.015625)"/>
       <path id="Helvetica-69" d="M 413 3331 
L 984 3331 
L 984 0 
L 413 0 
L 413 3331 
z
M 413 4591 
L 984 4591 
L 984 3953 
L 413 3953 
L 413 4591 
z
" transform="scale(0.015625)"/>
       <path id="Helvetica-6d" d="M 413 3347 
L 969 3347 
L 969 2872 
Q 1169 3119 1331 3231 
Q 1609 3422 1963 3422 
Q 2363 3422 2606 3225 
Q 2744 3113 2856 2894 
Q 3044 3163 3297 3292 
Q 3550 3422 3866 3422 
Q 4541 3422 4784 2934 
Q 4916 2672 4916 2228 
L 4916 0 
L 4331 0 
L 4331 2325 
Q 4331 2659 4164 2784 
Q 3997 2909 3756 2909 
Q 3425 2909 3186 2687 
Q 2947 2466 2947 1947 
L 2947 0 
L 2375 0 
L 2375 2184 
Q 2375 2525 2294 2681 
Q 2166 2916 1816 2916 
Q 1497 2916 1236 2669 
Q 975 2422 975 1775 
L 975 0 
L 413 0 
L 413 3347 
z
" transform="scale(0.015625)"/>
       <path id="Helvetica-65" d="M 1806 3422 
Q 2163 3422 2497 3255 
Q 2831 3088 3006 2822 
Q 3175 2569 3231 2231 
Q 3281 2000 3281 1494 
L 828 1494 
Q 844 984 1069 676 
Q 1294 369 1766 369 
Q 2206 369 2469 659 
Q 2619 828 2681 1050 
L 3234 1050 
Q 3213 866 3089 639 
Q 2966 413 2813 269 
Q 2556 19 2178 -69 
Q 1975 -119 1719 -119 
Q 1094 -119 659 336 
Q 225 791 225 1609 
Q 225 2416 662 2919 
Q 1100 3422 1806 3422 
z
M 2703 1941 
Q 2669 2306 2544 2525 
Q 2313 2931 1772 2931 
Q 1384 2931 1121 2651 
Q 859 2372 844 1941 
L 2703 1941 
z
M 1753 3428 
L 1753 3428 
z
" transform="scale(0.015625)"/>
       <path id="Helvetica-20" transform="scale(0.015625)"/>
       <path id="Helvetica-5b" d="M 400 4622 
L 1600 4622 
L 1600 4163 
L 931 4163 
L 931 -800 
L 1600 -800 
L 1600 -1259 
L 400 -1259 
L 400 4622 
z
" transform="scale(0.015625)"/>
       <path id="Helvetica-73" d="M 747 1050 
Q 772 769 888 619 
Q 1100 347 1625 347 
Q 1938 347 2175 483 
Q 2413 619 2413 903 
Q 2413 1119 2222 1231 
Q 2100 1300 1741 1391 
L 1294 1503 
Q 866 1609 663 1741 
Q 300 1969 300 2372 
Q 300 2847 642 3140 
Q 984 3434 1563 3434 
Q 2319 3434 2653 2991 
Q 2863 2709 2856 2384 
L 2325 2384 
Q 2309 2575 2191 2731 
Q 1997 2953 1519 2953 
Q 1200 2953 1036 2831 
Q 872 2709 872 2509 
Q 872 2291 1088 2159 
Q 1213 2081 1456 2022 
L 1828 1931 
Q 2434 1784 2641 1647 
Q 2969 1431 2969 969 
Q 2969 522 2630 197 
Q 2291 -128 1597 -128 
Q 850 -128 539 211 
Q 228 550 206 1050 
L 747 1050 
z
M 1578 3428 
L 1578 3428 
z
" transform="scale(0.015625)"/>
       <path id="Helvetica-5d" d="M 147 -800 
L 813 -800 
L 813 4163 
L 147 4163 
L 147 4622 
L 1347 4622 
L 1347 -1259 
L 147 -1259 
L 147 -800 
z
" transform="scale(0.015625)"/>
      </defs>
      <use xlink:href="#Helvetica-54"/>
      <use xlink:href="#Helvetica-69" x="61.083984"/>
      <use xlink:href="#Helvetica-6d" x="83.300781"/>
      <use xlink:href="#Helvetica-65" x="166.601562"/>
      <use xlink:href="#Helvetica-20" x="222.216797"/>
      <use xlink:href="#Helvetica-5b" x="250"/>
      <use xlink:href="#Helvetica-73" x="277.783203"/>
      <use xlink:href="#Helvetica-5d" x="327.783203"/>
     </g>
    </g>
   </g>
   <g id="matplotlib.axis_2">
    <g id="ytick_1">
     <g id="line2d_51">
      <defs>
       <path id="m2445ab49f6" d="M 0 0 
L 2.5 0 
" style="stroke: #000000; stroke-width: 0.6"/>
      </defs>
      <g>
       <use xlink:href="#m2445ab49f6" x="29.403125" y="146.16" style="stroke: #000000; stroke-width: 0.6"/>
      </g>
     </g>
     <g id="line2d_52">
      <defs>
       <path id="m133217bcbb" d="M 0 0 
L -2.5 0 
" style="stroke: #000000; stroke-width: 0.6"/>
      </defs>
      <g>
       <use xlink:href="#m133217bcbb" x="245.403125" y="146.16" style="stroke: #000000; stroke-width: 0.6"/>
      </g>
     </g>
     <g id="text_9">
      <!-- 0.0 -->
      <g transform="translate(14.783125 149.029375) scale(0.08 -0.08)">
       <defs>
        <path id="Helvetica-2e" d="M 547 681 
L 1200 681 
L 1200 0 
L 547 0 
L 547 681 
z
" transform="scale(0.015625)"/>
       </defs>
       <use xlink:href="#Helvetica-30"/>
       <use xlink:href="#Helvetica-2e" x="55.615234"/>
       <use xlink:href="#Helvetica-30" x="83.398438"/>
      </g>
     </g>
    </g>
    <g id="ytick_2">
     <g id="line2d_53">
      <g>
       <use xlink:href="#m2445ab49f6" x="29.403125" y="115.844211" style="stroke: #000000; stroke-width: 0.6"/>
      </g>
     </g>
     <g id="line2d_54">
      <g>
       <use xlink:href="#m133217bcbb" x="245.403125" y="115.844211" style="stroke: #000000; stroke-width: 0.6"/>
      </g>
     </g>
     <g id="text_10">
      <!-- 0.2 -->
      <g transform="translate(14.783125 118.713586) scale(0.08 -0.08)">
       <use xlink:href="#Helvetica-30"/>
       <use xlink:href="#Helvetica-2e" x="55.615234"/>
       <use xlink:href="#Helvetica-32" x="83.398438"/>
      </g>
     </g>
    </g>
    <g id="ytick_3">
     <g id="line2d_55">
      <g>
       <use xlink:href="#m2445ab49f6" x="29.403125" y="85.528421" style="stroke: #000000; stroke-width: 0.6"/>
      </g>
     </g>
     <g id="line2d_56">
      <g>
       <use xlink:href="#m133217bcbb" x="245.403125" y="85.528421" style="stroke: #000000; stroke-width: 0.6"/>
      </g>
     </g>
     <g id="text_11">
      <!-- 0.4 -->
      <g transform="translate(14.783125 88.397796) scale(0.08 -0.08)">
       <use xlink:href="#Helvetica-30"/>
       <use xlink:href="#Helvetica-2e" x="55.615234"/>
       <use xlink:href="#Helvetica-34" x="83.398438"/>
      </g>
     </g>
    </g>
    <g id="ytick_4">
     <g id="line2d_57">
      <g>
       <use xlink:href="#m2445ab49f6" x="29.403125" y="55.212632" style="stroke: #000000; stroke-width: 0.6"/>
      </g>
     </g>
     <g id="line2d_58">
      <g>
       <use xlink:href="#m133217bcbb" x="245.403125" y="55.212632" style="stroke: #000000; stroke-width: 0.6"/>
      </g>
     </g>
     <g id="text_12">
      <!-- 0.6 -->
      <g transform="translate(14.783125 58.082007) scale(0.08 -0.08)">
       <use xlink:href="#Helvetica-30"/>
       <use xlink:href="#Helvetica-2e" x="55.615234"/>
       <use xlink:href="#Helvetica-36" x="83.398438"/>
      </g>
     </g>
    </g>
    <g id="ytick_5">
     <g id="line2d_59">
      <g>
       <use xlink:href="#m2445ab49f6" x="29.403125" y="24.896842" style="stroke: #000000; stroke-width: 0.6"/>
      </g>
     </g>
     <g id="line2d_60">
      <g>
       <use xlink:href="#m133217bcbb" x="245.403125" y="24.896842" style="stroke: #000000; stroke-width: 0.6"/>
      </g>
     </g>
     <g id="text_13">
      <!-- 0.8 -->
      <g transform="translate(14.783125 27.766217) scale(0.08 -0.08)">
       <use xlink:href="#Helvetica-30"/>
       <use xlink:href="#Helvetica-2e" x="55.615234"/>
       <use xlink:href="#Helvetica-38" x="83.398438"/>
      </g>
     </g>
    </g>
    <g id="ytick_6">
     <g id="line2d_61">
      <defs>
       <path id="m15ae67f2e9" d="M 0 0 
L 1.5 0 
" style="stroke: #000000; stroke-width: 0.3"/>
      </defs>
      <g>
       <use xlink:href="#m15ae67f2e9" x="29.403125" y="138.581053" style="stroke: #000000; stroke-width: 0.3"/>
      </g>
     </g>
     <g id="line2d_62">
      <defs>
       <path id="mcf41f62004" d="M 0 0 
L -1.5 0 
" style="stroke: #000000; stroke-width: 0.3"/>
      </defs>
      <g>
       <use xlink:href="#mcf41f62004" x="245.403125" y="138.581053" style="stroke: #000000; stroke-width: 0.3"/>
      </g>
     </g>
    </g>
    <g id="ytick_7">
     <g id="line2d_63">
      <g>
       <use xlink:href="#m15ae67f2e9" x="29.403125" y="131.002105" style="stroke: #000000; stroke-width: 0.3"/>
      </g>
     </g>
     <g id="line2d_64">
      <g>
       <use xlink:href="#mcf41f62004" x="245.403125" y="131.002105" style="stroke: #000000; stroke-width: 0.3"/>
      </g>
     </g>
    </g>
    <g id="ytick_8">
     <g id="line2d_65">
      <g>
       <use xlink:href="#m15ae67f2e9" x="29.403125" y="123.423158" style="stroke: #000000; stroke-width: 0.3"/>
      </g>
     </g>
     <g id="line2d_66">
      <g>
       <use xlink:href="#mcf41f62004" x="245.403125" y="123.423158" style="stroke: #000000; stroke-width: 0.3"/>
      </g>
     </g>
    </g>
    <g id="ytick_9">
     <g id="line2d_67">
      <g>
       <use xlink:href="#m15ae67f2e9" x="29.403125" y="108.265263" style="stroke: #000000; stroke-width: 0.3"/>
      </g>
     </g>
     <g id="line2d_68">
      <g>
       <use xlink:href="#mcf41f62004" x="245.403125" y="108.265263" style="stroke: #000000; stroke-width: 0.3"/>
      </g>
     </g>
    </g>
    <g id="ytick_10">
     <g id="line2d_69">
      <g>
       <use xlink:href="#m15ae67f2e9" x="29.403125" y="100.686316" style="stroke: #000000; stroke-width: 0.3"/>
      </g>
     </g>
     <g id="line2d_70">
      <g>
       <use xlink:href="#mcf41f62004" x="245.403125" y="100.686316" style="stroke: #000000; stroke-width: 0.3"/>
      </g>
     </g>
    </g>
    <g id="ytick_11">
     <g id="line2d_71">
      <g>
       <use xlink:href="#m15ae67f2e9" x="29.403125" y="93.107368" style="stroke: #000000; stroke-width: 0.3"/>
      </g>
     </g>
     <g id="line2d_72">
      <g>
       <use xlink:href="#mcf41f62004" x="245.403125" y="93.107368" style="stroke: #000000; stroke-width: 0.3"/>
      </g>
     </g>
    </g>
    <g id="ytick_12">
     <g id="line2d_73">
      <g>
       <use xlink:href="#m15ae67f2e9" x="29.403125" y="77.949474" style="stroke: #000000; stroke-width: 0.3"/>
      </g>
     </g>
     <g id="line2d_74">
      <g>
       <use xlink:href="#mcf41f62004" x="245.403125" y="77.949474" style="stroke: #000000; stroke-width: 0.3"/>
      </g>
     </g>
    </g>
    <g id="ytick_13">
     <g id="line2d_75">
      <g>
       <use xlink:href="#m15ae67f2e9" x="29.403125" y="70.370526" style="stroke: #000000; stroke-width: 0.3"/>
      </g>
     </g>
     <g id="line2d_76">
      <g>
       <use xlink:href="#mcf41f62004" x="245.403125" y="70.370526" style="stroke: #000000; stroke-width: 0.3"/>
      </g>
     </g>
    </g>
    <g id="ytick_14">
     <g id="line2d_77">
      <g>
       <use xlink:href="#m15ae67f2e9" x="29.403125" y="62.791579" style="stroke: #000000; stroke-width: 0.3"/>
      </g>
     </g>
     <g id="line2d_78">
      <g>
       <use xlink:href="#mcf41f62004" x="245.403125" y="62.791579" style="stroke: #000000; stroke-width: 0.3"/>
      </g>
     </g>
    </g>
    <g id="ytick_15">
     <g id="line2d_79">
      <g>
       <use xlink:href="#m15ae67f2e9" x="29.403125" y="47.633684" style="stroke: #000000; stroke-width: 0.3"/>
      </g>
     </g>
     <g id="line2d_80">
      <g>
       <use xlink:href="#mcf41f62004" x="245.403125" y="47.633684" style="stroke: #000000; stroke-width: 0.3"/>
      </g>
     </g>
    </g>
    <g id="ytick_16">
     <g id="line2d_81">
      <g>
       <use xlink:href="#m15ae67f2e9" x="29.403125" y="40.054737" style="stroke: #000000; stroke-width: 0.3"/>
      </g>
     </g>
     <g id="line2d_82">
      <g>
       <use xlink:href="#mcf41f62004" x="245.403125" y="40.054737" style="stroke: #000000; stroke-width: 0.3"/>
      </g>
     </g>
    </g>
    <g id="ytick_17">
     <g id="line2d_83">
      <g>
       <use xlink:href="#m15ae67f2e9" x="29.403125" y="32.475789" style="stroke: #000000; stroke-width: 0.3"/>
      </g>
     </g>
     <g id="line2d_84">
      <g>
       <use xlink:href="#mcf41f62004" x="245.403125" y="32.475789" style="stroke: #000000; stroke-width: 0.3"/>
      </g>
     </g>
    </g>
    <g id="ytick_18">
     <g id="line2d_85">
      <g>
       <use xlink:href="#m15ae67f2e9" x="29.403125" y="17.317895" style="stroke: #000000; stroke-width: 0.3"/>
      </g>
     </g>
     <g id="line2d_86">
      <g>
       <use xlink:href="#mcf41f62004" x="245.403125" y="17.317895" style="stroke: #000000; stroke-width: 0.3"/>
      </g>
     </g>
    </g>
    <g id="ytick_19">
     <g id="line2d_87">
      <g>
       <use xlink:href="#m15ae67f2e9" x="29.403125" y="9.738947" style="stroke: #000000; stroke-width: 0.3"/>
      </g>
     </g>
     <g id="line2d_88">
      <g>
       <use xlink:href="#mcf41f62004" x="245.403125" y="9.738947" style="stroke: #000000; stroke-width: 0.3"/>
      </g>
     </g>
    </g>
    <g id="text_14">
     <!-- Normalized Signal [a.u.] -->
     <g style="fill: #111111" transform="translate(8.791875 121.930312) rotate(-90) scale(0.09 -0.09)">
      <defs>
       <path id="Helvetica-4e" d="M 488 4591 
L 1222 4591 
L 3541 872 
L 3541 4591 
L 4131 4591 
L 4131 0 
L 3434 0 
L 1081 3716 
L 1081 0 
L 488 0 
L 488 4591 
z
M 2269 4591 
L 2269 4591 
z
" transform="scale(0.015625)"/>
       <path id="Helvetica-6f" d="M 1741 363 
Q 2300 363 2508 786 
Q 2716 1209 2716 1728 
Q 2716 2197 2566 2491 
Q 2328 2953 1747 2953 
Q 1231 2953 997 2559 
Q 763 2166 763 1609 
Q 763 1075 997 719 
Q 1231 363 1741 363 
z
M 1763 3444 
Q 2409 3444 2856 3012 
Q 3303 2581 3303 1744 
Q 3303 934 2909 406 
Q 2516 -122 1688 -122 
Q 997 -122 590 345 
Q 184 813 184 1600 
Q 184 2444 612 2944 
Q 1041 3444 1763 3444 
z
M 1744 3428 
L 1744 3428 
z
" transform="scale(0.015625)"/>
       <path id="Helvetica-72" d="M 428 3347 
L 963 3347 
L 963 2769 
Q 1028 2938 1284 3180 
Q 1541 3422 1875 3422 
Q 1891 3422 1928 3419 
Q 1966 3416 2056 3406 
L 2056 2813 
Q 2006 2822 1964 2825 
Q 1922 2828 1872 2828 
Q 1447 2828 1219 2554 
Q 991 2281 991 1925 
L 991 0 
L 428 0 
L 428 3347 
z
" transform="scale(0.015625)"/>
       <path id="Helvetica-61" d="M 844 891 
Q 844 647 1022 506 
Q 1200 366 1444 366 
Q 1741 366 2019 503 
Q 2488 731 2488 1250 
L 2488 1703 
Q 2384 1638 2221 1594 
Q 2059 1550 1903 1531 
L 1563 1488 
Q 1256 1447 1103 1359 
Q 844 1213 844 891 
z
M 2206 2028 
Q 2400 2053 2466 2191 
Q 2503 2266 2503 2406 
Q 2503 2694 2298 2823 
Q 2094 2953 1713 2953 
Q 1272 2953 1088 2716 
Q 984 2584 953 2325 
L 428 2325 
Q 444 2944 830 3186 
Q 1216 3428 1725 3428 
Q 2316 3428 2684 3203 
Q 3050 2978 3050 2503 
L 3050 575 
Q 3050 488 3086 434 
Q 3122 381 3238 381 
Q 3275 381 3322 386 
Q 3369 391 3422 400 
L 3422 -16 
Q 3291 -53 3222 -62 
Q 3153 -72 3034 -72 
Q 2744 -72 2613 134 
Q 2544 244 2516 444 
Q 2344 219 2022 53 
Q 1700 -113 1313 -113 
Q 847 -113 551 170 
Q 256 453 256 878 
Q 256 1344 547 1600 
Q 838 1856 1309 1916 
L 2206 2028 
z
M 1741 3428 
L 1741 3428 
z
" transform="scale(0.015625)"/>
       <path id="Helvetica-6c" d="M 428 4591 
L 991 4591 
L 991 0 
L 428 0 
L 428 4591 
z
" transform="scale(0.015625)"/>
       <path id="Helvetica-7a" d="M 163 444 
L 2147 2844 
L 309 2844 
L 309 3347 
L 2903 3347 
L 2903 2888 
L 931 503 
L 2963 503 
L 2963 0 
L 163 0 
L 163 444 
z
M 1609 3428 
L 1609 3428 
z
" transform="scale(0.015625)"/>
       <path id="Helvetica-64" d="M 769 1634 
Q 769 1097 997 734 
Q 1225 372 1728 372 
Q 2119 372 2370 708 
Q 2622 1044 2622 1672 
Q 2622 2306 2362 2611 
Q 2103 2916 1722 2916 
Q 1297 2916 1033 2591 
Q 769 2266 769 1634 
z
M 1616 3406 
Q 2000 3406 2259 3244 
Q 2409 3150 2600 2916 
L 2600 4606 
L 3141 4606 
L 3141 0 
L 2634 0 
L 2634 466 
Q 2438 156 2169 18 
Q 1900 -119 1553 -119 
Q 994 -119 584 351 
Q 175 822 175 1603 
Q 175 2334 548 2870 
Q 922 3406 1616 3406 
z
" transform="scale(0.015625)"/>
       <path id="Helvetica-53" d="M 894 1481 
Q 916 1091 1078 847 
Q 1388 391 2169 391 
Q 2519 391 2806 491 
Q 3363 684 3363 1184 
Q 3363 1559 3128 1719 
Q 2891 1875 2384 1991 
L 1763 2131 
Q 1153 2269 900 2434 
Q 463 2722 463 3294 
Q 463 3913 891 4309 
Q 1319 4706 2103 4706 
Q 2825 4706 3329 4357 
Q 3834 4009 3834 3244 
L 3250 3244 
Q 3203 3613 3050 3809 
Q 2766 4169 2084 4169 
Q 1534 4169 1293 3937 
Q 1053 3706 1053 3400 
Q 1053 3063 1334 2906 
Q 1519 2806 2169 2656 
L 2813 2509 
Q 3278 2403 3531 2219 
Q 3969 1897 3969 1284 
Q 3969 522 3414 194 
Q 2859 -134 2125 -134 
Q 1269 -134 784 303 
Q 300 738 309 1481 
L 894 1481 
z
M 2150 4716 
L 2150 4716 
z
" transform="scale(0.015625)"/>
       <path id="Helvetica-67" d="M 1594 3406 
Q 1988 3406 2281 3213 
Q 2441 3103 2606 2894 
L 2606 3316 
L 3125 3316 
L 3125 272 
Q 3125 -366 2938 -734 
Q 2588 -1416 1616 -1416 
Q 1075 -1416 706 -1173 
Q 338 -931 294 -416 
L 866 -416 
Q 906 -641 1028 -763 
Q 1219 -950 1628 -950 
Q 2275 -950 2475 -494 
Q 2594 -225 2584 466 
Q 2416 209 2178 84 
Q 1941 -41 1550 -41 
Q 1006 -41 598 345 
Q 191 731 191 1622 
Q 191 2463 602 2934 
Q 1013 3406 1594 3406 
z
M 2606 1688 
Q 2606 2309 2350 2609 
Q 2094 2909 1697 2909 
Q 1103 2909 884 2353 
Q 769 2056 769 1575 
Q 769 1009 998 714 
Q 1228 419 1616 419 
Q 2222 419 2469 966 
Q 2606 1275 2606 1688 
z
M 1659 3428 
L 1659 3428 
z
" transform="scale(0.015625)"/>
       <path id="Helvetica-6e" d="M 413 3347 
L 947 3347 
L 947 2872 
Q 1184 3166 1450 3294 
Q 1716 3422 2041 3422 
Q 2753 3422 3003 2925 
Q 3141 2653 3141 2147 
L 3141 0 
L 2569 0 
L 2569 2109 
Q 2569 2416 2478 2603 
Q 2328 2916 1934 2916 
Q 1734 2916 1606 2875 
Q 1375 2806 1200 2600 
Q 1059 2434 1017 2257 
Q 975 2081 975 1753 
L 975 0 
L 413 0 
L 413 3347 
z
M 1734 3428 
L 1734 3428 
z
" transform="scale(0.015625)"/>
       <path id="Helvetica-75" d="M 975 3347 
L 975 1125 
Q 975 869 1056 706 
Q 1206 406 1616 406 
Q 2203 406 2416 931 
Q 2531 1213 2531 1703 
L 2531 3347 
L 3094 3347 
L 3094 0 
L 2563 0 
L 2569 494 
Q 2459 303 2297 172 
Q 1975 -91 1516 -91 
Q 800 -91 541 388 
Q 400 644 400 1072 
L 400 3347 
L 975 3347 
z
M 1747 3428 
L 1747 3428 
z
" transform="scale(0.015625)"/>
      </defs>
      <use xlink:href="#Helvetica-4e"/>
      <use xlink:href="#Helvetica-6f" x="72.216797"/>
      <use xlink:href="#Helvetica-72" x="127.832031"/>
      <use xlink:href="#Helvetica-6d" x="161.132812"/>
      <use xlink:href="#Helvetica-61" x="244.433594"/>
      <use xlink:href="#Helvetica-6c" x="300.048828"/>
      <use xlink:href="#Helvetica-69" x="322.265625"/>
      <use xlink:href="#Helvetica-7a" x="344.482422"/>
      <use xlink:href="#Helvetica-65" x="394.482422"/>
      <use xlink:href="#Helvetica-64" x="450.097656"/>
      <use xlink:href="#Helvetica-20" x="505.712891"/>
      <use xlink:href="#Helvetica-53" x="533.496094"/>
      <use xlink:href="#Helvetica-69" x="600.195312"/>
      <use xlink:href="#Helvetica-67" x="622.412109"/>
      <use xlink:href="#Helvetica-6e" x="678.027344"/>
      <use xlink:href="#Helvetica-61" x="733.642578"/>
      <use xlink:href="#Helvetica-6c" x="789.257812"/>
      <use xlink:href="#Helvetica-20" x="811.474609"/>
      <use xlink:href="#Helvetica-5b" x="839.257812"/>
      <use xlink:href="#Helvetica-61" x="867.041016"/>
      <use xlink:href="#Helvetica-2e" x="922.65625"/>
      <use xlink:href="#Helvetica-75" x="950.439453"/>
      <use xlink:href="#Helvetica-2e" x="1006.054688"/>
      <use xlink:href="#Helvetica-5d" x="1033.837891"/>
     </g>
    </g>
   </g>
   <g id="line2d_89">
    <path d="M 29.403125 94.623158 
L 36.174285 96.241545 
L 40.914097 97.6046 
L 44.976793 98.98916 
L 49.039489 100.595228 
L 53.102185 102.421774 
L 57.841996 104.804231 
L 63.258924 107.786181 
L 74.09278 114.103757 
L 80.86394 117.904384 
L 85.603752 120.341283 
L 90.343564 122.524676 
L 94.40626 124.16467 
L 98.468956 125.578374 
L 102.531652 126.765914 
L 106.594348 127.738093 
L 111.334159 128.627208 
L 116.073971 129.294674 
L 122.168015 129.912476 
L 131.647639 130.598968 
L 143.158611 131.481806 
L 150.606887 132.280276 
L 158.055163 133.300523 
L 166.85767 134.736802 
L 189.202498 138.49782 
L 196.650774 139.469738 
L 204.09905 140.215804 
L 211.547326 140.741354 
L 220.349833 141.131143 
L 233.215037 141.447898 
L 245.403125 141.723229 
L 245.403125 141.723229 
" clip-path="url(#pdbf48a7006)" style="fill: none; stroke: #d3dbee; stroke-linecap: square"/>
   </g>
   <g id="line2d_90">
    <path d="M 29.403125 83.204504 
L 34.142937 84.460859 
L 38.205633 85.787613 
L 41.591213 87.104193 
L 44.976793 88.624876 
L 49.039489 90.716378 
L 53.102185 93.075711 
L 57.841996 96.108224 
L 63.93604 100.30178 
L 76.124128 108.767555 
L 80.86394 111.766616 
L 84.926636 114.09967 
L 88.989332 116.173059 
L 93.052028 117.963955 
L 96.437608 119.234599 
L 100.500304 120.498224 
L 104.563 121.494432 
L 108.625696 122.252597 
L 113.365507 122.887679 
L 118.782435 123.37185 
L 127.584943 123.887955 
L 137.064567 124.505327 
L 143.158611 125.116615 
L 149.252655 125.958661 
L 155.346699 127.033552 
L 162.117859 128.454455 
L 173.62883 131.14583 
L 183.108454 133.272892 
L 189.879614 134.569108 
L 195.973658 135.511356 
L 202.067702 136.220124 
L 208.161746 136.702763 
L 214.932906 137.011946 
L 223.735413 137.166243 
L 245.403125 137.39033 
L 245.403125 137.39033 
" clip-path="url(#pdbf48a7006)" style="fill: none; stroke: #bcc7e5; stroke-linecap: square"/>
   </g>
   <g id="line2d_91">
    <path d="M 29.403125 71.344202 
L 32.788705 72.448739 
L 36.174285 73.787504 
L 39.559865 75.379689 
L 42.945445 77.229465 
L 46.331025 79.326885 
L 50.393721 82.138032 
L 55.133533 85.746454 
L 61.227576 90.714029 
L 71.384316 99.042338 
L 76.124128 102.629064 
L 80.186824 105.428616 
L 83.572404 107.527538 
L 86.957984 109.391712 
L 90.343564 111.010062 
L 93.729144 112.380567 
L 97.114724 113.509856 
L 100.500304 114.412462 
L 103.885884 115.109805 
L 107.94858 115.714089 
L 112.688391 116.168127 
L 118.782435 116.501359 
L 132.324755 117.162503 
L 137.741683 117.691211 
L 142.481495 118.357013 
L 147.221307 119.22532 
L 152.638235 120.45275 
L 158.732279 122.080025 
L 167.534786 124.695762 
L 177.691526 127.680644 
L 183.78557 129.24851 
L 189.202498 130.41719 
L 194.619426 131.339382 
L 200.036354 132.006269 
L 205.453282 132.432123 
L 211.547326 132.666517 
L 218.995601 132.703955 
L 240.663313 132.629439 
L 245.403125 132.792223 
L 245.403125 132.792223 
" clip-path="url(#pdbf48a7006)" style="fill: none; stroke: #9dacd8; stroke-linecap: square"/>
   </g>
   <g id="line2d_92">
    <path d="M 29.403125 59.304979 
L 32.111589 60.484293 
L 34.820053 61.861835 
L 38.205633 63.866596 
L 41.591213 66.176449 
L 44.976793 68.767054 
L 49.039489 72.192573 
L 53.779301 76.51621 
L 71.384316 92.948266 
L 75.447012 96.234556 
L 78.832592 98.701764 
L 82.218172 100.892915 
L 85.603752 102.791924 
L 88.989332 104.393736 
L 92.374912 105.703966 
L 95.760492 106.738133 
L 99.146072 107.52052 
L 102.531652 108.082751 
L 106.594348 108.51965 
L 111.334159 108.792501 
L 120.813783 109.028842 
L 126.907827 109.291027 
L 131.647639 109.695877 
L 136.387451 110.337102 
L 140.450147 111.095488 
L 145.189959 112.224678 
L 149.929771 113.594821 
L 155.346699 115.398372 
L 163.472091 118.379886 
L 173.62883 122.069543 
L 179.045758 123.803073 
L 183.78557 125.102998 
L 188.525382 126.165039 
L 193.265194 126.974149 
L 198.005006 127.533635 
L 202.744818 127.863908 
L 208.161746 128.006151 
L 214.932906 127.934971 
L 234.569269 127.545591 
L 240.663313 127.728112 
L 245.403125 128.031741 
L 245.403125 128.031741 
" clip-path="url(#pdbf48a7006)" style="fill: none; stroke: #7f91c9; stroke-linecap: square"/>
   </g>
   <g id="line2d_93">
    <path d="M 29.403125 47.404635 
L 32.111589 49.032966 
L 34.820053 50.899026 
L 37.528517 52.994116 
L 40.914097 55.910343 
L 44.299677 59.114703 
L 48.362373 63.259092 
L 54.456417 69.841237 
L 63.258924 79.331693 
L 67.32162 83.401645 
L 70.7072 86.53612 
L 74.09278 89.386746 
L 77.47836 91.919082 
L 80.186824 93.700803 
L 82.895288 95.259682 
L 85.603752 96.595976 
L 88.312216 97.715031 
L 91.02068 98.626943 
L 94.40626 99.49784 
L 97.79184 100.104065 
L 101.17742 100.489091 
L 105.240116 100.727837 
L 111.334159 100.815777 
L 120.813783 100.933771 
L 125.553595 101.237001 
L 129.616291 101.714244 
L 133.678987 102.424583 
L 137.741683 103.379922 
L 141.804379 104.574485 
L 145.867075 105.986249 
L 150.606887 107.859186 
L 157.378047 110.8092 
L 168.889018 115.878096 
L 174.305946 117.98705 
L 179.045758 119.571018 
L 183.108454 120.6979 
L 187.17115 121.595517 
L 191.233846 122.261601 
L 195.296542 122.706037 
L 200.036354 122.972895 
L 204.776166 123.016074 
L 210.87021 122.843275 
L 228.475225 122.176122 
L 233.892153 122.259467 
L 239.309081 122.576789 
L 244.726009 123.140632 
L 245.403125 123.227926 
L 245.403125 123.227926 
" clip-path="url(#pdbf48a7006)" style="fill: none; stroke: #6574b5; stroke-linecap: square"/>
   </g>
   <g id="line2d_94">
    <path d="M 29.403125 35.982556 
L 32.111589 38.180852 
L 34.820053 40.636803 
L 38.205633 44.034181 
L 41.591213 47.740208 
L 46.331025 53.30959 
L 61.904692 72.038578 
L 65.290272 75.662851 
L 68.675852 78.978514 
L 72.061432 81.940242 
L 74.769896 84.033624 
L 77.47836 85.871773 
L 80.186824 87.452178 
L 82.895288 88.778403 
L 85.603752 89.859768 
L 88.312216 90.710892 
L 91.02068 91.351118 
L 94.40626 91.890777 
L 97.79184 92.19036 
L 101.854536 92.315114 
L 107.94858 92.24245 
L 115.396855 92.181313 
L 119.459551 92.343456 
L 123.522247 92.731292 
L 126.907827 93.260053 
L 130.293407 93.991997 
L 133.678987 94.931461 
L 137.064567 96.072688 
L 141.127263 97.686596 
L 145.867075 99.852265 
L 151.284003 102.589198 
L 166.180554 110.266738 
L 170.920366 112.368777 
L 174.983062 113.926529 
L 179.045758 115.224378 
L 182.431338 116.094423 
L 185.816918 116.769799 
L 189.879614 117.331312 
L 193.94231 117.642557 
L 198.005006 117.737672 
L 202.744818 117.634367 
L 209.515978 117.242104 
L 220.349833 116.585508 
L 225.766761 116.485213 
L 230.506573 116.610106 
L 235.246385 116.964353 
L 239.986197 117.555165 
L 244.726009 118.368668 
L 245.403125 118.501356 
L 245.403125 118.501356 
" clip-path="url(#pdbf48a7006)" style="fill: none; stroke: #4b59a1; stroke-linecap: square"/>
   </g>
   <g id="line2d_95">
    <path d="M 29.403125 25.36203 
L 32.111589 28.219284 
L 35.497169 32.140862 
L 39.559865 37.26084 
L 44.976793 44.538176 
L 54.456417 57.390543 
L 58.519112 62.517776 
L 61.904692 66.464072 
L 65.290272 70.045128 
L 67.998736 72.614266 
L 70.7072 74.901951 
L 73.415664 76.898613 
L 76.124128 78.601838 
L 78.832592 80.016186 
L 81.541056 81.152825 
L 84.24952 82.028999 
L 86.957984 82.66737 
L 89.666448 83.095228 
L 93.052028 83.381589 
L 97.114724 83.449331 
L 102.531652 83.271986 
L 110.657043 83.007641 
L 114.719739 83.105409 
L 118.105319 83.385653 
L 121.490899 83.882401 
L 124.876479 84.616729 
L 128.262059 85.597492 
L 131.647639 86.82153 
L 135.033219 88.274354 
L 139.095915 90.284323 
L 143.835727 92.920665 
L 150.606887 97.005448 
L 159.409395 102.301238 
L 164.149207 104.886399 
L 168.211902 106.84851 
L 171.597482 108.266754 
L 174.983062 109.467117 
L 178.368642 110.439268 
L 181.754222 111.181707 
L 185.139802 111.701528 
L 188.525382 112.013851 
L 192.588078 112.146532 
L 196.650774 112.062465 
L 202.067702 111.715618 
L 217.64137 110.526923 
L 222.381181 110.463284 
L 226.443877 110.609513 
L 230.506573 110.962011 
L 234.569269 111.525977 
L 238.631965 112.292782 
L 243.371777 113.414513 
L 245.403125 113.958227 
L 245.403125 113.958227 
" clip-path="url(#pdbf48a7006)" style="fill: none; stroke: #3a4390; stroke-linecap: square"/>
   </g>
   <g id="line2d_96">
    <path d="M 29.403125 15.812163 
L 32.788705 20.295359 
L 36.851401 26.086796 
L 42.945445 35.237898 
L 49.716605 45.354485 
L 53.779301 51.056606 
L 57.16488 55.454046 
L 60.55046 59.449448 
L 63.258924 62.317556 
L 65.967388 64.871381 
L 68.675852 67.098707 
L 71.384316 68.995464 
L 74.09278 70.565553 
L 76.801244 71.820481 
L 79.509708 72.778793 
L 82.218172 73.465353 
L 84.926636 73.910472 
L 87.6351 74.14893 
L 91.02068 74.214804 
L 95.083376 74.058484 
L 107.271464 73.380532 
L 110.657043 73.455041 
L 114.042623 73.749229 
L 117.428203 74.299767 
L 120.136667 74.940632 
L 122.845131 75.765712 
L 126.230711 77.054834 
L 129.616291 78.617655 
L 133.001871 80.428932 
L 137.064567 82.87916 
L 141.804379 86.018601 
L 158.055163 97.075377 
L 162.117859 99.436279 
L 165.503438 101.168826 
L 168.889018 102.658384 
L 172.274598 103.887718 
L 175.660178 104.849896 
L 179.045758 105.548238 
L 182.431338 105.995852 
L 185.816918 106.214788 
L 189.879614 106.218094 
L 193.94231 105.998568 
L 200.036354 105.410528 
L 210.193094 104.372961 
L 214.932906 104.120048 
L 218.995601 104.112363 
L 223.058297 104.334607 
L 227.120993 104.804959 
L 231.183689 105.524974 
L 235.246385 106.480108 
L 239.986197 107.851903 
L 245.403125 109.674965 
L 245.403125 109.674965 
" clip-path="url(#pdbf48a7006)" style="fill: none; stroke: #2a2f80; stroke-linecap: square"/>
   </g>
   <g id="patch_3">
    <path d="M 29.403125 146.16 
L 29.403125 2.16 
" style="fill: none; stroke: #000000; stroke-width: 0.6; stroke-linejoin: miter; stroke-linecap: square"/>
   </g>
   <g id="patch_4">
    <path d="M 245.403125 146.16 
L 245.403125 2.16 
" style="fill: none; stroke: #000000; stroke-width: 0.6; stroke-linejoin: miter; stroke-linecap: square"/>
   </g>
   <g id="patch_5">
    <path d="M 29.403125 146.16 
L 245.403125 146.16 
" style="fill: none; stroke: #000000; stroke-width: 0.6; stroke-linejoin: miter; stroke-linecap: square"/>
   </g>
   <g id="patch_6">
    <path d="M 29.403125 2.16 
L 245.403125 2.16 
" style="fill: none; stroke: #000000; stroke-width: 0.6; stroke-linejoin: miter; stroke-linecap: square"/>
   </g>
   <g id="legend_1">
    <g id="patch_7">
     <path d="M 251.323125 120.985 
L 297.828125 120.985 
Q 299.428125 120.985 299.428125 119.385 
L 299.428125 28.935 
Q 299.428125 27.335 297.828125 27.335 
L 251.323125 27.335 
Q 249.723125 27.335 249.723125 28.935 
L 249.723125 119.385 
Q 249.723125 120.985 251.323125 120.985 
z
" style="fill: #ffffff; stroke: #000000; stroke-width: 0.6; stroke-linejoin: miter"/>
    </g>
    <g id="line2d_97">
     <path d="M 252.923125 33.47375 
L 260.923125 33.47375 
L 268.923125 33.47375 
" style="fill: none; stroke: #d3dbee; stroke-linecap: square"/>
    </g>
    <g id="text_15">
     <!-- 80 K -->
     <g transform="translate(275.323125 36.27375) scale(0.08 -0.08)">
      <defs>
       <path id="Helvetica-4b" d="M 488 4591 
L 1094 4591 
L 1094 2353 
L 3331 4591 
L 4191 4591 
L 2281 2741 
L 4244 0 
L 3434 0 
L 1828 2303 
L 1094 1600 
L 1094 0 
L 488 0 
L 488 4591 
z
" transform="scale(0.015625)"/>
      </defs>
      <use xlink:href="#Helvetica-38"/>
      <use xlink:href="#Helvetica-30" x="55.615234"/>
      <use xlink:href="#Helvetica-20" x="111.230469"/>
      <use xlink:href="#Helvetica-4b" x="139.013672"/>
     </g>
    </g>
    <g id="line2d_98">
     <path d="M 252.923125 44.88 
L 260.923125 44.88 
L 268.923125 44.88 
" style="fill: none; stroke: #bcc7e5; stroke-linecap: square"/>
    </g>
    <g id="text_16">
     <!-- 100 K -->
     <g transform="translate(275.323125 47.68) scale(0.08 -0.08)">
      <use xlink:href="#Helvetica-31"/>
      <use xlink:href="#Helvetica-30" x="55.615234"/>
      <use xlink:href="#Helvetica-30" x="111.230469"/>
      <use xlink:href="#Helvetica-20" x="166.845703"/>
      <use xlink:href="#Helvetica-4b" x="194.628906"/>
     </g>
    </g>
    <g id="line2d_99">
     <path d="M 252.923125 56.28625 
L 260.923125 56.28625 
L 268.923125 56.28625 
" style="fill: none; stroke: #9dacd8; stroke-linecap: square"/>
    </g>
    <g id="text_17">
     <!-- 120 K -->
     <g transform="translate(275.323125 59.08625) scale(0.08 -0.08)">
      <use xlink:href="#Helvetica-31"/>
      <use xlink:href="#Helvetica-32" x="55.615234"/>
      <use xlink:href="#Helvetica-30" x="111.230469"/>
      <use xlink:href="#Helvetica-20" x="166.845703"/>
      <use xlink:href="#Helvetica-4b" x="194.628906"/>
     </g>
    </g>
    <g id="line2d_100">
     <path d="M 252.923125 67.6925 
L 260.923125 67.6925 
L 268.923125 67.6925 
" style="fill: none; stroke: #7f91c9; stroke-linecap: square"/>
    </g>
    <g id="text_18">
     <!-- 140 K -->
     <g transform="translate(275.323125 70.4925) scale(0.08 -0.08)">
      <use xlink:href="#Helvetica-31"/>
      <use xlink:href="#Helvetica-34" x="55.615234"/>
      <use xlink:href="#Helvetica-30" x="111.230469"/>
      <use xlink:href="#Helvetica-20" x="166.845703"/>
      <use xlink:href="#Helvetica-4b" x="194.628906"/>
     </g>
    </g>
    <g id="line2d_101">
     <path d="M 252.923125 79.09875 
L 260.923125 79.09875 
L 268.923125 79.09875 
" style="fill: none; stroke: #6574b5; stroke-linecap: square"/>
    </g>
    <g id="text_19">
     <!-- 160 K -->
     <g transform="translate(275.323125 81.89875) scale(0.08 -0.08)">
      <use xlink:href="#Helvetica-31"/>
      <use xlink:href="#Helvetica-36" x="55.615234"/>
      <use xlink:href="#Helvetica-30" x="111.230469"/>
      <use xlink:href="#Helvetica-20" x="166.845703"/>
      <use xlink:href="#Helvetica-4b" x="194.628906"/>
     </g>
    </g>
    <g id="line2d_102">
     <path d="M 252.923125 90.505 
L 260.923125 90.505 
L 268.923125 90.505 
" style="fill: none; stroke: #4b59a1; stroke-linecap: square"/>
    </g>
    <g id="text_20">
     <!-- 180 K -->
     <g transform="translate(275.323125 93.305) scale(0.08 -0.08)">
      <use xlink:href="#Helvetica-31"/>
      <use xlink:href="#Helvetica-38" x="55.615234"/>
      <use xlink:href="#Helvetica-30" x="111.230469"/>
      <use xlink:href="#Helvetica-20" x="166.845703"/>
      <use xlink:href="#Helvetica-4b" x="194.628906"/>
     </g>
    </g>
    <g id="line2d_103">
     <path d="M 252.923125 101.91125 
L 260.923125 101.91125 
L 268.923125 101.91125 
" style="fill: none; stroke: #3a4390; stroke-linecap: square"/>
    </g>
    <g id="text_21">
     <!-- 200 K -->
     <g transform="translate(275.323125 104.71125) scale(0.08 -0.08)">
      <use xlink:href="#Helvetica-32"/>
      <use xlink:href="#Helvetica-30" x="55.615234"/>
      <use xlink:href="#Helvetica-30" x="111.230469"/>
      <use xlink:href="#Helvetica-20" x="166.845703"/>
      <use xlink:href="#Helvetica-4b" x="194.628906"/>
     </g>
    </g>
    <g id="line2d_104">
     <path d="M 252.923125 113.3175 
L 260.923125 113.3175 
L 268.923125 113.3175 
" style="fill: none; stroke: #2a2f80; stroke-linecap: square"/>
    </g>
    <g id="text_22">
     <!-- 220 K -->
     <g transform="translate(275.323125 116.1175) scale(0.08 -0.08)">
      <use xlink:href="#Helvetica-32"/>
      <use xlink:href="#Helvetica-32" x="55.615234"/>
      <use xlink:href="#Helvetica-30" x="111.230469"/>
      <use xlink:href="#Helvetica-20" x="166.845703"/>
      <use xlink:href="#Helvetica-4b" x="194.628906"/>
     </g>
    </g>
   </g>
  </g>
 </g>
 <defs>
  <clipPath id="pdbf48a7006">
   <rect x="29.403125" y="2.16" width="216" height="144"/>
  </clipPath>
 </defs>
</svg>
