<?xml version="1.0" encoding="utf-8" standalone="no"?>
<!DOCTYPE svg PUBLIC "-//W3C//DTD SVG 1.1//EN"
  "http://www.w3.org/Graphics/SVG/1.1/DTD/svg11.dtd">
<svg xmlns:xlink="http://www.w3.org/1999/xlink" width="247.329687pt" height="171.667187pt" viewBox="0 0 247.329687 171.667187" xmlns="http://www.w3.org/2000/svg" version="1.1">
 <metadata>
  <rdf:RDF xmlns:dc="http://purl.org/dc/elements/1.1/" xmlns:cc="http://creativecommons.org/ns#" xmlns:rdf="http://www.w3.org/1999/02/22-rdf-syntax-ns#">
   <cc:Work>
    <dc:type rdf:resource="http://purl.org/dc/dcmitype/StillImage"/>
    <dc:date>2026-07-03T14:40:19.637721</dc:date>
    <dc:format>image/svg+xml</dc:format>
    <dc:creator>
     <cc:Agent>
      <dc:title>Matplotlib v3.7.2, https://matplotlib.org/</dc:title>
     </cc:Agent>
    </dc:creator>
   </cc:Work>
  </rdf:RDF>
 </metadata>
 <defs>
  <style type="text/css">*{stroke-linejoin: round; stroke-linecap: butt}</style>
 </defs>
 <g id="figure_1">
  <g id="patch_1">
   <path d="M 0 171.667187 
L 247.329687 171.667187 
L 247.329687 0 
L 0 0 
z
" style="fill: #ffffff"/>
  </g>
  <g id="axes_1">
   <g id="patch_2">
    <path d="M 29.169688 146.16 
L 245.169687 146.16 
L 245.169687 2.16 
L 29.169688 2.16 
z
" style="fill: #ffffff"/>
   </g>
   <g id="patch_3">
    <path d="M 29.169687 146.16 
L 29.169687 146.16 
L 35.169687 146.16 
L 35.169687 146.16 
L 41.169687 146.16 
L 41.169687 146.16 
L 47.169687 146.16 
L 47.169687 146.16 
L 53.169687 146.16 
L 53.169687 144.767148 
L 59.169687 144.767148 
L 59.169687 146.16 
L 65.169687 146.16 
L 65.169687 140.588592 
L 71.169687 140.588592 
L 71.169687 133.624332 
L 77.169687 133.624332 
L 77.169687 129.445776 
L 83.169687 129.445776 
L 83.169687 121.088665 
L 89.169687 121.088665 
L 89.169687 96.017329 
L 95.169687 96.017329 
L 95.169687 96.017329 
L 101.169687 96.017329 
L 101.169687 51.446067 
L 107.169687 51.446067 
L 107.169687 34.731843 
L 113.169687 34.731843 
L 113.169687 24.981879 
L 119.169687 24.981879 
L 119.169687 26.374731 
L 125.169687 26.374731 
L 125.169687 2.696248 
L 131.169687 2.696248 
L 131.169687 6.874804 
L 137.169687 6.874804 
L 137.169687 47.267511 
L 143.169687 47.267511 
L 143.169687 62.588882 
L 149.169687 62.588882 
L 149.169687 94.624477 
L 155.169687 94.624477 
L 155.169687 101.588737 
L 161.169687 101.588737 
L 161.169687 107.160145 
L 167.169687 107.160145 
L 167.169687 128.052925 
L 173.169687 128.052925 
L 173.169687 135.017184 
L 179.169687 135.017184 
L 179.169687 137.802888 
L 185.169687 137.802888 
L 185.169687 141.981444 
L 191.169687 141.981444 
L 191.169687 144.767148 
L 197.169687 144.767148 
L 197.169687 146.16 
L 203.169687 146.16 
L 203.169687 146.16 
L 209.169687 146.16 
L 209.169687 146.16 
L 215.169687 146.16 
L 215.169687 146.16 
L 221.169687 146.16 
L 221.169687 146.16 
L 227.169687 146.16 
L 227.169687 146.16 
L 233.169687 146.16 
L 233.169687 146.16 
L 239.169687 146.16 
L 239.169687 146.16 
L 245.169687 146.16 
L 245.169687 146.16 
L 239.169687 146.16 
L 239.169687 146.16 
L 233.169687 146.16 
L 233.169687 146.16 
L 227.169687 146.16 
L 227.169687 146.16 
L 221.169687 146.16 
L 221.169687 146.16 
L 215.169687 146.16 
L 215.169687 146.16 
L 209.169687 146.16 
L 209.169687 146.16 
L 203.169687 146.16 
L 203.169687 146.16 
L 197.169687 146.16 
L 197.169687 146.16 
L 191.169687 146.16 
L 191.169687 146.16 
L 185.169687 146.16 
L 185.169687 146.16 
L 179.169687 146.16 
L 179.169687 146.16 
L 173.169687 146.16 
L 173.169687 146.16 
L 167.169687 146.16 
L 167.169687 146.16 
L 161.169687 146.16 
L 161.169687 146.16 
L 155.169687 146.16 
L 155.169687 146.16 
L 149.169687 146.16 
L 149.169687 146.16 
L 143.169687 146.16 
L 143.169687 146.16 
L 137.169687 146.16 
L 137.169687 146.16 
L 131.169687 146.16 
L 131.169687 146.16 
L 125.169687 146.16 
L 125.169687 146.16 
L 119.169687 146.16 
L 119.169687 146.16 
L 113.169687 146.16 
L 113.169687 146.16 
L 107.169687 146.16 
L 107.169687 146.16 
L 101.169687 146.16 
L 101.169687 146.16 
L 95.169687 146.16 
L 95.169687 146.16 
L 89.169687 146.16 
L 89.169687 146.16 
L 83.169687 146.16 
L 83.169687 146.16 
L 77.169687 146.16 
L 77.169687 146.16 
L 71.169687 146.16 
L 71.169687 146.16 
L 65.169687 146.16 
L 65.169687 146.16 
L 59.169687 146.16 
L 59.169687 146.16 
L 53.169687 146.16 
L 53.169687 146.16 
L 47.169687 146.16 
L 47.169687 146.16 
L 41.169687 146.16 
L 41.169687 146.16 
L 35.169687 146.16 
L 35.169687 146.16 
z
" clip-path="url(#p5edd544ce9)" style="fill: #2a2f80; opacity: 0.28"/>
   </g>
   <g id="patch_4">
    <path d="M 29.169687 146.16 
L 29.169687 144.768696 
L 35.169687 144.768696 
L 35.169687 146.16 
L 41.169687 146.16 
L 41.169687 144.768696 
L 47.169687 144.768696 
L 47.169687 146.16 
L 53.169687 146.16 
L 53.169687 141.986087 
L 59.169687 141.986087 
L 59.169687 143.377391 
L 65.169687 143.377391 
L 65.169687 143.377391 
L 71.169687 143.377391 
L 71.169687 139.203478 
L 77.169687 139.203478 
L 77.169687 137.812174 
L 83.169687 137.812174 
L 83.169687 130.855652 
L 89.169687 130.855652 
L 89.169687 118.333913 
L 95.169687 118.333913 
L 95.169687 100.246957 
L 101.169687 100.246957 
L 101.169687 105.812174 
L 107.169687 105.812174 
L 107.169687 64.073043 
L 113.169687 64.073043 
L 113.169687 73.812174 
L 119.169687 73.812174 
L 119.169687 57.116522 
L 125.169687 57.116522 
L 125.169687 48.768696 
L 131.169687 48.768696 
L 131.169687 27.89913 
L 137.169687 27.89913 
L 137.169687 40.42087 
L 143.169687 40.42087 
L 143.169687 40.42087 
L 149.169687 40.42087 
L 149.169687 66.855652 
L 155.169687 66.855652 
L 155.169687 72.42087 
L 161.169687 72.42087 
L 161.169687 69.638261 
L 167.169687 69.638261 
L 167.169687 97.464348 
L 173.169687 97.464348 
L 173.169687 101.638261 
L 179.169687 101.638261 
L 179.169687 93.290435 
L 185.169687 93.290435 
L 185.169687 122.507826 
L 191.169687 122.507826 
L 191.169687 135.029565 
L 197.169687 135.029565 
L 197.169687 140.594783 
L 203.169687 140.594783 
L 203.169687 144.768696 
L 209.169687 144.768696 
L 209.169687 141.986087 
L 215.169687 141.986087 
L 215.169687 144.768696 
L 221.169687 144.768696 
L 221.169687 144.768696 
L 227.169687 144.768696 
L 227.169687 146.16 
L 233.169687 146.16 
L 233.169687 146.16 
L 239.169687 146.16 
L 239.169687 146.16 
L 245.169687 146.16 
L 245.169687 146.16 
L 239.169687 146.16 
L 239.169687 146.16 
L 233.169687 146.16 
L 233.169687 146.16 
L 227.169687 146.16 
L 227.169687 146.16 
L 221.169687 146.16 
L 221.169687 146.16 
L 215.169687 146.16 
L 215.169687 146.16 
L 209.169687 146.16 
L 209.169687 146.16 
L 203.169687 146.16 
L 203.169687 146.16 
L 197.169687 146.16 
L 197.169687 146.16 
L 191.169687 146.16 
L 191.169687 146.16 
L 185.169687 146.16 
L 185.169687 146.16 
L 179.169687 146.16 
L 179.169687 146.16 
L 173.169687 146.16 
L 173.169687 146.16 
L 167.169687 146.16 
L 167.169687 146.16 
L 161.169687 146.16 
L 161.169687 146.16 
L 155.169687 146.16 
L 155.169687 146.16 
L 149.169687 146.16 
L 149.169687 146.16 
L 143.169687 146.16 
L 143.169687 146.16 
L 137.169687 146.16 
L 137.169687 146.16 
L 131.169687 146.16 
L 131.169687 146.16 
L 125.169687 146.16 
L 125.169687 146.16 
L 119.169687 146.16 
L 119.169687 146.16 
L 113.169687 146.16 
L 113.169687 146.16 
L 107.169687 146.16 
L 107.169687 146.16 
L 101.169687 146.16 
L 101.169687 146.16 
L 95.169687 146.16 
L 95.169687 146.16 
L 89.169687 146.16 
L 89.169687 146.16 
L 83.169687 146.16 
L 83.169687 146.16 
L 77.169687 146.16 
L 77.169687 146.16 
L 71.169687 146.16 
L 71.169687 146.16 
L 65.169687 146.16 
L 65.169687 146.16 
L 59.169687 146.16 
L 59.169687 146.16 
L 53.169687 146.16 
L 53.169687 146.16 
L 47.169687 146.16 
L 47.169687 146.16 
L 41.169687 146.16 
L 41.169687 146.16 
L 35.169687 146.16 
L 35.169687 146.16 
z
" clip-path="url(#p5edd544ce9)" style="fill: #808080; opacity: 0.28"/>
   </g>
   <g id="patch_5">
    <path d="M 29.169687 146.16 
L 29.169687 146.16 
L 35.169687 146.16 
L 35.169687 146.16 
L 41.169687 146.16 
L 41.169687 146.16 
L 47.169687 146.16 
L 47.169687 144.768696 
L 53.169687 144.768696 
L 53.169687 141.986087 
L 59.169687 141.986087 
L 59.169687 141.986087 
L 65.169687 141.986087 
L 65.169687 141.986087 
L 71.169687 141.986087 
L 71.169687 144.768696 
L 77.169687 144.768696 
L 77.169687 129.464348 
L 83.169687 129.464348 
L 83.169687 129.464348 
L 89.169687 129.464348 
L 89.169687 118.333913 
L 95.169687 118.333913 
L 95.169687 125.290435 
L 101.169687 125.290435 
L 101.169687 119.725217 
L 107.169687 119.725217 
L 107.169687 104.42087 
L 113.169687 104.42087 
L 113.169687 91.89913 
L 119.169687 91.89913 
L 119.169687 93.290435 
L 125.169687 93.290435 
L 125.169687 82.16 
L 131.169687 82.16 
L 131.169687 59.89913 
L 137.169687 59.89913 
L 137.169687 57.116522 
L 143.169687 57.116522 
L 143.169687 52.942609 
L 149.169687 52.942609 
L 149.169687 59.89913 
L 155.169687 59.89913 
L 155.169687 68.246957 
L 161.169687 68.246957 
L 161.169687 45.986087 
L 167.169687 45.986087 
L 167.169687 64.073043 
L 173.169687 64.073043 
L 173.169687 71.029565 
L 179.169687 71.029565 
L 179.169687 82.16 
L 185.169687 82.16 
L 185.169687 93.290435 
L 191.169687 93.290435 
L 191.169687 119.725217 
L 197.169687 119.725217 
L 197.169687 118.333913 
L 203.169687 118.333913 
L 203.169687 135.029565 
L 209.169687 135.029565 
L 209.169687 133.638261 
L 215.169687 133.638261 
L 215.169687 129.464348 
L 221.169687 129.464348 
L 221.169687 140.594783 
L 227.169687 140.594783 
L 227.169687 143.377391 
L 233.169687 143.377391 
L 233.169687 141.986087 
L 239.169687 141.986087 
L 239.169687 144.768696 
L 245.169687 144.768696 
L 245.169687 146.16 
L 239.169687 146.16 
L 239.169687 146.16 
L 233.169687 146.16 
L 233.169687 146.16 
L 227.169687 146.16 
L 227.169687 146.16 
L 221.169687 146.16 
L 221.169687 146.16 
L 215.169687 146.16 
L 215.169687 146.16 
L 209.169687 146.16 
L 209.169687 146.16 
L 203.169687 146.16 
L 203.169687 146.16 
L 197.169687 146.16 
L 197.169687 146.16 
L 191.169687 146.16 
L 191.169687 146.16 
L 185.169687 146.16 
L 185.169687 146.16 
L 179.169687 146.16 
L 179.169687 146.16 
L 173.169687 146.16 
L 173.169687 146.16 
L 167.169687 146.16 
L 167.169687 146.16 
L 161.169687 146.16 
L 161.169687 146.16 
L 155.169687 146.16 
L 155.169687 146.16 
L 149.169687 146.16 
L 149.169687 146.16 
L 143.169687 146.16 
L 143.169687 146.16 
L 137.169687 146.16 
L 137.169687 146.16 
L 131.169687 146.16 
L 131.169687 146.16 
L 125.169687 146.16 
L 125.169687 146.16 
L 119.169687 146.16 
L 119.169687 146.16 
L 113.169687 146.16 
L 113.169687 146.16 
L 107.169687 146.16 
L 107.169687 146.16 
L 101.169687 146.16 
L 101.169687 146.16 
L 95.169687 146.16 
L 95.169687 146.16 
L 89.169687 146.16 
L 89.169687 146.16 
L 83.169687 146.16 
L 83.169687 146.16 
L 77.169687 146.16 
L 77.169687 146.16 
L 71.169687 146.16 
L 71.169687 146.16 
L 65.169687 146.16 
L 65.169687 146.16 
L 59.169687 146.16 
L 59.169687 146.16 
L 53.169687 146.16 
L 53.169687 146.16 
L 47.169687 146.16 
L 47.169687 146.16 
L 41.169687 146.16 
L 41.169687 146.16 
L 35.169687 146.16 
L 35.169687 146.16 
z
" clip-path="url(#p5edd544ce9)" style="opacity: 0.28"/>
   </g>
   <g id="patch_6">
    <path d="M 29.169687 146.16 
L 29.169687 146.16 
L 35.169687 146.16 
L 35.169687 146.16 
L 41.169687 146.16 
L 41.169687 144.759358 
L 47.169687 144.759358 
L 47.169687 146.16 
L 53.169687 146.16 
L 53.169687 140.557432 
L 59.169687 140.557432 
L 59.169687 137.756148 
L 65.169687 137.756148 
L 65.169687 143.358716 
L 71.169687 143.358716 
L 71.169687 137.756148 
L 77.169687 137.756148 
L 77.169687 140.557432 
L 83.169687 140.557432 
L 83.169687 132.15358 
L 89.169687 132.15358 
L 89.169687 129.352296 
L 95.169687 129.352296 
L 95.169687 129.352296 
L 101.169687 129.352296 
L 101.169687 118.147161 
L 107.169687 118.147161 
L 107.169687 125.150371 
L 113.169687 125.150371 
L 113.169687 99.938815 
L 119.169687 99.938815 
L 119.169687 105.541383 
L 125.169687 105.541383 
L 125.169687 90.134322 
L 131.169687 90.134322 
L 131.169687 67.72405 
L 137.169687 67.72405 
L 137.169687 78.929186 
L 143.169687 78.929186 
L 143.169687 70.525334 
L 149.169687 70.525334 
L 149.169687 70.525334 
L 155.169687 70.525334 
L 155.169687 73.326618 
L 161.169687 73.326618 
L 161.169687 50.916347 
L 167.169687 50.916347 
L 167.169687 69.124692 
L 173.169687 69.124692 
L 173.169687 71.925976 
L 179.169687 71.925976 
L 179.169687 73.326618 
L 185.169687 73.326618 
L 185.169687 69.124692 
L 191.169687 69.124692 
L 191.169687 94.336247 
L 197.169687 94.336247 
L 197.169687 112.544593 
L 203.169687 112.544593 
L 203.169687 118.147161 
L 209.169687 118.147161 
L 209.169687 120.948445 
L 215.169687 120.948445 
L 215.169687 125.150371 
L 221.169687 125.150371 
L 221.169687 129.352296 
L 227.169687 129.352296 
L 227.169687 130.752938 
L 233.169687 130.752938 
L 233.169687 139.15679 
L 239.169687 139.15679 
L 239.169687 130.752938 
L 245.169687 130.752938 
L 245.169687 146.16 
L 239.169687 146.16 
L 239.169687 146.16 
L 233.169687 146.16 
L 233.169687 146.16 
L 227.169687 146.16 
L 227.169687 146.16 
L 221.169687 146.16 
L 221.169687 146.16 
L 215.169687 146.16 
L 215.169687 146.16 
L 209.169687 146.16 
L 209.169687 146.16 
L 203.169687 146.16 
L 203.169687 146.16 
L 197.169687 146.16 
L 197.169687 146.16 
L 191.169687 146.16 
L 191.169687 146.16 
L 185.169687 146.16 
L 185.169687 146.16 
L 179.169687 146.16 
L 179.169687 146.16 
L 173.169687 146.16 
L 173.169687 146.16 
L 167.169687 146.16 
L 167.169687 146.16 
L 161.169687 146.16 
L 161.169687 146.16 
L 155.169687 146.16 
L 155.169687 146.16 
L 149.169687 146.16 
L 149.169687 146.16 
L 143.169687 146.16 
L 143.169687 146.16 
L 137.169687 146.16 
L 137.169687 146.16 
L 131.169687 146.16 
L 131.169687 146.16 
L 125.169687 146.16 
L 125.169687 146.16 
L 119.169687 146.16 
L 119.169687 146.16 
L 113.169687 146.16 
L 113.169687 146.16 
L 107.169687 146.16 
L 107.169687 146.16 
L 101.169687 146.16 
L 101.169687 146.16 
L 95.169687 146.16 
L 95.169687 146.16 
L 89.169687 146.16 
L 89.169687 146.16 
L 83.169687 146.16 
L 83.169687 146.16 
L 77.169687 146.16 
L 77.169687 146.16 
L 71.169687 146.16 
L 71.169687 146.16 
L 65.169687 146.16 
L 65.169687 146.16 
L 59.169687 146.16 
L 59.169687 146.16 
L 53.169687 146.16 
L 53.169687 146.16 
L 47.169687 146.16 
L 47.169687 146.16 
L 41.169687 146.16 
L 41.169687 146.16 
L 35.169687 146.16 
L 35.169687 146.16 
z
" clip-path="url(#p5edd544ce9)" style="fill: #bdbdbd; opacity: 0.28"/>
   </g>
   <g id="matplotlib.axis_1">
    <g id="xtick_1">
     <g id="line2d_1">
      <defs>
       <path id="mb8be7fcb0a" d="M 0 0 
L 0 -4 
" style="stroke: #000000; stroke-width: 0.6"/>
      </defs>
      <g>
       <use xlink:href="#mb8be7fcb0a" x="41.169687" y="146.16" style="stroke: #000000; stroke-width: 0.6"/>
      </g>
     </g>
     <g id="line2d_2">
      <defs>
       <path id="me17d94827d" d="M 0 0 
L 0 4 
" style="stroke: #000000; stroke-width: 0.6"/>
      </defs>
      <g>
       <use xlink:href="#me17d94827d" x="41.169687" y="2.16" style="stroke: #000000; stroke-width: 0.6"/>
      </g>
     </g>
     <g id="text_1">
      <!-- −4 -->
      <g transform="translate(36.609062 155.4575) scale(0.08 -0.08)">
       <defs>
        <path id="Arimo-2212" d="M 316 1900 
L 316 2356 
L 3425 2356 
L 3425 1900 
L 316 1900 
z
" transform="scale(0.015625)"/>
        <path id="Arimo-34" d="M 2753 997 
L 2753 0 
L 2222 0 
L 2222 997 
L 147 997 
L 147 1434 
L 2163 4403 
L 2753 4403 
L 2753 1441 
L 3372 1441 
L 3372 997 
L 2753 997 
z
M 2222 1441 
L 2222 3769 
Q 2150 3631 2101 3543 
Q 2053 3456 2013 3397 
L 1003 1903 
Q 916 1775 666 1441 
L 2222 1441 
z
" transform="scale(0.015625)"/>
       </defs>
       <use xlink:href="#Arimo-2212"/>
       <use xlink:href="#Arimo-34" x="58.398438"/>
      </g>
     </g>
    </g>
    <g id="xtick_2">
     <g id="line2d_3">
      <g>
       <use xlink:href="#mb8be7fcb0a" x="89.169687" y="146.16" style="stroke: #000000; stroke-width: 0.6"/>
      </g>
     </g>
     <g id="line2d_4">
      <g>
       <use xlink:href="#me17d94827d" x="89.169687" y="2.16" style="stroke: #000000; stroke-width: 0.6"/>
      </g>
     </g>
     <g id="text_2">
      <!-- −2 -->
      <g transform="translate(84.609062 155.4575) scale(0.08 -0.08)">
       <defs>
        <path id="Arimo-32" d="M 322 0 
L 322 397 
Q 481 763 711 1042 
Q 941 1322 1194 1548 
Q 1447 1775 1695 1969 
Q 1944 2163 2144 2356 
Q 2344 2550 2467 2762 
Q 2591 2975 2591 3244 
Q 2591 3606 2378 3806 
Q 2166 4006 1788 4006 
Q 1428 4006 1195 3811 
Q 963 3616 922 3263 
L 347 3316 
Q 409 3844 795 4156 
Q 1181 4469 1788 4469 
Q 2453 4469 2811 4155 
Q 3169 3841 3169 3263 
Q 3169 3006 3051 2753 
Q 2934 2500 2703 2247 
Q 2472 1994 1819 1463 
Q 1459 1169 1246 933 
Q 1034 697 941 478 
L 3238 478 
L 3238 0 
L 322 0 
z
" transform="scale(0.015625)"/>
       </defs>
       <use xlink:href="#Arimo-2212"/>
       <use xlink:href="#Arimo-32" x="58.398438"/>
      </g>
     </g>
    </g>
    <g id="xtick_3">
     <g id="line2d_5">
      <g>
       <use xlink:href="#mb8be7fcb0a" x="137.169687" y="146.16" style="stroke: #000000; stroke-width: 0.6"/>
      </g>
     </g>
     <g id="line2d_6">
      <g>
       <use xlink:href="#me17d94827d" x="137.169687" y="2.16" style="stroke: #000000; stroke-width: 0.6"/>
      </g>
     </g>
     <g id="text_3">
      <!-- 0 -->
      <g transform="translate(134.945312 155.4575) scale(0.08 -0.08)">
       <defs>
        <path id="Arimo-30" d="M 3309 2203 
Q 3309 1100 2920 518 
Q 2531 -63 1772 -63 
Q 1013 -63 631 515 
Q 250 1094 250 2203 
Q 250 3338 620 3903 
Q 991 4469 1791 4469 
Q 2569 4469 2939 3897 
Q 3309 3325 3309 2203 
z
M 2738 2203 
Q 2738 3156 2517 3584 
Q 2297 4013 1791 4013 
Q 1272 4013 1045 3591 
Q 819 3169 819 2203 
Q 819 1266 1048 831 
Q 1278 397 1778 397 
Q 2275 397 2506 840 
Q 2738 1284 2738 2203 
z
" transform="scale(0.015625)"/>
       </defs>
       <use xlink:href="#Arimo-30"/>
      </g>
     </g>
    </g>
    <g id="xtick_4">
     <g id="line2d_7">
      <g>
       <use xlink:href="#mb8be7fcb0a" x="185.169687" y="146.16" style="stroke: #000000; stroke-width: 0.6"/>
      </g>
     </g>
     <g id="line2d_8">
      <g>
       <use xlink:href="#me17d94827d" x="185.169687" y="2.16" style="stroke: #000000; stroke-width: 0.6"/>
      </g>
     </g>
     <g id="text_4">
      <!-- 2 -->
      <g transform="translate(182.945312 155.4575) scale(0.08 -0.08)">
       <use xlink:href="#Arimo-32"/>
      </g>
     </g>
    </g>
    <g id="xtick_5">
     <g id="line2d_9">
      <g>
       <use xlink:href="#mb8be7fcb0a" x="233.169687" y="146.16" style="stroke: #000000; stroke-width: 0.6"/>
      </g>
     </g>
     <g id="line2d_10">
      <g>
       <use xlink:href="#me17d94827d" x="233.169687" y="2.16" style="stroke: #000000; stroke-width: 0.6"/>
      </g>
     </g>
     <g id="text_5">
      <!-- 4 -->
      <g transform="translate(230.945312 155.4575) scale(0.08 -0.08)">
       <use xlink:href="#Arimo-34"/>
      </g>
     </g>
    </g>
    <g id="xtick_6">
     <g id="line2d_11">
      <defs>
       <path id="m7216591008" d="M 0 0 
L 0 -2.4 
" style="stroke: #000000; stroke-width: 0.3"/>
      </defs>
      <g>
       <use xlink:href="#m7216591008" x="53.169687" y="146.16" style="stroke: #000000; stroke-width: 0.3"/>
      </g>
     </g>
     <g id="line2d_12">
      <defs>
       <path id="m33c2c9f382" d="M 0 0 
L 0 2.4 
" style="stroke: #000000; stroke-width: 0.3"/>
      </defs>
      <g>
       <use xlink:href="#m33c2c9f382" x="53.169687" y="2.16" style="stroke: #000000; stroke-width: 0.3"/>
      </g>
     </g>
    </g>
    <g id="xtick_7">
     <g id="line2d_13">
      <g>
       <use xlink:href="#m7216591008" x="65.169687" y="146.16" style="stroke: #000000; stroke-width: 0.3"/>
      </g>
     </g>
     <g id="line2d_14">
      <g>
       <use xlink:href="#m33c2c9f382" x="65.169687" y="2.16" style="stroke: #000000; stroke-width: 0.3"/>
      </g>
     </g>
    </g>
    <g id="xtick_8">
     <g id="line2d_15">
      <g>
       <use xlink:href="#m7216591008" x="77.169687" y="146.16" style="stroke: #000000; stroke-width: 0.3"/>
      </g>
     </g>
     <g id="line2d_16">
      <g>
       <use xlink:href="#m33c2c9f382" x="77.169687" y="2.16" style="stroke: #000000; stroke-width: 0.3"/>
      </g>
     </g>
    </g>
    <g id="xtick_9">
     <g id="line2d_17">
      <g>
       <use xlink:href="#m7216591008" x="101.169687" y="146.16" style="stroke: #000000; stroke-width: 0.3"/>
      </g>
     </g>
     <g id="line2d_18">
      <g>
       <use xlink:href="#m33c2c9f382" x="101.169687" y="2.16" style="stroke: #000000; stroke-width: 0.3"/>
      </g>
     </g>
    </g>
    <g id="xtick_10">
     <g id="line2d_19">
      <g>
       <use xlink:href="#m7216591008" x="113.169687" y="146.16" style="stroke: #000000; stroke-width: 0.3"/>
      </g>
     </g>
     <g id="line2d_20">
      <g>
       <use xlink:href="#m33c2c9f382" x="113.169687" y="2.16" style="stroke: #000000; stroke-width: 0.3"/>
      </g>
     </g>
    </g>
    <g id="xtick_11">
     <g id="line2d_21">
      <g>
       <use xlink:href="#m7216591008" x="125.169687" y="146.16" style="stroke: #000000; stroke-width: 0.3"/>
      </g>
     </g>
     <g id="line2d_22">
      <g>
       <use xlink:href="#m33c2c9f382" x="125.169687" y="2.16" style="stroke: #000000; stroke-width: 0.3"/>
      </g>
     </g>
    </g>
    <g id="xtick_12">
     <g id="line2d_23">
      <g>
       <use xlink:href="#m7216591008" x="149.169687" y="146.16" style="stroke: #000000; stroke-width: 0.3"/>
      </g>
     </g>
     <g id="line2d_24">
      <g>
       <use xlink:href="#m33c2c9f382" x="149.169687" y="2.16" style="stroke: #000000; stroke-width: 0.3"/>
      </g>
     </g>
    </g>
    <g id="xtick_13">
     <g id="line2d_25">
      <g>
       <use xlink:href="#m7216591008" x="161.169687" y="146.16" style="stroke: #000000; stroke-width: 0.3"/>
      </g>
     </g>
     <g id="line2d_26">
      <g>
       <use xlink:href="#m33c2c9f382" x="161.169687" y="2.16" style="stroke: #000000; stroke-width: 0.3"/>
      </g>
     </g>
    </g>
    <g id="xtick_14">
     <g id="line2d_27">
      <g>
       <use xlink:href="#m7216591008" x="173.169687" y="146.16" style="stroke: #000000; stroke-width: 0.3"/>
      </g>
     </g>
     <g id="line2d_28">
      <g>
       <use xlink:href="#m33c2c9f382" x="173.169687" y="2.16" style="stroke: #000000; stroke-width: 0.3"/>
      </g>
     </g>
    </g>
    <g id="xtick_15">
     <g id="line2d_29">
      <g>
       <use xlink:href="#m7216591008" x="197.169687" y="146.16" style="stroke: #000000; stroke-width: 0.3"/>
      </g>
     </g>
     <g id="line2d_30">
      <g>
       <use xlink:href="#m33c2c9f382" x="197.169687" y="2.16" style="stroke: #000000; stroke-width: 0.3"/>
      </g>
     </g>
    </g>
    <g id="xtick_16">
     <g id="line2d_31">
      <g>
       <use xlink:href="#m7216591008" x="209.169687" y="146.16" style="stroke: #000000; stroke-width: 0.3"/>
      </g>
     </g>
     <g id="line2d_32">
      <g>
       <use xlink:href="#m33c2c9f382" x="209.169687" y="2.16" style="stroke: #000000; stroke-width: 0.3"/>
      </g>
     </g>
    </g>
    <g id="xtick_17">
     <g id="line2d_33">
      <g>
       <use xlink:href="#m7216591008" x="221.169687" y="146.16" style="stroke: #000000; stroke-width: 0.3"/>
      </g>
     </g>
     <g id="line2d_34">
      <g>
       <use xlink:href="#m33c2c9f382" x="221.169687" y="2.16" style="stroke: #000000; stroke-width: 0.3"/>
      </g>
     </g>
    </g>
    <g id="xtick_18">
     <g id="line2d_35">
      <g>
       <use xlink:href="#m7216591008" x="245.169687" y="146.16" style="stroke: #000000; stroke-width: 0.3"/>
      </g>
     </g>
     <g id="line2d_36">
      <g>
       <use xlink:href="#m33c2c9f382" x="245.169687" y="2.16" style="stroke: #000000; stroke-width: 0.3"/>
      </g>
     </g>
    </g>
    <g id="text_6">
     <!-- Measurement [mm] -->
     <g style="fill: #111111" transform="translate(98.412734 167.639687) scale(0.09 -0.09)">
      <defs>
       <path id="Arimo-4d" d="M 4269 0 
L 4269 2938 
Q 4269 3425 4297 3875 
Q 4144 3316 4022 3000 
L 2884 0 
L 2466 0 
L 1313 3000 
L 1138 3531 
L 1034 3875 
L 1044 3528 
L 1056 2938 
L 1056 0 
L 525 0 
L 525 4403 
L 1309 4403 
L 2481 1350 
Q 2544 1166 2601 955 
Q 2659 744 2678 650 
Q 2703 775 2783 1029 
Q 2863 1284 2891 1350 
L 4041 4403 
L 4806 4403 
L 4806 0 
L 4269 0 
z
" transform="scale(0.015625)"/>
       <path id="Arimo-65" d="M 863 1572 
Q 863 991 1103 675 
Q 1344 359 1806 359 
Q 2172 359 2392 506 
Q 2613 653 2691 878 
L 3184 738 
Q 2881 -63 1806 -63 
Q 1056 -63 664 384 
Q 272 831 272 1713 
Q 272 2550 664 2997 
Q 1056 3444 1784 3444 
Q 3275 3444 3275 1647 
L 3275 1572 
L 863 1572 
z
M 2694 2003 
Q 2647 2538 2422 2783 
Q 2197 3028 1775 3028 
Q 1366 3028 1127 2754 
Q 888 2481 869 2003 
L 2694 2003 
z
" transform="scale(0.015625)"/>
       <path id="Arimo-61" d="M 1294 -63 
Q 784 -63 528 206 
Q 272 475 272 944 
Q 272 1469 617 1750 
Q 963 2031 1731 2050 
L 2491 2063 
L 2491 2247 
Q 2491 2659 2316 2837 
Q 2141 3016 1766 3016 
Q 1388 3016 1216 2887 
Q 1044 2759 1009 2478 
L 422 2531 
Q 566 3444 1778 3444 
Q 2416 3444 2737 3151 
Q 3059 2859 3059 2306 
L 3059 850 
Q 3059 600 3125 473 
Q 3191 347 3375 347 
Q 3456 347 3559 369 
L 3559 19 
Q 3347 -31 3125 -31 
Q 2813 -31 2670 133 
Q 2528 297 2509 647 
L 2491 647 
Q 2275 259 1989 98 
Q 1703 -63 1294 -63 
z
M 1422 359 
Q 1731 359 1972 500 
Q 2213 641 2352 886 
Q 2491 1131 2491 1391 
L 2491 1669 
L 1875 1656 
Q 1478 1650 1273 1575 
Q 1069 1500 959 1344 
Q 850 1188 850 934 
Q 850 659 998 509 
Q 1147 359 1422 359 
z
" transform="scale(0.015625)"/>
       <path id="Arimo-73" d="M 2969 934 
Q 2969 456 2608 196 
Q 2247 -63 1597 -63 
Q 966 -63 623 145 
Q 281 353 178 794 
L 675 891 
Q 747 619 972 492 
Q 1197 366 1597 366 
Q 2025 366 2223 497 
Q 2422 628 2422 891 
Q 2422 1091 2284 1216 
Q 2147 1341 1841 1422 
L 1438 1528 
Q 953 1653 748 1773 
Q 544 1894 428 2066 
Q 313 2238 313 2488 
Q 313 2950 642 3192 
Q 972 3434 1603 3434 
Q 2163 3434 2492 3237 
Q 2822 3041 2909 2606 
L 2403 2544 
Q 2356 2769 2151 2889 
Q 1947 3009 1603 3009 
Q 1222 3009 1040 2893 
Q 859 2778 859 2544 
Q 859 2400 934 2306 
Q 1009 2213 1156 2147 
Q 1303 2081 1775 1966 
Q 2222 1853 2419 1758 
Q 2616 1663 2730 1547 
Q 2844 1431 2906 1279 
Q 2969 1128 2969 934 
z
" transform="scale(0.015625)"/>
       <path id="Arimo-75" d="M 981 3381 
L 981 1238 
Q 981 903 1047 718 
Q 1113 534 1256 453 
Q 1400 372 1678 372 
Q 2084 372 2318 650 
Q 2553 928 2553 1422 
L 2553 3381 
L 3116 3381 
L 3116 722 
Q 3116 131 3134 0 
L 2603 0 
Q 2600 16 2597 84 
Q 2594 153 2589 242 
Q 2584 331 2578 578 
L 2569 578 
Q 2375 228 2120 82 
Q 1866 -63 1488 -63 
Q 931 -63 673 214 
Q 416 491 416 1128 
L 416 3381 
L 981 3381 
z
" transform="scale(0.015625)"/>
       <path id="Arimo-72" d="M 444 0 
L 444 2594 
Q 444 2950 425 3381 
L 956 3381 
Q 981 2806 981 2691 
L 994 2691 
Q 1128 3125 1303 3284 
Q 1478 3444 1797 3444 
Q 1909 3444 2025 3413 
L 2025 2897 
Q 1913 2928 1725 2928 
Q 1375 2928 1190 2626 
Q 1006 2325 1006 1763 
L 1006 0 
L 444 0 
z
" transform="scale(0.015625)"/>
       <path id="Arimo-6d" d="M 2400 0 
L 2400 2144 
Q 2400 2634 2265 2821 
Q 2131 3009 1781 3009 
Q 1422 3009 1212 2734 
Q 1003 2459 1003 1959 
L 1003 0 
L 444 0 
L 444 2659 
Q 444 3250 425 3381 
L 956 3381 
Q 959 3366 962 3297 
Q 966 3228 970 3139 
Q 975 3050 981 2803 
L 991 2803 
Q 1172 3163 1406 3303 
Q 1641 3444 1978 3444 
Q 2363 3444 2586 3291 
Q 2809 3138 2897 2803 
L 2906 2803 
Q 3081 3144 3329 3294 
Q 3578 3444 3931 3444 
Q 4444 3444 4676 3166 
Q 4909 2888 4909 2253 
L 4909 0 
L 4353 0 
L 4353 2144 
Q 4353 2634 4218 2821 
Q 4084 3009 3734 3009 
Q 3366 3009 3161 2736 
Q 2956 2463 2956 1959 
L 2956 0 
L 2400 0 
z
" transform="scale(0.015625)"/>
       <path id="Arimo-6e" d="M 2578 0 
L 2578 2144 
Q 2578 2478 2512 2662 
Q 2447 2847 2303 2928 
Q 2159 3009 1881 3009 
Q 1475 3009 1240 2731 
Q 1006 2453 1006 1959 
L 1006 0 
L 444 0 
L 444 2659 
Q 444 3250 425 3381 
L 956 3381 
Q 959 3366 962 3297 
Q 966 3228 970 3139 
Q 975 3050 981 2803 
L 991 2803 
Q 1184 3153 1439 3298 
Q 1694 3444 2072 3444 
Q 2628 3444 2886 3167 
Q 3144 2891 3144 2253 
L 3144 0 
L 2578 0 
z
" transform="scale(0.015625)"/>
       <path id="Arimo-74" d="M 1731 25 
Q 1453 -50 1163 -50 
Q 488 -50 488 716 
L 488 2972 
L 97 2972 
L 97 3381 
L 509 3381 
L 675 4138 
L 1050 4138 
L 1050 3381 
L 1675 3381 
L 1675 2972 
L 1050 2972 
L 1050 838 
Q 1050 594 1129 495 
Q 1209 397 1406 397 
Q 1519 397 1731 441 
L 1731 25 
z
" transform="scale(0.015625)"/>
       <path id="Arimo-20" transform="scale(0.015625)"/>
       <path id="Arimo-5b" d="M 456 -1328 
L 456 4638 
L 1728 4638 
L 1728 4234 
L 1000 4234 
L 1000 -925 
L 1728 -925 
L 1728 -1328 
L 456 -1328 
z
" transform="scale(0.015625)"/>
       <path id="Arimo-5d" d="M 50 -1328 
L 50 -925 
L 778 -925 
L 778 4234 
L 50 4234 
L 50 4638 
L 1322 4638 
L 1322 -1328 
L 50 -1328 
z
" transform="scale(0.015625)"/>
      </defs>
      <use xlink:href="#Arimo-4d"/>
      <use xlink:href="#Arimo-65" x="83.300781"/>
      <use xlink:href="#Arimo-61" x="138.916016"/>
      <use xlink:href="#Arimo-73" x="194.53125"/>
      <use xlink:href="#Arimo-75" x="244.53125"/>
      <use xlink:href="#Arimo-72" x="300.146484"/>
      <use xlink:href="#Arimo-65" x="333.447266"/>
      <use xlink:href="#Arimo-6d" x="389.0625"/>
      <use xlink:href="#Arimo-65" x="472.363281"/>
      <use xlink:href="#Arimo-6e" x="527.978516"/>
      <use xlink:href="#Arimo-74" x="583.59375"/>
      <use xlink:href="#Arimo-20" x="611.376953"/>
      <use xlink:href="#Arimo-5b" x="639.160156"/>
      <use xlink:href="#Arimo-6d" x="666.943359"/>
      <use xlink:href="#Arimo-6d" x="750.244141"/>
      <use xlink:href="#Arimo-5d" x="833.544922"/>
     </g>
    </g>
   </g>
   <g id="matplotlib.axis_2">
    <g id="ytick_1">
     <g id="line2d_37">
      <defs>
       <path id="m115ece98cd" d="M 0 0 
L 4 0 
" style="stroke: #000000; stroke-width: 0.6"/>
      </defs>
      <g>
       <use xlink:href="#m115ece98cd" x="29.169688" y="146.16" style="stroke: #000000; stroke-width: 0.6"/>
      </g>
     </g>
     <g id="line2d_38">
      <defs>
       <path id="mce1dc3d93e" d="M 0 0 
L -4 0 
" style="stroke: #000000; stroke-width: 0.6"/>
      </defs>
      <g>
       <use xlink:href="#mce1dc3d93e" x="245.169687" y="146.16" style="stroke: #000000; stroke-width: 0.6"/>
      </g>
     </g>
     <g id="text_7">
      <!-- 0.0 -->
      <g transform="translate(14.549688 149.05875) scale(0.08 -0.08)">
       <defs>
        <path id="Arimo-2e" d="M 584 0 
L 584 684 
L 1194 684 
L 1194 0 
L 584 0 
z
" transform="scale(0.015625)"/>
       </defs>
       <use xlink:href="#Arimo-30"/>
       <use xlink:href="#Arimo-2e" x="55.615234"/>
       <use xlink:href="#Arimo-30" x="83.398438"/>
      </g>
     </g>
    </g>
    <g id="ytick_2">
     <g id="line2d_39">
      <g>
       <use xlink:href="#m115ece98cd" x="29.169688" y="114.855652" style="stroke: #000000; stroke-width: 0.6"/>
      </g>
     </g>
     <g id="line2d_40">
      <g>
       <use xlink:href="#mce1dc3d93e" x="245.169687" y="114.855652" style="stroke: #000000; stroke-width: 0.6"/>
      </g>
     </g>
     <g id="text_8">
      <!-- 0.1 -->
      <g transform="translate(14.549688 117.754402) scale(0.08 -0.08)">
       <defs>
        <path id="Arimo-31" d="M 488 0 
L 488 478 
L 1609 478 
L 1609 3866 
L 616 3156 
L 616 3688 
L 1656 4403 
L 2175 4403 
L 2175 478 
L 3247 478 
L 3247 0 
L 488 0 
z
" transform="scale(0.015625)"/>
       </defs>
       <use xlink:href="#Arimo-30"/>
       <use xlink:href="#Arimo-2e" x="55.615234"/>
       <use xlink:href="#Arimo-31" x="83.398438"/>
      </g>
     </g>
    </g>
    <g id="ytick_3">
     <g id="line2d_41">
      <g>
       <use xlink:href="#m115ece98cd" x="29.169688" y="83.551304" style="stroke: #000000; stroke-width: 0.6"/>
      </g>
     </g>
     <g id="line2d_42">
      <g>
       <use xlink:href="#mce1dc3d93e" x="245.169687" y="83.551304" style="stroke: #000000; stroke-width: 0.6"/>
      </g>
     </g>
     <g id="text_9">
      <!-- 0.2 -->
      <g transform="translate(14.549688 86.450054) scale(0.08 -0.08)">
       <use xlink:href="#Arimo-30"/>
       <use xlink:href="#Arimo-2e" x="55.615234"/>
       <use xlink:href="#Arimo-32" x="83.398438"/>
      </g>
     </g>
    </g>
    <g id="ytick_4">
     <g id="line2d_43">
      <g>
       <use xlink:href="#m115ece98cd" x="29.169688" y="52.246957" style="stroke: #000000; stroke-width: 0.6"/>
      </g>
     </g>
     <g id="line2d_44">
      <g>
       <use xlink:href="#mce1dc3d93e" x="245.169687" y="52.246957" style="stroke: #000000; stroke-width: 0.6"/>
      </g>
     </g>
     <g id="text_10">
      <!-- 0.3 -->
      <g transform="translate(14.549688 55.145707) scale(0.08 -0.08)">
       <defs>
        <path id="Arimo-33" d="M 3278 1216 
Q 3278 606 2890 271 
Q 2503 -63 1784 -63 
Q 1116 -63 717 239 
Q 319 541 244 1131 
L 825 1184 
Q 938 403 1784 403 
Q 2209 403 2451 612 
Q 2694 822 2694 1234 
Q 2694 1594 2417 1795 
Q 2141 1997 1619 1997 
L 1300 1997 
L 1300 2484 
L 1606 2484 
Q 2069 2484 2323 2686 
Q 2578 2888 2578 3244 
Q 2578 3597 2370 3801 
Q 2163 4006 1753 4006 
Q 1381 4006 1151 3815 
Q 922 3625 884 3278 
L 319 3322 
Q 381 3863 767 4166 
Q 1153 4469 1759 4469 
Q 2422 4469 2789 4161 
Q 3156 3853 3156 3303 
Q 3156 2881 2920 2617 
Q 2684 2353 2234 2259 
L 2234 2247 
Q 2728 2194 3003 1916 
Q 3278 1638 3278 1216 
z
" transform="scale(0.015625)"/>
       </defs>
       <use xlink:href="#Arimo-30"/>
       <use xlink:href="#Arimo-2e" x="55.615234"/>
       <use xlink:href="#Arimo-33" x="83.398438"/>
      </g>
     </g>
    </g>
    <g id="ytick_5">
     <g id="line2d_45">
      <g>
       <use xlink:href="#m115ece98cd" x="29.169688" y="20.942609" style="stroke: #000000; stroke-width: 0.6"/>
      </g>
     </g>
     <g id="line2d_46">
      <g>
       <use xlink:href="#mce1dc3d93e" x="245.169687" y="20.942609" style="stroke: #000000; stroke-width: 0.6"/>
      </g>
     </g>
     <g id="text_11">
      <!-- 0.4 -->
      <g transform="translate(14.549688 23.841359) scale(0.08 -0.08)">
       <use xlink:href="#Arimo-30"/>
       <use xlink:href="#Arimo-2e" x="55.615234"/>
       <use xlink:href="#Arimo-34" x="83.398438"/>
      </g>
     </g>
    </g>
    <g id="ytick_6">
     <g id="line2d_47">
      <defs>
       <path id="ma46221ba09" d="M 0 0 
L 2.4 0 
" style="stroke: #000000; stroke-width: 0.3"/>
      </defs>
      <g>
       <use xlink:href="#ma46221ba09" x="29.169688" y="139.89913" style="stroke: #000000; stroke-width: 0.3"/>
      </g>
     </g>
     <g id="line2d_48">
      <defs>
       <path id="m384edb666c" d="M 0 0 
L -2.4 0 
" style="stroke: #000000; stroke-width: 0.3"/>
      </defs>
      <g>
       <use xlink:href="#m384edb666c" x="245.169687" y="139.89913" style="stroke: #000000; stroke-width: 0.3"/>
      </g>
     </g>
    </g>
    <g id="ytick_7">
     <g id="line2d_49">
      <g>
       <use xlink:href="#ma46221ba09" x="29.169688" y="133.638261" style="stroke: #000000; stroke-width: 0.3"/>
      </g>
     </g>
     <g id="line2d_50">
      <g>
       <use xlink:href="#m384edb666c" x="245.169687" y="133.638261" style="stroke: #000000; stroke-width: 0.3"/>
      </g>
     </g>
    </g>
    <g id="ytick_8">
     <g id="line2d_51">
      <g>
       <use xlink:href="#ma46221ba09" x="29.169688" y="127.377391" style="stroke: #000000; stroke-width: 0.3"/>
      </g>
     </g>
     <g id="line2d_52">
      <g>
       <use xlink:href="#m384edb666c" x="245.169687" y="127.377391" style="stroke: #000000; stroke-width: 0.3"/>
      </g>
     </g>
    </g>
    <g id="ytick_9">
     <g id="line2d_53">
      <g>
       <use xlink:href="#ma46221ba09" x="29.169688" y="121.116522" style="stroke: #000000; stroke-width: 0.3"/>
      </g>
     </g>
     <g id="line2d_54">
      <g>
       <use xlink:href="#m384edb666c" x="245.169687" y="121.116522" style="stroke: #000000; stroke-width: 0.3"/>
      </g>
     </g>
    </g>
    <g id="ytick_10">
     <g id="line2d_55">
      <g>
       <use xlink:href="#ma46221ba09" x="29.169688" y="108.594783" style="stroke: #000000; stroke-width: 0.3"/>
      </g>
     </g>
     <g id="line2d_56">
      <g>
       <use xlink:href="#m384edb666c" x="245.169687" y="108.594783" style="stroke: #000000; stroke-width: 0.3"/>
      </g>
     </g>
    </g>
    <g id="ytick_11">
     <g id="line2d_57">
      <g>
       <use xlink:href="#ma46221ba09" x="29.169688" y="102.333913" style="stroke: #000000; stroke-width: 0.3"/>
      </g>
     </g>
     <g id="line2d_58">
      <g>
       <use xlink:href="#m384edb666c" x="245.169687" y="102.333913" style="stroke: #000000; stroke-width: 0.3"/>
      </g>
     </g>
    </g>
    <g id="ytick_12">
     <g id="line2d_59">
      <g>
       <use xlink:href="#ma46221ba09" x="29.169688" y="96.073043" style="stroke: #000000; stroke-width: 0.3"/>
      </g>
     </g>
     <g id="line2d_60">
      <g>
       <use xlink:href="#m384edb666c" x="245.169687" y="96.073043" style="stroke: #000000; stroke-width: 0.3"/>
      </g>
     </g>
    </g>
    <g id="ytick_13">
     <g id="line2d_61">
      <g>
       <use xlink:href="#ma46221ba09" x="29.169688" y="89.812174" style="stroke: #000000; stroke-width: 0.3"/>
      </g>
     </g>
     <g id="line2d_62">
      <g>
       <use xlink:href="#m384edb666c" x="245.169687" y="89.812174" style="stroke: #000000; stroke-width: 0.3"/>
      </g>
     </g>
    </g>
    <g id="ytick_14">
     <g id="line2d_63">
      <g>
       <use xlink:href="#ma46221ba09" x="29.169688" y="77.290435" style="stroke: #000000; stroke-width: 0.3"/>
      </g>
     </g>
     <g id="line2d_64">
      <g>
       <use xlink:href="#m384edb666c" x="245.169687" y="77.290435" style="stroke: #000000; stroke-width: 0.3"/>
      </g>
     </g>
    </g>
    <g id="ytick_15">
     <g id="line2d_65">
      <g>
       <use xlink:href="#ma46221ba09" x="29.169688" y="71.029565" style="stroke: #000000; stroke-width: 0.3"/>
      </g>
     </g>
     <g id="line2d_66">
      <g>
       <use xlink:href="#m384edb666c" x="245.169687" y="71.029565" style="stroke: #000000; stroke-width: 0.3"/>
      </g>
     </g>
    </g>
    <g id="ytick_16">
     <g id="line2d_67">
      <g>
       <use xlink:href="#ma46221ba09" x="29.169688" y="64.768696" style="stroke: #000000; stroke-width: 0.3"/>
      </g>
     </g>
     <g id="line2d_68">
      <g>
       <use xlink:href="#m384edb666c" x="245.169687" y="64.768696" style="stroke: #000000; stroke-width: 0.3"/>
      </g>
     </g>
    </g>
    <g id="ytick_17">
     <g id="line2d_69">
      <g>
       <use xlink:href="#ma46221ba09" x="29.169688" y="58.507826" style="stroke: #000000; stroke-width: 0.3"/>
      </g>
     </g>
     <g id="line2d_70">
      <g>
       <use xlink:href="#m384edb666c" x="245.169687" y="58.507826" style="stroke: #000000; stroke-width: 0.3"/>
      </g>
     </g>
    </g>
    <g id="ytick_18">
     <g id="line2d_71">
      <g>
       <use xlink:href="#ma46221ba09" x="29.169688" y="45.986087" style="stroke: #000000; stroke-width: 0.3"/>
      </g>
     </g>
     <g id="line2d_72">
      <g>
       <use xlink:href="#m384edb666c" x="245.169687" y="45.986087" style="stroke: #000000; stroke-width: 0.3"/>
      </g>
     </g>
    </g>
    <g id="ytick_19">
     <g id="line2d_73">
      <g>
       <use xlink:href="#ma46221ba09" x="29.169688" y="39.725217" style="stroke: #000000; stroke-width: 0.3"/>
      </g>
     </g>
     <g id="line2d_74">
      <g>
       <use xlink:href="#m384edb666c" x="245.169687" y="39.725217" style="stroke: #000000; stroke-width: 0.3"/>
      </g>
     </g>
    </g>
    <g id="ytick_20">
     <g id="line2d_75">
      <g>
       <use xlink:href="#ma46221ba09" x="29.169688" y="33.464348" style="stroke: #000000; stroke-width: 0.3"/>
      </g>
     </g>
     <g id="line2d_76">
      <g>
       <use xlink:href="#m384edb666c" x="245.169687" y="33.464348" style="stroke: #000000; stroke-width: 0.3"/>
      </g>
     </g>
    </g>
    <g id="ytick_21">
     <g id="line2d_77">
      <g>
       <use xlink:href="#ma46221ba09" x="29.169688" y="27.203478" style="stroke: #000000; stroke-width: 0.3"/>
      </g>
     </g>
     <g id="line2d_78">
      <g>
       <use xlink:href="#m384edb666c" x="245.169687" y="27.203478" style="stroke: #000000; stroke-width: 0.3"/>
      </g>
     </g>
    </g>
    <g id="ytick_22">
     <g id="line2d_79">
      <g>
       <use xlink:href="#ma46221ba09" x="29.169688" y="14.681739" style="stroke: #000000; stroke-width: 0.3"/>
      </g>
     </g>
     <g id="line2d_80">
      <g>
       <use xlink:href="#m384edb666c" x="245.169687" y="14.681739" style="stroke: #000000; stroke-width: 0.3"/>
      </g>
     </g>
    </g>
    <g id="ytick_23">
     <g id="line2d_81">
      <g>
       <use xlink:href="#ma46221ba09" x="29.169688" y="8.42087" style="stroke: #000000; stroke-width: 0.3"/>
      </g>
     </g>
     <g id="line2d_82">
      <g>
       <use xlink:href="#m384edb666c" x="245.169687" y="8.42087" style="stroke: #000000; stroke-width: 0.3"/>
      </g>
     </g>
    </g>
    <g id="ytick_24">
     <g id="line2d_83">
      <g>
       <use xlink:href="#ma46221ba09" x="29.169688" y="2.16" style="stroke: #000000; stroke-width: 0.3"/>
      </g>
     </g>
     <g id="line2d_84">
      <g>
       <use xlink:href="#m384edb666c" x="245.169687" y="2.16" style="stroke: #000000; stroke-width: 0.3"/>
      </g>
     </g>
    </g>
    <g id="text_12">
     <!-- Probability Density [1/mm] -->
     <g style="fill: #111111" transform="translate(8.682187 126.423984) rotate(-90) scale(0.09 -0.09)">
      <defs>
       <path id="Arimo-50" d="M 3931 3078 
Q 3931 2453 3523 2084 
Q 3116 1716 2416 1716 
L 1122 1716 
L 1122 0 
L 525 0 
L 525 4403 
L 2378 4403 
Q 3119 4403 3525 4056 
Q 3931 3709 3931 3078 
z
M 3331 3072 
Q 3331 3925 2306 3925 
L 1122 3925 
L 1122 2188 
L 2331 2188 
Q 3331 2188 3331 3072 
z
" transform="scale(0.015625)"/>
       <path id="Arimo-6f" d="M 3291 1694 
Q 3291 806 2900 371 
Q 2509 -63 1766 -63 
Q 1025 -63 647 389 
Q 269 841 269 1694 
Q 269 3444 1784 3444 
Q 2559 3444 2925 3017 
Q 3291 2591 3291 1694 
z
M 2700 1694 
Q 2700 2394 2492 2711 
Q 2284 3028 1794 3028 
Q 1300 3028 1079 2704 
Q 859 2381 859 1694 
Q 859 1025 1076 689 
Q 1294 353 1759 353 
Q 2266 353 2483 678 
Q 2700 1003 2700 1694 
z
" transform="scale(0.015625)"/>
       <path id="Arimo-62" d="M 3291 1706 
Q 3291 -63 2047 -63 
Q 1663 -63 1408 76 
Q 1153 216 994 525 
L 988 525 
Q 988 428 975 229 
Q 963 31 956 0 
L 413 0 
Q 431 169 431 697 
L 431 4638 
L 994 4638 
L 994 3316 
Q 994 3113 981 2838 
L 994 2838 
Q 1150 3163 1408 3303 
Q 1666 3444 2047 3444 
Q 2688 3444 2989 3012 
Q 3291 2581 3291 1706 
z
M 2700 1688 
Q 2700 2397 2512 2703 
Q 2325 3009 1903 3009 
Q 1428 3009 1211 2684 
Q 994 2359 994 1653 
Q 994 988 1206 670 
Q 1419 353 1897 353 
Q 2322 353 2511 667 
Q 2700 981 2700 1688 
z
" transform="scale(0.015625)"/>
       <path id="Arimo-69" d="M 428 0 
L 428 3381 
L 991 3381 
L 991 0 
L 428 0 
z
M 428 4100 
L 428 4638 
L 991 4638 
L 991 4100 
L 428 4100 
z
" transform="scale(0.015625)"/>
       <path id="Arimo-6c" d="M 431 0 
L 431 4638 
L 994 4638 
L 994 0 
L 431 0 
z
" transform="scale(0.015625)"/>
       <path id="Arimo-79" d="M 597 -1328 
Q 366 -1328 209 -1294 
L 209 -872 
Q 328 -891 472 -891 
Q 997 -891 1303 -119 
L 1356 16 
L 16 3381 
L 616 3381 
L 1328 1513 
Q 1344 1469 1366 1408 
Q 1388 1347 1506 1000 
Q 1625 653 1634 613 
L 1853 1228 
L 2594 3381 
L 3188 3381 
L 1888 0 
Q 1678 -541 1497 -805 
Q 1316 -1069 1095 -1198 
Q 875 -1328 597 -1328 
z
" transform="scale(0.015625)"/>
       <path id="Arimo-44" d="M 4316 2247 
Q 4316 1566 4050 1055 
Q 3784 544 3296 272 
Q 2809 0 2172 0 
L 525 0 
L 525 4403 
L 1981 4403 
Q 3100 4403 3708 3842 
Q 4316 3281 4316 2247 
z
M 3716 2247 
Q 3716 3066 3267 3495 
Q 2819 3925 1969 3925 
L 1122 3925 
L 1122 478 
L 2103 478 
Q 2588 478 2955 690 
Q 3322 903 3519 1303 
Q 3716 1703 3716 2247 
z
" transform="scale(0.015625)"/>
       <path id="Arimo-2f" d="M 0 -63 
L 1284 4638 
L 1778 4638 
L 506 -63 
L 0 -63 
z
" transform="scale(0.015625)"/>
      </defs>
      <use xlink:href="#Arimo-50"/>
      <use xlink:href="#Arimo-72" x="66.699219"/>
      <use xlink:href="#Arimo-6f" x="100"/>
      <use xlink:href="#Arimo-62" x="155.615234"/>
      <use xlink:href="#Arimo-61" x="211.230469"/>
      <use xlink:href="#Arimo-62" x="266.845703"/>
      <use xlink:href="#Arimo-69" x="322.460938"/>
      <use xlink:href="#Arimo-6c" x="344.677734"/>
      <use xlink:href="#Arimo-69" x="366.894531"/>
      <use xlink:href="#Arimo-74" x="389.111328"/>
      <use xlink:href="#Arimo-79" x="416.894531"/>
      <use xlink:href="#Arimo-20" x="466.894531"/>
      <use xlink:href="#Arimo-44" x="494.677734"/>
      <use xlink:href="#Arimo-65" x="566.894531"/>
      <use xlink:href="#Arimo-6e" x="622.509766"/>
      <use xlink:href="#Arimo-73" x="678.125"/>
      <use xlink:href="#Arimo-69" x="728.125"/>
      <use xlink:href="#Arimo-74" x="750.341797"/>
      <use xlink:href="#Arimo-79" x="778.125"/>
      <use xlink:href="#Arimo-20" x="828.125"/>
      <use xlink:href="#Arimo-5b" x="855.908203"/>
      <use xlink:href="#Arimo-31" x="883.691406"/>
      <use xlink:href="#Arimo-2f" x="939.306641"/>
      <use xlink:href="#Arimo-6d" x="967.089844"/>
      <use xlink:href="#Arimo-6d" x="1050.390625"/>
      <use xlink:href="#Arimo-5d" x="1133.691406"/>
     </g>
    </g>
   </g>
   <g id="patch_7">
    <path d="M 29.169687 146.16 
L 29.169687 146.16 
L 35.169687 146.16 
L 35.169687 146.16 
L 41.169687 146.16 
L 41.169687 146.16 
L 47.169687 146.16 
L 47.169687 146.16 
L 53.169687 146.16 
L 53.169687 144.767148 
L 59.169687 144.767148 
L 59.169687 146.16 
L 65.169687 146.16 
L 65.169687 140.588592 
L 71.169687 140.588592 
L 71.169687 133.624332 
L 77.169687 133.624332 
L 77.169687 129.445776 
L 83.169687 129.445776 
L 83.169687 121.088665 
L 89.169687 121.088665 
L 89.169687 96.017329 
L 95.169687 96.017329 
L 95.169687 96.017329 
L 101.169687 96.017329 
L 101.169687 51.446067 
L 107.169687 51.446067 
L 107.169687 34.731843 
L 113.169687 34.731843 
L 113.169687 24.981879 
L 119.169687 24.981879 
L 119.169687 26.374731 
L 125.169687 26.374731 
L 125.169687 2.696248 
L 131.169687 2.696248 
L 131.169687 6.874804 
L 137.169687 6.874804 
L 137.169687 47.267511 
L 143.169687 47.267511 
L 143.169687 62.588882 
L 149.169687 62.588882 
L 149.169687 94.624477 
L 155.169687 94.624477 
L 155.169687 101.588737 
L 161.169687 101.588737 
L 161.169687 107.160145 
L 167.169687 107.160145 
L 167.169687 128.052925 
L 173.169687 128.052925 
L 173.169687 135.017184 
L 179.169687 135.017184 
L 179.169687 137.802888 
L 185.169687 137.802888 
L 185.169687 141.981444 
L 191.169687 141.981444 
L 191.169687 144.767148 
L 197.169687 144.767148 
L 197.169687 146.16 
L 203.169687 146.16 
L 203.169687 146.16 
L 209.169687 146.16 
L 209.169687 146.16 
L 215.169687 146.16 
L 215.169687 146.16 
L 221.169687 146.16 
L 221.169687 146.16 
L 227.169687 146.16 
L 227.169687 146.16 
L 233.169687 146.16 
L 233.169687 146.16 
L 239.169687 146.16 
L 239.169687 146.16 
L 245.169687 146.16 
L 245.169687 146.16 
" clip-path="url(#p5edd544ce9)" style="fill: none; stroke: #2a2f80; stroke-linejoin: miter"/>
   </g>
   <g id="patch_8">
    <path d="M 29.169687 146.16 
L 29.169687 144.768696 
L 35.169687 144.768696 
L 35.169687 146.16 
L 41.169687 146.16 
L 41.169687 144.768696 
L 47.169687 144.768696 
L 47.169687 146.16 
L 53.169687 146.16 
L 53.169687 141.986087 
L 59.169687 141.986087 
L 59.169687 143.377391 
L 65.169687 143.377391 
L 65.169687 143.377391 
L 71.169687 143.377391 
L 71.169687 139.203478 
L 77.169687 139.203478 
L 77.169687 137.812174 
L 83.169687 137.812174 
L 83.169687 130.855652 
L 89.169687 130.855652 
L 89.169687 118.333913 
L 95.169687 118.333913 
L 95.169687 100.246957 
L 101.169687 100.246957 
L 101.169687 105.812174 
L 107.169687 105.812174 
L 107.169687 64.073043 
L 113.169687 64.073043 
L 113.169687 73.812174 
L 119.169687 73.812174 
L 119.169687 57.116522 
L 125.169687 57.116522 
L 125.169687 48.768696 
L 131.169687 48.768696 
L 131.169687 27.89913 
L 137.169687 27.89913 
L 137.169687 40.42087 
L 143.169687 40.42087 
L 143.169687 40.42087 
L 149.169687 40.42087 
L 149.169687 66.855652 
L 155.169687 66.855652 
L 155.169687 72.42087 
L 161.169687 72.42087 
L 161.169687 69.638261 
L 167.169687 69.638261 
L 167.169687 97.464348 
L 173.169687 97.464348 
L 173.169687 101.638261 
L 179.169687 101.638261 
L 179.169687 93.290435 
L 185.169687 93.290435 
L 185.169687 122.507826 
L 191.169687 122.507826 
L 191.169687 135.029565 
L 197.169687 135.029565 
L 197.169687 140.594783 
L 203.169687 140.594783 
L 203.169687 144.768696 
L 209.169687 144.768696 
L 209.169687 141.986087 
L 215.169687 141.986087 
L 215.169687 144.768696 
L 221.169687 144.768696 
L 221.169687 144.768696 
L 227.169687 144.768696 
L 227.169687 146.16 
L 233.169687 146.16 
L 233.169687 146.16 
L 239.169687 146.16 
L 239.169687 146.16 
L 245.169687 146.16 
L 245.169687 146.16 
" clip-path="url(#p5edd544ce9)" style="fill: none; stroke: #808080; stroke-linejoin: miter"/>
   </g>
   <g id="patch_9">
    <path d="M 29.169687 146.16 
L 29.169687 146.16 
L 35.169687 146.16 
L 35.169687 146.16 
L 41.169687 146.16 
L 41.169687 146.16 
L 47.169687 146.16 
L 47.169687 144.768696 
L 53.169687 144.768696 
L 53.169687 141.986087 
L 59.169687 141.986087 
L 59.169687 141.986087 
L 65.169687 141.986087 
L 65.169687 141.986087 
L 71.169687 141.986087 
L 71.169687 144.768696 
L 77.169687 144.768696 
L 77.169687 129.464348 
L 83.169687 129.464348 
L 83.169687 129.464348 
L 89.169687 129.464348 
L 89.169687 118.333913 
L 95.169687 118.333913 
L 95.169687 125.290435 
L 101.169687 125.290435 
L 101.169687 119.725217 
L 107.169687 119.725217 
L 107.169687 104.42087 
L 113.169687 104.42087 
L 113.169687 91.89913 
L 119.169687 91.89913 
L 119.169687 93.290435 
L 125.169687 93.290435 
L 125.169687 82.16 
L 131.169687 82.16 
L 131.169687 59.89913 
L 137.169687 59.89913 
L 137.169687 57.116522 
L 143.169687 57.116522 
L 143.169687 52.942609 
L 149.169687 52.942609 
L 149.169687 59.89913 
L 155.169687 59.89913 
L 155.169687 68.246957 
L 161.169687 68.246957 
L 161.169687 45.986087 
L 167.169687 45.986087 
L 167.169687 64.073043 
L 173.169687 64.073043 
L 173.169687 71.029565 
L 179.169687 71.029565 
L 179.169687 82.16 
L 185.169687 82.16 
L 185.169687 93.290435 
L 191.169687 93.290435 
L 191.169687 119.725217 
L 197.169687 119.725217 
L 197.169687 118.333913 
L 203.169687 118.333913 
L 203.169687 135.029565 
L 209.169687 135.029565 
L 209.169687 133.638261 
L 215.169687 133.638261 
L 215.169687 129.464348 
L 221.169687 129.464348 
L 221.169687 140.594783 
L 227.169687 140.594783 
L 227.169687 143.377391 
L 233.169687 143.377391 
L 233.169687 141.986087 
L 239.169687 141.986087 
L 239.169687 144.768696 
L 245.169687 144.768696 
L 245.169687 146.16 
" clip-path="url(#p5edd544ce9)" style="fill: none; stroke: #000000; stroke-linejoin: miter"/>
   </g>
   <g id="patch_10">
    <path d="M 29.169687 146.16 
L 29.169687 146.16 
L 35.169687 146.16 
L 35.169687 146.16 
L 41.169687 146.16 
L 41.169687 144.759358 
L 47.169687 144.759358 
L 47.169687 146.16 
L 53.169687 146.16 
L 53.169687 140.557432 
L 59.169687 140.557432 
L 59.169687 137.756148 
L 65.169687 137.756148 
L 65.169687 143.358716 
L 71.169687 143.358716 
L 71.169687 137.756148 
L 77.169687 137.756148 
L 77.169687 140.557432 
L 83.169687 140.557432 
L 83.169687 132.15358 
L 89.169687 132.15358 
L 89.169687 129.352296 
L 95.169687 129.352296 
L 95.169687 129.352296 
L 101.169687 129.352296 
L 101.169687 118.147161 
L 107.169687 118.147161 
L 107.169687 125.150371 
L 113.169687 125.150371 
L 113.169687 99.938815 
L 119.169687 99.938815 
L 119.169687 105.541383 
L 125.169687 105.541383 
L 125.169687 90.134322 
L 131.169687 90.134322 
L 131.169687 67.72405 
L 137.169687 67.72405 
L 137.169687 78.929186 
L 143.169687 78.929186 
L 143.169687 70.525334 
L 149.169687 70.525334 
L 149.169687 70.525334 
L 155.169687 70.525334 
L 155.169687 73.326618 
L 161.169687 73.326618 
L 161.169687 50.916347 
L 167.169687 50.916347 
L 167.169687 69.124692 
L 173.169687 69.124692 
L 173.169687 71.925976 
L 179.169687 71.925976 
L 179.169687 73.326618 
L 185.169687 73.326618 
L 185.169687 69.124692 
L 191.169687 69.124692 
L 191.169687 94.336247 
L 197.169687 94.336247 
L 197.169687 112.544593 
L 203.169687 112.544593 
L 203.169687 118.147161 
L 209.169687 118.147161 
L 209.169687 120.948445 
L 215.169687 120.948445 
L 215.169687 125.150371 
L 221.169687 125.150371 
L 221.169687 129.352296 
L 227.169687 129.352296 
L 227.169687 130.752938 
L 233.169687 130.752938 
L 233.169687 139.15679 
L 239.169687 139.15679 
L 239.169687 130.752938 
L 245.169687 130.752938 
L 245.169687 146.16 
" clip-path="url(#p5edd544ce9)" style="fill: none; stroke: #bdbdbd; stroke-linejoin: miter"/>
   </g>
   <g id="patch_11">
    <path d="M 29.169688 146.16 
L 29.169688 2.16 
" style="fill: none; stroke: #000000; stroke-width: 0.6; stroke-linejoin: miter; stroke-linecap: square"/>
   </g>
   <g id="patch_12">
    <path d="M 245.169687 146.16 
L 245.169687 2.16 
" style="fill: none; stroke: #000000; stroke-width: 0.6; stroke-linejoin: miter; stroke-linecap: square"/>
   </g>
   <g id="patch_13">
    <path d="M 29.169687 146.16 
L 245.169687 146.16 
" style="fill: none; stroke: #000000; stroke-width: 0.6; stroke-linejoin: miter; stroke-linecap: square"/>
   </g>
   <g id="patch_14">
    <path d="M 29.169687 2.16 
L 245.169687 2.16 
" style="fill: none; stroke: #000000; stroke-width: 0.6; stroke-linejoin: miter; stroke-linecap: square"/>
   </g>
   <g id="legend_1">
    <g id="patch_15">
     <path d="M 185.945937 15.1575 
L 201.945937 15.1575 
L 201.945937 9.5575 
L 185.945937 9.5575 
L 185.945937 15.1575 
z
" style="fill: none; stroke: #2a2f80; stroke-linejoin: miter"/>
    </g>
    <g id="text_13">
     <!-- σ = 0.95 -->
     <g transform="translate(208.345937 15.1575) scale(0.08 -0.08)">
      <defs>
       <path id="Arimo-3c3" d="M 3350 1534 
Q 3350 781 2942 359 
Q 2534 -63 1819 -63 
Q 1069 -63 669 376 
Q 269 816 269 1638 
Q 269 2466 737 2923 
Q 1206 3381 2075 3381 
L 3853 3381 
L 3853 2972 
L 3338 2972 
L 2875 2991 
L 2875 2978 
Q 3128 2600 3239 2253 
Q 3350 1906 3350 1534 
z
M 2759 1525 
Q 2759 2322 2372 2972 
L 2094 2972 
Q 1519 2972 1191 2622 
Q 863 2272 863 1644 
Q 863 353 1794 353 
Q 2266 353 2512 654 
Q 2759 956 2759 1525 
z
" transform="scale(0.015625)"/>
       <path id="Arimo-3d" d="M 313 1075 
L 313 1538 
L 3422 1538 
L 3422 1075 
L 313 1075 
z
M 313 2675 
L 313 3138 
L 3422 3138 
L 3422 2675 
L 313 2675 
z
" transform="scale(0.015625)"/>
       <path id="Arimo-39" d="M 3256 2291 
Q 3256 1156 2842 546 
Q 2428 -63 1663 -63 
Q 1147 -63 836 154 
Q 525 372 391 856 
L 928 941 
Q 1097 391 1672 391 
Q 2156 391 2422 841 
Q 2688 1291 2700 2125 
Q 2575 1844 2272 1673 
Q 1969 1503 1606 1503 
Q 1013 1503 656 1909 
Q 300 2316 300 2988 
Q 300 3678 687 4073 
Q 1075 4469 1766 4469 
Q 2500 4469 2878 3925 
Q 3256 3381 3256 2291 
z
M 2644 2834 
Q 2644 3366 2400 3689 
Q 2156 4013 1747 4013 
Q 1341 4013 1106 3736 
Q 872 3459 872 2988 
Q 872 2506 1106 2226 
Q 1341 1947 1741 1947 
Q 1984 1947 2193 2058 
Q 2403 2169 2523 2372 
Q 2644 2575 2644 2834 
z
" transform="scale(0.015625)"/>
       <path id="Arimo-35" d="M 3291 1434 
Q 3291 738 2877 337 
Q 2463 -63 1728 -63 
Q 1113 -63 734 206 
Q 356 475 256 984 
L 825 1050 
Q 1003 397 1741 397 
Q 2194 397 2450 670 
Q 2706 944 2706 1422 
Q 2706 1838 2448 2094 
Q 2191 2350 1753 2350 
Q 1525 2350 1328 2278 
Q 1131 2206 934 2034 
L 384 2034 
L 531 4403 
L 3034 4403 
L 3034 3925 
L 1044 3925 
L 959 2528 
Q 1325 2809 1869 2809 
Q 2519 2809 2905 2428 
Q 3291 2047 3291 1434 
z
" transform="scale(0.015625)"/>
      </defs>
      <use xlink:href="#Arimo-3c3"/>
      <use xlink:href="#Arimo-20" x="61.71875"/>
      <use xlink:href="#Arimo-3d" x="89.501953"/>
      <use xlink:href="#Arimo-20" x="147.900391"/>
      <use xlink:href="#Arimo-30" x="175.683594"/>
      <use xlink:href="#Arimo-2e" x="231.298828"/>
      <use xlink:href="#Arimo-39" x="259.082031"/>
      <use xlink:href="#Arimo-35" x="314.697266"/>
     </g>
    </g>
    <g id="patch_16">
     <path d="M 185.945937 26.615 
L 201.945937 26.615 
L 201.945937 21.015 
L 185.945937 21.015 
L 185.945937 26.615 
z
" style="fill: none; stroke: #808080; stroke-linejoin: miter"/>
    </g>
    <g id="text_14">
     <!-- σ = 1.15 -->
     <g transform="translate(208.345937 26.615) scale(0.08 -0.08)">
      <use xlink:href="#Arimo-3c3"/>
      <use xlink:href="#Arimo-20" x="61.71875"/>
      <use xlink:href="#Arimo-3d" x="89.501953"/>
      <use xlink:href="#Arimo-20" x="147.900391"/>
      <use xlink:href="#Arimo-31" x="175.683594"/>
      <use xlink:href="#Arimo-2e" x="231.298828"/>
      <use xlink:href="#Arimo-31" x="259.082031"/>
      <use xlink:href="#Arimo-35" x="314.697266"/>
     </g>
    </g>
    <g id="patch_17">
     <path d="M 185.945937 38.0725 
L 201.945937 38.0725 
L 201.945937 32.4725 
L 185.945937 32.4725 
L 185.945937 38.0725 
z
" style="fill: none; stroke: #000000; stroke-linejoin: miter"/>
    </g>
    <g id="text_15">
     <!-- σ = 1.35 -->
     <g transform="translate(208.345937 38.0725) scale(0.08 -0.08)">
      <use xlink:href="#Arimo-3c3"/>
      <use xlink:href="#Arimo-20" x="61.71875"/>
      <use xlink:href="#Arimo-3d" x="89.501953"/>
      <use xlink:href="#Arimo-20" x="147.900391"/>
      <use xlink:href="#Arimo-31" x="175.683594"/>
      <use xlink:href="#Arimo-2e" x="231.298828"/>
      <use xlink:href="#Arimo-33" x="259.082031"/>
      <use xlink:href="#Arimo-35" x="314.697266"/>
     </g>
    </g>
    <g id="patch_18">
     <path d="M 185.945937 49.53 
L 201.945937 49.53 
L 201.945937 43.93 
L 185.945937 43.93 
L 185.945937 49.53 
z
" style="fill: none; stroke: #bdbdbd; stroke-linejoin: miter"/>
    </g>
    <g id="text_16">
     <!-- σ = 1.55 -->
     <g transform="translate(208.345937 49.53) scale(0.08 -0.08)">
      <use xlink:href="#Arimo-3c3"/>
      <use xlink:href="#Arimo-20" x="61.71875"/>
      <use xlink:href="#Arimo-3d" x="89.501953"/>
      <use xlink:href="#Arimo-20" x="147.900391"/>
      <use xlink:href="#Arimo-31" x="175.683594"/>
      <use xlink:href="#Arimo-2e" x="231.298828"/>
      <use xlink:href="#Arimo-35" x="259.082031"/>
      <use xlink:href="#Arimo-35" x="314.697266"/>
     </g>
    </g>
   </g>
  </g>
 </g>
 <defs>
  <clipPath id="p5edd544ce9">
   <rect x="29.169688" y="2.16" width="216" height="144"/>
  </clipPath>
 </defs>
</svg>
