<?xml version="1.0" encoding="utf-8" standalone="no"?>
<!DOCTYPE svg PUBLIC "-//W3C//DTD SVG 1.1//EN"
  "http://www.w3.org/Graphics/SVG/1.1/DTD/svg11.dtd">
<svg xmlns:xlink="http://www.w3.org/1999/xlink" width="177.554062pt" height="243.667187pt" viewBox="0 0 177.554062 243.667187" xmlns="http://www.w3.org/2000/svg" version="1.1">
 <metadata>
  <rdf:RDF xmlns:dc="http://purl.org/dc/elements/1.1/" xmlns:cc="http://creativecommons.org/ns#" xmlns:rdf="http://www.w3.org/1999/02/22-rdf-syntax-ns#">
   <cc:Work>
    <dc:type rdf:resource="http://purl.org/dc/dcmitype/StillImage"/>
    <dc:date>2026-07-03T11:36:36.865876</dc:date>
    <dc:format>image/svg+xml</dc:format>
    <dc:creator>
     <cc:Agent>
      <dc:title>Matplotlib v3.7.2, https://matplotlib.org/</dc:title>
     </cc:Agent>
    </dc:creator>
   </cc:Work>
  </rdf:RDF>
 </metadata>
 <defs>
  <style type="text/css">*{stroke-linejoin: round; stroke-linecap: butt}</style>
 </defs>
 <g id="figure_1">
  <g id="patch_1">
   <path d="M 0 243.667187 
L 177.554062 243.667187 
L 177.554062 0 
L 0 0 
z
" style="fill: #ffffff"/>
  </g>
  <g id="axes_1">
   <g id="patch_2">
    <path d="M 29.169688 218.16 
L 173.169688 218.16 
L 173.169688 2.16 
L 29.169688 2.16 
z
" style="fill: #ffffff"/>
   </g>
   <g id="matplotlib.axis_1">
    <g id="xtick_1">
     <g id="line2d_1">
      <defs>
       <path id="ma4cbb1fc1b" d="M 0 0 
L 0 -4 
" style="stroke: #000000; stroke-width: 0.6"/>
      </defs>
      <g>
       <use xlink:href="#ma4cbb1fc1b" x="29.169688" y="218.16" style="stroke: #000000; stroke-width: 0.6"/>
      </g>
     </g>
     <g id="line2d_2">
      <defs>
       <path id="me2a270683a" d="M 0 0 
L 0 4 
" style="stroke: #000000; stroke-width: 0.6"/>
      </defs>
      <g>
       <use xlink:href="#me2a270683a" x="29.169688" y="2.16" style="stroke: #000000; stroke-width: 0.6"/>
      </g>
     </g>
     <g id="text_1">
      <!-- 0 -->
      <g transform="translate(26.945312 227.4575) scale(0.08 -0.08)">
       <defs>
        <path id="Arimo-30" d="M 3309 2203 
Q 3309 1100 2920 518 
Q 2531 -63 1772 -63 
Q 1013 -63 631 515 
Q 250 1094 250 2203 
Q 250 3338 620 3903 
Q 991 4469 1791 4469 
Q 2569 4469 2939 3897 
Q 3309 3325 3309 2203 
z
M 2738 2203 
Q 2738 3156 2517 3584 
Q 2297 4013 1791 4013 
Q 1272 4013 1045 3591 
Q 819 3169 819 2203 
Q 819 1266 1048 831 
Q 1278 397 1778 397 
Q 2275 397 2506 840 
Q 2738 1284 2738 2203 
z
" transform="scale(0.015625)"/>
       </defs>
       <use xlink:href="#Arimo-30"/>
      </g>
     </g>
    </g>
    <g id="xtick_2">
     <g id="line2d_3">
      <g>
       <use xlink:href="#ma4cbb1fc1b" x="65.169688" y="218.16" style="stroke: #000000; stroke-width: 0.6"/>
      </g>
     </g>
     <g id="line2d_4">
      <g>
       <use xlink:href="#me2a270683a" x="65.169688" y="2.16" style="stroke: #000000; stroke-width: 0.6"/>
      </g>
     </g>
     <g id="text_2">
      <!-- 2 -->
      <g transform="translate(62.945313 227.4575) scale(0.08 -0.08)">
       <defs>
        <path id="Arimo-32" d="M 322 0 
L 322 397 
Q 481 763 711 1042 
Q 941 1322 1194 1548 
Q 1447 1775 1695 1969 
Q 1944 2163 2144 2356 
Q 2344 2550 2467 2762 
Q 2591 2975 2591 3244 
Q 2591 3606 2378 3806 
Q 2166 4006 1788 4006 
Q 1428 4006 1195 3811 
Q 963 3616 922 3263 
L 347 3316 
Q 409 3844 795 4156 
Q 1181 4469 1788 4469 
Q 2453 4469 2811 4155 
Q 3169 3841 3169 3263 
Q 3169 3006 3051 2753 
Q 2934 2500 2703 2247 
Q 2472 1994 1819 1463 
Q 1459 1169 1246 933 
Q 1034 697 941 478 
L 3238 478 
L 3238 0 
L 322 0 
z
" transform="scale(0.015625)"/>
       </defs>
       <use xlink:href="#Arimo-32"/>
      </g>
     </g>
    </g>
    <g id="xtick_3">
     <g id="line2d_5">
      <g>
       <use xlink:href="#ma4cbb1fc1b" x="101.169688" y="218.16" style="stroke: #000000; stroke-width: 0.6"/>
      </g>
     </g>
     <g id="line2d_6">
      <g>
       <use xlink:href="#me2a270683a" x="101.169688" y="2.16" style="stroke: #000000; stroke-width: 0.6"/>
      </g>
     </g>
     <g id="text_3">
      <!-- 4 -->
      <g transform="translate(98.945313 227.4575) scale(0.08 -0.08)">
       <defs>
        <path id="Arimo-34" d="M 2753 997 
L 2753 0 
L 2222 0 
L 2222 997 
L 147 997 
L 147 1434 
L 2163 4403 
L 2753 4403 
L 2753 1441 
L 3372 1441 
L 3372 997 
L 2753 997 
z
M 2222 1441 
L 2222 3769 
Q 2150 3631 2101 3543 
Q 2053 3456 2013 3397 
L 1003 1903 
Q 916 1775 666 1441 
L 2222 1441 
z
" transform="scale(0.015625)"/>
       </defs>
       <use xlink:href="#Arimo-34"/>
      </g>
     </g>
    </g>
    <g id="xtick_4">
     <g id="line2d_7">
      <g>
       <use xlink:href="#ma4cbb1fc1b" x="137.169688" y="218.16" style="stroke: #000000; stroke-width: 0.6"/>
      </g>
     </g>
     <g id="line2d_8">
      <g>
       <use xlink:href="#me2a270683a" x="137.169688" y="2.16" style="stroke: #000000; stroke-width: 0.6"/>
      </g>
     </g>
     <g id="text_4">
      <!-- 6 -->
      <g transform="translate(134.945312 227.4575) scale(0.08 -0.08)">
       <defs>
        <path id="Arimo-36" d="M 3278 1441 
Q 3278 744 2900 340 
Q 2522 -63 1856 -63 
Q 1113 -63 719 490 
Q 325 1044 325 2100 
Q 325 3244 734 3856 
Q 1144 4469 1900 4469 
Q 2897 4469 3156 3572 
L 2619 3475 
Q 2453 4013 1894 4013 
Q 1413 4013 1148 3564 
Q 884 3116 884 2266 
Q 1038 2550 1316 2698 
Q 1594 2847 1953 2847 
Q 2563 2847 2920 2465 
Q 3278 2084 3278 1441 
z
M 2706 1416 
Q 2706 1894 2472 2153 
Q 2238 2413 1819 2413 
Q 1425 2413 1183 2183 
Q 941 1953 941 1550 
Q 941 1041 1192 716 
Q 1444 391 1838 391 
Q 2244 391 2475 664 
Q 2706 938 2706 1416 
z
" transform="scale(0.015625)"/>
       </defs>
       <use xlink:href="#Arimo-36"/>
      </g>
     </g>
    </g>
    <g id="xtick_5">
     <g id="line2d_9">
      <g>
       <use xlink:href="#ma4cbb1fc1b" x="173.169688" y="218.16" style="stroke: #000000; stroke-width: 0.6"/>
      </g>
     </g>
     <g id="line2d_10">
      <g>
       <use xlink:href="#me2a270683a" x="173.169688" y="2.16" style="stroke: #000000; stroke-width: 0.6"/>
      </g>
     </g>
     <g id="text_5">
      <!-- 8 -->
      <g transform="translate(170.945312 227.4575) scale(0.08 -0.08)">
       <defs>
        <path id="Arimo-38" d="M 3281 1228 
Q 3281 619 2893 278 
Q 2506 -63 1781 -63 
Q 1075 -63 676 271 
Q 278 606 278 1222 
Q 278 1653 525 1947 
Q 772 2241 1156 2303 
L 1156 2316 
Q 797 2400 589 2681 
Q 381 2963 381 3341 
Q 381 3844 757 4156 
Q 1134 4469 1769 4469 
Q 2419 4469 2795 4162 
Q 3172 3856 3172 3334 
Q 3172 2956 2962 2675 
Q 2753 2394 2391 2322 
L 2391 2309 
Q 2813 2241 3047 1952 
Q 3281 1663 3281 1228 
z
M 2697 1281 
Q 2697 1691 2453 1898 
Q 2209 2106 1769 2106 
Q 1341 2106 1100 1882 
Q 859 1659 859 1269 
Q 859 359 1788 359 
Q 2247 359 2472 579 
Q 2697 800 2697 1281 
z
M 2588 3303 
Q 2588 4050 1769 4050 
Q 1372 4050 1164 3862 
Q 956 3675 956 3303 
Q 956 2925 1170 2726 
Q 1384 2528 1775 2528 
Q 2172 2528 2380 2711 
Q 2588 2894 2588 3303 
z
" transform="scale(0.015625)"/>
       </defs>
       <use xlink:href="#Arimo-38"/>
      </g>
     </g>
    </g>
    <g id="xtick_6">
     <g id="line2d_11">
      <defs>
       <path id="maaa397723d" d="M 0 0 
L 0 -2.4 
" style="stroke: #000000; stroke-width: 0.3"/>
      </defs>
      <g>
       <use xlink:href="#maaa397723d" x="47.169688" y="218.16" style="stroke: #000000; stroke-width: 0.3"/>
      </g>
     </g>
     <g id="line2d_12">
      <defs>
       <path id="m3d7ad0d251" d="M 0 0 
L 0 2.4 
" style="stroke: #000000; stroke-width: 0.3"/>
      </defs>
      <g>
       <use xlink:href="#m3d7ad0d251" x="47.169688" y="2.16" style="stroke: #000000; stroke-width: 0.3"/>
      </g>
     </g>
    </g>
    <g id="xtick_7">
     <g id="line2d_13">
      <g>
       <use xlink:href="#maaa397723d" x="83.169688" y="218.16" style="stroke: #000000; stroke-width: 0.3"/>
      </g>
     </g>
     <g id="line2d_14">
      <g>
       <use xlink:href="#m3d7ad0d251" x="83.169688" y="2.16" style="stroke: #000000; stroke-width: 0.3"/>
      </g>
     </g>
    </g>
    <g id="xtick_8">
     <g id="line2d_15">
      <g>
       <use xlink:href="#maaa397723d" x="119.169688" y="218.16" style="stroke: #000000; stroke-width: 0.3"/>
      </g>
     </g>
     <g id="line2d_16">
      <g>
       <use xlink:href="#m3d7ad0d251" x="119.169688" y="2.16" style="stroke: #000000; stroke-width: 0.3"/>
      </g>
     </g>
    </g>
    <g id="xtick_9">
     <g id="line2d_17">
      <g>
       <use xlink:href="#maaa397723d" x="155.169688" y="218.16" style="stroke: #000000; stroke-width: 0.3"/>
      </g>
     </g>
     <g id="line2d_18">
      <g>
       <use xlink:href="#m3d7ad0d251" x="155.169688" y="2.16" style="stroke: #000000; stroke-width: 0.3"/>
      </g>
     </g>
    </g>
    <g id="text_6">
     <!-- X Label [Unit] -->
     <g style="fill: #111111" transform="translate(74.155625 239.639687) scale(0.09 -0.09)">
      <defs>
       <path id="Arimo-58" d="M 3475 0 
L 2153 1925 
L 803 0 
L 144 0 
L 1819 2288 
L 272 4403 
L 931 4403 
L 2156 2675 
L 3347 4403 
L 4006 4403 
L 2500 2309 
L 4134 0 
L 3475 0 
z
" transform="scale(0.015625)"/>
       <path id="Arimo-20" transform="scale(0.015625)"/>
       <path id="Arimo-4c" d="M 525 0 
L 525 4403 
L 1122 4403 
L 1122 488 
L 3347 488 
L 3347 0 
L 525 0 
z
" transform="scale(0.015625)"/>
       <path id="Arimo-61" d="M 1294 -63 
Q 784 -63 528 206 
Q 272 475 272 944 
Q 272 1469 617 1750 
Q 963 2031 1731 2050 
L 2491 2063 
L 2491 2247 
Q 2491 2659 2316 2837 
Q 2141 3016 1766 3016 
Q 1388 3016 1216 2887 
Q 1044 2759 1009 2478 
L 422 2531 
Q 566 3444 1778 3444 
Q 2416 3444 2737 3151 
Q 3059 2859 3059 2306 
L 3059 850 
Q 3059 600 3125 473 
Q 3191 347 3375 347 
Q 3456 347 3559 369 
L 3559 19 
Q 3347 -31 3125 -31 
Q 2813 -31 2670 133 
Q 2528 297 2509 647 
L 2491 647 
Q 2275 259 1989 98 
Q 1703 -63 1294 -63 
z
M 1422 359 
Q 1731 359 1972 500 
Q 2213 641 2352 886 
Q 2491 1131 2491 1391 
L 2491 1669 
L 1875 1656 
Q 1478 1650 1273 1575 
Q 1069 1500 959 1344 
Q 850 1188 850 934 
Q 850 659 998 509 
Q 1147 359 1422 359 
z
" transform="scale(0.015625)"/>
       <path id="Arimo-62" d="M 3291 1706 
Q 3291 -63 2047 -63 
Q 1663 -63 1408 76 
Q 1153 216 994 525 
L 988 525 
Q 988 428 975 229 
Q 963 31 956 0 
L 413 0 
Q 431 169 431 697 
L 431 4638 
L 994 4638 
L 994 3316 
Q 994 3113 981 2838 
L 994 2838 
Q 1150 3163 1408 3303 
Q 1666 3444 2047 3444 
Q 2688 3444 2989 3012 
Q 3291 2581 3291 1706 
z
M 2700 1688 
Q 2700 2397 2512 2703 
Q 2325 3009 1903 3009 
Q 1428 3009 1211 2684 
Q 994 2359 994 1653 
Q 994 988 1206 670 
Q 1419 353 1897 353 
Q 2322 353 2511 667 
Q 2700 981 2700 1688 
z
" transform="scale(0.015625)"/>
       <path id="Arimo-65" d="M 863 1572 
Q 863 991 1103 675 
Q 1344 359 1806 359 
Q 2172 359 2392 506 
Q 2613 653 2691 878 
L 3184 738 
Q 2881 -63 1806 -63 
Q 1056 -63 664 384 
Q 272 831 272 1713 
Q 272 2550 664 2997 
Q 1056 3444 1784 3444 
Q 3275 3444 3275 1647 
L 3275 1572 
L 863 1572 
z
M 2694 2003 
Q 2647 2538 2422 2783 
Q 2197 3028 1775 3028 
Q 1366 3028 1127 2754 
Q 888 2481 869 2003 
L 2694 2003 
z
" transform="scale(0.015625)"/>
       <path id="Arimo-6c" d="M 431 0 
L 431 4638 
L 994 4638 
L 994 0 
L 431 0 
z
" transform="scale(0.015625)"/>
       <path id="Arimo-5b" d="M 456 -1328 
L 456 4638 
L 1728 4638 
L 1728 4234 
L 1000 4234 
L 1000 -925 
L 1728 -925 
L 1728 -1328 
L 456 -1328 
z
" transform="scale(0.015625)"/>
       <path id="Arimo-55" d="M 2284 -63 
Q 1744 -63 1341 134 
Q 938 331 716 706 
Q 494 1081 494 1600 
L 494 4403 
L 1091 4403 
L 1091 1650 
Q 1091 1047 1397 734 
Q 1703 422 2281 422 
Q 2875 422 3204 745 
Q 3534 1069 3534 1691 
L 3534 4403 
L 4128 4403 
L 4128 1656 
Q 4128 1122 3901 734 
Q 3675 347 3261 142 
Q 2847 -63 2284 -63 
z
" transform="scale(0.015625)"/>
       <path id="Arimo-6e" d="M 2578 0 
L 2578 2144 
Q 2578 2478 2512 2662 
Q 2447 2847 2303 2928 
Q 2159 3009 1881 3009 
Q 1475 3009 1240 2731 
Q 1006 2453 1006 1959 
L 1006 0 
L 444 0 
L 444 2659 
Q 444 3250 425 3381 
L 956 3381 
Q 959 3366 962 3297 
Q 966 3228 970 3139 
Q 975 3050 981 2803 
L 991 2803 
Q 1184 3153 1439 3298 
Q 1694 3444 2072 3444 
Q 2628 3444 2886 3167 
Q 3144 2891 3144 2253 
L 3144 0 
L 2578 0 
z
" transform="scale(0.015625)"/>
       <path id="Arimo-69" d="M 428 0 
L 428 3381 
L 991 3381 
L 991 0 
L 428 0 
z
M 428 4100 
L 428 4638 
L 991 4638 
L 991 4100 
L 428 4100 
z
" transform="scale(0.015625)"/>
       <path id="Arimo-74" d="M 1731 25 
Q 1453 -50 1163 -50 
Q 488 -50 488 716 
L 488 2972 
L 97 2972 
L 97 3381 
L 509 3381 
L 675 4138 
L 1050 4138 
L 1050 3381 
L 1675 3381 
L 1675 2972 
L 1050 2972 
L 1050 838 
Q 1050 594 1129 495 
Q 1209 397 1406 397 
Q 1519 397 1731 441 
L 1731 25 
z
" transform="scale(0.015625)"/>
       <path id="Arimo-5d" d="M 50 -1328 
L 50 -925 
L 778 -925 
L 778 4234 
L 50 4234 
L 50 4638 
L 1322 4638 
L 1322 -1328 
L 50 -1328 
z
" transform="scale(0.015625)"/>
      </defs>
      <use xlink:href="#Arimo-58"/>
      <use xlink:href="#Arimo-20" x="66.699219"/>
      <use xlink:href="#Arimo-4c" x="94.482422"/>
      <use xlink:href="#Arimo-61" x="150.097656"/>
      <use xlink:href="#Arimo-62" x="205.712891"/>
      <use xlink:href="#Arimo-65" x="261.328125"/>
      <use xlink:href="#Arimo-6c" x="316.943359"/>
      <use xlink:href="#Arimo-20" x="339.160156"/>
      <use xlink:href="#Arimo-5b" x="366.943359"/>
      <use xlink:href="#Arimo-55" x="394.726562"/>
      <use xlink:href="#Arimo-6e" x="466.943359"/>
      <use xlink:href="#Arimo-69" x="522.558594"/>
      <use xlink:href="#Arimo-74" x="544.775391"/>
      <use xlink:href="#Arimo-5d" x="572.558594"/>
     </g>
    </g>
   </g>
   <g id="matplotlib.axis_2">
    <g id="ytick_1">
     <g id="line2d_19">
      <defs>
       <path id="mef17ae977d" d="M 0 0 
L 4 0 
" style="stroke: #000000; stroke-width: 0.6"/>
      </defs>
      <g>
       <use xlink:href="#mef17ae977d" x="29.169688" y="218.16" style="stroke: #000000; stroke-width: 0.6"/>
      </g>
     </g>
     <g id="line2d_20">
      <defs>
       <path id="m0664673376" d="M 0 0 
L -4 0 
" style="stroke: #000000; stroke-width: 0.6"/>
      </defs>
      <g>
       <use xlink:href="#m0664673376" x="173.169688" y="218.16" style="stroke: #000000; stroke-width: 0.6"/>
      </g>
     </g>
     <g id="text_7">
      <!-- 0.0 -->
      <g transform="translate(14.549688 221.05875) scale(0.08 -0.08)">
       <defs>
        <path id="Arimo-2e" d="M 584 0 
L 584 684 
L 1194 684 
L 1194 0 
L 584 0 
z
" transform="scale(0.015625)"/>
       </defs>
       <use xlink:href="#Arimo-30"/>
       <use xlink:href="#Arimo-2e" x="55.615234"/>
       <use xlink:href="#Arimo-30" x="83.398438"/>
      </g>
     </g>
    </g>
    <g id="ytick_2">
     <g id="line2d_21">
      <g>
       <use xlink:href="#mef17ae977d" x="29.169688" y="183.6" style="stroke: #000000; stroke-width: 0.6"/>
      </g>
     </g>
     <g id="line2d_22">
      <g>
       <use xlink:href="#m0664673376" x="173.169688" y="183.6" style="stroke: #000000; stroke-width: 0.6"/>
      </g>
     </g>
     <g id="text_8">
      <!-- 0.2 -->
      <g transform="translate(14.549688 186.49875) scale(0.08 -0.08)">
       <use xlink:href="#Arimo-30"/>
       <use xlink:href="#Arimo-2e" x="55.615234"/>
       <use xlink:href="#Arimo-32" x="83.398438"/>
      </g>
     </g>
    </g>
    <g id="ytick_3">
     <g id="line2d_23">
      <g>
       <use xlink:href="#mef17ae977d" x="29.169688" y="149.04" style="stroke: #000000; stroke-width: 0.6"/>
      </g>
     </g>
     <g id="line2d_24">
      <g>
       <use xlink:href="#m0664673376" x="173.169688" y="149.04" style="stroke: #000000; stroke-width: 0.6"/>
      </g>
     </g>
     <g id="text_9">
      <!-- 0.4 -->
      <g transform="translate(14.549688 151.93875) scale(0.08 -0.08)">
       <use xlink:href="#Arimo-30"/>
       <use xlink:href="#Arimo-2e" x="55.615234"/>
       <use xlink:href="#Arimo-34" x="83.398438"/>
      </g>
     </g>
    </g>
    <g id="ytick_4">
     <g id="line2d_25">
      <g>
       <use xlink:href="#mef17ae977d" x="29.169688" y="114.48" style="stroke: #000000; stroke-width: 0.6"/>
      </g>
     </g>
     <g id="line2d_26">
      <g>
       <use xlink:href="#m0664673376" x="173.169688" y="114.48" style="stroke: #000000; stroke-width: 0.6"/>
      </g>
     </g>
     <g id="text_10">
      <!-- 0.6 -->
      <g transform="translate(14.549688 117.37875) scale(0.08 -0.08)">
       <use xlink:href="#Arimo-30"/>
       <use xlink:href="#Arimo-2e" x="55.615234"/>
       <use xlink:href="#Arimo-36" x="83.398438"/>
      </g>
     </g>
    </g>
    <g id="ytick_5">
     <g id="line2d_27">
      <g>
       <use xlink:href="#mef17ae977d" x="29.169688" y="79.92" style="stroke: #000000; stroke-width: 0.6"/>
      </g>
     </g>
     <g id="line2d_28">
      <g>
       <use xlink:href="#m0664673376" x="173.169688" y="79.92" style="stroke: #000000; stroke-width: 0.6"/>
      </g>
     </g>
     <g id="text_11">
      <!-- 0.8 -->
      <g transform="translate(14.549688 82.81875) scale(0.08 -0.08)">
       <use xlink:href="#Arimo-30"/>
       <use xlink:href="#Arimo-2e" x="55.615234"/>
       <use xlink:href="#Arimo-38" x="83.398438"/>
      </g>
     </g>
    </g>
    <g id="ytick_6">
     <g id="line2d_29">
      <g>
       <use xlink:href="#mef17ae977d" x="29.169688" y="45.36" style="stroke: #000000; stroke-width: 0.6"/>
      </g>
     </g>
     <g id="line2d_30">
      <g>
       <use xlink:href="#m0664673376" x="173.169688" y="45.36" style="stroke: #000000; stroke-width: 0.6"/>
      </g>
     </g>
     <g id="text_12">
      <!-- 1.0 -->
      <g transform="translate(14.549688 48.25875) scale(0.08 -0.08)">
       <defs>
        <path id="Arimo-31" d="M 488 0 
L 488 478 
L 1609 478 
L 1609 3866 
L 616 3156 
L 616 3688 
L 1656 4403 
L 2175 4403 
L 2175 478 
L 3247 478 
L 3247 0 
L 488 0 
z
" transform="scale(0.015625)"/>
       </defs>
       <use xlink:href="#Arimo-31"/>
       <use xlink:href="#Arimo-2e" x="55.615234"/>
       <use xlink:href="#Arimo-30" x="83.398438"/>
      </g>
     </g>
    </g>
    <g id="ytick_7">
     <g id="line2d_31">
      <g>
       <use xlink:href="#mef17ae977d" x="29.169688" y="10.8" style="stroke: #000000; stroke-width: 0.6"/>
      </g>
     </g>
     <g id="line2d_32">
      <g>
       <use xlink:href="#m0664673376" x="173.169688" y="10.8" style="stroke: #000000; stroke-width: 0.6"/>
      </g>
     </g>
     <g id="text_13">
      <!-- 1.2 -->
      <g transform="translate(14.549688 13.69875) scale(0.08 -0.08)">
       <use xlink:href="#Arimo-31"/>
       <use xlink:href="#Arimo-2e" x="55.615234"/>
       <use xlink:href="#Arimo-32" x="83.398438"/>
      </g>
     </g>
    </g>
    <g id="ytick_8">
     <g id="line2d_33">
      <defs>
       <path id="m37fbfba9c5" d="M 0 0 
L 2.4 0 
" style="stroke: #000000; stroke-width: 0.3"/>
      </defs>
      <g>
       <use xlink:href="#m37fbfba9c5" x="29.169688" y="200.88" style="stroke: #000000; stroke-width: 0.3"/>
      </g>
     </g>
     <g id="line2d_34">
      <defs>
       <path id="m837676e63d" d="M 0 0 
L -2.4 0 
" style="stroke: #000000; stroke-width: 0.3"/>
      </defs>
      <g>
       <use xlink:href="#m837676e63d" x="173.169688" y="200.88" style="stroke: #000000; stroke-width: 0.3"/>
      </g>
     </g>
    </g>
    <g id="ytick_9">
     <g id="line2d_35">
      <g>
       <use xlink:href="#m37fbfba9c5" x="29.169688" y="166.32" style="stroke: #000000; stroke-width: 0.3"/>
      </g>
     </g>
     <g id="line2d_36">
      <g>
       <use xlink:href="#m837676e63d" x="173.169688" y="166.32" style="stroke: #000000; stroke-width: 0.3"/>
      </g>
     </g>
    </g>
    <g id="ytick_10">
     <g id="line2d_37">
      <g>
       <use xlink:href="#m37fbfba9c5" x="29.169688" y="131.76" style="stroke: #000000; stroke-width: 0.3"/>
      </g>
     </g>
     <g id="line2d_38">
      <g>
       <use xlink:href="#m837676e63d" x="173.169688" y="131.76" style="stroke: #000000; stroke-width: 0.3"/>
      </g>
     </g>
    </g>
    <g id="ytick_11">
     <g id="line2d_39">
      <g>
       <use xlink:href="#m37fbfba9c5" x="29.169688" y="97.2" style="stroke: #000000; stroke-width: 0.3"/>
      </g>
     </g>
     <g id="line2d_40">
      <g>
       <use xlink:href="#m837676e63d" x="173.169688" y="97.2" style="stroke: #000000; stroke-width: 0.3"/>
      </g>
     </g>
    </g>
    <g id="ytick_12">
     <g id="line2d_41">
      <g>
       <use xlink:href="#m37fbfba9c5" x="29.169688" y="62.64" style="stroke: #000000; stroke-width: 0.3"/>
      </g>
     </g>
     <g id="line2d_42">
      <g>
       <use xlink:href="#m837676e63d" x="173.169688" y="62.64" style="stroke: #000000; stroke-width: 0.3"/>
      </g>
     </g>
    </g>
    <g id="ytick_13">
     <g id="line2d_43">
      <g>
       <use xlink:href="#m37fbfba9c5" x="29.169688" y="28.08" style="stroke: #000000; stroke-width: 0.3"/>
      </g>
     </g>
     <g id="line2d_44">
      <g>
       <use xlink:href="#m837676e63d" x="173.169688" y="28.08" style="stroke: #000000; stroke-width: 0.3"/>
      </g>
     </g>
    </g>
    <g id="text_14">
     <!-- Y Label [Unit] -->
     <g style="fill: #111111" transform="translate(8.682187 137.174062) rotate(-90) scale(0.09 -0.09)">
      <defs>
       <path id="Arimo-59" d="M 2428 1825 
L 2428 0 
L 1834 0 
L 1834 1825 
L 141 4403 
L 797 4403 
L 2138 2306 
L 3472 4403 
L 4128 4403 
L 2428 1825 
z
" transform="scale(0.015625)"/>
      </defs>
      <use xlink:href="#Arimo-59"/>
      <use xlink:href="#Arimo-20" x="66.699219"/>
      <use xlink:href="#Arimo-4c" x="94.482422"/>
      <use xlink:href="#Arimo-61" x="150.097656"/>
      <use xlink:href="#Arimo-62" x="205.712891"/>
      <use xlink:href="#Arimo-65" x="261.328125"/>
      <use xlink:href="#Arimo-6c" x="316.943359"/>
      <use xlink:href="#Arimo-20" x="339.160156"/>
      <use xlink:href="#Arimo-5b" x="366.943359"/>
      <use xlink:href="#Arimo-55" x="394.726562"/>
      <use xlink:href="#Arimo-6e" x="466.943359"/>
      <use xlink:href="#Arimo-69" x="522.558594"/>
      <use xlink:href="#Arimo-74" x="544.775391"/>
      <use xlink:href="#Arimo-5d" x="572.558594"/>
     </g>
    </g>
   </g>
   <g id="line2d_45">
    <path d="M 29.169688 71.28 
L 34.948952 56.010867 
L 38.320189 47.729265 
L 41.209821 41.276089 
L 43.617848 36.481375 
L 45.544269 33.089591 
L 47.470691 30.134824 
L 49.397112 27.650884 
L 50.841928 26.11422 
L 52.286744 24.868399 
L 53.73156 23.921441 
L 55.176376 23.279444 
L 56.621193 22.946544 
L 58.066009 22.924883 
L 59.510825 23.214602 
L 60.955641 23.813833 
L 62.400457 24.718719 
L 63.845273 25.923434 
L 65.290089 27.420218 
L 66.734905 29.199434 
L 68.661326 31.991004 
L 70.587748 35.232162 
L 72.514169 38.885818 
L 74.922196 43.96886 
L 77.811828 50.704116 
L 81.183065 59.21772 
L 86.96233 74.621142 
L 91.778383 87.263373 
L 95.149621 95.4871 
L 97.557647 100.858527 
L 99.965674 105.701379 
L 101.892096 109.136572 
L 103.818517 112.138569 
L 105.744938 114.673018 
L 107.189754 116.24937 
L 108.63457 117.536144 
L 110.079386 118.525056 
L 111.524203 119.209737 
L 112.969019 119.585778 
L 114.413835 119.650757 
L 115.858651 119.404257 
L 117.303467 118.847865 
L 118.748283 117.985163 
L 120.193099 116.821706 
L 121.637915 115.364988 
L 123.082731 113.624387 
L 125.009152 110.88162 
L 126.935574 107.685688 
L 128.861995 104.073162 
L 131.270022 99.035064 
L 134.159654 92.343207 
L 137.530892 83.864335 
L 142.82855 69.770859 
L 148.126209 55.807166 
L 151.497447 47.541834 
L 153.905473 42.13054 
L 156.3135 37.240153 
L 158.239922 33.761978 
L 160.166343 30.713125 
L 162.092764 28.128482 
L 163.53758 26.512639 
L 164.982397 25.185072 
L 166.427213 24.154329 
L 167.872029 23.427049 
L 169.316845 23.007914 
L 170.761661 22.899624 
L 172.206477 23.102875 
L 173.169688 23.410891 
L 173.169688 23.410891 
" clip-path="url(#p293ecc2613)" style="fill: none; stroke: #2a2f80; stroke-linecap: square"/>
   </g>
   <g id="line2d_46">
    <path d="M 29.169688 85.104 
L 30.132898 85.182351 
L 31.096109 85.417083 
L 32.540925 86.060101 
L 33.985741 87.046685 
L 35.430557 88.367691 
L 36.875373 90.01087 
L 38.320189 91.960989 
L 40.246611 95.006976 
L 42.173032 98.516016 
L 44.581059 103.464782 
L 47.470691 110.058351 
L 51.323534 119.556554 
L 58.066009 136.356274 
L 60.955641 142.934289 
L 63.363667 147.865566 
L 65.290089 151.357969 
L 67.21651 154.38526 
L 68.661326 156.320192 
L 70.106142 157.947339 
L 71.550958 159.251616 
L 72.995774 160.220932 
L 74.440591 160.846302 
L 75.403801 161.069137 
L 76.367012 161.135544 
L 77.330223 161.045251 
L 78.293433 160.798629 
L 79.738249 160.137978 
L 81.183065 159.134149 
L 82.627881 157.796448 
L 84.072698 156.137276 
L 85.517514 154.172015 
L 87.443935 151.107406 
L 89.370356 147.581813 
L 91.778383 142.615677 
L 94.668015 136.00671 
L 98.520858 126.498111 
L 105.263333 109.709418 
L 108.152965 103.147115 
L 110.560992 98.233445 
L 112.487413 94.757764 
L 114.413835 91.74924 
L 115.858651 89.829543 
L 117.303467 88.218467 
L 118.748283 86.930949 
L 120.193099 85.978924 
L 121.637915 85.371218 
L 122.601126 85.160285 
L 123.564336 85.105822 
L 124.527547 85.208055 
L 125.490758 85.466562 
L 126.935574 86.144831 
L 128.38039 87.16588 
L 129.825206 88.520246 
L 131.270022 90.19537 
L 132.714838 92.175726 
L 134.641259 95.258883 
L 136.567681 98.800945 
L 138.975708 103.784333 
L 141.86534 110.408537 
L 145.718182 119.927305 
L 152.460657 136.704569 
L 155.35029 143.251002 
L 157.758316 148.146948 
L 159.684738 151.605824 
L 161.611159 154.595508 
L 163.055975 156.499925 
L 164.500791 158.094891 
L 165.945607 159.365619 
L 167.390423 160.30033 
L 168.835239 160.890357 
L 169.79845 161.089384 
L 170.761661 161.1319 
L 171.724871 161.01773 
L 172.688082 160.747344 
L 173.169688 160.553894 
L 173.169688 160.553894 
" clip-path="url(#p293ecc2613)" style="fill: none; stroke-dasharray: 3.7,1.6; stroke-dashoffset: 0; stroke: #808080"/>
   </g>
   <g id="line2d_47">
    <path d="M 29.169688 136.690886 
L 31.577714 135.04548 
L 33.504136 133.957569 
L 35.430557 133.081429 
L 37.356978 132.423479 
L 39.2834 131.988539 
L 41.209821 131.779796 
L 43.136243 131.798778 
L 45.062664 132.045347 
L 46.989085 132.517695 
L 48.915507 133.212364 
L 50.841928 134.124263 
L 52.76835 135.246712 
L 55.176376 136.93319 
L 57.584403 138.916396 
L 59.99243 141.173636 
L 62.882062 144.207478 
L 66.2533 148.131547 
L 70.106142 153.014948 
L 75.403801 160.169323 
L 85.035908 173.276374 
L 88.888751 178.118466 
L 92.259989 181.993812 
L 95.149621 184.977403 
L 97.557647 187.187406 
L 99.965674 189.119074 
L 102.373701 190.750303 
L 104.300122 191.826305 
L 106.226544 192.690127 
L 108.152965 193.335439 
L 110.079386 193.757516 
L 112.005808 193.953264 
L 113.932229 193.921249 
L 115.858651 193.661705 
L 117.785072 193.176535 
L 119.711494 192.469293 
L 121.637915 191.54516 
L 123.564336 190.410906 
L 125.972363 188.710407 
L 128.38039 186.714145 
L 130.788417 184.444965 
L 133.678049 181.398458 
L 137.049286 177.462167 
L 140.902129 172.568496 
L 146.199788 165.406944 
L 155.831895 152.308263 
L 159.684738 147.477014 
L 163.055975 143.614348 
L 165.945607 140.643777 
L 168.353634 138.445978 
L 170.761661 136.527596 
L 173.169688 134.910583 
L 173.169688 134.910583 
" clip-path="url(#p293ecc2613)" style="fill: none; stroke-dasharray: 1,1.65; stroke-dashoffset: 0; stroke: #000000"/>
   </g>
   <g id="patch_3">
    <path d="M 29.169688 218.16 
L 29.169688 2.16 
" style="fill: none; stroke: #000000; stroke-width: 0.6; stroke-linejoin: miter; stroke-linecap: square"/>
   </g>
   <g id="patch_4">
    <path d="M 173.169688 218.16 
L 173.169688 2.16 
" style="fill: none; stroke: #000000; stroke-width: 0.6; stroke-linejoin: miter; stroke-linecap: square"/>
   </g>
   <g id="patch_5">
    <path d="M 29.169688 218.16 
L 173.169688 218.16 
" style="fill: none; stroke: #000000; stroke-width: 0.6; stroke-linejoin: miter; stroke-linecap: square"/>
   </g>
   <g id="patch_6">
    <path d="M 29.169688 2.16 
L 173.169688 2.16 
" style="fill: none; stroke: #000000; stroke-width: 0.6; stroke-linejoin: miter; stroke-linecap: square"/>
   </g>
   <g id="legend_1">
    <g id="line2d_48">
     <path d="M 109.774688 12.3575 
L 117.774688 12.3575 
L 125.774688 12.3575 
" style="fill: none; stroke: #2a2f80; stroke-linecap: square"/>
    </g>
    <g id="text_15">
     <!-- Sample 1 -->
     <g transform="translate(132.174688 15.1575) scale(0.08 -0.08)">
      <defs>
       <path id="Arimo-53" d="M 3975 1216 
Q 3975 606 3498 271 
Q 3022 -63 2156 -63 
Q 547 -63 291 1056 
L 869 1172 
Q 969 775 1294 589 
Q 1619 403 2178 403 
Q 2756 403 3070 601 
Q 3384 800 3384 1184 
Q 3384 1400 3286 1534 
Q 3188 1669 3009 1756 
Q 2831 1844 2584 1903 
Q 2338 1963 2038 2031 
Q 1516 2147 1245 2262 
Q 975 2378 819 2520 
Q 663 2663 580 2853 
Q 497 3044 497 3291 
Q 497 3856 930 4162 
Q 1363 4469 2169 4469 
Q 2919 4469 3316 4239 
Q 3713 4009 3872 3456 
L 3284 3353 
Q 3188 3703 2916 3861 
Q 2644 4019 2163 4019 
Q 1634 4019 1356 3844 
Q 1078 3669 1078 3322 
Q 1078 3119 1186 2986 
Q 1294 2853 1497 2761 
Q 1700 2669 2306 2534 
Q 2509 2488 2711 2439 
Q 2913 2391 3097 2323 
Q 3281 2256 3442 2165 
Q 3603 2075 3722 1944 
Q 3841 1813 3908 1634 
Q 3975 1456 3975 1216 
z
" transform="scale(0.015625)"/>
       <path id="Arimo-6d" d="M 2400 0 
L 2400 2144 
Q 2400 2634 2265 2821 
Q 2131 3009 1781 3009 
Q 1422 3009 1212 2734 
Q 1003 2459 1003 1959 
L 1003 0 
L 444 0 
L 444 2659 
Q 444 3250 425 3381 
L 956 3381 
Q 959 3366 962 3297 
Q 966 3228 970 3139 
Q 975 3050 981 2803 
L 991 2803 
Q 1172 3163 1406 3303 
Q 1641 3444 1978 3444 
Q 2363 3444 2586 3291 
Q 2809 3138 2897 2803 
L 2906 2803 
Q 3081 3144 3329 3294 
Q 3578 3444 3931 3444 
Q 4444 3444 4676 3166 
Q 4909 2888 4909 2253 
L 4909 0 
L 4353 0 
L 4353 2144 
Q 4353 2634 4218 2821 
Q 4084 3009 3734 3009 
Q 3366 3009 3161 2736 
Q 2956 2463 2956 1959 
L 2956 0 
L 2400 0 
z
" transform="scale(0.015625)"/>
       <path id="Arimo-70" d="M 3291 1706 
Q 3291 -63 2047 -63 
Q 1266 -63 997 525 
L 981 525 
Q 994 500 994 -6 
L 994 -1328 
L 431 -1328 
L 431 2691 
Q 431 3213 413 3381 
L 956 3381 
Q 959 3369 965 3292 
Q 972 3216 980 3056 
Q 988 2897 988 2838 
L 1000 2838 
Q 1150 3150 1397 3295 
Q 1644 3441 2047 3441 
Q 2672 3441 2981 3022 
Q 3291 2603 3291 1706 
z
M 2700 1694 
Q 2700 2400 2509 2703 
Q 2319 3006 1903 3006 
Q 1569 3006 1380 2865 
Q 1191 2725 1092 2426 
Q 994 2128 994 1650 
Q 994 984 1206 668 
Q 1419 353 1897 353 
Q 2316 353 2508 661 
Q 2700 969 2700 1694 
z
" transform="scale(0.015625)"/>
      </defs>
      <use xlink:href="#Arimo-53"/>
      <use xlink:href="#Arimo-61" x="66.699219"/>
      <use xlink:href="#Arimo-6d" x="122.314453"/>
      <use xlink:href="#Arimo-70" x="205.615234"/>
      <use xlink:href="#Arimo-6c" x="261.230469"/>
      <use xlink:href="#Arimo-65" x="283.447266"/>
      <use xlink:href="#Arimo-20" x="339.0625"/>
      <use xlink:href="#Arimo-31" x="366.845703"/>
     </g>
    </g>
    <g id="line2d_49">
     <path d="M 109.774688 23.815 
L 117.774688 23.815 
L 125.774688 23.815 
" style="fill: none; stroke-dasharray: 3.7,1.6; stroke-dashoffset: 0; stroke: #808080"/>
    </g>
    <g id="text_16">
     <!-- Sample 2 -->
     <g transform="translate(132.174688 26.615) scale(0.08 -0.08)">
      <use xlink:href="#Arimo-53"/>
      <use xlink:href="#Arimo-61" x="66.699219"/>
      <use xlink:href="#Arimo-6d" x="122.314453"/>
      <use xlink:href="#Arimo-70" x="205.615234"/>
      <use xlink:href="#Arimo-6c" x="261.230469"/>
      <use xlink:href="#Arimo-65" x="283.447266"/>
      <use xlink:href="#Arimo-20" x="339.0625"/>
      <use xlink:href="#Arimo-32" x="366.845703"/>
     </g>
    </g>
    <g id="line2d_50">
     <path d="M 109.774688 35.2725 
L 117.774688 35.2725 
L 125.774688 35.2725 
" style="fill: none; stroke-dasharray: 1,1.65; stroke-dashoffset: 0; stroke: #000000"/>
    </g>
    <g id="text_17">
     <!-- Sample 3 -->
     <g transform="translate(132.174688 38.0725) scale(0.08 -0.08)">
      <defs>
       <path id="Arimo-33" d="M 3278 1216 
Q 3278 606 2890 271 
Q 2503 -63 1784 -63 
Q 1116 -63 717 239 
Q 319 541 244 1131 
L 825 1184 
Q 938 403 1784 403 
Q 2209 403 2451 612 
Q 2694 822 2694 1234 
Q 2694 1594 2417 1795 
Q 2141 1997 1619 1997 
L 1300 1997 
L 1300 2484 
L 1606 2484 
Q 2069 2484 2323 2686 
Q 2578 2888 2578 3244 
Q 2578 3597 2370 3801 
Q 2163 4006 1753 4006 
Q 1381 4006 1151 3815 
Q 922 3625 884 3278 
L 319 3322 
Q 381 3863 767 4166 
Q 1153 4469 1759 4469 
Q 2422 4469 2789 4161 
Q 3156 3853 3156 3303 
Q 3156 2881 2920 2617 
Q 2684 2353 2234 2259 
L 2234 2247 
Q 2728 2194 3003 1916 
Q 3278 1638 3278 1216 
z
" transform="scale(0.015625)"/>
      </defs>
      <use xlink:href="#Arimo-53"/>
      <use xlink:href="#Arimo-61" x="66.699219"/>
      <use xlink:href="#Arimo-6d" x="122.314453"/>
      <use xlink:href="#Arimo-70" x="205.615234"/>
      <use xlink:href="#Arimo-6c" x="261.230469"/>
      <use xlink:href="#Arimo-65" x="283.447266"/>
      <use xlink:href="#Arimo-20" x="339.0625"/>
      <use xlink:href="#Arimo-33" x="366.845703"/>
     </g>
    </g>
   </g>
  </g>
 </g>
 <defs>
  <clipPath id="p293ecc2613">
   <rect x="29.169688" y="2.16" width="144" height="216"/>
  </clipPath>
 </defs>
</svg>
