<?xml version="1.0" encoding="utf-8" standalone="no"?>
<!DOCTYPE svg PUBLIC "-//W3C//DTD SVG 1.1//EN"
  "http://www.w3.org/Graphics/SVG/1.1/DTD/svg11.dtd">
<svg xmlns:xlink="http://www.w3.org/1999/xlink" width="231.24pt" height="158.4pt" viewBox="0 0 231.24 158.4" xmlns="http://www.w3.org/2000/svg" version="1.1">
 <metadata>
  <rdf:RDF xmlns:dc="http://purl.org/dc/elements/1.1/" xmlns:cc="http://creativecommons.org/ns#" xmlns:rdf="http://www.w3.org/1999/02/22-rdf-syntax-ns#">
   <cc:Work>
    <dc:type rdf:resource="http://purl.org/dc/dcmitype/StillImage"/>
    <dc:date>2026-06-26T18:18:07.795735</dc:date>
    <dc:format>image/svg+xml</dc:format>
    <dc:creator>
     <cc:Agent>
      <dc:title>Matplotlib v3.7.2, https://matplotlib.org/</dc:title>
     </cc:Agent>
    </dc:creator>
   </cc:Work>
  </rdf:RDF>
 </metadata>
 <defs>
  <style type="text/css">*{stroke-linejoin: round; stroke-linecap: butt}</style>
 </defs>
 <g id="figure_1">
  <g id="patch_1">
   <path d="M 0 158.4
L 231.24 158.4
L 231.24 0
L 0 0
z
" style="fill: #ffffff"/>
  </g>
  <g id="axes_1">
   <g id="patch_2">
    <path d="M 30.24 133.2
L 224.64 133.2
L 224.64 3.6
L 30.24 3.6
z
" style="fill: #ffffff"/>
   </g>
   <g id="matplotlib.axis_1">
    <g id="xtick_1">
     <g id="line2d_1">
      <defs>
       <path id="m0c970007ab" d="M 0 0
L 0 -4
" style="stroke: #000000; stroke-width: 0.6"/>
      </defs>
      <g>
       <use xlink:href="#m0c970007ab" x="30.24" y="133.2" style="stroke: #000000; stroke-width: 0.6"/>
      </g>
     </g>
     <g id="line2d_2">
      <defs>
       <path id="m63305a4bb7" d="M 0 0
L 0 4
" style="stroke: #000000; stroke-width: 0.6"/>
      </defs>
      <g>
       <use xlink:href="#m63305a4bb7" x="30.24" y="3.6" style="stroke: #000000; stroke-width: 0.6"/>
      </g>
     </g>
     <g id="text_1">
      <!-- 0 -->
      <g transform="translate(28.015625 142.4975) scale(0.08 -0.08)">
       <defs>
        <path id="Arimo-30" d="M 3309 2203
Q 3309 1100 2920 518
Q 2531 -63 1772 -63
Q 1013 -63 631 515
Q 250 1094 250 2203
Q 250 3338 620 3903
Q 991 4469 1791 4469
Q 2569 4469 2939 3897
Q 3309 3325 3309 2203
z
M 2738 2203
Q 2738 3156 2517 3584
Q 2297 4013 1791 4013
Q 1272 4013 1045 3591
Q 819 3169 819 2203
Q 819 1266 1048 831
Q 1278 397 1778 397
Q 2275 397 2506 840
Q 2738 1284 2738 2203
z
" transform="scale(0.015625)"/>
       </defs>
       <use xlink:href="#Arimo-30"/>
      </g>
     </g>
    </g>
    <g id="xtick_2">
     <g id="line2d_3">
      <g>
       <use xlink:href="#m0c970007ab" x="69.12" y="133.2" style="stroke: #000000; stroke-width: 0.6"/>
      </g>
     </g>
     <g id="line2d_4">
      <g>
       <use xlink:href="#m63305a4bb7" x="69.12" y="3.6" style="stroke: #000000; stroke-width: 0.6"/>
      </g>
     </g>
     <g id="text_2">
      <!-- 2 -->
      <g transform="translate(66.895625 142.4975) scale(0.08 -0.08)">
       <defs>
        <path id="Arimo-32" d="M 322 0
L 322 397
Q 481 763 711 1042
Q 941 1322 1194 1548
Q 1447 1775 1695 1969
Q 1944 2163 2144 2356
Q 2344 2550 2467 2762
Q 2591 2975 2591 3244
Q 2591 3606 2378 3806
Q 2166 4006 1788 4006
Q 1428 4006 1195 3811
Q 963 3616 922 3263
L 347 3316
Q 409 3844 795 4156
Q 1181 4469 1788 4469
Q 2453 4469 2811 4155
Q 3169 3841 3169 3263
Q 3169 3006 3051 2753
Q 2934 2500 2703 2247
Q 2472 1994 1819 1463
Q 1459 1169 1246 933
Q 1034 697 941 478
L 3238 478
L 3238 0
L 322 0
z
" transform="scale(0.015625)"/>
       </defs>
       <use xlink:href="#Arimo-32"/>
      </g>
     </g>
    </g>
    <g id="xtick_3">
     <g id="line2d_5">
      <g>
       <use xlink:href="#m0c970007ab" x="108" y="133.2" style="stroke: #000000; stroke-width: 0.6"/>
      </g>
     </g>
     <g id="line2d_6">
      <g>
       <use xlink:href="#m63305a4bb7" x="108" y="3.6" style="stroke: #000000; stroke-width: 0.6"/>
      </g>
     </g>
     <g id="text_3">
      <!-- 4 -->
      <g transform="translate(105.775625 142.4975) scale(0.08 -0.08)">
       <defs>
        <path id="Arimo-34" d="M 2753 997
L 2753 0
L 2222 0
L 2222 997
L 147 997
L 147 1434
L 2163 4403
L 2753 4403
L 2753 1441
L 3372 1441
L 3372 997
L 2753 997
z
M 2222 1441
L 2222 3769
Q 2150 3631 2101 3543
Q 2053 3456 2013 3397
L 1003 1903
Q 916 1775 666 1441
L 2222 1441
z
" transform="scale(0.015625)"/>
       </defs>
       <use xlink:href="#Arimo-34"/>
      </g>
     </g>
    </g>
    <g id="xtick_4">
     <g id="line2d_7">
      <g>
       <use xlink:href="#m0c970007ab" x="146.88" y="133.2" style="stroke: #000000; stroke-width: 0.6"/>
      </g>
     </g>
     <g id="line2d_8">
      <g>
       <use xlink:href="#m63305a4bb7" x="146.88" y="3.6" style="stroke: #000000; stroke-width: 0.6"/>
      </g>
     </g>
     <g id="text_4">
      <!-- 6 -->
      <g transform="translate(144.655625 142.4975) scale(0.08 -0.08)">
       <defs>
        <path id="Arimo-36" d="M 3278 1441
Q 3278 744 2900 340
Q 2522 -63 1856 -63
Q 1113 -63 719 490
Q 325 1044 325 2100
Q 325 3244 734 3856
Q 1144 4469 1900 4469
Q 2897 4469 3156 3572
L 2619 3475
Q 2453 4013 1894 4013
Q 1413 4013 1148 3564
Q 884 3116 884 2266
Q 1038 2550 1316 2698
Q 1594 2847 1953 2847
Q 2563 2847 2920 2465
Q 3278 2084 3278 1441
z
M 2706 1416
Q 2706 1894 2472 2153
Q 2238 2413 1819 2413
Q 1425 2413 1183 2183
Q 941 1953 941 1550
Q 941 1041 1192 716
Q 1444 391 1838 391
Q 2244 391 2475 664
Q 2706 938 2706 1416
z
" transform="scale(0.015625)"/>
       </defs>
       <use xlink:href="#Arimo-36"/>
      </g>
     </g>
    </g>
    <g id="xtick_5">
     <g id="line2d_9">
      <g>
       <use xlink:href="#m0c970007ab" x="185.76" y="133.2" style="stroke: #000000; stroke-width: 0.6"/>
      </g>
     </g>
     <g id="line2d_10">
      <g>
       <use xlink:href="#m63305a4bb7" x="185.76" y="3.6" style="stroke: #000000; stroke-width: 0.6"/>
      </g>
     </g>
     <g id="text_5">
      <!-- 8 -->
      <g transform="translate(183.535625 142.4975) scale(0.08 -0.08)">
       <defs>
        <path id="Arimo-38" d="M 3281 1228
Q 3281 619 2893 278
Q 2506 -63 1781 -63
Q 1075 -63 676 271
Q 278 606 278 1222
Q 278 1653 525 1947
Q 772 2241 1156 2303
L 1156 2316
Q 797 2400 589 2681
Q 381 2963 381 3341
Q 381 3844 757 4156
Q 1134 4469 1769 4469
Q 2419 4469 2795 4162
Q 3172 3856 3172 3334
Q 3172 2956 2962 2675
Q 2753 2394 2391 2322
L 2391 2309
Q 2813 2241 3047 1952
Q 3281 1663 3281 1228
z
M 2697 1281
Q 2697 1691 2453 1898
Q 2209 2106 1769 2106
Q 1341 2106 1100 1882
Q 859 1659 859 1269
Q 859 359 1788 359
Q 2247 359 2472 579
Q 2697 800 2697 1281
z
M 2588 3303
Q 2588 4050 1769 4050
Q 1372 4050 1164 3862
Q 956 3675 956 3303
Q 956 2925 1170 2726
Q 1384 2528 1775 2528
Q 2172 2528 2380 2711
Q 2588 2894 2588 3303
z
" transform="scale(0.015625)"/>
       </defs>
       <use xlink:href="#Arimo-38"/>
      </g>
     </g>
    </g>
    <g id="xtick_6">
     <g id="line2d_11">
      <g>
       <use xlink:href="#m0c970007ab" x="224.64" y="133.2" style="stroke: #000000; stroke-width: 0.6"/>
      </g>
     </g>
     <g id="line2d_12">
      <g>
       <use xlink:href="#m63305a4bb7" x="224.64" y="3.6" style="stroke: #000000; stroke-width: 0.6"/>
      </g>
     </g>
     <g id="text_6">
      <!-- 10 -->
      <g transform="translate(220.19125 142.4975) scale(0.08 -0.08)">
       <defs>
        <path id="Arimo-31" d="M 488 0
L 488 478
L 1609 478
L 1609 3866
L 616 3156
L 616 3688
L 1656 4403
L 2175 4403
L 2175 478
L 3247 478
L 3247 0
L 488 0
z
" transform="scale(0.015625)"/>
       </defs>
       <use xlink:href="#Arimo-31"/>
       <use xlink:href="#Arimo-30" x="55.615234"/>
      </g>
     </g>
    </g>
    <g id="xtick_7">
     <g id="line2d_13">
      <defs>
       <path id="m1c27e992e5" d="M 0 0
L 0 -2.4
" style="stroke: #000000; stroke-width: 0.3"/>
      </defs>
      <g>
       <use xlink:href="#m1c27e992e5" x="39.96" y="133.2" style="stroke: #000000; stroke-width: 0.3"/>
      </g>
     </g>
     <g id="line2d_14">
      <defs>
       <path id="m8bc87a3e04" d="M 0 0
L 0 2.4
" style="stroke: #000000; stroke-width: 0.3"/>
      </defs>
      <g>
       <use xlink:href="#m8bc87a3e04" x="39.96" y="3.6" style="stroke: #000000; stroke-width: 0.3"/>
      </g>
     </g>
    </g>
    <g id="xtick_8">
     <g id="line2d_15">
      <g>
       <use xlink:href="#m1c27e992e5" x="49.68" y="133.2" style="stroke: #000000; stroke-width: 0.3"/>
      </g>
     </g>
     <g id="line2d_16">
      <g>
       <use xlink:href="#m8bc87a3e04" x="49.68" y="3.6" style="stroke: #000000; stroke-width: 0.3"/>
      </g>
     </g>
    </g>
    <g id="xtick_9">
     <g id="line2d_17">
      <g>
       <use xlink:href="#m1c27e992e5" x="59.4" y="133.2" style="stroke: #000000; stroke-width: 0.3"/>
      </g>
     </g>
     <g id="line2d_18">
      <g>
       <use xlink:href="#m8bc87a3e04" x="59.4" y="3.6" style="stroke: #000000; stroke-width: 0.3"/>
      </g>
     </g>
    </g>
    <g id="xtick_10">
     <g id="line2d_19">
      <g>
       <use xlink:href="#m1c27e992e5" x="78.84" y="133.2" style="stroke: #000000; stroke-width: 0.3"/>
      </g>
     </g>
     <g id="line2d_20">
      <g>
       <use xlink:href="#m8bc87a3e04" x="78.84" y="3.6" style="stroke: #000000; stroke-width: 0.3"/>
      </g>
     </g>
    </g>
    <g id="xtick_11">
     <g id="line2d_21">
      <g>
       <use xlink:href="#m1c27e992e5" x="88.56" y="133.2" style="stroke: #000000; stroke-width: 0.3"/>
      </g>
     </g>
     <g id="line2d_22">
      <g>
       <use xlink:href="#m8bc87a3e04" x="88.56" y="3.6" style="stroke: #000000; stroke-width: 0.3"/>
      </g>
     </g>
    </g>
    <g id="xtick_12">
     <g id="line2d_23">
      <g>
       <use xlink:href="#m1c27e992e5" x="98.28" y="133.2" style="stroke: #000000; stroke-width: 0.3"/>
      </g>
     </g>
     <g id="line2d_24">
      <g>
       <use xlink:href="#m8bc87a3e04" x="98.28" y="3.6" style="stroke: #000000; stroke-width: 0.3"/>
      </g>
     </g>
    </g>
    <g id="xtick_13">
     <g id="line2d_25">
      <g>
       <use xlink:href="#m1c27e992e5" x="117.72" y="133.2" style="stroke: #000000; stroke-width: 0.3"/>
      </g>
     </g>
     <g id="line2d_26">
      <g>
       <use xlink:href="#m8bc87a3e04" x="117.72" y="3.6" style="stroke: #000000; stroke-width: 0.3"/>
      </g>
     </g>
    </g>
    <g id="xtick_14">
     <g id="line2d_27">
      <g>
       <use xlink:href="#m1c27e992e5" x="127.44" y="133.2" style="stroke: #000000; stroke-width: 0.3"/>
      </g>
     </g>
     <g id="line2d_28">
      <g>
       <use xlink:href="#m8bc87a3e04" x="127.44" y="3.6" style="stroke: #000000; stroke-width: 0.3"/>
      </g>
     </g>
    </g>
    <g id="xtick_15">
     <g id="line2d_29">
      <g>
       <use xlink:href="#m1c27e992e5" x="137.16" y="133.2" style="stroke: #000000; stroke-width: 0.3"/>
      </g>
     </g>
     <g id="line2d_30">
      <g>
       <use xlink:href="#m8bc87a3e04" x="137.16" y="3.6" style="stroke: #000000; stroke-width: 0.3"/>
      </g>
     </g>
    </g>
    <g id="xtick_16">
     <g id="line2d_31">
      <g>
       <use xlink:href="#m1c27e992e5" x="156.6" y="133.2" style="stroke: #000000; stroke-width: 0.3"/>
      </g>
     </g>
     <g id="line2d_32">
      <g>
       <use xlink:href="#m8bc87a3e04" x="156.6" y="3.6" style="stroke: #000000; stroke-width: 0.3"/>
      </g>
     </g>
    </g>
    <g id="xtick_17">
     <g id="line2d_33">
      <g>
       <use xlink:href="#m1c27e992e5" x="166.32" y="133.2" style="stroke: #000000; stroke-width: 0.3"/>
      </g>
     </g>
     <g id="line2d_34">
      <g>
       <use xlink:href="#m8bc87a3e04" x="166.32" y="3.6" style="stroke: #000000; stroke-width: 0.3"/>
      </g>
     </g>
    </g>
    <g id="xtick_18">
     <g id="line2d_35">
      <g>
       <use xlink:href="#m1c27e992e5" x="176.04" y="133.2" style="stroke: #000000; stroke-width: 0.3"/>
      </g>
     </g>
     <g id="line2d_36">
      <g>
       <use xlink:href="#m8bc87a3e04" x="176.04" y="3.6" style="stroke: #000000; stroke-width: 0.3"/>
      </g>
     </g>
    </g>
    <g id="xtick_19">
     <g id="line2d_37">
      <g>
       <use xlink:href="#m1c27e992e5" x="195.48" y="133.2" style="stroke: #000000; stroke-width: 0.3"/>
      </g>
     </g>
     <g id="line2d_38">
      <g>
       <use xlink:href="#m8bc87a3e04" x="195.48" y="3.6" style="stroke: #000000; stroke-width: 0.3"/>
      </g>
     </g>
    </g>
    <g id="xtick_20">
     <g id="line2d_39">
      <g>
       <use xlink:href="#m1c27e992e5" x="205.2" y="133.2" style="stroke: #000000; stroke-width: 0.3"/>
      </g>
     </g>
     <g id="line2d_40">
      <g>
       <use xlink:href="#m8bc87a3e04" x="205.2" y="3.6" style="stroke: #000000; stroke-width: 0.3"/>
      </g>
     </g>
    </g>
    <g id="xtick_21">
     <g id="line2d_41">
      <g>
       <use xlink:href="#m1c27e992e5" x="214.92" y="133.2" style="stroke: #000000; stroke-width: 0.3"/>
      </g>
     </g>
     <g id="line2d_42">
      <g>
       <use xlink:href="#m8bc87a3e04" x="214.92" y="3.6" style="stroke: #000000; stroke-width: 0.3"/>
      </g>
     </g>
    </g>
    <g id="text_7">
     <!-- Bias Voltage [V] -->
     <g style="fill: #111111" transform="translate(95.4225 154.679687) scale(0.09 -0.09)">
      <defs>
       <path id="Arimo-42" d="M 3931 1241
Q 3931 653 3503 326
Q 3075 0 2313 0
L 525 0
L 525 4403
L 2125 4403
Q 3675 4403 3675 3334
Q 3675 2944 3456 2678
Q 3238 2413 2838 2322
Q 3363 2259 3647 1970
Q 3931 1681 3931 1241
z
M 3328 1288
Q 3328 2066 2234 2066
L 1122 2066
L 1122 478
L 2281 478
Q 2828 478 3078 681
Q 3328 884 3328 1288
z
M 3075 3263
Q 3075 3619 2831 3772
Q 2588 3925 2125 3925
L 1122 3925
L 1122 2531
L 2125 2531
Q 2603 2531 2839 2711
Q 3075 2891 3075 3263
z
" transform="scale(0.015625)"/>
       <path id="Arimo-69" d="M 428 0
L 428 3381
L 991 3381
L 991 0
L 428 0
z
M 428 4100
L 428 4638
L 991 4638
L 991 4100
L 428 4100
z
" transform="scale(0.015625)"/>
       <path id="Arimo-61" d="M 1294 -63
Q 784 -63 528 206
Q 272 475 272 944
Q 272 1469 617 1750
Q 963 2031 1731 2050
L 2491 2063
L 2491 2247
Q 2491 2659 2316 2837
Q 2141 3016 1766 3016
Q 1388 3016 1216 2887
Q 1044 2759 1009 2478
L 422 2531
Q 566 3444 1778 3444
Q 2416 3444 2737 3151
Q 3059 2859 3059 2306
L 3059 850
Q 3059 600 3125 473
Q 3191 347 3375 347
Q 3456 347 3559 369
L 3559 19
Q 3347 -31 3125 -31
Q 2813 -31 2670 133
Q 2528 297 2509 647
L 2491 647
Q 2275 259 1989 98
Q 1703 -63 1294 -63
z
M 1422 359
Q 1731 359 1972 500
Q 2213 641 2352 886
Q 2491 1131 2491 1391
L 2491 1669
L 1875 1656
Q 1478 1650 1273 1575
Q 1069 1500 959 1344
Q 850 1188 850 934
Q 850 659 998 509
Q 1147 359 1422 359
z
" transform="scale(0.015625)"/>
       <path id="Arimo-73" d="M 2969 934
Q 2969 456 2608 196
Q 2247 -63 1597 -63
Q 966 -63 623 145
Q 281 353 178 794
L 675 891
Q 747 619 972 492
Q 1197 366 1597 366
Q 2025 366 2223 497
Q 2422 628 2422 891
Q 2422 1091 2284 1216
Q 2147 1341 1841 1422
L 1438 1528
Q 953 1653 748 1773
Q 544 1894 428 2066
Q 313 2238 313 2488
Q 313 2950 642 3192
Q 972 3434 1603 3434
Q 2163 3434 2492 3237
Q 2822 3041 2909 2606
L 2403 2544
Q 2356 2769 2151 2889
Q 1947 3009 1603 3009
Q 1222 3009 1040 2893
Q 859 2778 859 2544
Q 859 2400 934 2306
Q 1009 2213 1156 2147
Q 1303 2081 1775 1966
Q 2222 1853 2419 1758
Q 2616 1663 2730 1547
Q 2844 1431 2906 1279
Q 2969 1128 2969 934
z
" transform="scale(0.015625)"/>
       <path id="Arimo-20" transform="scale(0.015625)"/>
       <path id="Arimo-56" d="M 2444 0
L 1825 0
L 28 4403
L 656 4403
L 1875 1303
L 2138 525
L 2400 1303
L 3613 4403
L 4241 4403
L 2444 0
z
" transform="scale(0.015625)"/>
       <path id="Arimo-6f" d="M 3291 1694
Q 3291 806 2900 371
Q 2509 -63 1766 -63
Q 1025 -63 647 389
Q 269 841 269 1694
Q 269 3444 1784 3444
Q 2559 3444 2925 3017
Q 3291 2591 3291 1694
z
M 2700 1694
Q 2700 2394 2492 2711
Q 2284 3028 1794 3028
Q 1300 3028 1079 2704
Q 859 2381 859 1694
Q 859 1025 1076 689
Q 1294 353 1759 353
Q 2266 353 2483 678
Q 2700 1003 2700 1694
z
" transform="scale(0.015625)"/>
       <path id="Arimo-6c" d="M 431 0
L 431 4638
L 994 4638
L 994 0
L 431 0
z
" transform="scale(0.015625)"/>
       <path id="Arimo-74" d="M 1731 25
Q 1453 -50 1163 -50
Q 488 -50 488 716
L 488 2972
L 97 2972
L 97 3381
L 509 3381
L 675 4138
L 1050 4138
L 1050 3381
L 1675 3381
L 1675 2972
L 1050 2972
L 1050 838
Q 1050 594 1129 495
Q 1209 397 1406 397
Q 1519 397 1731 441
L 1731 25
z
" transform="scale(0.015625)"/>
       <path id="Arimo-67" d="M 1713 -1328
Q 1159 -1328 831 -1111
Q 503 -894 409 -494
L 975 -413
Q 1031 -647 1223 -773
Q 1416 -900 1728 -900
Q 2569 -900 2569 84
L 2569 628
L 2563 628
Q 2403 303 2125 139
Q 1847 -25 1475 -25
Q 853 -25 561 387
Q 269 800 269 1684
Q 269 2581 583 3007
Q 897 3434 1538 3434
Q 1897 3434 2161 3270
Q 2425 3106 2569 2803
L 2575 2803
Q 2575 2897 2587 3128
Q 2600 3359 2613 3381
L 3147 3381
Q 3128 3213 3128 2681
L 3128 97
Q 3128 -1328 1713 -1328
z
M 2569 1691
Q 2569 2103 2456 2401
Q 2344 2700 2139 2858
Q 1934 3016 1675 3016
Q 1244 3016 1047 2703
Q 850 2391 850 1691
Q 850 997 1034 694
Q 1219 391 1666 391
Q 1931 391 2137 547
Q 2344 703 2456 995
Q 2569 1288 2569 1691
z
" transform="scale(0.015625)"/>
       <path id="Arimo-65" d="M 863 1572
Q 863 991 1103 675
Q 1344 359 1806 359
Q 2172 359 2392 506
Q 2613 653 2691 878
L 3184 738
Q 2881 -63 1806 -63
Q 1056 -63 664 384
Q 272 831 272 1713
Q 272 2550 664 2997
Q 1056 3444 1784 3444
Q 3275 3444 3275 1647
L 3275 1572
L 863 1572
z
M 2694 2003
Q 2647 2538 2422 2783
Q 2197 3028 1775 3028
Q 1366 3028 1127 2754
Q 888 2481 869 2003
L 2694 2003
z
" transform="scale(0.015625)"/>
       <path id="Arimo-5b" d="M 456 -1328
L 456 4638
L 1728 4638
L 1728 4234
L 1000 4234
L 1000 -925
L 1728 -925
L 1728 -1328
L 456 -1328
z
" transform="scale(0.015625)"/>
       <path id="Arimo-5d" d="M 50 -1328
L 50 -925
L 778 -925
L 778 4234
L 50 4234
L 50 4638
L 1322 4638
L 1322 -1328
L 50 -1328
z
" transform="scale(0.015625)"/>
      </defs>
      <use xlink:href="#Arimo-42"/>
      <use xlink:href="#Arimo-69" x="66.699219"/>
      <use xlink:href="#Arimo-61" x="88.916016"/>
      <use xlink:href="#Arimo-73" x="144.53125"/>
      <use xlink:href="#Arimo-20" x="194.53125"/>
      <use xlink:href="#Arimo-56" x="222.314453"/>
      <use xlink:href="#Arimo-6f" x="289.013672"/>
      <use xlink:href="#Arimo-6c" x="344.628906"/>
      <use xlink:href="#Arimo-74" x="366.845703"/>
      <use xlink:href="#Arimo-61" x="394.628906"/>
      <use xlink:href="#Arimo-67" x="450.244141"/>
      <use xlink:href="#Arimo-65" x="505.859375"/>
      <use xlink:href="#Arimo-20" x="561.474609"/>
      <use xlink:href="#Arimo-5b" x="589.257812"/>
      <use xlink:href="#Arimo-56" x="617.041016"/>
      <use xlink:href="#Arimo-5d" x="683.740234"/>
     </g>
    </g>
   </g>
   <g id="matplotlib.axis_2">
    <g id="ytick_1">
     <g id="line2d_43">
      <defs>
       <path id="mc760b5094c" d="M 0 0
L 4 0
" style="stroke: #000000; stroke-width: 0.6"/>
      </defs>
      <g>
       <use xlink:href="#mc760b5094c" x="30.24" y="133.2" style="stroke: #000000; stroke-width: 0.6"/>
      </g>
     </g>
     <g id="line2d_44">
      <defs>
       <path id="m70fd68246d" d="M 0 0
L -4 0
" style="stroke: #000000; stroke-width: 0.6"/>
      </defs>
      <g>
       <use xlink:href="#m70fd68246d" x="224.64" y="133.2" style="stroke: #000000; stroke-width: 0.6"/>
      </g>
     </g>
     <g id="text_8">
      <!-- 0 -->
      <g transform="translate(22.29125 136.09875) scale(0.08 -0.08)">
       <use xlink:href="#Arimo-30"/>
      </g>
     </g>
    </g>
    <g id="ytick_2">
     <g id="line2d_45">
      <g>
       <use xlink:href="#mc760b5094c" x="30.24" y="112.296774" style="stroke: #000000; stroke-width: 0.6"/>
      </g>
     </g>
     <g id="line2d_46">
      <g>
       <use xlink:href="#m70fd68246d" x="224.64" y="112.296774" style="stroke: #000000; stroke-width: 0.6"/>
      </g>
     </g>
     <g id="text_9">
      <!-- 1 -->
      <g transform="translate(22.29125 115.195524) scale(0.08 -0.08)">
       <use xlink:href="#Arimo-31"/>
      </g>
     </g>
    </g>
    <g id="ytick_3">
     <g id="line2d_47">
      <g>
       <use xlink:href="#mc760b5094c" x="30.24" y="91.393548" style="stroke: #000000; stroke-width: 0.6"/>
      </g>
     </g>
     <g id="line2d_48">
      <g>
       <use xlink:href="#m70fd68246d" x="224.64" y="91.393548" style="stroke: #000000; stroke-width: 0.6"/>
      </g>
     </g>
     <g id="text_10">
      <!-- 2 -->
      <g transform="translate(22.29125 94.292298) scale(0.08 -0.08)">
       <use xlink:href="#Arimo-32"/>
      </g>
     </g>
    </g>
    <g id="ytick_4">
     <g id="line2d_49">
      <g>
       <use xlink:href="#mc760b5094c" x="30.24" y="70.490323" style="stroke: #000000; stroke-width: 0.6"/>
      </g>
     </g>
     <g id="line2d_50">
      <g>
       <use xlink:href="#m70fd68246d" x="224.64" y="70.490323" style="stroke: #000000; stroke-width: 0.6"/>
      </g>
     </g>
     <g id="text_11">
      <!-- 3 -->
      <g transform="translate(22.29125 73.389073) scale(0.08 -0.08)">
       <defs>
        <path id="Arimo-33" d="M 3278 1216
Q 3278 606 2890 271
Q 2503 -63 1784 -63
Q 1116 -63 717 239
Q 319 541 244 1131
L 825 1184
Q 938 403 1784 403
Q 2209 403 2451 612
Q 2694 822 2694 1234
Q 2694 1594 2417 1795
Q 2141 1997 1619 1997
L 1300 1997
L 1300 2484
L 1606 2484
Q 2069 2484 2323 2686
Q 2578 2888 2578 3244
Q 2578 3597 2370 3801
Q 2163 4006 1753 4006
Q 1381 4006 1151 3815
Q 922 3625 884 3278
L 319 3322
Q 381 3863 767 4166
Q 1153 4469 1759 4469
Q 2422 4469 2789 4161
Q 3156 3853 3156 3303
Q 3156 2881 2920 2617
Q 2684 2353 2234 2259
L 2234 2247
Q 2728 2194 3003 1916
Q 3278 1638 3278 1216
z
" transform="scale(0.015625)"/>
       </defs>
       <use xlink:href="#Arimo-33"/>
      </g>
     </g>
    </g>
    <g id="ytick_5">
     <g id="line2d_51">
      <g>
       <use xlink:href="#mc760b5094c" x="30.24" y="49.587097" style="stroke: #000000; stroke-width: 0.6"/>
      </g>
     </g>
     <g id="line2d_52">
      <g>
       <use xlink:href="#m70fd68246d" x="224.64" y="49.587097" style="stroke: #000000; stroke-width: 0.6"/>
      </g>
     </g>
     <g id="text_12">
      <!-- 4 -->
      <g transform="translate(22.29125 52.485847) scale(0.08 -0.08)">
       <use xlink:href="#Arimo-34"/>
      </g>
     </g>
    </g>
    <g id="ytick_6">
     <g id="line2d_53">
      <g>
       <use xlink:href="#mc760b5094c" x="30.24" y="28.683871" style="stroke: #000000; stroke-width: 0.6"/>
      </g>
     </g>
     <g id="line2d_54">
      <g>
       <use xlink:href="#m70fd68246d" x="224.64" y="28.683871" style="stroke: #000000; stroke-width: 0.6"/>
      </g>
     </g>
     <g id="text_13">
      <!-- 5 -->
      <g transform="translate(22.29125 31.582621) scale(0.08 -0.08)">
       <defs>
        <path id="Arimo-35" d="M 3291 1434
Q 3291 738 2877 337
Q 2463 -63 1728 -63
Q 1113 -63 734 206
Q 356 475 256 984
L 825 1050
Q 1003 397 1741 397
Q 2194 397 2450 670
Q 2706 944 2706 1422
Q 2706 1838 2448 2094
Q 2191 2350 1753 2350
Q 1525 2350 1328 2278
Q 1131 2206 934 2034
L 384 2034
L 531 4403
L 3034 4403
L 3034 3925
L 1044 3925
L 959 2528
Q 1325 2809 1869 2809
Q 2519 2809 2905 2428
Q 3291 2047 3291 1434
z
" transform="scale(0.015625)"/>
       </defs>
       <use xlink:href="#Arimo-35"/>
      </g>
     </g>
    </g>
    <g id="ytick_7">
     <g id="line2d_55">
      <g>
       <use xlink:href="#mc760b5094c" x="30.24" y="7.780645" style="stroke: #000000; stroke-width: 0.6"/>
      </g>
     </g>
     <g id="line2d_56">
      <g>
       <use xlink:href="#m70fd68246d" x="224.64" y="7.780645" style="stroke: #000000; stroke-width: 0.6"/>
      </g>
     </g>
     <g id="text_14">
      <!-- 6 -->
      <g transform="translate(22.29125 10.679395) scale(0.08 -0.08)">
       <use xlink:href="#Arimo-36"/>
      </g>
     </g>
    </g>
    <g id="ytick_8">
     <g id="line2d_57">
      <defs>
       <path id="m2ce0c9cdae" d="M 0 0
L 2.4 0
" style="stroke: #000000; stroke-width: 0.3"/>
      </defs>
      <g>
       <use xlink:href="#m2ce0c9cdae" x="30.24" y="129.019355" style="stroke: #000000; stroke-width: 0.3"/>
      </g>
     </g>
     <g id="line2d_58">
      <defs>
       <path id="mbdd0af9742" d="M 0 0
L -2.4 0
" style="stroke: #000000; stroke-width: 0.3"/>
      </defs>
      <g>
       <use xlink:href="#mbdd0af9742" x="224.64" y="129.019355" style="stroke: #000000; stroke-width: 0.3"/>
      </g>
     </g>
    </g>
    <g id="ytick_9">
     <g id="line2d_59">
      <g>
       <use xlink:href="#m2ce0c9cdae" x="30.24" y="124.83871" style="stroke: #000000; stroke-width: 0.3"/>
      </g>
     </g>
     <g id="line2d_60">
      <g>
       <use xlink:href="#mbdd0af9742" x="224.64" y="124.83871" style="stroke: #000000; stroke-width: 0.3"/>
      </g>
     </g>
    </g>
    <g id="ytick_10">
     <g id="line2d_61">
      <g>
       <use xlink:href="#m2ce0c9cdae" x="30.24" y="120.658065" style="stroke: #000000; stroke-width: 0.3"/>
      </g>
     </g>
     <g id="line2d_62">
      <g>
       <use xlink:href="#mbdd0af9742" x="224.64" y="120.658065" style="stroke: #000000; stroke-width: 0.3"/>
      </g>
     </g>
    </g>
    <g id="ytick_11">
     <g id="line2d_63">
      <g>
       <use xlink:href="#m2ce0c9cdae" x="30.24" y="116.477419" style="stroke: #000000; stroke-width: 0.3"/>
      </g>
     </g>
     <g id="line2d_64">
      <g>
       <use xlink:href="#mbdd0af9742" x="224.64" y="116.477419" style="stroke: #000000; stroke-width: 0.3"/>
      </g>
     </g>
    </g>
    <g id="ytick_12">
     <g id="line2d_65">
      <g>
       <use xlink:href="#m2ce0c9cdae" x="30.24" y="108.116129" style="stroke: #000000; stroke-width: 0.3"/>
      </g>
     </g>
     <g id="line2d_66">
      <g>
       <use xlink:href="#mbdd0af9742" x="224.64" y="108.116129" style="stroke: #000000; stroke-width: 0.3"/>
      </g>
     </g>
    </g>
    <g id="ytick_13">
     <g id="line2d_67">
      <g>
       <use xlink:href="#m2ce0c9cdae" x="30.24" y="103.935484" style="stroke: #000000; stroke-width: 0.3"/>
      </g>
     </g>
     <g id="line2d_68">
      <g>
       <use xlink:href="#mbdd0af9742" x="224.64" y="103.935484" style="stroke: #000000; stroke-width: 0.3"/>
      </g>
     </g>
    </g>
    <g id="ytick_14">
     <g id="line2d_69">
      <g>
       <use xlink:href="#m2ce0c9cdae" x="30.24" y="99.754839" style="stroke: #000000; stroke-width: 0.3"/>
      </g>
     </g>
     <g id="line2d_70">
      <g>
       <use xlink:href="#mbdd0af9742" x="224.64" y="99.754839" style="stroke: #000000; stroke-width: 0.3"/>
      </g>
     </g>
    </g>
    <g id="ytick_15">
     <g id="line2d_71">
      <g>
       <use xlink:href="#m2ce0c9cdae" x="30.24" y="95.574194" style="stroke: #000000; stroke-width: 0.3"/>
      </g>
     </g>
     <g id="line2d_72">
      <g>
       <use xlink:href="#mbdd0af9742" x="224.64" y="95.574194" style="stroke: #000000; stroke-width: 0.3"/>
      </g>
     </g>
    </g>
    <g id="ytick_16">
     <g id="line2d_73">
      <g>
       <use xlink:href="#m2ce0c9cdae" x="30.24" y="87.212903" style="stroke: #000000; stroke-width: 0.3"/>
      </g>
     </g>
     <g id="line2d_74">
      <g>
       <use xlink:href="#mbdd0af9742" x="224.64" y="87.212903" style="stroke: #000000; stroke-width: 0.3"/>
      </g>
     </g>
    </g>
    <g id="ytick_17">
     <g id="line2d_75">
      <g>
       <use xlink:href="#m2ce0c9cdae" x="30.24" y="83.032258" style="stroke: #000000; stroke-width: 0.3"/>
      </g>
     </g>
     <g id="line2d_76">
      <g>
       <use xlink:href="#mbdd0af9742" x="224.64" y="83.032258" style="stroke: #000000; stroke-width: 0.3"/>
      </g>
     </g>
    </g>
    <g id="ytick_18">
     <g id="line2d_77">
      <g>
       <use xlink:href="#m2ce0c9cdae" x="30.24" y="78.851613" style="stroke: #000000; stroke-width: 0.3"/>
      </g>
     </g>
     <g id="line2d_78">
      <g>
       <use xlink:href="#mbdd0af9742" x="224.64" y="78.851613" style="stroke: #000000; stroke-width: 0.3"/>
      </g>
     </g>
    </g>
    <g id="ytick_19">
     <g id="line2d_79">
      <g>
       <use xlink:href="#m2ce0c9cdae" x="30.24" y="74.670968" style="stroke: #000000; stroke-width: 0.3"/>
      </g>
     </g>
     <g id="line2d_80">
      <g>
       <use xlink:href="#mbdd0af9742" x="224.64" y="74.670968" style="stroke: #000000; stroke-width: 0.3"/>
      </g>
     </g>
    </g>
    <g id="ytick_20">
     <g id="line2d_81">
      <g>
       <use xlink:href="#m2ce0c9cdae" x="30.24" y="66.309677" style="stroke: #000000; stroke-width: 0.3"/>
      </g>
     </g>
     <g id="line2d_82">
      <g>
       <use xlink:href="#mbdd0af9742" x="224.64" y="66.309677" style="stroke: #000000; stroke-width: 0.3"/>
      </g>
     </g>
    </g>
    <g id="ytick_21">
     <g id="line2d_83">
      <g>
       <use xlink:href="#m2ce0c9cdae" x="30.24" y="62.129032" style="stroke: #000000; stroke-width: 0.3"/>
      </g>
     </g>
     <g id="line2d_84">
      <g>
       <use xlink:href="#mbdd0af9742" x="224.64" y="62.129032" style="stroke: #000000; stroke-width: 0.3"/>
      </g>
     </g>
    </g>
    <g id="ytick_22">
     <g id="line2d_85">
      <g>
       <use xlink:href="#m2ce0c9cdae" x="30.24" y="57.948387" style="stroke: #000000; stroke-width: 0.3"/>
      </g>
     </g>
     <g id="line2d_86">
      <g>
       <use xlink:href="#mbdd0af9742" x="224.64" y="57.948387" style="stroke: #000000; stroke-width: 0.3"/>
      </g>
     </g>
    </g>
    <g id="ytick_23">
     <g id="line2d_87">
      <g>
       <use xlink:href="#m2ce0c9cdae" x="30.24" y="53.767742" style="stroke: #000000; stroke-width: 0.3"/>
      </g>
     </g>
     <g id="line2d_88">
      <g>
       <use xlink:href="#mbdd0af9742" x="224.64" y="53.767742" style="stroke: #000000; stroke-width: 0.3"/>
      </g>
     </g>
    </g>
    <g id="ytick_24">
     <g id="line2d_89">
      <g>
       <use xlink:href="#m2ce0c9cdae" x="30.24" y="45.406452" style="stroke: #000000; stroke-width: 0.3"/>
      </g>
     </g>
     <g id="line2d_90">
      <g>
       <use xlink:href="#mbdd0af9742" x="224.64" y="45.406452" style="stroke: #000000; stroke-width: 0.3"/>
      </g>
     </g>
    </g>
    <g id="ytick_25">
     <g id="line2d_91">
      <g>
       <use xlink:href="#m2ce0c9cdae" x="30.24" y="41.225806" style="stroke: #000000; stroke-width: 0.3"/>
      </g>
     </g>
     <g id="line2d_92">
      <g>
       <use xlink:href="#mbdd0af9742" x="224.64" y="41.225806" style="stroke: #000000; stroke-width: 0.3"/>
      </g>
     </g>
    </g>
    <g id="ytick_26">
     <g id="line2d_93">
      <g>
       <use xlink:href="#m2ce0c9cdae" x="30.24" y="37.045161" style="stroke: #000000; stroke-width: 0.3"/>
      </g>
     </g>
     <g id="line2d_94">
      <g>
       <use xlink:href="#mbdd0af9742" x="224.64" y="37.045161" style="stroke: #000000; stroke-width: 0.3"/>
      </g>
     </g>
    </g>
    <g id="ytick_27">
     <g id="line2d_95">
      <g>
       <use xlink:href="#m2ce0c9cdae" x="30.24" y="32.864516" style="stroke: #000000; stroke-width: 0.3"/>
      </g>
     </g>
     <g id="line2d_96">
      <g>
       <use xlink:href="#mbdd0af9742" x="224.64" y="32.864516" style="stroke: #000000; stroke-width: 0.3"/>
      </g>
     </g>
    </g>
    <g id="ytick_28">
     <g id="line2d_97">
      <g>
       <use xlink:href="#m2ce0c9cdae" x="30.24" y="24.503226" style="stroke: #000000; stroke-width: 0.3"/>
      </g>
     </g>
     <g id="line2d_98">
      <g>
       <use xlink:href="#mbdd0af9742" x="224.64" y="24.503226" style="stroke: #000000; stroke-width: 0.3"/>
      </g>
     </g>
    </g>
    <g id="ytick_29">
     <g id="line2d_99">
      <g>
       <use xlink:href="#m2ce0c9cdae" x="30.24" y="20.322581" style="stroke: #000000; stroke-width: 0.3"/>
      </g>
     </g>
     <g id="line2d_100">
      <g>
       <use xlink:href="#mbdd0af9742" x="224.64" y="20.322581" style="stroke: #000000; stroke-width: 0.3"/>
      </g>
     </g>
    </g>
    <g id="ytick_30">
     <g id="line2d_101">
      <g>
       <use xlink:href="#m2ce0c9cdae" x="30.24" y="16.141935" style="stroke: #000000; stroke-width: 0.3"/>
      </g>
     </g>
     <g id="line2d_102">
      <g>
       <use xlink:href="#mbdd0af9742" x="224.64" y="16.141935" style="stroke: #000000; stroke-width: 0.3"/>
      </g>
     </g>
    </g>
    <g id="ytick_31">
     <g id="line2d_103">
      <g>
       <use xlink:href="#m2ce0c9cdae" x="30.24" y="11.96129" style="stroke: #000000; stroke-width: 0.3"/>
      </g>
     </g>
     <g id="line2d_104">
      <g>
       <use xlink:href="#mbdd0af9742" x="224.64" y="11.96129" style="stroke: #000000; stroke-width: 0.3"/>
      </g>
     </g>
    </g>
    <g id="text_15">
     <!-- Response [a.u.] -->
     <g style="fill: #111111" transform="translate(16.42375 99.917578) rotate(-90) scale(0.09 -0.09)">
      <defs>
       <path id="Arimo-52" d="M 3638 0
L 2494 1828
L 1122 1828
L 1122 0
L 525 0
L 525 4403
L 2597 4403
Q 3341 4403 3745 4070
Q 4150 3738 4150 3144
Q 4150 2653 3864 2318
Q 3578 1984 3075 1897
L 4325 0
L 3638 0
z
M 3550 3138
Q 3550 3522 3289 3723
Q 3028 3925 2538 3925
L 1122 3925
L 1122 2300
L 2563 2300
Q 3034 2300 3292 2520
Q 3550 2741 3550 3138
z
" transform="scale(0.015625)"/>
       <path id="Arimo-70" d="M 3291 1706
Q 3291 -63 2047 -63
Q 1266 -63 997 525
L 981 525
Q 994 500 994 -6
L 994 -1328
L 431 -1328
L 431 2691
Q 431 3213 413 3381
L 956 3381
Q 959 3369 965 3292
Q 972 3216 980 3056
Q 988 2897 988 2838
L 1000 2838
Q 1150 3150 1397 3295
Q 1644 3441 2047 3441
Q 2672 3441 2981 3022
Q 3291 2603 3291 1706
z
M 2700 1694
Q 2700 2400 2509 2703
Q 2319 3006 1903 3006
Q 1569 3006 1380 2865
Q 1191 2725 1092 2426
Q 994 2128 994 1650
Q 994 984 1206 668
Q 1419 353 1897 353
Q 2316 353 2508 661
Q 2700 969 2700 1694
z
" transform="scale(0.015625)"/>
       <path id="Arimo-6e" d="M 2578 0
L 2578 2144
Q 2578 2478 2512 2662
Q 2447 2847 2303 2928
Q 2159 3009 1881 3009
Q 1475 3009 1240 2731
Q 1006 2453 1006 1959
L 1006 0
L 444 0
L 444 2659
Q 444 3250 425 3381
L 956 3381
Q 959 3366 962 3297
Q 966 3228 970 3139
Q 975 3050 981 2803
L 991 2803
Q 1184 3153 1439 3298
Q 1694 3444 2072 3444
Q 2628 3444 2886 3167
Q 3144 2891 3144 2253
L 3144 0
L 2578 0
z
" transform="scale(0.015625)"/>
       <path id="Arimo-2e" d="M 584 0
L 584 684
L 1194 684
L 1194 0
L 584 0
z
" transform="scale(0.015625)"/>
       <path id="Arimo-75" d="M 981 3381
L 981 1238
Q 981 903 1047 718
Q 1113 534 1256 453
Q 1400 372 1678 372
Q 2084 372 2318 650
Q 2553 928 2553 1422
L 2553 3381
L 3116 3381
L 3116 722
Q 3116 131 3134 0
L 2603 0
Q 2600 16 2597 84
Q 2594 153 2589 242
Q 2584 331 2578 578
L 2569 578
Q 2375 228 2120 82
Q 1866 -63 1488 -63
Q 931 -63 673 214
Q 416 491 416 1128
L 416 3381
L 981 3381
z
" transform="scale(0.015625)"/>
      </defs>
      <use xlink:href="#Arimo-52"/>
      <use xlink:href="#Arimo-65" x="72.216797"/>
      <use xlink:href="#Arimo-73" x="127.832031"/>
      <use xlink:href="#Arimo-70" x="177.832031"/>
      <use xlink:href="#Arimo-6f" x="233.447266"/>
      <use xlink:href="#Arimo-6e" x="289.0625"/>
      <use xlink:href="#Arimo-73" x="344.677734"/>
      <use xlink:href="#Arimo-65" x="394.677734"/>
      <use xlink:href="#Arimo-20" x="450.292969"/>
      <use xlink:href="#Arimo-5b" x="478.076172"/>
      <use xlink:href="#Arimo-61" x="505.859375"/>
      <use xlink:href="#Arimo-2e" x="561.474609"/>
      <use xlink:href="#Arimo-75" x="589.257812"/>
      <use xlink:href="#Arimo-2e" x="644.873047"/>
      <use xlink:href="#Arimo-5d" x="672.65625"/>
     </g>
    </g>
   </g>
   <g id="line2d_105">
    <defs>
     <path id="m3ea8f41fde" d="M 0 1.6
C 0.424325 1.6 0.831328 1.431414 1.131371 1.131371
C 1.431414 0.831328 1.6 0.424325 1.6 0
C 1.6 -0.424325 1.431414 -0.831328 1.131371 -1.131371
C 0.831328 -1.431414 0.424325 -1.6 0 -1.6
C -0.424325 -1.6 -0.831328 -1.431414 -1.131371 -1.131371
C -1.431414 -0.831328 -1.6 -0.424325 -1.6 0
C -1.6 0.424325 -1.431414 0.831328 -1.131371 1.131371
C -0.831328 1.431414 -0.424325 1.6 0 1.6
z
" style="stroke: #2a2f80; stroke-width: 0.7"/>
    </defs>
    <g clip-path="url(#pe5221bc9f3)">
     <use xlink:href="#m3ea8f41fde" x="39.96" y="117.298528" style="fill: #2a2f80; stroke: #2a2f80; stroke-width: 0.7"/>
     <use xlink:href="#m3ea8f41fde" x="54.54" y="105.056597" style="fill: #2a2f80; stroke: #2a2f80; stroke-width: 0.7"/>
     <use xlink:href="#m3ea8f41fde" x="69.12" y="91.969802" style="fill: #2a2f80; stroke: #2a2f80; stroke-width: 0.7"/>
     <use xlink:href="#m3ea8f41fde" x="83.7" y="82.63223" style="fill: #2a2f80; stroke: #2a2f80; stroke-width: 0.7"/>
     <use xlink:href="#m3ea8f41fde" x="98.28" y="72.03019" style="fill: #2a2f80; stroke: #2a2f80; stroke-width: 0.7"/>
     <use xlink:href="#m3ea8f41fde" x="112.86" y="63.87579" style="fill: #2a2f80; stroke: #2a2f80; stroke-width: 0.7"/>
     <use xlink:href="#m3ea8f41fde" x="127.44" y="49.507989" style="fill: #2a2f80; stroke: #2a2f80; stroke-width: 0.7"/>
     <use xlink:href="#m3ea8f41fde" x="142.02" y="36.910614" style="fill: #2a2f80; stroke: #2a2f80; stroke-width: 0.7"/>
     <use xlink:href="#m3ea8f41fde" x="156.6" y="28.708588" style="fill: #2a2f80; stroke: #2a2f80; stroke-width: 0.7"/>
     <use xlink:href="#m3ea8f41fde" x="171.18" y="15.416697" style="fill: #2a2f80; stroke: #2a2f80; stroke-width: 0.7"/>
     <use xlink:href="#m3ea8f41fde" x="185.76" y="11.670811" style="fill: #2a2f80; stroke: #2a2f80; stroke-width: 0.7"/>
     <use xlink:href="#m3ea8f41fde" x="195.533244" y="-1" style="fill: #2a2f80; stroke: #2a2f80; stroke-width: 0.7"/>
    </g>
   </g>
   <g id="line2d_106">
    <path d="M 30.24 123.710843
L 194.536095 -1
L 194.536095 -1
" clip-path="url(#pe5221bc9f3)" style="fill: none; stroke: #2a2f80; stroke-linecap: square"/>
   </g>
   <g id="line2d_107">
    <defs>
     <path id="ma4e6c26658" d="M 0 1.6
C 0.424325 1.6 0.831328 1.431414 1.131371 1.131371
C 1.431414 0.831328 1.6 0.424325 1.6 0
C 1.6 -0.424325 1.431414 -0.831328 1.131371 -1.131371
C 0.831328 -1.431414 0.424325 -1.6 0 -1.6
C -0.424325 -1.6 -0.831328 -1.431414 -1.131371 -1.131371
C -1.431414 -0.831328 -1.6 -0.424325 -1.6 0
C -1.6 0.424325 -1.431414 0.831328 -1.131371 1.131371
C -0.831328 1.431414 -0.424325 1.6 0 1.6
z
" style="stroke: #000000; stroke-width: 0.7"/>
    </defs>
    <g clip-path="url(#pe5221bc9f3)">
     <use xlink:href="#ma4e6c26658" x="39.96" y="105.618918" style="stroke: #000000; stroke-width: 0.7"/>
     <use xlink:href="#ma4e6c26658" x="54.54" y="96.00584" style="stroke: #000000; stroke-width: 0.7"/>
     <use xlink:href="#ma4e6c26658" x="69.12" y="88.652456" style="stroke: #000000; stroke-width: 0.7"/>
     <use xlink:href="#ma4e6c26658" x="83.7" y="85.649833" style="stroke: #000000; stroke-width: 0.7"/>
     <use xlink:href="#ma4e6c26658" x="98.28" y="73.136938" style="stroke: #000000; stroke-width: 0.7"/>
     <use xlink:href="#ma4e6c26658" x="112.86" y="67.485351" style="stroke: #000000; stroke-width: 0.7"/>
     <use xlink:href="#ma4e6c26658" x="127.44" y="61.420307" style="stroke: #000000; stroke-width: 0.7"/>
     <use xlink:href="#ma4e6c26658" x="142.02" y="49.981753" style="stroke: #000000; stroke-width: 0.7"/>
     <use xlink:href="#ma4e6c26658" x="156.6" y="46.481042" style="stroke: #000000; stroke-width: 0.7"/>
     <use xlink:href="#ma4e6c26658" x="171.18" y="38.231986" style="stroke: #000000; stroke-width: 0.7"/>
     <use xlink:href="#ma4e6c26658" x="185.76" y="26.942824" style="stroke: #000000; stroke-width: 0.7"/>
     <use xlink:href="#ma4e6c26658" x="200.34" y="26.134811" style="stroke: #000000; stroke-width: 0.7"/>
     <use xlink:href="#ma4e6c26658" x="214.92" y="13.244443" style="stroke: #000000; stroke-width: 0.7"/>
    </g>
   </g>
   <g id="line2d_108">
    <path d="M 30.24 109.86744
L 224.64 9.976637
L 224.64 9.976637
" clip-path="url(#pe5221bc9f3)" style="fill: none; stroke-dasharray: 3.7,1.6; stroke-dashoffset: 0; stroke: #000000"/>
   </g>
   <g id="line2d_109">
    <defs>
     <path id="mdea4315b6b" d="M 0 1.6
C 0.424325 1.6 0.831328 1.431414 1.131371 1.131371
C 1.431414 0.831328 1.6 0.424325 1.6 0
C 1.6 -0.424325 1.431414 -0.831328 1.131371 -1.131371
C 0.831328 -1.431414 0.424325 -1.6 0 -1.6
C -0.424325 -1.6 -0.831328 -1.431414 -1.131371 -1.131371
C -1.431414 -0.831328 -1.6 -0.424325 -1.6 0
C -1.6 0.424325 -1.431414 0.831328 -1.131371 1.131371
C -0.831328 1.431414 -0.424325 1.6 0 1.6
z
" style="stroke: #808080; stroke-width: 0.7"/>
    </defs>
    <g clip-path="url(#pe5221bc9f3)">
     <use xlink:href="#mdea4315b6b" x="39.96" y="93.33835" style="fill: #808080; stroke: #808080; stroke-width: 0.7"/>
     <use xlink:href="#mdea4315b6b" x="54.54" y="81.664662" style="fill: #808080; stroke: #808080; stroke-width: 0.7"/>
     <use xlink:href="#mdea4315b6b" x="69.12" y="90.570067" style="fill: #808080; stroke: #808080; stroke-width: 0.7"/>
     <use xlink:href="#mdea4315b6b" x="83.7" y="73.399636" style="fill: #808080; stroke: #808080; stroke-width: 0.7"/>
     <use xlink:href="#mdea4315b6b" x="98.28" y="70.94514" style="fill: #808080; stroke: #808080; stroke-width: 0.7"/>
     <use xlink:href="#mdea4315b6b" x="112.86" y="67.267873" style="fill: #808080; stroke: #808080; stroke-width: 0.7"/>
     <use xlink:href="#mdea4315b6b" x="127.44" y="66.051711" style="fill: #808080; stroke: #808080; stroke-width: 0.7"/>
     <use xlink:href="#mdea4315b6b" x="142.02" y="59.282534" style="fill: #808080; stroke: #808080; stroke-width: 0.7"/>
     <use xlink:href="#mdea4315b6b" x="156.6" y="49.431672" style="fill: #808080; stroke: #808080; stroke-width: 0.7"/>
     <use xlink:href="#mdea4315b6b" x="171.18" y="45.262112" style="fill: #808080; stroke: #808080; stroke-width: 0.7"/>
     <use xlink:href="#mdea4315b6b" x="185.76" y="41.985971" style="fill: #808080; stroke: #808080; stroke-width: 0.7"/>
     <use xlink:href="#mdea4315b6b" x="200.34" y="38.319682" style="fill: #808080; stroke: #808080; stroke-width: 0.7"/>
     <use xlink:href="#mdea4315b6b" x="214.92" y="34.129915" style="fill: #808080; stroke: #808080; stroke-width: 0.7"/>
    </g>
   </g>
   <g id="line2d_110">
    <path d="M 30.24 95.465213
L 224.64 29.403914
L 224.64 29.403914
" clip-path="url(#pe5221bc9f3)" style="fill: none; stroke-dasharray: 1,1.65; stroke-dashoffset: 0; stroke: #808080"/>
   </g>
   <g id="patch_3">
    <path d="M 30.24 133.2
L 30.24 3.6
" style="fill: none; stroke: #000000; stroke-width: 0.6; stroke-linejoin: miter; stroke-linecap: square"/>
   </g>
   <g id="patch_4">
    <path d="M 224.64 133.2
L 224.64 3.6
" style="fill: none; stroke: #000000; stroke-width: 0.6; stroke-linejoin: miter; stroke-linecap: square"/>
   </g>
   <g id="patch_5">
    <path d="M 30.24 133.2
L 224.64 133.2
" style="fill: none; stroke: #000000; stroke-width: 0.6; stroke-linejoin: miter; stroke-linecap: square"/>
   </g>
   <g id="patch_6">
    <path d="M 30.24 3.6
L 224.64 3.6
" style="fill: none; stroke: #000000; stroke-width: 0.6; stroke-linejoin: miter; stroke-linecap: square"/>
   </g>
   <g id="legend_1">
    <g id="line2d_111">
     <g>
      <use xlink:href="#m3ea8f41fde" x="45.44" y="13.7975" style="fill: #2a2f80; stroke: #2a2f80; stroke-width: 0.7"/>
     </g>
    </g>
    <g id="text_16">
     <!-- Device A -->
     <g transform="translate(59.84 16.5975) scale(0.08 -0.08)">
      <defs>
       <path id="Arimo-44" d="M 4316 2247
Q 4316 1566 4050 1055
Q 3784 544 3296 272
Q 2809 0 2172 0
L 525 0
L 525 4403
L 1981 4403
Q 3100 4403 3708 3842
Q 4316 3281 4316 2247
z
M 3716 2247
Q 3716 3066 3267 3495
Q 2819 3925 1969 3925
L 1122 3925
L 1122 478
L 2103 478
Q 2588 478 2955 690
Q 3322 903 3519 1303
Q 3716 1703 3716 2247
z
" transform="scale(0.015625)"/>
       <path id="Arimo-76" d="M 1916 0
L 1250 0
L 22 3381
L 622 3381
L 1366 1181
Q 1406 1056 1581 441
L 1691 806
L 1813 1175
L 2581 3381
L 3178 3381
L 1916 0
z
" transform="scale(0.015625)"/>
       <path id="Arimo-63" d="M 859 1706
Q 859 1031 1071 706
Q 1284 381 1713 381
Q 2013 381 2214 543
Q 2416 706 2463 1044
L 3031 1006
Q 2966 519 2616 228
Q 2266 -63 1728 -63
Q 1019 -63 645 385
Q 272 834 272 1694
Q 272 2547 647 2995
Q 1022 3444 1722 3444
Q 2241 3444 2583 3175
Q 2925 2906 3013 2434
L 2434 2391
Q 2391 2672 2212 2837
Q 2034 3003 1706 3003
Q 1259 3003 1059 2706
Q 859 2409 859 1706
z
" transform="scale(0.015625)"/>
       <path id="Arimo-41" d="M 3647 0
L 3144 1288
L 1138 1288
L 631 0
L 13 0
L 1809 4403
L 2488 4403
L 4256 0
L 3647 0
z
M 2141 3953
L 2113 3866
Q 2034 3606 1881 3200
L 1319 1753
L 2966 1753
L 2400 3206
Q 2313 3422 2225 3694
L 2141 3953
z
" transform="scale(0.015625)"/>
      </defs>
      <use xlink:href="#Arimo-44"/>
      <use xlink:href="#Arimo-65" x="72.216797"/>
      <use xlink:href="#Arimo-76" x="127.832031"/>
      <use xlink:href="#Arimo-69" x="177.832031"/>
      <use xlink:href="#Arimo-63" x="200.048828"/>
      <use xlink:href="#Arimo-65" x="250.048828"/>
      <use xlink:href="#Arimo-20" x="305.664062"/>
      <use xlink:href="#Arimo-41" x="333.447266"/>
     </g>
    </g>
    <g id="line2d_112">
     <g>
      <use xlink:href="#ma4e6c26658" x="45.44" y="25.255" style="stroke: #000000; stroke-width: 0.7"/>
     </g>
    </g>
    <g id="text_17">
     <!-- Device B -->
     <g transform="translate(59.84 28.055) scale(0.08 -0.08)">
      <use xlink:href="#Arimo-44"/>
      <use xlink:href="#Arimo-65" x="72.216797"/>
      <use xlink:href="#Arimo-76" x="127.832031"/>
      <use xlink:href="#Arimo-69" x="177.832031"/>
      <use xlink:href="#Arimo-63" x="200.048828"/>
      <use xlink:href="#Arimo-65" x="250.048828"/>
      <use xlink:href="#Arimo-20" x="305.664062"/>
      <use xlink:href="#Arimo-42" x="333.447266"/>
     </g>
    </g>
    <g id="line2d_113">
     <g>
      <use xlink:href="#mdea4315b6b" x="45.44" y="36.7125" style="fill: #808080; stroke: #808080; stroke-width: 0.7"/>
     </g>
    </g>
    <g id="text_18">
     <!-- Device C -->
     <g transform="translate(59.84 39.5125) scale(0.08 -0.08)">
      <defs>
       <path id="Arimo-43" d="M 2475 3981
Q 1744 3981 1337 3511
Q 931 3041 931 2222
Q 931 1413 1354 920
Q 1778 428 2500 428
Q 3425 428 3891 1344
L 4378 1100
Q 4106 531 3614 234
Q 3122 -63 2472 -63
Q 1806 -63 1320 214
Q 834 491 579 1005
Q 325 1519 325 2222
Q 325 3275 894 3872
Q 1463 4469 2469 4469
Q 3172 4469 3644 4194
Q 4116 3919 4338 3378
L 3772 3191
Q 3619 3575 3280 3778
Q 2941 3981 2475 3981
z
" transform="scale(0.015625)"/>
      </defs>
      <use xlink:href="#Arimo-44"/>
      <use xlink:href="#Arimo-65" x="72.216797"/>
      <use xlink:href="#Arimo-76" x="127.832031"/>
      <use xlink:href="#Arimo-69" x="177.832031"/>
      <use xlink:href="#Arimo-63" x="200.048828"/>
      <use xlink:href="#Arimo-65" x="250.048828"/>
      <use xlink:href="#Arimo-20" x="305.664062"/>
      <use xlink:href="#Arimo-43" x="333.447266"/>
     </g>
    </g>
   </g>
  </g>
 </g>
 <defs>
  <clipPath id="pe5221bc9f3">
   <rect x="30.24" y="3.6" width="194.4" height="129.6"/>
  </clipPath>
 </defs>
</svg>
