<svg version="1.1" id="Layer_1" xmlns="http://www.w3.org/2000/svg" xmlns:xlink="http://www.w3.org/1999/xlink" x="0px" y="0px"
	 width="100%" viewBox="0 0 1416 715" enable-background="new 0 0 1416 715" xml:space="preserve">
<path fill="#FFFFFF" opacity="1.000000" stroke="none"
	d="
M573.137146,345.395233
	C573.140137,344.990021 573.143188,344.584808 573.060730,344.056976
	C573.060730,344.056976 573.179260,344.148010 573.780701,344.177704
	C574.185913,344.156921 574.591187,344.136139 575.737976,344.075409
	C582.238342,339.089417 589.183289,334.577026 595.126404,328.997467
	C602.538330,322.038849 610.310730,318.624115 620.701416,320.613373
	C640.011230,324.310059 659.419800,327.525635 678.845093,330.573090
	C695.763611,333.227264 712.769470,335.320648 729.722168,337.763367
	C741.009338,339.389740 752.242065,341.420105 763.551331,342.860321
	C776.684204,344.532776 789.869141,345.805054 803.040527,347.163086
	C815.879578,348.486908 828.706848,350.115631 841.582581,350.835083
	C852.726379,351.457733 863.959717,351.503845 875.101196,350.876373
	C888.244934,350.136139 901.381287,348.751923 914.426697,346.961334
	C922.546265,345.846802 930.609619,343.861664 938.480713,341.532166
	C945.868530,339.345642 953.156250,336.592346 960.141968,333.344238
	C966.238525,330.509644 971.851135,326.634857 977.681152,323.225952
	C985.645874,318.569000 991.241760,311.547455 997.072144,304.597107
	C1004.215576,296.081512 1006.122498,285.311005 1010.632385,275.687927
	C1013.900024,268.715637 1011.978516,266.379639 1004.423584,265.637451
	C1000.810364,265.282501 997.212280,264.557281 993.601257,264.513916
	C992.346497,264.498840 991.073181,266.032074 989.309143,267.341370
	C972.556213,304.580292 939.718628,317.759796 902.992676,324.471008
	C903.007202,324.071930 903.021790,323.672821 903.788818,322.966919
	C910.401062,321.286865 917.115051,319.927673 923.607422,317.869507
	C947.744324,310.217712 968.441101,297.771484 981.226135,274.902039
	C986.395752,265.654968 989.482788,255.627274 991.853333,244.906097
	C983.824768,244.271667 976.364319,243.772415 968.921997,243.078720
	C932.469238,239.680969 895.912415,237.106552 859.598389,232.586060
	C810.545837,226.479813 761.651245,219.065994 712.745544,211.830338
	C674.726807,206.205444 636.799072,199.966766 598.822998,194.051971
	C550.157898,186.472382 501.535553,178.595108 452.798004,171.512222
	C418.447723,166.520218 383.797363,165.386856 349.145813,167.405609
	C311.518677,169.597717 274.531128,175.861923 238.549652,187.322586
	C203.595581,198.455994 170.802216,213.634354 142.847366,238.124710
	C123.450127,255.118027 108.871712,274.884216 103.547157,300.625610
	C101.147224,312.228027 100.957764,323.837250 102.338600,335.645386
	C129.077057,335.645386 155.190277,335.688965 181.302185,335.522980
	C182.677917,335.514252 184.586487,334.034332 185.322464,332.721161
	C189.625610,325.043213 193.713135,317.241821 197.759628,309.423218
	C204.106934,297.158966 212.189850,286.425018 223.640579,278.368774
	C241.361038,265.901459 261.542755,260.886353 282.621277,258.878754
	C307.562317,256.503296 332.548370,257.632050 357.304077,260.755798
	C393.618958,265.338043 429.795471,271.017303 466.025757,276.264893
	C467.013397,276.407898 467.941803,276.960022 469.010925,277.364166
	C468.496338,278.035339 468.353607,278.381165 468.096161,278.534515
	C444.759521,292.435181 423.608185,309.331421 402.492706,326.286255
	C388.124939,337.822968 373.632629,349.204376 359.242157,360.712982
	C343.420776,373.365936 327.584930,386.002380 311.880463,398.799469
	C297.196655,410.764771 282.588318,422.826355 268.107025,435.035583
	C250.193634,450.138428 232.249207,465.215118 214.693253,480.727570
	C202.491501,491.509125 190.794434,502.874664 179.101868,514.216431
	C164.269882,528.603394 149.922165,543.469910 141.318558,562.688110
	C133.576920,579.980896 134.099899,596.506592 146.842743,611.586182
	C156.566940,623.093567 169.329468,630.110352 182.866455,635.931580
	C202.714935,644.466858 223.655029,649.167908 244.921692,651.953430
	C263.522583,654.389771 282.309296,655.407471 301.215179,657.546021
	C301.472412,658.010193 301.729614,658.474426 301.070923,658.956726
	C289.524963,658.305298 277.937866,658.059509 266.443909,656.895081
	C253.427292,655.576477 240.318085,654.237549 227.569687,651.444397
	C211.959167,648.024048 196.681152,643.086060 180.970108,638.160522
	C174.346619,635.056824 167.723129,631.953125 160.234436,628.444031
	C160.930054,629.888855 161.048920,630.366028 161.335632,630.698181
	C175.858109,647.521912 194.902145,657.156555 215.554688,663.711548
	C226.229645,667.099670 237.466751,668.683167 248.388016,671.336609
	C265.686676,675.539490 283.237274,677.575928 301.356537,678.509399
	C301.936432,678.609253 302.516296,678.709106 303.738098,678.813171
	C305.827148,678.572083 307.916168,678.331055 310.668243,678.078735
	C311.108765,678.042297 311.549286,678.005920 312.762177,678.052490
	C313.789185,678.100403 314.816162,678.148315 316.134003,678.941772
	C320.755341,678.959290 325.376709,678.976807 330.666443,679.009827
	C331.111725,678.994202 331.556976,678.978516 332.517029,679.527527
	C334.715607,679.066956 336.914185,678.606384 339.704865,678.122437
	C340.099915,678.117737 340.494934,678.113098 341.031281,678.670044
	C341.735352,678.497864 342.439453,678.325745 344.040405,678.111938
	C347.360657,678.078552 350.680908,678.045105 354.364716,678.508301
	C355.242920,678.340637 356.121124,678.172974 357.667938,678.021606
	C358.113373,678.004211 358.558777,677.986816 359.335022,678.451111
	C360.227142,678.240662 361.119263,678.030212 362.739044,677.885193
	C363.468201,677.865967 364.197388,677.846802 365.779785,677.940552
	C367.891571,677.332397 370.003357,676.724243 372.739838,676.098328
	C373.156403,676.096741 373.572998,676.095154 374.296997,676.518799
	C374.866211,676.358398 375.435455,676.198059 376.753357,676.048035
	C377.501831,676.034424 378.250305,676.020752 379.379944,676.500183
	C380.246429,676.289551 381.112946,676.078979 382.768799,675.908813
	C383.820862,675.882263 384.872955,675.855713 386.678223,675.926575
	C387.825989,675.325806 388.973785,674.725037 390.744568,674.112671
	C391.159851,674.103455 391.575165,674.094238 392.442535,674.573425
	C393.622894,674.348633 394.803284,674.123901 396.720734,673.910583
	C398.147156,673.608093 399.573578,673.305603 401.336426,673.451233
	C401.928741,673.004333 402.521057,672.557434 403.741089,672.103760
	C404.159485,672.094238 404.577850,672.084778 405.526001,672.592163
	C408.347351,672.037170 411.168732,671.482117 414.635803,670.925598
	C415.064819,670.892273 415.493805,670.858887 416.678406,670.921997
	C417.773560,670.549683 418.868683,670.177368 420.690002,669.853455
	C422.459656,669.244690 424.229309,668.635925 426.402252,668.525696
	C427.276642,668.027649 428.151001,667.529602 429.462830,666.846985
	C429.749512,666.685181 429.958313,666.453247 430.901520,666.114014
	C432.266235,666.088562 433.630951,666.063171 435.409485,666.517517
	C436.295837,666.032471 437.182159,665.547424 438.831299,665.041321
	C440.209564,664.676086 441.587860,664.310852 443.807892,663.977051
	C449.870575,661.972900 455.933228,659.968811 462.634949,657.938660
	C463.060455,657.912170 463.485992,657.885742 464.678284,657.883240
	C468.120026,656.256409 471.561768,654.629578 475.487518,652.980408
	C475.487518,652.980408 475.971527,652.960205 476.774384,653.002625
	C483.431519,650.261902 490.210205,647.775635 496.696198,644.676636
	C500.100067,643.050293 502.991211,640.350769 506.726624,638.070129
	C507.135223,638.023865 507.543854,637.977600 508.677429,637.904663
	C519.506226,633.390137 527.196533,624.835938 535.577820,617.136108
	C544.127625,609.281555 548.399170,599.115723 551.706360,588.373474
	C552.453491,585.946655 551.889221,584.258667 549.113098,583.523193
	C544.164368,582.212158 539.311890,580.510193 534.325806,579.386169
	C533.030640,579.094116 531.389648,580.336426 529.469788,581.265381
	C529.224548,581.792297 528.979309,582.319214 528.172791,583.226929
	C519.305237,598.268433 506.088806,608.818970 491.159424,616.939087
	C478.519287,623.814026 465.213684,629.603271 451.832001,634.944519
	C431.931641,642.887634 411.251160,648.278870 390.014648,650.759888
	C390.055389,650.432129 390.078705,650.103149 390.846008,649.367554
	C405.212708,645.870056 419.815613,643.127014 433.897003,638.718262
	C463.369812,629.490479 491.912170,618.230957 514.283264,595.545105
	C523.209290,586.493530 527.715515,575.291748 531.643799,563.219910
	C522.854187,560.977783 514.551208,558.579224 506.113892,556.828308
	C502.013397,555.977417 497.564850,555.677307 493.442596,556.280640
	C483.268036,557.769958 473.227509,560.155396 463.067749,561.768982
	C433.585907,566.451538 403.981049,569.339172 374.206848,564.933105
	C364.887299,563.553894 355.540100,561.578003 346.595001,558.675232
	C337.845093,555.835876 335.088501,549.584900 337.923706,540.889160
	C339.650909,535.591736 341.802704,530.122864 345.074646,525.700928
	C352.870697,515.164978 360.946655,504.746063 369.815552,495.114044
	C385.018616,478.602783 400.602600,462.412048 416.612610,446.683167
	C430.480164,433.059082 445.072693,420.165131 459.506104,407.127075
	C474.183380,393.868713 488.970154,380.728180 503.869812,367.720276
	C520.009338,353.630035 536.295105,339.706268 552.592712,325.798401
	C563.464905,316.520447 574.424927,307.343292 585.470520,298.273102
	C586.854980,297.136200 589.128845,296.150970 590.777893,296.416595
	C602.903442,298.369995 614.974854,300.659576 626.703064,303.422211
	C626.072205,303.673553 625.441406,303.924866 623.985718,304.125336
	C614.986450,302.678986 605.868347,301.729248 597.028748,299.615143
	C590.935974,298.157959 586.735596,299.867706 582.906555,304.165527
	C582.146057,305.019073 581.184814,305.697021 580.298645,306.434967
	C572.016174,313.332031 563.642395,320.122528 555.464783,327.141663
	C542.240784,338.492218 529.144043,349.991211 515.995117,361.429352
	C503.351318,372.428131 490.637726,383.348145 478.091095,394.456696
	C469.158051,402.365845 460.413391,410.489594 451.651855,418.590240
	C438.739227,430.528809 425.757690,442.397705 413.058655,454.560577
	C405.984772,461.335754 399.324432,468.554138 392.652924,475.735504
	C380.796753,488.497681 368.556091,500.956238 357.482086,514.372070
	C350.427155,522.918945 343.118469,531.794495 341.737213,543.733093
	C340.927582,550.730591 343.670624,555.278931 351.309021,557.740967
	C357.360687,560.405090 359.458191,559.688416 361.792114,554.198059
	C362.241272,553.141418 362.626068,552.000366 363.315643,551.111755
	C370.983185,541.231140 378.198029,530.938599 386.524750,521.643799
	C400.783203,505.727631 415.519745,490.220215 430.496429,474.974243
	C439.896057,465.405640 450.118225,456.646637 459.939606,447.490295
	C470.576904,437.573212 481.077026,427.506348 491.834351,417.721771
	C497.537811,412.534088 503.859467,408.023895 509.535675,402.809082
	C514.948486,397.836182 519.885498,392.345367 525.756897,387.033081
	C531.606812,382.413757 537.622070,377.985352 543.249634,373.109406
	C547.130310,369.747070 550.474304,365.765289 554.799316,362.032532
	C560.221802,357.377045 565.644226,352.721527 571.697876,347.953766
	C572.152344,347.303314 572.606873,346.652863 573.137146,345.395233
M1097.076538,305.074341
	C1097.205078,305.197083 1097.333740,305.319824 1097.564941,306.231628
	C1096.695557,309.089966 1095.653687,311.909271 1094.996826,314.815643
	C1093.962280,319.392670 1095.020752,323.486603 1098.884766,326.406342
	C1102.657837,329.257416 1106.870483,329.732086 1111.053223,327.419037
	C1112.911133,326.391632 1114.382812,324.685120 1116.094116,323.370605
	C1124.336304,317.039612 1132.600464,310.737152 1140.856812,304.424622
	C1141.303223,304.835999 1141.749634,305.247375 1142.196045,305.658783
	C1141.195923,308.588745 1140.216431,311.526031 1139.191772,314.447388
	C1135.643066,324.562714 1142.128174,332.127686 1152.703979,330.471832
	C1163.709595,328.748657 1174.783203,327.460938 1185.790771,325.748871
	C1192.102661,324.767151 1199.479370,325.046783 1204.422363,321.791260
	C1229.056641,305.566528 1255.405884,294.061188 1284.471436,288.810791
	C1285.781128,288.574188 1287.550415,287.281891 1287.940674,286.097443
	C1293.624023,268.852234 1303.755737,254.295975 1315.237671,240.567719
	C1319.815918,235.093857 1324.726807,229.898071 1329.071899,225.039032
	C1312.503662,208.461792 1296.061157,192.010437 1279.478149,175.418427
	C1277.361938,177.382919 1274.958374,179.657227 1272.509033,181.881042
	C1256.404053,196.502487 1239.345825,209.618378 1218.376831,216.735962
	C1217.152100,217.151688 1215.994263,219.265045 1215.719116,220.756943
	C1210.227295,250.524246 1198.402466,277.574005 1181.042969,302.278503
	C1180.627686,302.869629 1180.080688,303.720398 1179.510132,303.794495
	C1175.001099,304.379852 1170.471436,304.805817 1165.739136,305.302734
	C1165.831543,303.422150 1165.905762,302.273376 1165.941772,301.123444
	C1166.415649,285.967163 1157.194580,278.185547 1142.351074,281.271118
	C1140.406006,281.675446 1138.430542,282.189209 1136.636108,283.015289
	C1130.643188,285.774323 1124.726074,288.698303 1118.608032,291.641754
	C1111.986572,280.431000 1102.090698,278.617035 1090.930420,282.476013
	C1090.930420,277.646637 1091.146973,272.862061 1090.890747,268.102936
	C1090.048462,252.460861 1081.109985,241.684174 1066.082520,237.629181
	C1051.761963,233.764938 1038.376709,237.394424 1025.324341,242.795654
	C1020.028870,244.987015 1017.972107,251.601578 1020.081604,256.827026
	C1022.138794,261.922974 1028.149048,264.822906 1033.646851,263.286438
	C1036.203857,262.571808 1038.661377,261.277374 1041.252563,260.954254
	C1047.449829,260.181427 1053.710083,259.329803 1059.924683,259.462189
	C1065.022583,259.570801 1068.491455,263.159698 1068.247559,268.294861
	C1067.951782,274.524292 1067.226685,280.922089 1065.405518,286.853485
	C1060.734985,302.065186 1052.852173,315.780212 1044.223145,329.087738
	C1040.229736,335.246277 1041.552979,341.598938 1047.175781,345.222870
	C1052.540039,348.680237 1058.661865,347.275177 1062.861206,341.612030
	C1066.329956,336.934265 1069.366455,331.849304 1073.341675,327.652435
	C1080.843384,319.732086 1088.882690,312.320831 1097.076538,305.074341
M189.536713,333.008820
	C187.855545,336.868927 184.943008,338.059204 180.757950,338.017365
	C163.268570,337.842499 145.776154,337.966736 128.284866,337.994232
	C120.028641,338.007233 120.028656,338.020386 120.018501,346.329681
	C120.006088,356.487457 121.476967,358.005310 131.846771,357.928345
	C140.813004,357.861816 149.778030,357.453125 158.743210,357.465790
	C171.549423,357.483917 184.364868,358.062317 197.154114,357.672211
	C200.105011,357.582214 204.020218,355.229736 205.671890,352.720520
	C210.801727,344.927185 215.569229,336.797913 219.523849,328.352509
	C224.725113,317.244812 232.547653,308.656036 242.119583,301.351440
	C253.704010,292.511017 266.944397,287.064545 280.989807,284.239471
	C292.087128,282.007355 303.542542,280.930389 314.873077,280.630798
	C331.408264,280.193695 348.076721,279.834869 364.502045,281.399384
	C387.647888,283.604004 410.621765,287.609558 433.673584,290.813232
	C436.275635,291.174866 439.462067,292.404510 441.423920,291.389130
	C448.496674,287.728577 455.161346,283.279419 462.956116,278.533936
	C460.318787,277.791382 459.080963,277.292694 457.797546,277.103699
	C434.356720,273.652039 410.868805,270.496979 387.476685,266.744110
	C362.701721,262.769348 337.832977,260.344421 312.741150,259.920319
	C290.353119,259.541931 268.232605,260.837616 247.024826,268.868713
	C233.932617,273.826599 221.624847,280.602661 213.636154,292.207336
	C204.842361,304.981537 197.737289,318.918274 189.536713,333.008820
M1297.630859,170.869156
	C1314.291504,187.507401 1330.952271,204.145645 1347.782715,220.953415
	C1352.463135,216.670944 1357.100464,212.851196 1361.171387,208.501404
	C1362.874146,206.681992 1364.276001,203.741013 1364.286865,201.303146
	C1364.473267,159.356125 1364.424438,117.408058 1364.407349,75.460228
	C1364.406738,73.956337 1364.204102,72.452530 1364.018799,69.880814
	C1336.715454,99.443054 1310.251587,128.096436 1283.445679,157.120087
	C1288.293945,161.813965 1292.712280,166.091583 1297.630859,170.869156
z"/>
<path fill="#000000" opacity="1.000000" stroke="none"
	d="
M301.013916,657.051941
	C282.309296,655.407471 263.522583,654.389771 244.921692,651.953430
	C223.655029,649.167908 202.714935,644.466858 182.866455,635.931580
	C169.329468,630.110352 156.566940,623.093567 146.842743,611.586182
	C134.099899,596.506592 133.576920,579.980896 141.318558,562.688110
	C149.922165,543.469910 164.269882,528.603394 179.101868,514.216431
	C190.794434,502.874664 202.491501,491.509125 214.693253,480.727570
	C232.249207,465.215118 250.193634,450.138428 268.107025,435.035583
	C282.588318,422.826355 297.196655,410.764771 311.880463,398.799469
	C327.584930,386.002380 343.420776,373.365936 359.242157,360.712982
	C373.632629,349.204376 388.124939,337.822968 402.492706,326.286255
	C423.608185,309.331421 444.759521,292.435181 468.096161,278.534515
	C468.353607,278.381165 468.496338,278.035339 469.010925,277.364166
	C467.941803,276.960022 467.013397,276.407898 466.025757,276.264893
	C429.795471,271.017303 393.618958,265.338043 357.304077,260.755798
	C332.548370,257.632050 307.562317,256.503296 282.621277,258.878754
	C261.542755,260.886353 241.361038,265.901459 223.640579,278.368774
	C212.189850,286.425018 204.106934,297.158966 197.759628,309.423218
	C193.713135,317.241821 189.625610,325.043213 185.322464,332.721161
	C184.586487,334.034332 182.677917,335.514252 181.302185,335.522980
	C155.190277,335.688965 129.077057,335.645386 102.338600,335.645386
	C100.957764,323.837250 101.147224,312.228027 103.547157,300.625610
	C108.871712,274.884216 123.450127,255.118027 142.847366,238.124710
	C170.802216,213.634354 203.595581,198.455994 238.549652,187.322586
	C274.531128,175.861923 311.518677,169.597717 349.145813,167.405609
	C383.797363,165.386856 418.447723,166.520218 452.798004,171.512222
	C501.535553,178.595108 550.157898,186.472382 598.822998,194.051971
	C636.799072,199.966766 674.726807,206.205444 712.745544,211.830338
	C761.651245,219.065994 810.545837,226.479813 859.598389,232.586060
	C895.912415,237.106552 932.469238,239.680969 968.921997,243.078720
	C976.364319,243.772415 983.824768,244.271667 991.853333,244.906097
	C989.482788,255.627274 986.395752,265.654968 981.226135,274.902039
	C968.441101,297.771484 947.744324,310.217712 923.607422,317.869507
	C917.115051,319.927673 910.401062,321.286865 903.001343,323.104980
	C871.377441,329.864258 840.116394,330.636902 808.987488,327.502075
	C772.294250,323.806915 735.769470,318.389526 699.209106,313.442322
	C677.147400,310.457001 655.156799,306.945984 632.824036,303.503479
	C631.345886,303.247253 630.178040,303.158691 628.694397,302.961304
	C627.940186,302.849426 627.501770,302.846313 627.063293,302.843231
	C614.974854,300.659576 602.903442,298.369995 590.777893,296.416595
	C589.128845,296.150970 586.854980,297.136200 585.470520,298.273102
	C574.424927,307.343292 563.464905,316.520447 552.592712,325.798401
	C536.295105,339.706268 520.009338,353.630035 503.869812,367.720276
	C488.970154,380.728180 474.183380,393.868713 459.506104,407.127075
	C445.072693,420.165131 430.480164,433.059082 416.612610,446.683167
	C400.602600,462.412048 385.018616,478.602783 369.815552,495.114044
	C360.946655,504.746063 352.870697,515.164978 345.074646,525.700928
	C341.802704,530.122864 339.650909,535.591736 337.923706,540.889160
	C335.088501,549.584900 337.845093,555.835876 346.595001,558.675232
	C355.540100,561.578003 364.887299,563.553894 374.206848,564.933105
	C403.981049,569.339172 433.585907,566.451538 463.067749,561.768982
	C473.227509,560.155396 483.268036,557.769958 493.442596,556.280640
	C497.564850,555.677307 502.013397,555.977417 506.113892,556.828308
	C514.551208,558.579224 522.854187,560.977783 531.643799,563.219910
	C527.715515,575.291748 523.209290,586.493530 514.283264,595.545105
	C491.912170,618.230957 463.369812,629.490479 433.897003,638.718262
	C419.815613,643.127014 405.212708,645.870056 390.072510,649.516724
	C372.051300,651.656799 354.833893,653.989319 337.545532,655.521729
	C325.418396,656.596802 313.194580,656.580750 301.013916,657.051941
z"/>
<path fill="#000000" opacity="1.000000" stroke="none"
	d="
M1096.698608,304.698029
	C1088.882690,312.320831 1080.843384,319.732086 1073.341675,327.652435
	C1069.366455,331.849304 1066.329956,336.934265 1062.861206,341.612030
	C1058.661865,347.275177 1052.540039,348.680237 1047.175781,345.222870
	C1041.552979,341.598938 1040.229736,335.246277 1044.223145,329.087738
	C1052.852173,315.780212 1060.734985,302.065186 1065.405518,286.853485
	C1067.226685,280.922089 1067.951782,274.524292 1068.247559,268.294861
	C1068.491455,263.159698 1065.022583,259.570801 1059.924683,259.462189
	C1053.710083,259.329803 1047.449829,260.181427 1041.252563,260.954254
	C1038.661377,261.277374 1036.203857,262.571808 1033.646851,263.286438
	C1028.149048,264.822906 1022.138794,261.922974 1020.081604,256.827026
	C1017.972107,251.601578 1020.028870,244.987015 1025.324341,242.795654
	C1038.376709,237.394424 1051.761963,233.764938 1066.082520,237.629181
	C1081.109985,241.684174 1090.048462,252.460861 1090.890747,268.102936
	C1091.146973,272.862061 1090.930420,277.646637 1090.930420,282.476013
	C1102.090698,278.617035 1111.986572,280.431000 1118.608032,291.641754
	C1124.726074,288.698303 1130.643188,285.774323 1136.636108,283.015289
	C1138.430542,282.189209 1140.406006,281.675446 1142.351074,281.271118
	C1157.194580,278.185547 1166.415649,285.967163 1165.941772,301.123444
	C1165.905762,302.273376 1165.831543,303.422150 1165.739136,305.302734
	C1170.471436,304.805817 1175.001099,304.379852 1179.510132,303.794495
	C1180.080688,303.720398 1180.627686,302.869629 1181.042969,302.278503
	C1198.402466,277.574005 1210.227295,250.524246 1215.719116,220.756943
	C1215.994263,219.265045 1217.152100,217.151688 1218.376831,216.735962
	C1239.345825,209.618378 1256.404053,196.502487 1272.509033,181.881042
	C1274.958374,179.657227 1277.361938,177.382919 1279.478149,175.418427
	C1296.061157,192.010437 1312.503662,208.461792 1329.071899,225.039032
	C1324.726807,229.898071 1319.815918,235.093857 1315.237671,240.567719
	C1303.755737,254.295975 1293.624023,268.852234 1287.940674,286.097443
	C1287.550415,287.281891 1285.781128,288.574188 1284.471436,288.810791
	C1255.405884,294.061188 1229.056641,305.566528 1204.422363,321.791260
	C1199.479370,325.046783 1192.102661,324.767151 1185.790771,325.748871
	C1174.783203,327.460938 1163.709595,328.748657 1152.703979,330.471832
	C1142.128174,332.127686 1135.643066,324.562714 1139.191772,314.447388
	C1140.216431,311.526031 1141.195923,308.588745 1142.196045,305.658783
	C1141.749634,305.247375 1141.303223,304.835999 1140.856812,304.424622
	C1132.600464,310.737152 1124.336304,317.039612 1116.094116,323.370605
	C1114.382812,324.685120 1112.911133,326.391632 1111.053223,327.419037
	C1106.870483,329.732086 1102.657837,329.257416 1098.884766,326.406342
	C1095.020752,323.486603 1093.962280,319.392670 1094.996826,314.815643
	C1095.653687,311.909271 1096.695557,309.089966 1097.660278,305.638733
	C1097.403320,304.929901 1097.050903,304.813965 1096.698608,304.698029
M1252.889160,247.441040
	C1244.418701,244.362076 1237.976807,249.327103 1238.456787,258.262604
	C1238.542114,259.849701 1237.329956,261.877411 1236.114990,263.106659
	C1221.838013,277.552094 1207.442261,291.880310 1193.091797,306.253265
	C1191.972534,307.374420 1190.957397,308.599762 1190.216553,309.419708
	C1191.803223,311.443787 1193.114258,313.116302 1194.612183,315.027130
	C1196.283081,313.437897 1197.618286,312.221405 1198.894531,310.945953
	C1213.024658,296.823639 1227.106934,282.653015 1241.332031,268.627136
	C1242.673584,267.304321 1244.938232,266.090363 1246.704224,266.181641
	C1251.834595,266.446716 1255.537842,264.679901 1257.571167,260.020386
	C1259.471069,255.666702 1257.951904,251.553635 1252.889160,247.441040
z"/>
<path fill="#BFBFBF" opacity="1.000000" stroke="none"
	d="
M902.957581,325.070526
	C939.718628,317.759796 972.556213,304.580292 989.935669,267.174835
	C995.229858,268.112885 999.897461,269.217468 1004.690979,270.351837
	C1003.478577,273.988373 1001.782166,277.179291 1001.431152,280.511902
	C1000.622131,288.194092 996.165039,294.235352 992.629333,300.520935
	C989.688721,305.748627 984.933716,309.974152 980.874207,314.547607
	C978.147461,317.619568 975.522827,320.896454 972.318970,323.398529
	C969.119690,325.896973 965.325928,327.683411 961.664551,329.527649
	C957.741150,331.503876 953.778748,333.507935 949.635376,334.918243
	C943.044128,337.161835 936.350342,339.179779 929.582214,340.802521
	C924.693237,341.974670 919.595764,342.253876 914.632629,343.158417
	C913.562988,343.353333 912.670959,344.522827 911.760681,345.196350
	C910.162720,344.941742 908.243408,344.203094 906.438354,344.419006
	C895.218445,345.761261 884.057373,348.117249 872.812256,348.584900
	C860.804443,349.084259 848.706421,348.142761 836.682983,347.317657
	C826.168457,346.596100 815.695923,345.223267 805.217346,344.027924
	C794.275146,342.779663 783.359558,341.291870 772.409790,340.119385
	C766.254639,339.460327 760.022583,339.485229 753.880737,338.742584
	C744.170837,337.568512 734.920898,333.824219 724.796692,334.480347
	C720.067932,334.786835 715.224976,332.174103 710.358826,331.755371
	C699.766724,330.843842 689.619568,327.304382 678.766663,327.500793
	C671.896973,327.625153 664.970947,325.312317 658.091492,323.982269
	C653.427979,323.080658 648.828003,321.832794 644.150024,321.028595
	C640.330261,320.371948 636.415100,320.284821 632.581543,319.691223
	C626.846436,318.803223 621.177307,317.388885 615.418640,316.789185
	C611.912842,316.424103 607.981812,316.352386 604.779236,317.566467
	C594.594910,321.427399 587.400696,329.409729 579.632690,337.006805
	C576.435242,338.709412 572.916748,339.815430 573.179260,344.148010
	C573.179260,344.148010 573.060730,344.056976 572.736816,344.060730
	C571.603699,344.705109 570.794495,345.345673 569.990295,345.990601
	C569.995239,345.994904 569.982971,345.986359 569.616577,345.994446
	C565.638977,347.781097 561.395264,348.906403 560.744019,354.000519
	C560.495422,354.002533 559.998169,354.008789 559.801575,353.769043
	C555.405762,357.352844 551.206543,361.176422 546.885864,365.265076
	C546.179565,366.018646 545.594727,366.507141 544.899841,366.796814
	C544.420044,366.503998 544.050171,366.410034 543.680359,366.316101
	C543.787720,366.543945 543.895081,366.771790 544.003174,367.253204
	C544.003906,367.675781 544.003906,367.844788 543.647217,368.049438
	C541.531250,368.917786 539.772095,369.750519 538.354065,370.421753
	C538.875610,371.258240 539.410645,372.116364 539.712158,372.971985
	C539.478638,372.969452 539.011536,372.972015 538.792358,372.713593
	C534.824951,371.720490 534.200500,374.151459 533.759399,377.097900
	C533.268982,377.408295 533.088623,377.672882 532.646301,378.005646
	C531.530334,378.674194 530.768127,379.337097 529.980469,380.296356
	C529.636902,381.059967 529.318787,381.527191 528.601562,381.996185
	C527.059692,382.124634 525.562012,381.828278 524.828796,382.443298
	C517.419861,388.658234 510.006287,394.880341 502.866791,401.399109
	C498.767334,405.142212 495.387451,409.674622 491.279633,413.407013
	C487.712799,416.647858 483.408295,419.064453 479.731262,422.199005
	C473.348480,427.640015 467.212189,433.369476 460.945160,438.947174
	C457.650055,441.879822 454.119598,444.571014 451.018494,447.692261
	C447.775421,450.956451 444.919922,454.605774 441.886536,458.096436
	C440.717743,458.555298 438.999146,458.758362 437.982025,459.710693
	C433.468048,463.936890 429.066589,468.293060 424.789520,472.760284
	C417.554871,480.316559 410.535675,488.080292 403.252380,495.588501
	C397.916443,501.089203 391.868073,505.950073 386.916656,511.760315
	C379.877899,520.019958 370.897430,526.841309 366.926392,537.515137
	C366.603485,538.383118 365.692749,539.033997 365.049500,539.780823
	C362.645966,542.571228 360.183136,545.313049 357.850952,548.161743
	C355.448212,551.096619 353.171875,554.135010 350.840210,557.128052
	C343.670624,555.278931 340.927582,550.730591 341.737213,543.733093
	C343.118469,531.794495 350.427155,522.918945 357.482086,514.372070
	C368.556091,500.956238 380.796753,488.497681 392.652924,475.735504
	C399.324432,468.554138 405.984772,461.335754 413.058655,454.560577
	C425.757690,442.397705 438.739227,430.528809 451.651855,418.590240
	C460.413391,410.489594 469.158051,402.365845 478.091095,394.456696
	C490.637726,383.348145 503.351318,372.428131 515.995117,361.429352
	C529.144043,349.991211 542.240784,338.492218 555.464783,327.141663
	C563.642395,320.122528 572.016174,313.332031 580.298645,306.434967
	C581.184814,305.697021 582.146057,305.019073 582.906555,304.165527
	C586.735596,299.867706 590.935974,298.157959 597.028748,299.615143
	C605.868347,301.729248 614.986450,302.678986 624.524719,304.453217
	C626.377319,304.865509 627.690857,304.949921 629.399353,305.056580
	C630.843628,305.152924 631.893066,305.226990 633.066284,305.652161
	C638.331726,306.983734 643.450012,308.114502 648.619202,308.917084
	C665.598083,311.553131 682.591309,314.097809 699.587036,316.623596
	C711.859558,318.447479 724.122253,320.365448 736.430664,321.912231
	C749.231140,323.520813 762.075195,324.794250 774.911316,326.104797
	C791.473328,327.795776 808.017151,329.875793 824.623901,330.848785
	C837.786926,331.620026 851.090271,331.737366 864.225769,330.746643
	C877.205261,329.767639 890.052368,327.034302 902.957581,325.070526
z"/>
<path fill="#C2C2C2" opacity="1.000000" stroke="none"
	d="
M189.716614,332.678680
	C197.737289,318.918274 204.842361,304.981537 213.636154,292.207336
	C221.624847,280.602661 233.932617,273.826599 247.024826,268.868713
	C268.232605,260.837616 290.353119,259.541931 312.741150,259.920319
	C337.832977,260.344421 362.701721,262.769348 387.476685,266.744110
	C410.868805,270.496979 434.356720,273.652039 457.797546,277.103699
	C459.080963,277.292694 460.318787,277.791382 462.956116,278.533936
	C455.161346,283.279419 448.496674,287.728577 441.423920,291.389130
	C439.462067,292.404510 436.275635,291.174866 433.673584,290.813232
	C410.621765,287.609558 387.647888,283.604004 364.502045,281.399384
	C348.076721,279.834869 331.408264,280.193695 314.873077,280.630798
	C303.542542,280.930389 292.087128,282.007355 280.989807,284.239471
	C266.944397,287.064545 253.704010,292.511017 242.119583,301.351440
	C232.547653,308.656036 224.725113,317.244812 219.523849,328.352509
	C215.569229,336.797913 210.801727,344.927185 205.671890,352.720520
	C204.020218,355.229736 200.105011,357.582214 197.154114,357.672211
	C184.364868,358.062317 171.549423,357.483917 158.743210,357.465790
	C149.778030,357.453125 140.813004,357.861816 131.846771,357.928345
	C121.476967,358.005310 120.006088,356.487457 120.018501,346.329681
	C120.028656,338.020386 120.028641,338.007233 128.284866,337.994232
	C145.776154,337.966736 163.268570,337.842499 180.757950,338.017365
	C184.943008,338.059204 187.855545,336.868927 189.716614,332.678680
z"/>
<path fill="#BFBFBF" opacity="1.000000" stroke="none"
	d="
M311.989807,677.969482
	C311.549286,678.005920 311.108765,678.042297 310.287598,677.725952
	C307.716522,675.411499 305.520752,673.536926 302.665833,676.953308
	C301.889801,676.950500 301.446411,676.940491 300.724487,676.656006
	C287.703094,674.916382 275.135620,672.283936 262.371796,670.862183
	C255.531921,670.100281 248.878723,667.757324 242.100281,666.321472
	C235.563904,664.936951 228.806229,664.350708 222.456192,662.402100
	C216.085236,660.447021 209.984787,657.473389 203.968567,654.531555
	C194.995544,650.143799 185.382217,646.751465 178.097519,639.157532
	C179.294281,639.023804 180.276825,638.914001 181.259384,638.804199
	C196.681152,643.086060 211.959167,648.024048 227.569687,651.444397
	C240.318085,654.237549 253.427292,655.576477 266.443909,656.895081
	C277.937866,658.059509 289.524963,658.305298 301.768127,659.189941
	C307.162537,659.461853 311.883759,659.826477 316.552704,659.482239
	C335.792969,658.063171 355.033020,656.593201 374.237488,654.767151
	C379.550629,654.261963 384.740753,652.462585 389.987335,651.256958
	C411.251160,648.278870 431.931641,642.887634 451.832001,634.944519
	C465.213684,629.603271 478.519287,623.814026 491.159424,616.939087
	C506.088806,608.818970 519.305237,598.268433 528.792786,583.068542
	C529.949341,582.578125 530.485962,582.246155 531.268433,581.927246
	C531.514282,581.940308 532.005066,581.981201 532.160645,582.296021
	C534.158203,583.677551 535.890137,585.057373 537.863342,585.750916
	C543.240784,587.640930 544.368652,590.097839 541.741699,595.103088
	C539.934937,598.545532 538.355225,602.143555 536.211548,605.364258
	C533.147583,609.967773 530.192444,614.885132 526.146484,618.499451
	C523.875854,620.527771 522.066650,621.966248 521.870300,625.327148
	C519.162415,627.435486 516.607544,629.244934 513.742615,630.912476
	C512.658997,630.699585 511.693176,630.293884 511.142120,630.610413
	C506.433411,633.314880 501.753387,636.077637 497.181366,639.005127
	C496.212891,639.625366 495.721344,640.990479 495.005524,642.007446
	C495.000977,642.002502 495.012085,642.010803 494.605591,642.004944
	C491.808685,642.545410 489.309509,642.810425 487.046265,643.685547
	C475.658630,648.088745 464.239777,652.438965 453.058075,657.325317
	C450.637299,658.383179 446.195435,657.224915 445.651276,661.966187
	C444.539124,662.321411 443.745239,662.633728 442.590820,662.798157
	C437.410980,661.139038 433.332764,662.197815 430.089203,666.151184
	C429.958313,666.453247 429.749512,666.685181 428.912231,666.909119
	C427.918274,666.963013 427.474945,666.954834 426.956238,666.597656
	C424.265411,666.224792 421.206787,665.327087 419.136108,666.377319
	C415.847717,668.045166 410.969849,665.151672 408.674438,670.022095
	C407.905426,670.027588 407.466187,670.036560 406.688446,669.890015
	C404.930695,669.651306 403.470184,669.311768 402.099731,669.532166
	C397.665894,670.245117 393.297607,671.483154 388.844757,671.935974
	C379.980682,672.837158 371.063263,673.216003 362.201477,674.135010
	C360.388977,674.322937 358.724213,675.935120 356.618042,676.912231
	C355.496948,676.938354 354.749176,676.943115 353.748169,676.679443
	C349.336029,675.948364 345.177063,675.485596 341.009125,675.011841
	C341.000122,675.000793 340.978149,674.982910 340.803070,674.755981
	C339.752472,675.357361 338.876953,676.185791 337.625336,677.017151
	C336.497162,677.031189 335.745087,677.042358 334.955322,676.735229
	C333.268494,674.921814 332.777679,675.185059 331.994812,677.993530
	C332.000000,678.000000 331.988129,677.985413 331.678101,677.831909
	C329.578217,677.467957 327.788361,677.257568 325.623352,677.040039
	C324.497955,677.044128 323.747742,677.055298 322.843079,676.742798
	C318.875977,675.235474 315.009583,673.681091 311.989807,677.969482
z"/>
<path fill="#000000" opacity="1.000000" stroke="none"
	d="
M1297.380859,170.619171
	C1292.712280,166.091583 1288.293945,161.813965 1283.445679,157.120087
	C1310.251587,128.096436 1336.715454,99.443054 1364.018799,69.880814
	C1364.204102,72.452530 1364.406738,73.956337 1364.407349,75.460228
	C1364.424438,117.408058 1364.473267,159.356125 1364.286865,201.303146
	C1364.276001,203.741013 1362.874146,206.681992 1361.171387,208.501404
	C1357.100464,212.851196 1352.463135,216.670944 1347.782715,220.953415
	C1330.952271,204.145645 1314.291504,187.507401 1297.380859,170.619171
z"/>
<path fill="#CFCFCF" opacity="1.000000" stroke="none"
	d="
M580.000000,336.997559
	C587.400696,329.409729 594.594910,321.427399 604.779236,317.566467
	C607.981812,316.352386 611.912842,316.424103 615.418640,316.789185
	C621.177307,317.388885 626.846436,318.803223 632.581543,319.691223
	C636.415100,320.284821 640.330261,320.371948 644.150024,321.028595
	C648.828003,321.832794 653.427979,323.080658 658.091492,323.982269
	C664.970947,325.312317 671.896973,327.625153 678.766663,327.500793
	C689.619568,327.304382 699.766724,330.843842 710.358826,331.755371
	C715.224976,332.174103 720.067932,334.786835 724.796692,334.480347
	C734.920898,333.824219 744.170837,337.568512 753.880737,338.742584
	C760.022583,339.485229 766.254639,339.460327 772.409790,340.119385
	C783.359558,341.291870 794.275146,342.779663 805.217346,344.027924
	C815.695923,345.223267 826.168457,346.596100 836.682983,347.317657
	C848.706421,348.142761 860.804443,349.084259 872.812256,348.584900
	C884.057373,348.117249 895.218445,345.761261 906.438354,344.419006
	C908.243408,344.203094 910.162720,344.941742 911.760681,345.196350
	C912.670959,344.522827 913.562988,343.353333 914.632629,343.158417
	C919.595764,342.253876 924.693237,341.974670 929.582214,340.802521
	C936.350342,339.179779 943.044128,337.161835 949.635376,334.918243
	C953.778748,333.507935 957.741150,331.503876 961.664551,329.527649
	C965.325928,327.683411 969.119690,325.896973 972.318970,323.398529
	C975.522827,320.896454 978.147461,317.619568 980.874207,314.547607
	C984.933716,309.974152 989.688721,305.748627 992.629333,300.520935
	C996.165039,294.235352 1000.622131,288.194092 1001.431152,280.511902
	C1001.782166,277.179291 1003.478577,273.988373 1004.690979,270.351837
	C999.897461,269.217468 995.229858,268.112885 990.185303,266.933228
	C991.073181,266.032074 992.346497,264.498840 993.601257,264.513916
	C997.212280,264.557281 1000.810364,265.282501 1004.423584,265.637451
	C1011.978516,266.379639 1013.900024,268.715637 1010.632385,275.687927
	C1006.122498,285.311005 1004.215576,296.081512 997.072144,304.597107
	C991.241760,311.547455 985.645874,318.569000 977.681152,323.225952
	C971.851135,326.634857 966.238525,330.509644 960.141968,333.344238
	C953.156250,336.592346 945.868530,339.345642 938.480713,341.532166
	C930.609619,343.861664 922.546265,345.846802 914.426697,346.961334
	C901.381287,348.751923 888.244934,350.136139 875.101196,350.876373
	C863.959717,351.503845 852.726379,351.457733 841.582581,350.835083
	C828.706848,350.115631 815.879578,348.486908 803.040527,347.163086
	C789.869141,345.805054 776.684204,344.532776 763.551331,342.860321
	C752.242065,341.420105 741.009338,339.389740 729.722168,337.763367
	C712.769470,335.320648 695.763611,333.227264 678.845093,330.573090
	C659.419800,327.525635 640.011230,324.310059 620.701416,320.613373
	C610.310730,318.624115 602.538330,322.038849 595.126404,328.997467
	C589.183289,334.577026 582.238342,339.089417 575.409912,343.746521
	C576.721191,341.277618 578.360596,339.137604 580.000000,336.997559
z"/>
<path fill="#CECECE" opacity="1.000000" stroke="none"
	d="
M351.074646,557.434509
	C353.171875,554.135010 355.448212,551.096619 357.850952,548.161743
	C360.183136,545.313049 362.645966,542.571228 365.049500,539.780823
	C365.692749,539.033997 366.603485,538.383118 366.926392,537.515137
	C370.897430,526.841309 379.877899,520.019958 386.916656,511.760315
	C391.868073,505.950073 397.916443,501.089203 403.252380,495.588501
	C410.535675,488.080292 417.554871,480.316559 424.789520,472.760284
	C429.066589,468.293060 433.468048,463.936890 437.982025,459.710693
	C438.999146,458.758362 440.717743,458.555298 441.886536,458.096436
	C444.919922,454.605774 447.775421,450.956451 451.018494,447.692261
	C454.119598,444.571014 457.650055,441.879822 460.945160,438.947174
	C467.212189,433.369476 473.348480,427.640015 479.731262,422.199005
	C483.408295,419.064453 487.712799,416.647858 491.279633,413.407013
	C495.387451,409.674622 498.767334,405.142212 502.866791,401.399109
	C510.006287,394.880341 517.419861,388.658234 524.828796,382.443298
	C525.562012,381.828278 527.059692,382.124634 528.439026,382.309265
	C527.460876,384.107788 526.246277,385.595001 525.031677,387.082214
	C519.885498,392.345367 514.948486,397.836182 509.535675,402.809082
	C503.859467,408.023895 497.537811,412.534088 491.834351,417.721771
	C481.077026,427.506348 470.576904,437.573212 459.939606,447.490295
	C450.118225,456.646637 439.896057,465.405640 430.496429,474.974243
	C415.519745,490.220215 400.783203,505.727631 386.524750,521.643799
	C378.198029,530.938599 370.983185,541.231140 363.315643,551.111755
	C362.626068,552.000366 362.241272,553.141418 361.792114,554.198059
	C359.458191,559.688416 357.360687,560.405090 351.074646,557.434509
z"/>
<path fill="#EAEAEA" opacity="1.000000" stroke="none"
	d="
M902.975098,324.770752
	C890.052368,327.034302 877.205261,329.767639 864.225769,330.746643
	C851.090271,331.737366 837.786926,331.620026 824.623901,330.848785
	C808.017151,329.875793 791.473328,327.795776 774.911316,326.104797
	C762.075195,324.794250 749.231140,323.520813 736.430664,321.912231
	C724.122253,320.365448 711.859558,318.447479 699.587036,316.623596
	C682.591309,314.097809 665.598083,311.553131 648.619202,308.917084
	C643.450012,308.114502 638.331726,306.983734 633.114990,305.243561
	C633.071289,304.212982 633.102783,303.942108 633.134277,303.671204
	C655.156799,306.945984 677.147400,310.457001 699.209106,313.442322
	C735.769470,318.389526 772.294250,323.806915 808.987488,327.502075
	C840.116394,330.636902 871.377441,329.864258 902.625122,323.258392
	C903.021790,323.672821 903.007202,324.071930 902.975098,324.770752
z"/>
<path fill="#CFCFCF" opacity="1.000000" stroke="none"
	d="
M181.114746,638.482361
	C180.276825,638.914001 179.294281,639.023804 178.097519,639.157532
	C185.382217,646.751465 194.995544,650.143799 203.968567,654.531555
	C209.984787,657.473389 216.085236,660.447021 222.456192,662.402100
	C228.806229,664.350708 235.563904,664.936951 242.100281,666.321472
	C248.878723,667.757324 255.531921,670.100281 262.371796,670.862183
	C275.135620,672.283936 287.703094,674.916382 300.720856,676.928467
	C300.997772,677.656433 300.999725,677.837463 301.001709,678.018555
	C283.237274,677.575928 265.686676,675.539490 248.388016,671.336609
	C237.466751,668.683167 226.229645,667.099670 215.554688,663.711548
	C194.902145,657.156555 175.858109,647.521912 161.335632,630.698181
	C161.048920,630.366028 160.930054,629.888855 160.234436,628.444031
	C167.723129,631.953125 174.346619,635.056824 181.114746,638.482361
z"/>
<path fill="#E1E1E1" opacity="1.000000" stroke="none"
	d="
M532.005066,581.981201
	C532.005066,581.981201 531.514282,581.940308 531.137817,581.703247
	C530.476807,581.268738 530.192139,581.071411 529.907532,580.874023
	C531.389648,580.336426 533.030640,579.094116 534.325806,579.386169
	C539.311890,580.510193 544.164368,582.212158 549.113098,583.523193
	C551.889221,584.258667 552.453491,585.946655 551.706360,588.373474
	C548.399170,599.115723 544.127625,609.281555 535.577820,617.136108
	C527.196533,624.835938 519.506226,633.390137 508.361389,637.575684
	C510.047821,635.182556 512.050232,633.118469 514.052673,631.054382
	C516.607544,629.244934 519.162415,627.435486 522.191284,625.182617
	C523.885254,623.970276 525.246033,623.357910 526.303406,622.407898
	C536.064697,613.637390 543.573608,603.316345 547.500488,590.667664
	C548.545837,587.300598 546.627319,584.900940 543.595154,584.054504
	C539.832092,583.004150 535.877136,582.641113 532.005066,581.981201
z"/>
<path fill="#EAEAEA" opacity="1.000000" stroke="none"
	d="
M390.000977,651.008423
	C384.740753,652.462585 379.550629,654.261963 374.237488,654.767151
	C355.033020,656.593201 335.792969,658.063171 316.552704,659.482239
	C311.883759,659.826477 307.162537,659.461853 302.226074,659.180908
	C301.729614,658.474426 301.472412,658.010193 301.114563,657.298950
	C313.194580,656.580750 325.418396,656.596802 337.545532,655.521729
	C354.833893,653.989319 372.051300,651.656799 389.691772,649.719421
	C390.078705,650.103149 390.055389,650.432129 390.000977,651.008423
z"/>
<path fill="#C9C9C9" opacity="1.000000" stroke="none"
	d="
M445.969513,661.923218
	C446.195435,657.224915 450.637299,658.383179 453.058075,657.325317
	C464.239777,652.438965 475.658630,648.088745 487.046265,643.685547
	C489.309509,642.810425 491.808685,642.545410 494.547180,642.354004
	C491.447052,644.475525 487.968506,646.185974 484.559753,648.025757
	C481.655273,649.593262 478.831177,651.309692 475.971527,652.960205
	C475.971527,652.960205 475.487518,652.980408 474.859436,653.022949
	C472.520782,653.533386 470.703400,653.777100 469.127472,654.527771
	C467.279205,655.408081 465.640869,656.729248 463.911499,657.859314
	C463.485992,657.885742 463.060455,657.912170 462.102325,657.703125
	C456.369629,658.952820 451.169556,660.437988 445.969513,661.923218
z"/>
<path fill="#CFCFCF" opacity="1.000000" stroke="none"
	d="
M356.991333,676.890808
	C358.724213,675.935120 360.388977,674.322937 362.201477,674.135010
	C371.063263,673.216003 379.980682,672.837158 388.844757,671.935974
	C393.297607,671.483154 397.665894,670.245117 402.099731,669.532166
	C403.470184,669.311768 404.930695,669.651306 406.524780,670.132080
	C406.131805,671.044861 405.564026,671.560059 404.996216,672.075317
	C404.577850,672.084778 404.159485,672.094238 403.114746,672.085754
	C401.992249,672.379517 401.496124,672.691345 401.000000,673.003113
	C399.573578,673.305603 398.147156,673.608093 396.128662,673.662842
	C394.354523,673.638489 393.172485,673.861755 391.990448,674.085022
	C391.575165,674.094238 391.159851,674.103455 390.051697,674.075439
	C388.214233,674.635254 387.069641,675.232239 385.925018,675.829163
	C384.872955,675.855713 383.820862,675.882263 382.179260,675.661255
	C380.726044,675.611511 379.862427,675.809326 378.998779,676.007141
	C378.250305,676.020752 377.501831,676.034424 376.233704,675.807007
	C375.139191,675.741882 374.564392,675.917725 373.989563,676.093506
	C373.572998,676.095154 373.156403,676.096741 371.994843,676.070435
	C369.142090,676.637512 367.034332,677.232605 364.926544,677.827637
	C364.197388,677.846802 363.468201,677.865967 362.172516,677.634277
	C360.738739,677.578735 359.871460,677.774109 359.004211,677.969482
	C358.558777,677.986816 358.113373,678.004211 357.335785,677.734741
	C356.999512,677.262207 356.995422,677.076538 356.991333,676.890808
z"/>
<path fill="#CFCFCF" opacity="1.000000" stroke="none"
	d="
M525.394287,387.057648
	C526.246277,385.595001 527.460876,384.107788 528.838135,382.307495
	C529.318787,381.527191 529.636902,381.059967 530.301147,380.295044
	C531.431458,379.331573 532.215698,378.665771 533.000000,378.000000
	C533.088623,377.672882 533.268982,377.408295 534.097717,377.071350
	C536.106812,375.615021 537.559143,374.293518 539.011536,372.972015
	C539.011536,372.972015 539.478638,372.969452 539.996826,372.799866
	C541.678040,371.091461 542.841003,369.552643 544.003967,368.013824
	C544.003906,367.844788 544.003906,367.675781 544.255005,367.252808
	C544.673950,366.997833 544.841858,366.996735 545.009827,366.995667
	C545.594727,366.507141 546.179565,366.018646 547.249756,365.261047
	C549.816406,363.987671 551.897827,362.983368 553.999023,361.999298
	C554.018860,362.019531 554.058105,362.060364 554.058105,362.060364
	C550.474304,365.765289 547.130310,369.747070 543.249634,373.109406
	C537.622070,377.985352 531.606812,382.413757 525.394287,387.057648
z"/>
<path fill="#E1E1E1" opacity="1.000000" stroke="none"
	d="
M476.372955,652.981445
	C478.831177,651.309692 481.655273,649.593262 484.559753,648.025757
	C487.968506,646.185974 491.447052,644.475525 494.953705,642.359863
	C495.012085,642.010803 495.000977,642.002502 495.373840,641.973511
	C499.202423,640.674988 502.658142,639.405396 506.113892,638.135864
	C502.991211,640.350769 500.100067,643.050293 496.696198,644.676636
	C490.210205,647.775635 483.431519,650.261902 476.372955,652.981445
z"/>
<path fill="#C9C9C9" opacity="1.000000" stroke="none"
	d="
M506.420227,638.102966
	C502.658142,639.405396 499.202423,640.674988 495.378387,641.978516
	C495.721344,640.990479 496.212891,639.625366 497.181366,639.005127
	C501.753387,636.077637 506.433411,633.314880 511.142120,630.610413
	C511.693176,630.293884 512.658997,630.699585 513.742615,630.912476
	C512.050232,633.118469 510.047821,635.182556 507.998901,637.588989
	C507.543854,637.977600 507.135223,638.023865 506.420227,638.102966
z"/>
<path fill="#CFCFCF" opacity="1.000000" stroke="none"
	d="
M409.004211,670.025513
	C410.969849,665.151672 415.847717,668.045166 419.136108,666.377319
	C421.206787,665.327087 424.265411,666.224792 426.730377,666.722778
	C426.386261,667.473633 426.192596,667.750366 425.998932,668.027100
	C424.229309,668.635925 422.459656,669.244690 420.091034,669.605591
	C418.302307,669.846985 417.112579,670.336304 415.922821,670.825562
	C415.493805,670.858887 415.064819,670.892273 414.106873,670.685547
	C412.053345,670.305481 410.528778,670.165466 409.004211,670.025513
z"/>
<path fill="#CFCFCF" opacity="1.000000" stroke="none"
	d="
M559.998169,354.008789
	C559.998169,354.008789 560.495422,354.002533 561.048706,353.854584
	C564.726562,351.798187 567.851013,349.889740 570.998779,348.002014
	C571.022034,348.022705 571.066650,348.066010 571.066650,348.066010
	C565.644226,352.721527 560.221802,357.377045 554.428711,362.046448
	C554.058105,362.060364 554.018860,362.019531 554.043762,361.656494
	C556.045166,358.865204 558.021667,356.437012 559.998169,354.008789
z"/>
<path fill="#CFCFCF" opacity="1.000000" stroke="none"
	d="
M341.018127,675.022888
	C345.177063,675.485596 349.336029,675.948364 353.744690,676.945679
	C353.996643,677.657410 353.998901,677.834534 354.001160,678.011658
	C350.680908,678.045105 347.360657,678.078552 343.217163,678.081665
	C341.892609,678.070374 341.391296,678.089417 340.889984,678.108459
	C340.494934,678.113098 340.099915,678.117737 339.174286,677.993774
	C338.429626,677.581482 338.215546,677.297852 338.001465,677.014221
	C338.876953,676.185791 339.752472,675.357361 340.662537,674.816406
	C340.650299,675.196899 340.603485,675.289978 340.556671,675.382996
	C340.710480,675.262939 340.864319,675.142944 341.018127,675.022888
z"/>
<path fill="#E1E1E1" opacity="1.000000" stroke="none"
	d="
M445.651276,661.966125
	C451.169556,660.437988 456.369629,658.952820 461.782806,657.716187
	C455.933228,659.968811 449.870575,661.972900 443.386169,663.711731
	C442.960114,663.279663 442.955719,663.112915 442.951355,662.946106
	C443.745239,662.633728 444.539124,662.321411 445.651276,661.966125
z"/>
<path fill="#CFCFCF" opacity="1.000000" stroke="none"
	d="
M442.590820,662.798157
	C442.955719,663.112915 442.960114,663.279663 442.965332,663.696045
	C441.587860,664.310852 440.209564,664.676086 438.101013,665.025146
	C436.579010,665.351868 435.787323,665.694824 434.995667,666.037781
	C433.630951,666.063171 432.266235,666.088562 430.495361,666.132568
	C433.332764,662.197815 437.410980,661.139038 442.590820,662.798157
z"/>
<path fill="#E1E1E1" opacity="1.000000" stroke="none"
	d="
M322.997498,677.066467
	C323.747742,677.055298 324.497955,677.044128 325.837921,677.294189
	C327.617767,678.035156 328.807922,678.514771 329.998047,678.994385
	C325.376709,678.976807 320.755341,678.959290 316.418579,678.499878
	C318.801270,677.727539 320.899384,677.396973 322.997498,677.066467
z"/>
<path fill="#CFCFCF" opacity="1.000000" stroke="none"
	d="
M322.843079,676.742798
	C320.899384,677.396973 318.801270,677.727539 316.273163,678.127136
	C314.816162,678.148315 313.789185,678.100403 312.375977,678.010986
	C315.009583,673.681091 318.875977,675.235474 322.843079,676.742798
z"/>
<path fill="#E1E1E1" opacity="1.000000" stroke="none"
	d="
M464.294891,657.871277
	C465.640869,656.729248 467.279205,655.408081 469.127472,654.527771
	C470.703400,653.777100 472.520782,653.533386 474.617432,653.034119
	C471.561768,654.629578 468.120026,656.256409 464.294891,657.871277
z"/>
<path fill="#CECECE" opacity="1.000000" stroke="none"
	d="
M579.632751,337.006836
	C578.360596,339.137604 576.721191,341.277618 575.039062,343.766479
	C574.591187,344.136139 574.185913,344.156921 573.479980,344.162842
	C572.916748,339.815430 576.435242,338.709412 579.632751,337.006836
z"/>
<path fill="#CFCFCF" opacity="1.000000" stroke="none"
	d="
M302.998413,676.946167
	C305.520752,673.536926 307.716522,675.411499 309.956055,677.731567
	C307.916168,678.331055 305.827148,678.572083 303.393219,678.503540
	C303.031708,677.778015 303.015076,677.362122 302.998413,676.946167
z"/>
<path fill="#E1E1E1" opacity="1.000000" stroke="none"
	d="
M408.674438,670.022095
	C410.528778,670.165466 412.053345,670.305481 413.783997,670.686279
	C411.168732,671.482117 408.347351,672.037170 405.261108,672.333740
	C405.564026,671.560059 406.131805,671.044861 406.863281,670.287598
	C407.466187,670.036560 407.905426,670.027588 408.674438,670.022095
z"/>
<path fill="#E1E1E1" opacity="1.000000" stroke="none"
	d="
M337.625366,677.017151
	C338.215546,677.297852 338.429626,677.581482 338.878235,678.005493
	C336.914185,678.606384 334.715607,679.066956 332.254211,679.001038
	C331.991364,678.474548 331.988129,677.985413 331.988129,677.985413
	C331.988129,677.985413 332.000000,678.000000 332.330933,677.997986
	C333.438904,677.681763 334.215942,677.367615 334.993011,677.053467
	C335.745087,677.042358 336.497162,677.031189 337.625366,677.017151
z"/>
<path fill="#E1E1E1" opacity="1.000000" stroke="none"
	d="
M365.353149,677.884155
	C367.034332,677.232605 369.142090,676.637512 371.682495,676.079285
	C370.003357,676.724243 367.891571,677.332397 365.353149,677.884155
z"/>
<path fill="#CFCFCF" opacity="1.000000" stroke="none"
	d="
M331.678101,677.831909
	C331.988129,677.985413 331.991364,678.474548 331.996826,678.718750
	C331.556976,678.978516 331.111725,678.994202 330.332245,679.002075
	C328.807922,678.514771 327.617767,678.035156 326.213074,677.301270
	C327.788361,677.257568 329.578217,677.467957 331.678101,677.831909
z"/>
<path fill="#EAEAEA" opacity="1.000000" stroke="none"
	d="
M629.004456,305.034363
	C627.690857,304.949921 626.377319,304.865509 624.937134,304.478638
	C625.441406,303.924866 626.072205,303.673553 626.883179,303.132721
	C627.501770,302.846313 627.940186,302.849426 628.682861,303.288452
	C628.992920,304.161072 628.998718,304.597717 629.004456,305.034363
z"/>
<path fill="#E1E1E1" opacity="1.000000" stroke="none"
	d="
M416.300598,670.873779
	C417.112579,670.336304 418.302307,669.846985 419.727966,669.581421
	C418.868683,670.177368 417.773560,670.549683 416.300598,670.873779
z"/>
<path fill="#E1E1E1" opacity="1.000000" stroke="none"
	d="
M392.216492,674.329224
	C393.172485,673.861755 394.354523,673.638489 395.760101,673.657166
	C394.803284,674.123901 393.622894,674.348633 392.216492,674.329224
z"/>
<path fill="#E1E1E1" opacity="1.000000" stroke="none"
	d="
M386.301636,675.877869
	C387.069641,675.232239 388.214233,674.635254 389.740204,674.081299
	C388.973785,674.725037 387.825989,675.325806 386.301636,675.877869
z"/>
<path fill="#E1E1E1" opacity="1.000000" stroke="none"
	d="
M426.200592,668.276367
	C426.192596,667.750366 426.386261,667.473633 426.805756,667.071777
	C427.474945,666.954834 427.918274,666.963013 428.693481,667.001404
	C428.151001,667.529602 427.276642,668.027649 426.200592,668.276367
z"/>
<path fill="#E1E1E1" opacity="1.000000" stroke="none"
	d="
M435.202576,666.277649
	C435.787323,665.694824 436.579010,665.351868 437.719604,665.035645
	C437.182159,665.547424 436.295837,666.032471 435.202576,666.277649
z"/>
<path fill="#E1E1E1" opacity="1.000000" stroke="none"
	d="
M354.182922,678.260010
	C353.998901,677.834534 353.996643,677.657410 353.997864,677.214111
	C354.749176,676.943115 355.496948,676.938354 356.618042,676.912231
	C356.995422,677.076538 356.999512,677.262207 357.001465,677.726624
	C356.121124,678.172974 355.242920,678.340637 354.182922,678.260010
z"/>
<path fill="#CECECE" opacity="1.000000" stroke="none"
	d="
M569.985352,345.986267
	C570.794495,345.345673 571.603699,344.705109 572.779541,344.122070
	C573.143188,344.584808 573.140137,344.990021 572.713745,345.697632
	C571.522034,345.995453 570.753723,345.990875 569.985352,345.986267
z"/>
<path fill="#E1E1E1" opacity="1.000000" stroke="none"
	d="
M379.189362,676.253662
	C379.862427,675.809326 380.726044,675.611511 381.784546,675.641052
	C381.112946,676.078979 380.246429,676.289551 379.189362,676.253662
z"/>
<path fill="#E1E1E1" opacity="1.000000" stroke="none"
	d="
M359.169617,678.210327
	C359.871460,677.774109 360.738739,677.578735 361.808716,677.601562
	C361.119263,678.030212 360.227142,678.240662 359.169617,678.210327
z"/>
<path fill="#CFCFCF" opacity="1.000000" stroke="none"
	d="
M569.990295,345.990601
	C570.753723,345.990875 571.522034,345.995453 572.675903,346.001221
	C572.606873,346.652863 572.152344,347.303314 571.382263,348.009888
	C571.066650,348.066010 571.022034,348.022705 570.896973,347.742767
	C570.508911,346.970673 570.245911,346.478516 569.982971,345.986359
	C569.982971,345.986359 569.995239,345.994904 569.990295,345.990601
z"/>
<path fill="#E1E1E1" opacity="1.000000" stroke="none"
	d="
M340.960632,678.389282
	C341.391296,678.089417 341.892609,678.070374 342.768738,678.102478
	C342.439453,678.325745 341.735352,678.497864 340.960632,678.389282
z"/>
<path fill="#E1E1E1" opacity="1.000000" stroke="none"
	d="
M302.665802,676.953308
	C303.015076,677.362122 303.031708,677.778015 303.072266,678.501465
	C302.516296,678.709106 301.936432,678.609253 301.179138,678.263977
	C300.999725,677.837463 300.997772,677.656433 300.999390,677.202942
	C301.446411,676.940491 301.889801,676.950500 302.665802,676.953308
z"/>
<path fill="#E1E1E1" opacity="1.000000" stroke="none"
	d="
M374.143280,676.306152
	C374.564392,675.917725 375.139191,675.741882 375.859344,675.801880
	C375.435455,676.198059 374.866211,676.358398 374.143280,676.306152
z"/>
<path fill="#E1E1E1" opacity="1.000000" stroke="none"
	d="
M401.168213,673.227173
	C401.496124,672.691345 401.992249,672.379517 402.800873,672.089172
	C402.521057,672.557434 401.928741,673.004333 401.168213,673.227173
z"/>
<path fill="#C9C9C9" opacity="1.000000" stroke="none"
	d="
M529.688660,581.069702
	C530.192139,581.071411 530.476807,581.268738 530.891968,581.690125
	C530.485962,582.246155 529.949341,582.578125 529.073425,582.878113
	C528.979309,582.319214 529.224548,581.792297 529.688660,581.069702
z"/>
<path fill="#FFFFFF" opacity="1.000000" stroke="none"
	d="
M629.399353,305.056580
	C628.998718,304.597717 628.992920,304.161072 628.998657,303.397278
	C630.178040,303.158691 631.345886,303.247253 632.824036,303.503510
	C633.102783,303.942108 633.071289,304.212982 632.991089,304.892487
	C631.893066,305.226990 630.843628,305.152924 629.399353,305.056580
z"/>
<path fill="#FCFCFC" opacity="1.000000" stroke="none"
	d="
M1253.195557,247.669968
	C1257.951904,251.553635 1259.471069,255.666702 1257.571167,260.020386
	C1255.537842,264.679901 1251.834595,266.446716 1246.704224,266.181641
	C1244.938232,266.090363 1242.673584,267.304321 1241.332031,268.627136
	C1227.106934,282.653015 1213.024658,296.823639 1198.894531,310.945953
	C1197.618286,312.221405 1196.283081,313.437897 1194.612183,315.027130
	C1193.114258,313.116302 1191.803223,311.443787 1190.216553,309.419708
	C1190.957397,308.599762 1191.972534,307.374420 1193.091797,306.253265
	C1207.442261,291.880310 1221.838013,277.552094 1236.114990,263.106659
	C1237.329956,261.877411 1238.542114,259.849701 1238.456787,258.262604
	C1237.976807,249.327103 1244.418701,244.362076 1253.195557,247.669968
z"/>
<path fill="#FFFFFF" opacity="1.000000" stroke="none"
	d="
M1096.887573,304.886169
	C1097.050903,304.813965 1097.403320,304.929901 1097.608887,305.244202
	C1097.333740,305.319824 1097.205078,305.197083 1096.887573,304.886169
z"/>
<path fill="#CECECE" opacity="1.000000" stroke="none"
	d="
M559.801575,353.769043
	C558.021667,356.437012 556.045166,358.865204 554.023926,361.636230
	C551.897827,362.983368 549.816406,363.987671 547.371216,364.995972
	C551.206543,361.176422 555.405762,357.352844 559.801575,353.769043
z"/>
<path fill="#CECECE" opacity="1.000000" stroke="none"
	d="
M569.616577,345.994446
	C570.245911,346.478516 570.508911,346.970673 570.873657,347.722046
	C567.851013,349.889740 564.726562,351.798187 561.297363,353.852570
	C561.395264,348.906403 565.638977,347.781097 569.616577,345.994446
z"/>
<path fill="#CECECE" opacity="1.000000" stroke="none"
	d="
M538.792358,372.713593
	C537.559143,374.293518 536.106812,375.615021 534.316162,376.963074
	C534.200500,374.151459 534.824951,371.720490 538.792358,372.713593
z"/>
<path fill="#CECECE" opacity="1.000000" stroke="none"
	d="
M543.647217,368.049438
	C542.841003,369.552643 541.678040,371.091461 540.230347,372.802368
	C539.410645,372.116364 538.875610,371.258240 538.354065,370.421753
	C539.772095,369.750519 541.531250,368.917786 543.647217,368.049438
z"/>
<path fill="#CECECE" opacity="1.000000" stroke="none"
	d="
M532.646240,378.005615
	C532.215698,378.665771 531.431458,379.331573 530.326538,379.998688
	C530.768127,379.337097 531.530334,378.674194 532.646240,378.005615
z"/>
<path fill="#CECECE" opacity="1.000000" stroke="none"
	d="
M544.899841,366.796814
	C544.841858,366.996735 544.673950,366.997833 544.254272,366.999268
	C543.895081,366.771790 543.787720,366.543945 543.680359,366.316101
	C544.050171,366.410034 544.420044,366.503998 544.899841,366.796814
z"/>
<path fill="#C9C9C9" opacity="1.000000" stroke="none"
	d="
M532.160645,582.296021
	C535.877136,582.641113 539.832092,583.004150 543.595154,584.054504
	C546.627319,584.900940 548.545837,587.300598 547.500488,590.667664
	C543.573608,603.316345 536.064697,613.637390 526.303406,622.407898
	C525.246033,623.357910 523.885254,623.970276 522.344238,624.883789
	C522.066650,621.966248 523.875854,620.527771 526.146484,618.499451
	C530.192444,614.885132 533.147583,609.967773 536.211548,605.364258
	C538.355225,602.143555 539.934937,598.545532 541.741699,595.103088
	C544.368652,590.097839 543.240784,587.640930 537.863342,585.750916
	C535.890137,585.057373 534.158203,583.677551 532.160645,582.296021
z"/>
<path fill="#CFCFCF" opacity="1.000000" stroke="none"
	d="
M334.955322,676.735229
	C334.215942,677.367615 333.438904,677.681763 332.325745,677.991577
	C332.777679,675.185059 333.268494,674.921814 334.955322,676.735229
z"/>
<path fill="#BFBFBF" opacity="1.000000" stroke="none"
	d="
M341.009125,675.011841
	C340.864319,675.142944 340.710480,675.262939 340.556671,675.382996
	C340.603485,675.289978 340.650299,675.196899 340.837646,675.043396
	C340.978149,674.982910 341.000122,675.000793 341.009125,675.011841
z"/>
</svg>

